<svg  viewBox="0 0 24 24" fill="white" xmlns="http://www.w3.org/2000/svg">
<path d="M12 22.008C10.662 22.0155 9.3372 21.744 8.10998 21.211C6.91876 20.714 5.83588 19.9895 4.92198 19.078C4.01061 18.1644 3.28609 17.0819 2.78898 15.891C2.25582 14.6635 1.98438 13.3383 1.99198 12C1.98452 10.6621 2.25596 9.33723 2.78898 8.11001C3.28603 6.91881 4.01054 5.83595 4.92198 4.92201C5.83562 4.01068 6.91814 3.28617 8.10898 2.78901C9.3365 2.25585 10.6617 1.98441 12 1.99201C13.3379 1.98455 14.6628 2.25599 15.89 2.78901C17.0812 3.28603 18.1641 4.01055 19.078 4.92201C19.9893 5.83562 20.7139 6.91814 21.211 8.10901C21.7441 9.33654 22.0156 10.6617 22.008 12C22.0154 13.338 21.744 14.6628 21.211 15.89C20.714 17.0812 19.9895 18.1641 19.078 19.078C18.1644 19.9894 17.0819 20.7139 15.891 21.211C14.6634 21.7442 13.3383 22.0156 12 22.008ZM13.523 9.53901C13.5969 9.46999 13.6559 9.38655 13.6963 9.29385C13.7367 9.20115 13.7577 9.10114 13.758 9.00001C13.7579 8.89871 13.7369 8.79851 13.6965 8.70562C13.6561 8.61274 13.597 8.52914 13.523 8.46001C13.4522 8.39013 13.3679 8.33545 13.2752 8.29934C13.1825 8.26323 13.0834 8.24644 12.984 8.25001C12.8883 8.24802 12.7933 8.26563 12.7048 8.30175C12.6162 8.33786 12.5359 8.39172 12.469 8.46001L9.81998 11.11C9.58598 11.36 9.46898 11.656 9.46898 12C9.46898 12.344 9.58598 12.64 9.81998 12.89L12.469 15.54C12.609 15.68 12.781 15.75 12.984 15.75C13.0836 15.7537 13.1828 15.737 13.2757 15.7009C13.3686 15.6648 13.4531 15.61 13.524 15.54C13.5978 15.4708 13.6566 15.3871 13.6969 15.2942C13.7371 15.2014 13.7579 15.1012 13.758 15C13.7578 14.8987 13.7368 14.7985 13.6964 14.7057C13.656 14.6128 13.597 14.5292 13.523 14.46L11.063 12L13.523 9.54001V9.53901Z" />
</svg>
