<svg  viewBox="0 0 24 24" fill="white" xmlns="http://www.w3.org/2000/svg">
<path d="M6.008 16.2422C6.008 16.0392 6.078 15.8672 6.218 15.7272C6.28523 15.6508 6.36847 15.5901 6.4618 15.5495C6.55513 15.5089 6.65626 15.4894 6.758 15.4922H18.242C18.461 15.4922 18.641 15.5702 18.782 15.7272C18.922 15.8672 18.992 16.0392 18.992 16.2422C18.9957 16.3418 18.979 16.4411 18.9429 16.534C18.9068 16.6268 18.852 16.7113 18.782 16.7822C18.7111 16.8522 18.6266 16.907 18.5337 16.9431C18.4409 16.9792 18.3416 16.9959 18.242 16.9922H6.758C6.65842 16.9959 6.55914 16.9792 6.46627 16.9431C6.3734 16.907 6.28891 16.8522 6.218 16.7822C6.14799 16.7113 6.09325 16.6268 6.05713 16.534C6.02102 16.4411 6.00429 16.3418 6.008 16.2422Z" />
<path d="M6.46191 11.3071C6.55524 11.2666 6.65632 11.2472 6.75798 11.2502H18.242C18.3437 11.2472 18.4447 11.2666 18.5381 11.3071C18.6314 11.3475 18.7147 11.408 18.782 11.4842C18.8504 11.5513 18.9043 11.6317 18.9404 11.7205C18.9766 11.8092 18.9941 11.9044 18.992 12.0002C18.9937 12.2005 18.9185 12.3938 18.782 12.5402C18.7111 12.6102 18.6266 12.665 18.5337 12.7011C18.4408 12.7372 18.3416 12.7539 18.242 12.7502H6.75798C6.53898 12.7502 6.35898 12.6802 6.21798 12.5402C6.07798 12.3832 6.00798 12.2032 6.00798 12.0002C6.00586 11.9044 6.0234 11.8092 6.05952 11.7205C6.09564 11.6317 6.14957 11.5513 6.21798 11.4842C6.28531 11.408 6.36859 11.3475 6.46191 11.3071Z" />
<path d="M6.05708 7.46653C6.02097 7.5594 6.00425 7.65868 6.00795 7.75826C6.00623 7.95851 6.08139 8.15078 6.21795 8.29726C6.28886 8.36726 6.37335 8.42201 6.46622 8.45812C6.55909 8.49424 6.65837 8.51096 6.75795 8.50726H18.242C18.3415 8.51096 18.4408 8.49424 18.5337 8.45812C18.6265 8.42201 18.711 8.36726 18.782 8.29726C18.922 8.14126 18.992 7.96126 18.992 7.75826C18.992 7.53926 18.922 7.35926 18.782 7.21826C18.711 7.14825 18.6265 7.0935 18.5337 7.05739C18.4408 7.02127 18.3415 7.00455 18.242 7.00826H6.75795C6.65837 7.00455 6.55909 7.02127 6.46622 7.05739C6.37335 7.0935 6.28886 7.14825 6.21795 7.21826C6.14795 7.28917 6.0932 7.37366 6.05708 7.46653Z" />
</svg>
