<svg  viewBox="0 0 24 24" fill="white" xmlns="http://www.w3.org/2000/svg">
<path d="M19.078 19.078C18.1345 20.02 17.0103 20.7615 15.773 21.258C14.539 21.758 13.281 22.008 12 22.008C10.7056 22.0053 9.42406 21.7506 8.227 21.258C6.98969 20.7615 5.86551 20.02 4.922 19.078C3.98 18.1345 3.23848 17.0103 2.742 15.773C2.24942 14.576 1.99468 13.2944 1.992 12C1.992 10.719 2.242 9.46 2.742 8.227C3.23853 6.98969 3.98004 5.86551 4.922 4.922C5.86551 3.98004 6.98969 3.23853 8.227 2.742C9.42406 2.24945 10.7056 1.9947 12 1.992C13.281 1.992 14.54 2.242 15.773 2.742C17.0103 3.23848 18.1345 3.98 19.078 4.922C20.02 5.86551 20.7615 6.98969 21.258 8.227C21.7506 9.42406 22.0053 10.7056 22.008 12C22.008 13.281 21.758 14.54 21.258 15.773C20.7615 17.0103 20.02 18.1345 19.078 19.078ZM9.516 8.461C9.449 8.39241 9.36863 8.3383 9.27988 8.302C9.19113 8.26571 9.09587 8.24801 9 8.25C8.79976 8.24828 8.60648 8.32344 8.46 8.46C8.32344 8.60648 8.24828 8.79976 8.25 9C8.25 9.203 8.32 9.375 8.46 9.516L10.946 12L8.462 14.484C8.39323 14.5509 8.33893 14.6313 8.30246 14.72C8.266 14.8088 8.24814 14.9041 8.25 15C8.25 15.203 8.32 15.383 8.46 15.54C8.617 15.68 8.797 15.75 9 15.75C9.203 15.75 9.375 15.68 9.516 15.54L12 13.054L14.484 15.538C14.625 15.678 14.797 15.749 15 15.749C15.203 15.749 15.383 15.679 15.54 15.539C15.6766 15.3925 15.7517 15.1993 15.75 14.999C15.7521 14.9032 15.7346 14.808 15.6985 14.7192C15.6623 14.6305 15.6084 14.5501 15.54 14.483L13.054 12L15.538 9.516C15.678 9.375 15.749 9.203 15.749 9C15.7507 8.79976 15.6756 8.60648 15.539 8.46C15.3925 8.32344 15.1993 8.24828 14.999 8.25C14.9032 8.24788 14.808 8.26543 14.7192 8.30154C14.6305 8.33766 14.5501 8.39159 14.483 8.46L12 10.946L9.516 8.461Z" />
</svg>
