<svg  viewBox="0 0 24 24"  xmlns="http://www.w3.org/2000/svg">
<path d="M12.797 4.219C12.7224 4.28236 12.6627 4.36133 12.6221 4.45033C12.5815 4.53933 12.561 4.63618 12.562 4.734C12.562 4.938 12.641 5.109 12.797 5.25L19.102 11.273H2.76597C2.55822 11.2687 2.35672 11.3442 2.20297 11.484C2.13456 11.5511 2.08063 11.6315 2.04451 11.7202C2.00839 11.809 1.99085 11.9042 1.99297 12C1.99297 12.203 2.06297 12.375 2.20297 12.516C2.35897 12.656 2.54697 12.726 2.76597 12.726H19.102L12.797 18.75C12.7223 18.8135 12.6625 18.8926 12.6219 18.9818C12.5813 19.071 12.5608 19.168 12.562 19.266C12.562 19.469 12.641 19.641 12.797 19.781C12.937 19.921 13.109 19.992 13.312 19.992C13.532 19.992 13.719 19.922 13.875 19.782L22.008 12L13.875 4.219C13.7212 4.07922 13.5197 4.00371 13.312 4.008C13.2163 4.00602 13.1213 4.02363 13.0328 4.05974C12.9442 4.09586 12.8639 4.14971 12.797 4.218V4.219Z"/>
</svg>
