<svg  viewBox="0 0 24 24" fill="white" xmlns="http://www.w3.org/2000/svg">
<path d="M10.43 9.54C10.356 9.47087 10.2969 9.38727 10.2565 9.29438C10.2161 9.2015 10.1951 9.1013 10.195 9C10.1951 8.8987 10.2161 8.7985 10.2565 8.70562C10.2969 8.61273 10.356 8.52913 10.43 8.46C10.57 8.32 10.742 8.25 10.945 8.25C11.148 8.25 11.328 8.32 11.485 8.46L14.485 11.46C14.625 11.617 14.695 11.797 14.695 12C14.695 12.203 14.625 12.383 14.485 12.54L11.485 15.54C11.3385 15.6766 11.1453 15.7517 10.945 15.75C10.8494 15.752 10.7544 15.7344 10.6658 15.6983C10.5772 15.6621 10.497 15.6083 10.43 15.54C10.356 15.4708 10.297 15.3872 10.2566 15.2943C10.2161 15.2015 10.1952 15.1013 10.195 15C10.195 14.797 10.273 14.617 10.43 14.46L12.89 12L10.43 9.54Z" />
</svg>
