<svg  viewBox="0 0 24 24" fill="white" xmlns="http://www.w3.org/2000/svg">
<path d="M22.008 12C22.0154 10.6621 21.744 9.33723 21.211 8.11001C20.714 6.91879 19.9895 5.83591 19.078 4.92201C18.1643 4.01066 17.0818 3.28615 15.891 2.78901C14.6634 2.25585 13.3383 1.98441 12 1.99201C10.662 1.98455 9.3372 2.25599 8.10998 2.78901C6.91878 3.28606 5.83592 4.01057 4.92198 4.92201C4.01065 5.83565 3.28614 6.91817 2.78898 8.10901C2.25582 9.33654 1.98438 10.6617 1.99198 12C1.98452 13.338 2.25596 14.6628 2.78898 15.89C3.28598 17.0812 4.0105 18.1641 4.92198 19.078C5.83559 19.9894 6.91811 20.7139 8.10898 21.211C9.3365 21.7442 10.6617 22.0156 12 22.008C13.3379 22.0155 14.6628 21.744 15.89 21.211C17.0812 20.714 18.1641 19.9895 19.078 19.078C19.9894 18.1644 20.7139 17.0819 21.211 15.891C21.7441 14.6635 22.0156 13.3383 22.008 12ZM20.508 12C20.5151 13.1371 20.2834 14.2631 19.828 15.305C19.4006 16.3209 18.7797 17.244 18 18.023C17.2271 18.7937 16.3118 19.4067 15.305 19.828C14.263 20.2835 13.1371 20.5151 12 20.508C10.8629 20.5151 9.73691 20.2835 8.69498 19.828C7.68323 19.4032 6.76101 18.7907 5.97698 18.023C5.20929 17.2389 4.59685 16.3167 4.17198 15.305C3.7165 14.2631 3.48484 13.1371 3.49198 12C3.49198 10.828 3.71898 9.72701 4.17198 8.69501C4.59329 7.68818 5.20633 6.77287 5.97698 6.00001C6.75594 5.22028 7.67907 4.59943 8.69498 4.17201C9.73691 3.71653 10.8629 3.48487 12 3.49201C13.172 3.49201 14.273 3.71901 15.305 4.17201C16.316 4.59587 17.2323 5.21736 18 6.00001C18.7826 6.76772 19.4041 7.68396 19.828 8.69501C20.2834 9.73694 20.5151 10.8629 20.508 12Z" />
<path d="M12.6931 7.46193C12.7336 7.55526 12.753 7.65634 12.75 7.75801V11.25H16.242C16.3436 11.247 16.4447 11.2664 16.538 11.3068C16.6314 11.3473 16.7146 11.4078 16.782 11.484C16.8504 11.5511 16.9043 11.6315 16.9404 11.7203C16.9765 11.809 16.9941 11.9042 16.992 12C16.9937 12.2003 16.9185 12.3935 16.782 12.54C16.711 12.61 16.6266 12.6648 16.5337 12.7009C16.4408 12.737 16.3415 12.7537 16.242 12.75H12.75V16.242C12.753 16.3437 12.7336 16.4448 12.6931 16.5381C12.6527 16.6314 12.5922 16.7147 12.516 16.782C12.375 16.922 12.203 16.992 12 16.992C11.797 16.992 11.617 16.922 11.46 16.782C11.32 16.641 11.25 16.461 11.25 16.242V12.75H7.75796C7.53896 12.75 7.35896 12.68 7.21796 12.54C7.07796 12.383 7.00796 12.203 7.00796 12C7.00584 11.9042 7.02338 11.809 7.0595 11.7203C7.09562 11.6315 7.14955 11.5511 7.21796 11.484C7.28528 11.4078 7.36856 11.3473 7.46189 11.3068C7.55521 11.2664 7.65629 11.247 7.75796 11.25H11.25V7.75801C11.2463 7.65843 11.263 7.55915 11.2991 7.46628C11.3352 7.37341 11.39 7.28892 11.46 7.21801C11.6064 7.08145 11.7997 7.00628 12 7.00801C12.0958 7.00589 12.191 7.02343 12.2797 7.05955C12.3685 7.09566 12.4489 7.1496 12.516 7.21801C12.5922 7.28533 12.6527 7.36861 12.6931 7.46193Z" />
</svg>
