<svg  viewBox="0 0 24 24" fill="white" xmlns="http://www.w3.org/2000/svg">
<path d="M19.078 4.922C18.1345 3.98 17.0103 3.23848 15.773 2.742C14.576 2.24942 13.2944 1.99468 12 1.992C10.7056 1.9947 9.42406 2.24945 8.227 2.742C6.98969 3.23853 5.86551 3.98004 4.922 4.922C3.98004 5.86551 3.23853 6.98969 2.742 8.227C2.24945 9.42406 1.9947 10.7056 1.992 12C1.992 13.281 2.242 14.54 2.742 15.773C3.23848 17.0103 3.98 18.1345 4.922 19.078C5.86551 20.02 6.98969 20.7615 8.227 21.258C9.42406 21.7506 10.7056 22.0053 12 22.008C13.281 22.008 14.54 21.758 15.773 21.258C17.0103 20.7615 18.1345 20.02 19.078 19.078C20.02 18.1345 20.7615 17.0103 21.258 15.773C21.758 14.539 22.008 13.281 22.008 12C22.0053 10.7056 21.7506 9.42406 21.258 8.227C20.7615 6.98969 20.02 5.86551 19.078 4.922ZM18 6C18.8198 6.7921 19.4593 7.75154 19.875 8.813C20.7186 10.8539 20.7186 13.1461 19.875 15.187C19.4593 16.2485 18.8198 17.2079 18 18C17.2079 18.8198 16.2485 19.4593 15.187 19.875C13.1461 20.7186 10.8539 20.7186 8.813 19.875C7.75154 19.4593 6.7921 18.8198 6 18C5.18022 17.2079 4.54072 16.2485 4.125 15.187C3.28151 13.1461 3.28151 10.854 4.125 8.813C4.54074 7.75157 5.18025 6.79214 6 6C6.79212 5.18022 7.75155 4.54072 8.813 4.125C10.8539 3.2814 13.1461 3.2814 15.187 4.125C16.2485 4.54072 17.2079 5.18022 18 6Z" />
<path d="M9.27965 8.30154C9.3684 8.33766 9.4488 8.39159 9.51589 8.46V8.461L11.9999 10.946L14.4829 8.46C14.55 8.39159 14.6304 8.33766 14.7191 8.30154C14.8079 8.26542 14.9031 8.24788 14.9989 8.25C15.1991 8.24828 15.3924 8.32344 15.5389 8.46C15.6755 8.60647 15.7506 8.79975 15.7489 9C15.7489 9.203 15.6779 9.375 15.5379 9.516L13.0539 12L15.5399 14.483C15.6083 14.5501 15.6622 14.6305 15.6984 14.7192C15.7345 14.808 15.752 14.9032 15.7499 14.999C15.7516 15.1992 15.6765 15.3925 15.5399 15.539C15.3829 15.679 15.2029 15.749 14.9999 15.749C14.7969 15.749 14.6249 15.678 14.4839 15.538L11.9999 13.054L9.51589 15.54C9.37489 15.68 9.20289 15.75 8.99989 15.75C8.79689 15.75 8.61689 15.68 8.45989 15.54C8.31989 15.383 8.24989 15.203 8.24989 15C8.24803 14.9041 8.26589 14.8088 8.30235 14.72C8.33882 14.6312 8.39312 14.5509 8.46189 14.484L10.9459 12L8.45989 9.516C8.31989 9.375 8.24989 9.203 8.24989 9C8.24817 8.79975 8.32333 8.60647 8.45989 8.46C8.60636 8.32344 8.79964 8.24828 8.99989 8.25C9.09569 8.24788 9.1909 8.26542 9.27965 8.30154Z" />
</svg>
