<svg  viewBox="0 0 24 24" fill="white"  xmlns="http://www.w3.org/2000/svg">
<path d="M11.766 2.39C13.094 2.39 14.336 2.648 15.492 3.164C16.6339 3.64375 17.6695 4.3449 18.539 5.227C19.421 6.0962 20.1222 7.13144 20.602 8.273C21.102 9.43 21.352 10.672 21.352 12C21.352 13.328 21.102 14.57 20.602 15.727C20.1187 16.8737 19.4181 17.9162 18.539 18.797C17.6642 19.6667 16.6296 20.359 15.492 20.836C14.3189 21.355 13.0488 21.6185 11.766 21.609C10.4757 21.617 9.19803 21.3536 8.01602 20.836C6.88253 20.351 5.84925 19.6592 4.96902 18.796C4.09997 17.907 3.40081 16.8665 2.90602 15.726C2.40185 14.549 2.14651 13.2804 2.15602 12C2.15602 10.672 2.40602 9.43 2.90602 8.273C3.39759 7.13759 4.09769 6.10441 4.97002 5.227C5.84516 4.35172 6.87933 3.65152 8.01702 3.164C9.19905 2.64642 10.4767 2.38306 11.767 2.391L11.766 2.39ZM11.812 16.64C11.953 16.766 12.125 16.828 12.328 16.828C12.4215 16.8236 12.5131 16.8007 12.5976 16.7605C12.682 16.7203 12.7577 16.6637 12.82 16.594C12.8862 16.5263 12.9373 16.4453 12.9697 16.3563C13.0021 16.2673 13.0152 16.1724 13.008 16.078C13.009 15.9802 12.9885 15.8833 12.9479 15.7943C12.9073 15.7053 12.8476 15.6264 12.773 15.563L9.65602 12.727H15.726C15.93 12.727 16.102 12.657 16.242 12.516C16.382 12.375 16.453 12.203 16.453 12C16.4551 11.9042 16.4376 11.809 16.4015 11.7202C16.3654 11.6315 16.3114 11.5511 16.243 11.484C16.1759 11.4156 16.0955 11.3617 16.0068 11.3255C15.918 11.2894 15.8228 11.2719 15.727 11.274H9.65702L12.773 8.438C12.8459 8.37806 12.9048 8.30284 12.9454 8.21764C12.986 8.13245 13.0074 8.03937 13.008 7.945C13.0165 7.84698 13.0041 7.74827 12.9717 7.65537C12.9393 7.56247 12.8876 7.47748 12.82 7.406C12.7586 7.33688 12.6826 7.2822 12.5975 7.2459C12.5125 7.20959 12.4204 7.19255 12.328 7.196C12.2356 7.18569 12.142 7.19487 12.0533 7.22294C11.9645 7.25102 11.8827 7.29736 11.813 7.359L7.31302 11.461L7.28902 11.484L7.19502 11.578C7.18002 11.609 7.16502 11.641 7.14802 11.672L7.10202 11.859C7.08642 11.9044 7.07831 11.952 7.07802 12C7.07802 12.094 7.09402 12.188 7.12502 12.281C7.16322 12.3696 7.21901 12.4496 7.28902 12.516V12.539H7.31302L11.813 16.641L11.812 16.64Z" />
</svg>
