<svg  viewBox="0 0 25 24" fill="white" xmlns="http://www.w3.org/2000/svg">
<path d="M11.0078 4.10202C11.0075 4.20315 10.9865 4.30314 10.946 4.39583C10.9056 4.48853 10.8467 4.57197 10.7728 4.64102C10.7058 4.70931 10.6256 4.76317 10.537 4.79928C10.4484 4.8354 10.3534 4.85301 10.2578 4.85102H7.25778C6.35078 4.85102 5.57778 5.17102 4.93778 5.81302C4.63448 6.10774 4.39477 6.46148 4.23345 6.85241C4.07212 7.24334 3.9926 7.66318 3.99978 8.08602V16.102C3.99978 16.992 4.31178 17.758 4.93678 18.398C5.57678 19.023 6.35078 19.336 7.25678 19.336H10.2568C10.4608 19.336 10.6328 19.414 10.7728 19.57C10.9288 19.71 11.0078 19.883 11.0078 20.086C11.0105 20.1876 10.9909 20.2885 10.9503 20.3817C10.9097 20.4748 10.8491 20.5579 10.7728 20.625C10.7058 20.6933 10.6256 20.7472 10.537 20.7833C10.4484 20.8194 10.3534 20.837 10.2578 20.835H7.25778C6.62126 20.8394 5.99071 20.7121 5.40578 20.461C4.83946 20.2342 4.32231 19.9001 3.88278 19.477C3.45737 19.0342 3.11583 18.5178 2.87478 17.953C2.6235 17.3685 2.49582 16.7383 2.49978 16.102V8.08602C2.49978 7.43002 2.62478 6.81202 2.87478 6.23402C3.37047 5.10795 4.27504 4.21196 5.40578 3.72702C5.99064 3.4756 6.62119 3.34792 7.25778 3.35202H10.2578C10.4608 3.35202 10.6328 3.42202 10.7728 3.56202C10.9288 3.70302 11.0078 3.88202 11.0078 4.10202Z" />
<path d="M16.7727 17.133L21.8117 12.094L16.7737 7.05404C16.7028 6.98403 16.6183 6.92928 16.5255 6.89317C16.4326 6.85705 16.3333 6.84033 16.2337 6.84404C16.0307 6.84404 15.8587 6.91504 15.7177 7.05504C15.5777 7.21104 15.5077 7.39104 15.5077 7.59304C15.5063 7.79342 15.5818 7.98672 15.7187 8.13304L18.9287 11.344H10.2577C10.1561 11.341 10.055 11.3604 9.96167 11.4009C9.86834 11.4413 9.78506 11.5018 9.71774 11.578C9.57774 11.719 9.50774 11.891 9.50774 12.093C9.50602 12.2933 9.58118 12.4866 9.71774 12.633C9.78857 12.7032 9.87302 12.7582 9.9659 12.7944C10.0588 12.8307 10.1581 12.8476 10.2577 12.844H18.9287L15.7177 16.055C15.5777 16.211 15.5077 16.391 15.5077 16.593C15.5063 16.7934 15.5818 16.9867 15.7187 17.133C15.7857 17.2013 15.866 17.2552 15.9545 17.2913C16.0431 17.3274 16.1381 17.345 16.2337 17.343C16.3332 17.3466 16.4322 17.3298 16.5249 17.2937C16.6176 17.2576 16.7019 17.2029 16.7727 17.133Z" />
</svg>
