<svg  viewBox="0 0 24 24" fill="white" xmlns="http://www.w3.org/2000/svg">
<path fill-rule="evenodd" clip-rule="evenodd" d="M12 22C17.523 22 22 17.523 22 12C22 6.477 17.523 2 12 2C6.477 2 2 6.477 2 12C2 17.523 6.477 22 12 22ZM12.75 11.249H7.75C7.55082 11.249 7.3598 11.3281 7.21896 11.469C7.07812 11.6098 6.999 11.8008 6.999 12C6.999 12.1992 7.07812 12.3902 7.21896 12.531C7.3598 12.6719 7.55082 12.751 7.75 12.751H16.25C16.4492 12.751 16.6402 12.6719 16.781 12.531C16.9219 12.3902 17.001 12.1992 17.001 12C17.001 11.8008 16.9219 11.6098 16.781 11.469C16.6402 11.3281 16.4492 11.249 16.25 11.249H12.75Z" />
</svg>
