<svg  viewBox="0 0 24 24" fill="white" xmlns="http://www.w3.org/2000/svg">
<path d="M22 12C22 6.477 17.523 2 12 2C6.477 2 2 6.477 2 12C2 17.523 6.477 22 12 22C17.523 22 22 17.523 22 12ZM20.5 12C20.5 16.694 16.694 20.5 12 20.5C7.306 20.5 3.5 16.694 3.5 12C3.5 7.306 7.306 3.5 12 3.5C16.694 3.5 20.5 7.306 20.5 12Z" />
<path d="M7.75002 11.249H16.25C16.665 11.249 17.001 11.585 17.001 12C17.001 12.415 16.665 12.751 16.25 12.751H7.75002C7.33502 12.751 6.99902 12.415 6.99902 12C6.99902 11.585 7.33502 11.249 7.75002 11.249Z" />
</svg>
