<svg  viewBox="0 0 24 24" fill="white" xmlns="http://www.w3.org/2000/svg">
<path d="M16.5229 8.91815C16.6799 9.05815 16.7579 9.23815 16.7579 9.45715C16.7589 9.55497 16.7384 9.65181 16.6978 9.74081C16.6572 9.82981 16.5975 9.90879 16.5229 9.97215L11.3429 15.1521C11.2972 15.198 11.2425 15.2341 11.1824 15.2582C11.1222 15.2823 11.0577 15.2938 10.9929 15.2921C10.9278 15.2941 10.863 15.2827 10.8024 15.2586C10.7419 15.2345 10.6869 15.1983 10.6409 15.1521L7.47694 11.9891C7.40294 11.92 7.34391 11.8364 7.30349 11.7435C7.26307 11.6506 7.24213 11.5504 7.24194 11.4491C7.24194 11.2461 7.31994 11.0661 7.47694 10.9091C7.61694 10.7691 7.78894 10.6991 7.99194 10.6991C8.09152 10.6954 8.1908 10.7122 8.28367 10.7483C8.37654 10.7844 8.46103 10.8391 8.53194 10.9091L10.7819 13.1831C10.8439 13.2301 10.9139 13.2531 10.9919 13.2531C11.0859 13.2531 11.1559 13.2301 11.2029 13.1831L15.4699 8.91915C15.6099 8.77915 15.7819 8.70815 15.9849 8.70815C16.0845 8.70444 16.1838 8.72116 16.2767 8.75728C16.3695 8.79339 16.454 8.84814 16.5249 8.91815H16.5229Z" />
</svg>
