<svg  viewBox="0 0 24 24" fill="white" xmlns="http://www.w3.org/2000/svg">
<path d="M8.67201 4.47701C8.60195 4.54772 8.54709 4.63201 8.5108 4.7247C8.47451 4.81739 8.45757 4.91652 8.46101 5.01601C8.46101 5.21901 8.53101 5.39101 8.67101 5.53101L15.142 12L8.67201 18.469C8.60213 18.5398 8.54745 18.6241 8.51134 18.7168C8.47523 18.8095 8.45844 18.9086 8.46201 19.008C8.46201 19.211 8.53201 19.383 8.67201 19.523C8.74114 19.5971 8.82474 19.6561 8.91762 19.6965C9.01051 19.737 9.1107 19.7579 9.21201 19.758C9.31 19.7591 9.40704 19.7387 9.49622 19.6981C9.5854 19.6574 9.66454 19.5977 9.72801 19.523L16.384 12.891C16.634 12.641 16.759 12.344 16.759 12C16.759 11.656 16.634 11.36 16.384 11.11L9.72701 4.47601C9.6635 4.40139 9.58435 4.34166 9.49518 4.30104C9.406 4.26043 9.30899 4.23994 9.21101 4.24101C9.10971 4.24119 9.00954 4.26214 8.91666 4.30256C8.82378 4.34298 8.74017 4.40201 8.67101 4.47601L8.67201 4.47701Z" />
</svg>
