<svg  viewBox="0 0 24 24" fill="white" xmlns="http://www.w3.org/2000/svg">
<path d="M19.5 6.75001C19.672 6.90601 19.758 7.11001 19.758 7.36001C19.758 7.59401 19.672 7.79001 19.5 7.94501L10.125 17.344C10.0099 17.4496 9.85927 17.5081 9.70304 17.508C9.62902 17.5092 9.55553 17.4953 9.48709 17.4671C9.41865 17.4389 9.35669 17.397 9.30504 17.344L4.50004 12.539C4.41699 12.466 4.35087 12.3757 4.30631 12.2745C4.26175 12.1733 4.23982 12.0636 4.24204 11.953C4.24204 11.703 4.32804 11.493 4.50004 11.32C4.66559 11.1663 4.88413 11.0824 5.11004 11.086C5.34404 11.086 5.54704 11.164 5.71904 11.32L9.30404 14.906C9.41404 15.016 9.54604 15.07 9.70204 15.07C9.85827 15.0701 10.0089 15.0116 10.124 14.906L18.28 6.75001C18.3587 6.66758 18.4534 6.60215 18.5583 6.55777C18.6632 6.5134 18.7761 6.49101 18.89 6.49201C19.124 6.49201 19.327 6.57801 19.5 6.75001Z" />
</svg>
