<svg  viewBox="0 0 24 24" fill="white" xmlns="http://www.w3.org/2000/svg">
<path d="M1.99198 12C1.98452 13.338 2.25596 14.6628 2.78898 15.89C3.28598 17.0812 4.0105 18.1641 4.92198 19.078C5.83559 19.9894 6.91811 20.7139 8.10898 21.211C9.3365 21.7442 10.6617 22.0156 12 22.008C13.3379 22.0155 14.6628 21.744 15.89 21.211C17.0812 20.714 18.1641 19.9895 19.078 19.078C19.9894 18.1644 20.7139 17.0819 21.211 15.891C21.7441 14.6635 22.0156 13.3383 22.008 12C22.0154 10.662 21.744 9.33722 21.211 8.11C20.714 6.91878 19.9895 5.83591 19.078 4.922C18.1643 4.01065 17.0818 3.28614 15.891 2.789C14.6634 2.25585 13.3383 1.98441 12 1.992C10.662 1.98455 9.3372 2.25598 8.10998 2.789C6.91878 3.28605 5.83592 4.01056 4.92198 4.922C4.01065 5.83564 3.28614 6.91816 2.78898 8.109C2.25582 9.33653 1.98438 10.6617 1.99198 12ZM14.461 10.477C14.53 10.4031 14.6135 10.3442 14.7062 10.3037C14.7989 10.2633 14.8989 10.2423 15 10.242C15.203 10.242 15.383 10.32 15.54 10.477C15.68 10.617 15.75 10.797 15.75 11.016C15.75 11.219 15.68 11.391 15.54 11.531L12.89 14.18C12.64 14.414 12.344 14.531 12 14.531C11.656 14.531 11.36 14.414 11.11 14.18L8.45998 11.53C8.39169 11.463 8.33783 11.3828 8.30172 11.2942C8.2656 11.2056 8.24799 11.1106 8.24998 11.015C8.24627 10.9154 8.26299 10.8161 8.29911 10.7233C8.33522 10.6304 8.38997 10.5459 8.45998 10.475C8.52919 10.4011 8.61283 10.3423 8.70571 10.302C8.7986 10.2618 8.89875 10.241 8.99998 10.241C9.10128 10.2411 9.20147 10.262 9.29436 10.3025C9.38725 10.3429 9.47085 10.402 9.53998 10.476L12 12.936L14.46 10.476L14.461 10.477Z" />
</svg>
