<svg  viewBox="0 0 24 24" fill="white" xmlns="http://www.w3.org/2000/svg">
<path d="M12 4.00799C12.203 4.00799 12.375 4.07799 12.516 4.21799C12.672 4.35899 12.75 4.53899 12.75 4.75799V11.25H19.242C19.461 11.25 19.641 11.328 19.782 11.484C19.922 11.625 19.992 11.797 19.992 12C19.992 12.203 19.922 12.383 19.782 12.54C19.7111 12.61 19.6266 12.6647 19.5338 12.7009C19.4409 12.737 19.3416 12.7537 19.242 12.75H12.75V19.242C12.753 19.3437 12.7336 19.4447 12.6932 19.5381C12.6528 19.6314 12.5923 19.7147 12.516 19.782C12.4489 19.8504 12.3685 19.9043 12.2798 19.9405C12.191 19.9766 12.0958 19.9941 12 19.992C11.7998 19.9937 11.6065 19.9186 11.46 19.782C11.39 19.7111 11.3353 19.6266 11.2992 19.5337C11.263 19.4409 11.2463 19.3416 11.25 19.242V12.75H4.75802C4.65845 12.7537 4.55917 12.737 4.4663 12.7009C4.37343 12.6647 4.28894 12.61 4.21802 12.54C4.08146 12.3935 4.0063 12.2002 4.00802 12C4.00802 11.797 4.07802 11.625 4.21802 11.484C4.28535 11.4078 4.36863 11.3473 4.46195 11.3068C4.55528 11.2664 4.65636 11.247 4.75802 11.25H11.25V4.75799C11.2463 4.65842 11.263 4.55914 11.2992 4.46627C11.3353 4.3734 11.39 4.28891 11.46 4.21799C11.6065 4.08143 11.7998 4.00627 12 4.00799Z" />
</svg>
