<svg  viewBox="0 0 24 24" fill="white"  xmlns="http://www.w3.org/2000/svg">
<path d="M2.156 12C2.156 10.672 2.406 9.43 2.906 8.273C3.39758 7.13759 4.09767 6.10441 4.97 5.227C5.84515 4.35171 6.87932 3.65152 8.017 3.164C9.19903 2.64642 10.4766 2.38306 11.767 2.391C13.095 2.391 14.337 2.648 15.493 3.164C16.6349 3.64375 17.6705 4.3449 18.54 5.227C19.422 6.0962 20.1231 7.13144 20.603 8.273C21.103 9.43 21.353 10.672 21.353 12C21.353 13.328 21.103 14.57 20.603 15.727C20.1197 16.8737 19.4191 17.9162 18.54 18.797C17.6652 19.6667 16.6306 20.359 15.493 20.836C14.3199 21.355 13.0498 21.6185 11.767 21.609C10.4766 21.617 9.19901 21.3536 8.017 20.836C6.88351 20.351 5.85023 19.6592 4.97 18.796C4.10095 17.907 3.40179 16.8665 2.907 15.726C2.4025 14.549 2.14681 13.2805 2.156 12ZM16.406 11.953C16.4678 11.8834 16.5143 11.8016 16.5426 11.7129C16.5708 11.6242 16.5802 11.5305 16.57 11.438C16.5736 11.3454 16.5566 11.2532 16.5203 11.1679C16.484 11.0827 16.4293 11.0065 16.36 10.945C16.2883 10.8774 16.2031 10.8258 16.11 10.7936C16.017 10.7614 15.9181 10.7492 15.82 10.758C15.7259 10.7587 15.633 10.78 15.548 10.8204C15.463 10.8608 15.3879 10.9194 15.328 10.992L12.468 14.109V8.04C12.4701 7.94421 12.4525 7.84902 12.4164 7.76027C12.3803 7.67153 12.3264 7.59112 12.258 7.524C12.1946 7.45732 12.1183 7.40429 12.0337 7.36818C11.9491 7.33207 11.858 7.31363 11.766 7.314C11.6702 7.31188 11.575 7.32942 11.4862 7.36554C11.3975 7.40166 11.3171 7.45559 11.25 7.524C11.1816 7.59109 11.1277 7.67149 11.0915 7.76024C11.0554 7.84899 11.0379 7.9442 11.04 8.04V14.11L8.18 10.993C8.12228 10.9179 8.0476 10.8576 7.96209 10.8169C7.87658 10.7763 7.78266 10.7564 7.688 10.759C7.59345 10.7491 7.49788 10.7608 7.40849 10.7931C7.31911 10.8255 7.23824 10.8778 7.172 10.946C7.09631 11.0048 7.03411 11.0791 6.9896 11.164C6.9451 11.2489 6.91932 11.3423 6.914 11.438C6.914 11.642 6.984 11.814 7.125 11.954L11.227 16.431V16.478H11.25L11.344 16.571L11.438 16.618L11.578 16.665C11.6395 16.6804 11.7026 16.6881 11.766 16.688C11.859 16.688 11.946 16.673 12.023 16.642C12.1097 16.6004 12.189 16.545 12.258 16.478H12.281C12.281 16.462 12.289 16.446 12.305 16.431L16.406 11.954V11.953Z" />
</svg>
