<svg  viewBox="0 0 24 24" fill="white" xmlns="http://www.w3.org/2000/svg">
<path d="M4.477 8.46C4.617 8.32 4.789 8.25 4.992 8.25C5.09158 8.2463 5.19086 8.26302 5.28373 8.29913C5.3766 8.33525 5.46109 8.39 5.532 8.46L12 14.93L18.469 8.46C18.609 8.32 18.781 8.25 18.984 8.25C19.0836 8.2463 19.1829 8.26302 19.2757 8.29913C19.3686 8.33525 19.4531 8.39 19.524 8.46C19.5979 8.52922 19.6567 8.61286 19.697 8.70574C19.7372 8.79862 19.758 8.89877 19.758 9C19.7579 9.1013 19.737 9.2015 19.6965 9.29439C19.6561 9.38727 19.5971 9.47087 19.523 9.54L12.891 16.172C12.641 16.422 12.344 16.547 12 16.547C11.656 16.547 11.36 16.422 11.11 16.172L4.476 9.539C4.40231 9.46986 4.34353 9.38638 4.30329 9.29369C4.26305 9.20099 4.2422 9.10105 4.242 9C4.242 8.797 4.32 8.617 4.477 8.46Z" />
</svg>
