<svg  viewBox="0 0 24 24" fill="white" xmlns="http://www.w3.org/2000/svg">
<path d="M12 22.008C10.662 22.0155 9.3372 21.744 8.10998 21.211C6.91876 20.714 5.83588 19.9895 4.92198 19.078C4.01061 18.1644 3.28609 17.0819 2.78898 15.891C2.25582 14.6635 1.98438 13.3383 1.99198 12C1.98452 10.6621 2.25596 9.33723 2.78898 8.11001C3.28603 6.91881 4.01054 5.83595 4.92198 4.92201C5.83562 4.01068 6.91814 3.28617 8.10898 2.78901C9.3365 2.25585 10.6617 1.98441 12 1.99201C13.3379 1.98455 14.6628 2.25599 15.89 2.78901C17.0812 3.28603 18.1641 4.01055 19.078 4.92201C19.9893 5.83562 20.7139 6.91814 21.211 8.10901C21.7441 9.33654 22.0156 10.6617 22.008 12C22.0154 13.338 21.744 14.6628 21.211 15.89C20.714 17.0812 19.9895 18.1641 19.078 19.078C18.1644 19.9894 17.0819 20.7139 15.891 21.211C14.6634 21.7442 13.3383 22.0156 12 22.008ZM12.75 7.75801C12.753 7.65634 12.7336 7.55526 12.6931 7.46193C12.6527 7.36861 12.5922 7.28533 12.516 7.21801C12.4489 7.1496 12.3685 7.09567 12.2797 7.05955C12.191 7.02343 12.0958 7.00589 12 7.00801C11.7997 7.00628 11.6064 7.08145 11.46 7.21801C11.39 7.28892 11.3352 7.37341 11.2991 7.46628C11.263 7.55915 11.2463 7.65843 11.25 7.75801V11.25H7.75798C7.65631 11.247 7.55523 11.2664 7.4619 11.3068C7.36858 11.3473 7.2853 11.4078 7.21798 11.484C7.14957 11.5511 7.09563 11.6315 7.05952 11.7203C7.0234 11.809 7.00586 11.9042 7.00798 12C7.00798 12.203 7.07798 12.383 7.21798 12.54C7.35898 12.68 7.53898 12.75 7.75798 12.75H11.25V16.242C11.25 16.461 11.32 16.641 11.46 16.782C11.617 16.922 11.797 16.992 12 16.992C12.203 16.992 12.375 16.922 12.516 16.782C12.5922 16.7147 12.6527 16.6314 12.6931 16.5381C12.7336 16.4448 12.753 16.3437 12.75 16.242V12.75H16.242C16.3416 12.7537 16.4408 12.737 16.5337 12.7009C16.6266 12.6648 16.7111 12.61 16.782 12.54C16.9185 12.3935 16.9937 12.2003 16.992 12C16.9941 11.9042 16.9766 11.809 16.9404 11.7203C16.9043 11.6315 16.8504 11.5511 16.782 11.484C16.7147 11.4078 16.6314 11.3473 16.5381 11.3068C16.4447 11.2664 16.3436 11.247 16.242 11.25H12.75V7.75801Z" />
</svg>
