<svg  viewBox="0 0 25 24" fill="white" xmlns="http://www.w3.org/2000/svg">
<path d="M10.9459 4.39583C10.9863 4.30314 11.0073 4.20315 11.0076 4.10202C11.0076 3.88202 10.9286 3.70302 10.7726 3.56202C10.6326 3.42202 10.4606 3.35202 10.2576 3.35202H7.2576C6.62101 3.34792 5.99045 3.4756 5.4056 3.72702C4.27486 4.21196 3.37029 5.10795 2.8746 6.23402C2.6246 6.81202 2.4996 7.43002 2.4996 8.08602V16.102C2.49564 16.7383 2.62331 17.3685 2.8746 17.953C3.11565 18.5178 3.45718 19.0342 3.8826 19.477C4.32212 19.9001 4.83927 20.2342 5.4056 20.461C5.99053 20.7121 6.62108 20.8394 7.2576 20.835H10.2576C10.3532 20.837 10.4483 20.8194 10.5368 20.7833C10.6254 20.7472 10.7056 20.6933 10.7726 20.625C10.8489 20.5579 10.9095 20.4748 10.9501 20.3817C10.9907 20.2885 11.0103 20.1876 11.0076 20.086C11.0076 19.883 10.9286 19.71 10.7726 19.57C10.6326 19.414 10.4606 19.336 10.2566 19.336H7.2566C6.3506 19.336 5.5766 19.023 4.9366 18.398C4.3116 17.758 3.9996 16.992 3.9996 16.102V8.08602C3.99242 7.66318 4.07194 7.24334 4.23326 6.85241C4.39459 6.46148 4.6343 6.10774 4.9376 5.81302C5.5776 5.17102 6.3506 4.85102 7.2576 4.85102H10.2576C10.3532 4.85301 10.4483 4.8354 10.5368 4.79928C10.6254 4.76317 10.7056 4.70931 10.7726 4.64102C10.8465 4.57197 10.9054 4.48853 10.9459 4.39583Z" />
<path d="M9.50749 12.094L14.5465 17.133C14.6173 17.2029 14.7016 17.2576 14.7943 17.2937C14.887 17.3298 14.9861 17.3466 15.0855 17.343C15.1811 17.345 15.2761 17.3274 15.3647 17.2913C15.4533 17.2552 15.5335 17.2013 15.6005 17.133C15.7374 16.9867 15.8129 16.7934 15.8115 16.593C15.8115 16.391 15.7415 16.211 15.6015 16.055L12.3905 12.844H21.0615C21.1611 12.8476 21.2605 12.8307 21.3533 12.7944C21.4462 12.7581 21.5307 12.7032 21.6015 12.633C21.7381 12.4865 21.8132 12.2933 21.8115 12.093C21.8115 11.891 21.7415 11.719 21.6015 11.578C21.5342 11.5018 21.4509 11.4413 21.3576 11.4008C21.2642 11.3604 21.1632 11.341 21.0615 11.344H12.3905L15.6005 8.13301C15.7374 7.98669 15.8129 7.7934 15.8115 7.59301C15.8115 7.39101 15.7415 7.21101 15.6015 7.05501C15.4605 6.91501 15.2885 6.84401 15.0855 6.84401C14.9859 6.84031 14.8866 6.85703 14.7938 6.89314C14.7009 6.92926 14.6164 6.98401 14.5455 7.05401L9.50749 12.094Z" />
</svg>
