<svg viewBox="0 0 25 24" fill="white" xmlns="http://www.w3.org/2000/svg">
<path fill-rule="evenodd" clip-rule="evenodd" d="M12.1557 1.99201C11.2337 1.99201 10.3587 2.16401 9.53065 2.50801C8.72876 2.83465 7.9969 3.31192 7.37465 3.91401C6.76286 4.51129 6.26983 5.21912 5.92165 6.00001C5.55902 6.81073 5.37487 7.68992 5.38165 8.57801C5.38165 9.01601 5.36665 9.60201 5.33565 10.336C5.31965 11.055 5.25765 11.836 5.14765 12.68C5.03765 13.523 4.85865 14.367 4.60865 15.21C4.38858 16.0218 4.04886 16.7963 3.60065 17.508C3.35065 17.914 3.33565 18.352 3.55365 18.82C3.77365 19.273 4.14765 19.5 4.67865 19.5H19.6327C20.1477 19.5 20.5147 19.273 20.7337 18.82C20.9687 18.352 20.9607 17.914 20.7107 17.508C20.2611 16.7943 19.9137 16.0211 19.6787 15.211C19.4473 14.3806 19.2752 13.5348 19.1637 12.68C19.0537 11.836 18.9837 11.055 18.9527 10.336C18.9387 9.75011 18.9307 9.16408 18.9287 8.57801C18.9287 7.65601 18.7487 6.79701 18.3897 6.00001C18.0415 5.21912 17.5485 4.51129 16.9367 3.91401C16.3145 3.3119 15.5826 2.83462 14.7807 2.50801C13.9486 2.16335 13.0563 1.98794 12.1557 1.99201ZM6.88265 8.57801C6.88265 7.87501 7.01465 7.21801 7.28065 6.60901C7.55307 6.01253 7.93463 5.47225 8.40565 5.01601C8.89637 4.54266 9.46811 4.16127 10.0936 3.89001C10.7478 3.62191 11.4488 3.48662 12.1557 3.49201C12.863 3.4868 13.5643 3.62244 14.2187 3.89101C14.8587 4.17101 15.4137 4.54701 15.8827 5.01601C16.3655 5.46713 16.7555 6.00828 17.0307 6.60901C17.2967 7.21901 17.4287 7.87501 17.4287 8.57901C17.4287 9.01601 17.4367 9.61701 17.4527 10.383C17.4837 11.148 17.5627 11.977 17.6867 12.867C17.7967 13.711 17.9687 14.586 18.2027 15.492C18.4527 16.382 18.8037 17.219 19.2577 18H5.05365C5.50765 17.219 5.85065 16.383 6.08565 15.492C6.33565 14.586 6.51565 13.711 6.62465 12.867C6.74965 11.977 6.81965 11.148 6.83465 10.383C6.86665 9.61701 6.88265 9.01601 6.88265 8.57801ZM9.86763 21.0573C9.96058 21.0168 10.0613 20.9973 10.1627 21H14.1476C14.2493 20.997 14.3504 21.0164 14.4437 21.0568C14.537 21.0973 14.6203 21.1578 14.6876 21.234C14.7561 21.3011 14.81 21.3815 14.8461 21.4703C14.8822 21.559 14.8998 21.6542 14.8976 21.75C14.8994 21.9503 14.8242 22.1435 14.6876 22.29C14.6167 22.36 14.5322 22.4148 14.4394 22.4509C14.3465 22.487 14.2472 22.5037 14.1476 22.5H10.1637C9.94461 22.5 9.76461 22.43 9.62361 22.29C9.48361 22.133 9.41361 21.953 9.41361 21.75C9.41162 21.6541 9.42932 21.5589 9.46561 21.4701C9.5019 21.3814 9.55602 21.301 9.62461 21.234C9.69171 21.158 9.77467 21.0977 9.86763 21.0573Z" />
</svg>
