<svg  viewBox="0 0 24 24" fill="white" xmlns="http://www.w3.org/2000/svg">
<path d="M18.242 9.75C18.6562 9.75 18.992 10.0858 18.992 10.5C18.992 10.9142 18.6562 11.25 18.242 11.25C17.8278 11.25 17.492 10.9142 17.492 10.5C17.492 10.0858 17.8278 9.75 18.242 9.75Z" />
<path fill-rule="evenodd" clip-rule="evenodd" d="M14.992 10.5C14.992 12.1569 13.6489 13.5 11.992 13.5C10.3351 13.5 8.992 12.1569 8.992 10.5C8.992 8.84315 10.3351 7.5 11.992 7.5C13.6489 7.5 14.992 8.84315 14.992 10.5ZM13.492 10.5C13.492 11.3284 12.8204 12 11.992 12C11.1636 12 10.492 11.3284 10.492 10.5C10.492 9.67157 11.1636 9 11.992 9C12.8204 9 13.492 9.67157 13.492 10.5Z" />
<path d="M6.492 10.5C6.492 10.0858 6.15622 9.75 5.742 9.75C5.32779 9.75 4.992 10.0858 4.992 10.5C4.992 10.9142 5.32779 11.25 5.742 11.25C6.15622 11.25 6.492 10.9142 6.492 10.5Z" />
<path fill-rule="evenodd" clip-rule="evenodd" d="M22.992 14C22.992 15.6569 21.6489 17 19.992 17H3.992C2.33515 17 0.992004 15.6569 0.992004 14V7C0.992004 5.34315 2.33515 4 3.992 4H19.992C21.6489 4 22.992 5.34315 22.992 7V14ZM21.492 8C20.1113 8 18.992 6.88071 18.992 5.5H4.992C4.992 6.88071 3.87272 8 2.492 8L2.492 13C3.87272 13 4.992 14.1193 4.992 15.5H18.992C18.992 14.1193 20.1113 13 21.492 13V8Z" />
<path d="M3.492 18.1072C3.07779 18.1072 2.742 18.443 2.742 18.8572C2.742 19.2714 3.07779 19.6072 3.492 19.6072C8.51966 19.6072 14.8101 19.7655 19.6061 22.6431C19.8012 22.7602 20.0389 22.7823 20.2522 22.7034C20.4656 22.6245 20.6316 22.453 20.7035 22.2372L21.7035 19.2372C21.8345 18.8442 21.6221 18.4195 21.2292 18.2885C20.8362 18.1575 20.4115 18.3699 20.2805 18.7629L19.5678 20.9008C14.4919 18.2218 8.20998 18.1072 3.492 18.1072Z" />
</svg>
