<svg  viewBox="0 0 24 24" fill="white" xmlns="http://www.w3.org/2000/svg">
<path d="M12 2.25001C10.6945 2.24205 9.4015 2.50528 8.20299 3.02301C7.03767 3.50846 5.97874 4.21747 5.08599 5.11001C4.20293 5.99677 3.50208 7.04789 3.02299 8.20401C2.50539 9.40221 2.24217 10.6948 2.24999 12C2.24999 13.344 2.50799 14.61 3.02299 15.797C3.50567 16.958 4.20591 18.016 5.08599 18.914C5.98394 19.7941 7.04195 20.4944 8.20299 20.977C9.4015 21.4947 10.6945 21.758 12 21.75C13.3055 21.758 14.5985 21.4947 15.797 20.977C16.9531 20.4979 18.0042 19.7971 18.891 18.914C19.7831 18.0211 20.4918 16.9622 20.977 15.797C21.4947 14.5985 21.7579 13.3055 21.75 12C21.7579 10.6945 21.4947 9.40152 20.977 8.20301C20.495 7.04292 19.7853 5.99121 18.89 5.11001C18.0084 4.2149 16.9564 3.50559 15.796 3.02401C14.5979 2.50607 13.3053 2.24251 12 2.25001ZM3.74999 12C3.74999 10.86 3.96899 9.79001 4.40599 8.79001C4.8152 7.80844 5.41241 6.91637 6.16399 6.16401C6.91635 5.41243 7.80842 4.81523 8.78999 4.40601C9.78999 3.96901 10.86 3.75001 12.001 3.75001C13.141 3.75001 14.211 3.96901 15.211 4.40601C16.1925 4.81523 17.0846 5.41243 17.837 6.16401C18.5885 6.91608 19.1857 7.8078 19.595 8.78901C20.032 9.78901 20.251 10.859 20.251 12C20.251 13.14 20.032 14.21 19.595 15.21C19.1858 16.1916 18.5886 17.0836 17.837 17.836C17.0849 18.5875 16.1932 19.1847 15.212 19.594C14.212 20.031 13.142 20.25 12.001 20.25C10.861 20.25 9.79099 20.031 8.79099 19.594C7.80942 19.1848 6.91735 18.5876 6.16499 17.836C5.41352 17.0839 4.81632 16.1922 4.40699 15.211C3.96999 14.211 3.74999 13.141 3.74999 12Z" />
<path d="M13.2421 8.99999C13.2421 8.79699 13.1711 8.61699 13.0311 8.45999C12.9601 8.38999 12.8766 8.33524 12.7838 8.29913C12.6909 8.26301 12.5916 8.24629 12.4921 8.24999C12.2891 8.24999 12.1171 8.31999 11.9771 8.45999L8.97705 11.46C8.82005 11.617 8.74205 11.797 8.74205 12C8.74223 12.1013 8.76318 12.2015 8.8036 12.2943C8.84402 12.3872 8.90305 12.4708 8.97705 12.54L11.9771 15.54C12.044 15.6083 12.1243 15.6621 12.2128 15.6983C12.3014 15.7344 12.3964 15.752 12.4921 15.75C12.5916 15.7537 12.6909 15.737 12.7838 15.7009C12.8766 15.6647 12.9611 15.61 13.0321 15.54C13.1721 15.383 13.2421 15.203 13.2421 15C13.2421 14.797 13.1711 14.617 13.0311 14.46L10.5701 12L13.0321 9.53999C13.1721 9.38299 13.2421 9.20299 13.2421 8.99999Z" />
</svg>
