<svg  viewBox="0 0 24 24" fill="white" xmlns="http://www.w3.org/2000/svg">
<path d="M12.75 7.75801C12.753 7.65635 12.7336 7.55527 12.6932 7.46194C12.6527 7.36862 12.5922 7.28534 12.516 7.21801C12.4489 7.1496 12.3685 7.09567 12.2797 7.05955C12.191 7.02344 12.0958 7.00589 12 7.00801C11.7997 7.00629 11.6065 7.08145 11.46 7.21801C11.39 7.28893 11.3352 7.37342 11.2991 7.46629C11.263 7.55916 11.2463 7.65844 11.25 7.75801V11.25H7.75798C7.65632 11.247 7.55524 11.2664 7.46191 11.3068C7.36859 11.3473 7.28531 11.4078 7.21798 11.484C7.14957 11.5511 7.09564 11.6315 7.05952 11.7203C7.0234 11.809 7.00586 11.9042 7.00798 12C7.00798 12.203 7.07798 12.383 7.21798 12.54C7.35898 12.68 7.53898 12.75 7.75798 12.75H11.25V16.242C11.25 16.461 11.32 16.641 11.46 16.782C11.617 16.922 11.797 16.992 12 16.992C12.203 16.992 12.375 16.922 12.516 16.782C12.5922 16.7147 12.6527 16.6314 12.6932 16.5381C12.7336 16.4448 12.753 16.3437 12.75 16.242V12.75H16.242C16.3416 12.7537 16.4408 12.737 16.5337 12.7009C16.6266 12.6648 16.7111 12.61 16.782 12.54C16.9185 12.3935 16.9937 12.2003 16.992 12C16.9941 11.9042 16.9766 11.809 16.9404 11.7203C16.9043 11.6315 16.8504 11.5511 16.782 11.484C16.7147 11.4078 16.6314 11.3473 16.5381 11.3068C16.4447 11.2664 16.3436 11.247 16.242 11.25H12.75V7.75801Z" />
</svg>
