<svg  viewBox="0 0 24 24" fill="white" xmlns="http://www.w3.org/2000/svg">
<path d="M13.477 9.54C13.5506 9.47066 13.6093 9.38698 13.6493 9.29411C13.6894 9.20124 13.7101 9.10115 13.71 9C13.7099 8.89878 13.6891 8.79865 13.6489 8.70577C13.6086 8.6129 13.5498 8.52926 13.476 8.46C13.4051 8.39 13.3206 8.33525 13.2277 8.29913C13.1348 8.26302 13.0356 8.2463 12.936 8.25C12.8404 8.24802 12.7453 8.26563 12.6568 8.30174C12.5682 8.33786 12.488 8.39171 12.421 8.46L9.42098 11.46C9.28406 11.6063 9.20853 11.7996 9.20998 12C9.20998 12.203 9.27998 12.383 9.41998 12.54L12.42 15.54C12.562 15.68 12.733 15.75 12.937 15.75C13.0364 15.7536 13.1355 15.7368 13.2282 15.7007C13.3209 15.6646 13.4052 15.6099 13.476 15.54C13.5498 15.4707 13.6086 15.3871 13.6489 15.2942C13.6891 15.2014 13.7099 15.1012 13.71 15C13.7099 14.8988 13.6891 14.7986 13.6489 14.7058C13.6086 14.6129 13.5498 14.5293 13.476 14.46L11.016 12L13.476 9.54H13.477Z" />
</svg>
