<svg  viewBox="0 0 24 24" fill="white" xmlns="http://www.w3.org/2000/svg">
<path d="M7.172 13.055C7.09631 12.9962 7.03411 12.9219 6.9896 12.837C6.9451 12.7521 6.91932 12.6587 6.914 12.563C6.914 12.359 6.984 12.187 7.125 12.047L11.227 7.57V7.547L11.25 7.523C11.3207 7.46509 11.3995 7.41792 11.484 7.383C11.5712 7.3378 11.6678 7.31382 11.766 7.313C11.812 7.313 11.859 7.32 11.906 7.336C11.969 7.352 12.023 7.367 12.07 7.383C12.102 7.398 12.133 7.422 12.164 7.453C12.195 7.469 12.227 7.493 12.258 7.523C12.273 7.523 12.281 7.531 12.281 7.547L12.305 7.57L16.406 12.047C16.531 12.187 16.586 12.359 16.57 12.562C16.57 12.766 16.5 12.93 16.36 13.055C16.2135 13.1916 16.0203 13.2667 15.82 13.265C15.6286 13.2475 15.4518 13.1551 15.328 13.008L12.468 9.891V15.961C12.468 16.164 12.398 16.336 12.258 16.477C12.1946 16.5437 12.1183 16.5967 12.0337 16.6328C11.9491 16.6689 11.858 16.6874 11.766 16.687C11.6702 16.6891 11.575 16.6716 11.4862 16.6355C11.3975 16.5993 11.3171 16.5454 11.25 16.477C11.1816 16.4099 11.1277 16.3295 11.0916 16.2407C11.0555 16.152 11.0379 16.0568 11.04 15.961V9.89L8.18 13.007C8.12122 13.0827 8.04688 13.1449 7.962 13.1894C7.87713 13.2339 7.78369 13.2597 7.688 13.265C7.59213 13.267 7.49688 13.2493 7.40812 13.213C7.31937 13.1767 7.23901 13.1226 7.172 13.054V13.055Z" />
</svg>
