<svg  viewBox="0 0 24 24" fill="white" xmlns="http://www.w3.org/2000/svg">
<path d="M10.75 10C10.75 9.30964 11.3096 8.75 12 8.75C12.6904 8.75 13.25 9.30964 13.25 10C13.25 10.4722 12.9885 10.8843 12.5988 11.0977C12.3056 11.2582 11.9845 11.4833 11.7285 11.7819C11.4692 12.0842 11.25 12.4957 11.25 13V13.5C11.25 13.9142 11.5858 14.25 12 14.25C12.4142 14.25 12.75 13.9142 12.75 13.5V13C12.75 12.952 12.768 12.8739 12.8671 12.7584C12.9695 12.639 13.1279 12.5181 13.3191 12.4134C14.1702 11.9475 14.75 11.042 14.75 10C14.75 8.48122 13.5188 7.25 12 7.25C10.4812 7.25 9.25 8.48122 9.25 10C9.25 10.4142 9.58579 10.75 10 10.75C10.4142 10.75 10.75 10.4142 10.75 10Z" />
<path d="M12 17C12.5523 17 13 16.5523 13 16C13 15.4477 12.5523 15 12 15C11.4477 15 11 15.4477 11 16C11 16.5523 11.4477 17 12 17Z" />
</svg>
