<svg  viewBox="0 0 25 24" fill="white" xmlns="http://www.w3.org/2000/svg">
<path d="M7.53875 4.31301C8.05735 3.60715 8.73096 3.02968 9.50776 2.62501C10.3258 2.20177 11.2347 1.98449 12.1558 1.99201C12.9528 1.99201 13.6958 2.14801 14.3828 2.46101C15.0656 2.74447 15.6866 3.15855 16.2108 3.68001C16.7442 4.19902 17.1667 4.82091 17.4528 5.50801C17.7498 6.21101 17.8978 6.96101 17.8978 7.75801V9.35201C18.5544 9.6333 19.1102 10.1072 19.4918 10.711C19.9138 11.321 20.1248 12.008 20.1248 12.773V16.243C20.1248 17.023 19.9758 17.766 19.6788 18.469C19.3814 19.1499 18.9603 19.7697 18.4368 20.297C17.9095 20.8205 17.2897 21.2416 16.6088 21.539C15.9044 21.836 15.1472 21.9873 14.3828 21.984H9.92875C9.16434 21.9873 8.40715 21.836 7.70275 21.539C7.02185 21.2416 6.40203 20.8205 5.87475 20.297C5.35126 19.7697 4.93014 19.1499 4.63276 18.469C4.3353 17.7644 4.18359 17.0068 4.18676 16.242V12.773C4.18676 11.727 4.55375 10.843 5.28875 10.125C6.02275 9.39101 6.90576 9.02301 7.93675 9.02301H16.3978V7.75801C16.3978 6.58601 15.9838 5.58601 15.1558 4.75801C14.3278 3.91401 13.3278 3.49201 12.1558 3.49201C11.4528 3.49201 10.8038 3.64801 10.2108 3.96101C9.62781 4.26411 9.12244 4.69728 8.73376 5.22701C8.61228 5.38062 8.43586 5.48102 8.24176 5.50701C8.14698 5.52417 8.0496 5.52054 7.95636 5.49637C7.86313 5.4722 7.77625 5.42806 7.70175 5.36701C7.62003 5.31025 7.55087 5.23728 7.49857 5.15264C7.44627 5.06799 7.41195 4.97349 7.39775 4.87501C7.38161 4.77658 7.3857 4.67589 7.40977 4.57909C7.43384 4.48229 7.47739 4.39142 7.53775 4.31201L7.53875 4.31301ZM7.93675 10.523C7.64044 10.5179 7.34622 10.5736 7.07225 10.6866C6.79827 10.7996 6.55035 10.9675 6.34376 11.18C6.13127 11.3866 5.96335 11.6345 5.85036 11.9085C5.73736 12.1825 5.68168 12.4767 5.68676 12.773V16.243C5.68676 17.414 6.10075 18.414 6.92875 19.243C7.75775 20.07 8.75775 20.484 9.92875 20.484H14.3828C15.5538 20.484 16.5538 20.07 17.3828 19.242C18.2108 18.414 18.6248 17.414 18.6248 16.242V12.773C18.6298 12.4767 18.5741 12.1825 18.4612 11.9085C18.3482 11.6345 18.1802 11.3866 17.9678 11.18C17.7612 10.9675 17.5132 10.7996 17.2393 10.6866C16.9653 10.5736 16.6711 10.5179 16.3748 10.523H7.93675Z" />
<path d="M12.8489 12.7119C12.8894 12.8052 12.9088 12.9063 12.9058 13.008V18C12.9057 18.1012 12.8849 18.2013 12.8447 18.2942C12.8044 18.3871 12.7456 18.4707 12.6718 18.54C12.5308 18.68 12.3588 18.75 12.1558 18.75C11.9528 18.75 11.7728 18.68 11.6158 18.54C11.4758 18.383 11.4058 18.203 11.4058 18V13.008C11.4021 12.9084 11.4188 12.8091 11.4549 12.7163C11.491 12.6234 11.5458 12.5389 11.6158 12.468C11.7622 12.3314 11.9555 12.2563 12.1558 12.258C12.2516 12.2559 12.3468 12.2734 12.4355 12.3095C12.5243 12.3457 12.6047 12.3996 12.6718 12.468C12.748 12.5353 12.8085 12.6186 12.8489 12.7119Z" />
</svg>
