<svg  viewBox="0 0 24 24" fill="white" xmlns="http://www.w3.org/2000/svg">
<path d="M10.0082 19.0083C10.0082 19.5553 10.2032 20.0233 10.5942 20.4143C10.9842 20.8043 11.4542 21.0003 12.0002 21.0003C12.5472 21.0003 13.0162 20.8053 13.4062 20.4143C13.7962 20.0243 13.9922 19.5543 13.9922 19.0083C13.9922 18.4453 13.7972 17.9683 13.4062 17.5783C13.0162 17.1883 12.5462 16.9923 12.0002 16.9923C11.4532 16.9923 10.9842 17.1873 10.5942 17.5783C10.2042 17.9683 10.0082 18.4453 10.0082 19.0083Z" />
<path d="M10.5942 13.4059C10.9842 13.7969 11.4532 13.9919 12.0002 13.9919C12.5462 13.9919 13.0162 13.7959 13.4062 13.4059C13.7972 13.0159 13.9922 12.5469 13.9922 11.9999C13.9922 11.4539 13.7962 10.9839 13.4062 10.5939C13.0162 10.2029 12.5472 10.0079 12.0002 10.0079C11.4542 10.0079 10.9842 10.2039 10.5942 10.5939C10.4056 10.7758 10.2563 10.9944 10.1555 11.2362C10.0548 11.4781 10.0046 11.738 10.0082 11.9999C10.0082 12.5459 10.2042 13.0159 10.5942 13.4059Z" />
<path d="M10.5942 6.42212C10.9842 6.81212 11.4532 7.00812 12.0002 7.00812C12.5462 7.00812 13.0162 6.81212 13.4062 6.42212C13.7972 6.03212 13.9922 5.55512 13.9922 4.99212C13.9922 4.44612 13.7962 3.97612 13.4062 3.58612C13.0162 3.19512 12.5472 3.00012 12.0002 3.00012C11.4542 3.00012 10.9842 3.19612 10.5942 3.58612C10.4057 3.76803 10.2564 3.98664 10.1556 4.22845C10.0548 4.47027 10.0047 4.73017 10.0082 4.99212C10.0082 5.55512 10.2042 6.03212 10.5942 6.42212Z" />
</svg>
