<svg  viewBox="0 0 24 24" fill="white" xmlns="http://www.w3.org/2000/svg">
<path d="M2.39101 12.07C2.39101 10.773 2.64101 9.562 3.14101 8.437C3.6061 7.3254 4.28262 6.31469 5.13301 5.461C5.98708 4.60501 6.99731 3.92067 8.10901 3.445C9.26615 2.95745 10.5104 2.71044 11.766 2.719C13.046 2.719 14.258 2.961 15.398 3.445C16.5143 3.9128 17.5263 4.59811 18.375 5.461C19.2278 6.31771 19.9117 7.32729 20.391 8.437C20.8799 9.58529 21.1271 10.822 21.117 12.07C21.1271 13.318 20.8799 14.5547 20.391 15.703C19.9083 16.8179 19.2249 17.8348 18.375 18.703C17.521 19.5535 16.51 20.23 15.398 20.695C14.2492 21.1811 13.0135 21.4285 11.766 21.422C10.5103 21.4302 9.26608 21.1829 8.10901 20.695C7.00156 20.2222 5.99223 19.5466 5.13301 18.703C4.28544 17.8378 3.60951 16.8199 3.14101 15.703C2.63696 14.5586 2.38134 13.3204 2.39101 12.07ZM11.766 4.148C10.672 4.148 9.64101 4.359 8.67201 4.781C7.73482 5.17682 6.88314 5.75038 6.16401 6.47C5.44311 7.19247 4.86321 8.043 4.45401 8.978C4.04701 9.946 3.84401 10.978 3.84401 12.071C3.84401 13.165 4.04701 14.196 4.45401 15.165C4.86323 16.1 5.44313 16.9505 6.16401 17.673C6.88335 18.3919 7.73501 18.9647 8.67201 19.36C9.64101 19.782 10.672 19.993 11.766 19.993C12.8225 20.0006 13.8687 19.7849 14.836 19.36C16.7405 18.5727 18.2569 17.065 19.055 15.165C19.477 14.196 19.688 13.165 19.688 12.071C19.688 10.978 19.477 9.946 19.055 8.978C18.2571 7.07791 16.7406 5.5701 14.836 4.783C13.8688 4.35778 12.8226 4.14172 11.766 4.149V4.148Z" />
<path d="M6.96682 12.2828C7.00293 12.1942 7.05679 12.114 7.12508 12.047L11.2271 7.56998V7.54698L11.2501 7.52298C11.3207 7.46472 11.3996 7.4172 11.4841 7.38198C11.5713 7.33678 11.6679 7.3128 11.7661 7.31198C11.8137 7.31238 11.861 7.32049 11.9061 7.33598C11.9613 7.34956 12.016 7.36524 12.0701 7.38298C12.1049 7.40114 12.1367 7.42478 12.1641 7.45298C12.199 7.47113 12.2307 7.49476 12.2581 7.52298C12.2731 7.52298 12.2811 7.53098 12.2811 7.54698L12.3051 7.56998L16.4061 12.046C16.468 12.1157 16.5146 12.1977 16.5429 12.2866C16.5711 12.3755 16.5804 12.4693 16.5701 12.562C16.5701 12.764 16.5001 12.929 16.3601 13.054C16.2031 13.195 16.0231 13.265 15.8201 13.265C15.6285 13.2472 15.4517 13.1545 15.3281 13.007L12.4681 9.88998V15.961C12.4701 16.0568 12.4526 16.152 12.4165 16.2407C12.3803 16.3294 12.3264 16.4099 12.2581 16.477C12.1171 16.617 11.9531 16.687 11.7661 16.687C11.5631 16.687 11.3901 16.617 11.2501 16.477C11.1101 16.336 11.0401 16.164 11.0401 15.961V9.89098L8.18008 13.008C8.1212 13.0835 8.04682 13.1455 7.96195 13.1898C7.87708 13.2342 7.78369 13.2598 7.68808 13.265C7.48408 13.265 7.31208 13.195 7.17208 13.055C7.09645 12.996 7.03437 12.9214 6.99003 12.8364C6.94569 12.7513 6.92013 12.6578 6.91508 12.562C6.9131 12.4664 6.9307 12.3713 6.96682 12.2828Z" />
</svg>
