<svg  viewBox="0 0 24 24" fill="white" xmlns="http://www.w3.org/2000/svg">
<path d="M12 22.008C13.3379 22.0155 14.6628 21.744 15.89 21.211C17.0812 20.714 18.1641 19.9895 19.078 19.078C19.9894 18.1644 20.7139 17.0819 21.211 15.891C21.7441 14.6635 22.0156 13.3383 22.008 12C22.0154 10.6621 21.744 9.33723 21.211 8.11001C20.714 6.91879 19.9895 5.83591 19.078 4.92201C18.1643 4.01066 17.0818 3.28615 15.891 2.78901C14.6634 2.25585 13.3383 1.98441 12 1.99201C10.662 1.98455 9.3372 2.25599 8.10998 2.78901C6.91878 3.28606 5.83592 4.01057 4.92198 4.92201C4.01065 5.83565 3.28614 6.91817 2.78898 8.10901C2.25582 9.33654 1.98438 10.6617 1.99198 12C1.98452 13.338 2.25596 14.6628 2.78898 15.89C3.28598 17.0812 4.0105 18.1641 4.92198 19.078C5.83559 19.9894 6.91811 20.7139 8.10898 21.211C9.3365 21.7442 10.6617 22.0156 12 22.008ZM10.477 9.53901C10.4031 9.46999 10.3441 9.38655 10.3036 9.29385C10.2632 9.20115 10.2422 9.10114 10.242 9.00001C10.2421 8.89871 10.263 8.79851 10.3034 8.70562C10.3439 8.61274 10.4029 8.52914 10.477 8.46001C10.617 8.32001 10.789 8.25001 10.992 8.25001C11.0916 8.2463 11.1908 8.26302 11.2837 8.29914C11.3766 8.33526 11.4611 8.39 11.532 8.46001L14.18 11.11C14.414 11.36 14.531 11.656 14.531 12C14.531 12.344 14.414 12.64 14.18 12.89L11.531 15.54C11.4602 15.6099 11.3759 15.6646 11.2832 15.7007C11.1905 15.7368 11.0914 15.7536 10.992 15.75C10.8963 15.752 10.8013 15.7344 10.7128 15.6983C10.6242 15.6622 10.544 15.6083 10.477 15.54C10.403 15.4708 10.3439 15.3872 10.3035 15.2944C10.2631 15.2015 10.2422 15.1013 10.242 15C10.242 14.797 10.32 14.617 10.477 14.46L12.937 12L10.477 9.54001V9.53901Z" />
</svg>
