<svg  viewBox="0 0 24 24" fill="white" xmlns="http://www.w3.org/2000/svg">
<path d="M10.688 7.406C10.828 7.266 10.992 7.196 11.18 7.196C11.3741 7.1774 11.5678 7.23595 11.719 7.359L16.195 11.461C16.211 11.461 16.219 11.469 16.219 11.484H16.242C16.305 11.563 16.352 11.648 16.382 11.742C16.43 11.82 16.453 11.906 16.453 12C16.452 12.0554 16.4443 12.1105 16.43 12.164C16.414 12.211 16.39 12.266 16.36 12.328C16.3419 12.3629 16.3182 12.3946 16.29 12.422C16.273 12.453 16.258 12.484 16.242 12.516C16.227 12.516 16.219 12.523 16.219 12.539H16.195L11.719 16.641C11.5665 16.7646 11.3754 16.8308 11.179 16.828C10.992 16.8126 10.817 16.7293 10.687 16.594C10.5663 16.4491 10.5002 16.2666 10.5 16.078C10.512 15.8834 10.5953 15.7 10.734 15.563L13.875 12.727H7.80503C7.70917 12.7289 7.61393 12.7112 7.52519 12.6749C7.43644 12.6386 7.35607 12.5845 7.28903 12.516C7.22062 12.4489 7.16669 12.3685 7.13057 12.2798C7.09445 12.191 7.07691 12.0958 7.07903 12C7.07903 11.797 7.14903 11.625 7.28903 11.484C7.35616 11.4156 7.43656 11.3617 7.52531 11.3256C7.61405 11.2895 7.70924 11.2719 7.80503 11.274H13.875L10.735 8.438C10.5991 8.3079 10.5155 8.13252 10.5 7.945C10.5 7.742 10.563 7.562 10.688 7.406Z" />
</svg>
