<svg  viewBox="0 0 24 24" fill="white" xmlns="http://www.w3.org/2000/svg">
<path d="M2.38997 12.07C2.38997 10.773 2.63997 9.562 3.13997 8.437C3.60506 7.32541 4.28158 6.3147 5.13197 5.461C5.98604 4.60502 6.99627 3.92067 8.10797 3.445C9.26511 2.95746 10.5093 2.71045 11.765 2.719C13.045 2.719 14.257 2.961 15.397 3.445C16.5133 3.9128 17.5252 4.59812 18.374 5.461C19.2268 6.31771 19.9107 7.32729 20.39 8.437C20.8789 9.5853 21.126 10.822 21.116 12.07C21.126 13.318 20.8789 14.5547 20.39 15.703C19.9072 16.8179 19.2239 17.8348 18.374 18.703C17.52 19.5535 16.5089 20.2301 15.397 20.695C14.2481 21.1811 13.0124 21.4285 11.765 21.422C10.5093 21.4302 9.26504 21.1829 8.10797 20.695C7.00052 20.2222 5.99119 19.5466 5.13197 18.703C4.2844 17.8378 3.60847 16.8199 3.13997 15.703C2.63592 14.5587 2.3803 13.3204 2.38997 12.07ZM11.765 4.148C10.671 4.148 9.63997 4.359 8.67097 4.781C7.73414 5.17694 6.88281 5.75049 6.16397 6.47C5.44307 7.19248 4.86317 8.043 4.45397 8.978C4.04697 9.946 3.84397 10.978 3.84397 12.071C3.84397 13.165 4.04697 14.196 4.45397 15.165C4.86319 16.1 5.44309 16.9505 6.16397 17.673C6.88331 18.3919 7.73497 18.9647 8.67197 19.36C9.64097 19.782 10.672 19.993 11.766 19.993C12.8225 20.0006 13.8686 19.7849 14.836 19.36C16.7405 18.5727 18.2568 17.065 19.055 15.165C19.477 14.196 19.688 13.165 19.688 12.071C19.688 10.978 19.477 9.946 19.055 8.978C18.257 7.07791 16.7406 5.5701 14.836 4.783C13.8687 4.35778 12.8225 4.14173 11.766 4.149L11.765 4.148Z" />
<path d="M12.328 16.828C12.125 16.828 11.953 16.766 11.813 16.64V16.641L7.31298 12.539H7.28898V12.516C7.21897 12.4496 7.16318 12.3696 7.12498 12.281C7.09398 12.188 7.07798 12.094 7.07798 12C7.07827 11.952 7.08638 11.9044 7.10198 11.859L7.14798 11.672C7.16498 11.641 7.17998 11.609 7.19498 11.578L7.28898 11.484L7.31298 11.461L11.813 7.359C11.8827 7.29736 11.9645 7.25102 12.0532 7.22294C12.1419 7.19487 12.2355 7.18569 12.328 7.196C12.4204 7.19255 12.5124 7.20959 12.5975 7.2459C12.6826 7.2822 12.7585 7.33688 12.82 7.406C12.8876 7.47748 12.9393 7.56247 12.9717 7.65537C13.0041 7.74827 13.0165 7.84698 13.008 7.945C13.0073 8.03937 12.9859 8.13245 12.9453 8.21764C12.9047 8.30284 12.8459 8.37806 12.773 8.438L9.65698 11.274H15.727C15.8228 11.2719 15.918 11.2894 16.0067 11.3255C16.0955 11.3617 16.1759 11.4156 16.243 11.484C16.3114 11.5511 16.3653 11.6315 16.4014 11.7202C16.4376 11.809 16.4551 11.9042 16.453 12C16.453 12.203 16.382 12.375 16.242 12.516C16.102 12.657 15.93 12.727 15.726 12.727H9.65598L12.773 15.563C12.8475 15.6264 12.9072 15.7053 12.9478 15.7943C12.9884 15.8833 13.009 15.9802 13.008 16.078C13.0151 16.1724 13.0021 16.2673 12.9696 16.3563C12.9372 16.4453 12.8862 16.5263 12.82 16.594C12.7576 16.6637 12.682 16.7203 12.5975 16.7605C12.5131 16.8007 12.4214 16.8236 12.328 16.828Z" />
</svg>
