<svg  viewBox="0 0 24 24" fill="white" xmlns="http://www.w3.org/2000/svg">
<path d="M9.51601 8.46C9.44892 8.39159 9.36852 8.33766 9.27977 8.30154C9.19102 8.26543 9.0958 8.24788 9.00001 8.25C8.79976 8.24828 8.60648 8.32344 8.46001 8.46C8.32345 8.60648 8.24829 8.79975 8.25001 9C8.25001 9.203 8.32001 9.375 8.46001 9.516L10.946 12L8.46201 14.484C8.39324 14.5509 8.33894 14.6312 8.30247 14.72C8.266 14.8088 8.24815 14.9041 8.25001 15C8.25001 15.203 8.32001 15.383 8.46001 15.54C8.61701 15.68 8.79701 15.75 9.00001 15.75C9.20301 15.75 9.37501 15.68 9.51601 15.54L12 13.054L14.484 15.538C14.625 15.678 14.797 15.749 15 15.749C15.203 15.749 15.383 15.679 15.54 15.539C15.6766 15.3925 15.7517 15.1993 15.75 14.999C15.7521 14.9032 15.7346 14.808 15.6985 14.7192C15.6624 14.6305 15.6084 14.5501 15.54 14.483L13.054 12L15.538 9.516C15.678 9.375 15.749 9.203 15.749 9C15.7507 8.79975 15.6756 8.60648 15.539 8.46C15.3925 8.32344 15.1993 8.24828 14.999 8.25C14.9032 8.24788 14.808 8.26543 14.7193 8.30154C14.6305 8.33766 14.5501 8.39159 14.483 8.46L12 10.946L9.51601 8.461V8.46Z" />
</svg>
