<svg  viewBox="0 0 24 24" fill="white" xmlns="http://www.w3.org/2000/svg">
<path d="M1.52233 22.2197C1.22944 22.5126 1.22944 22.9874 1.52233 23.2803C1.81523 23.5732 2.2901 23.5732 2.58299 23.2803L22.7388 3.12457C23.0317 2.83168 23.0317 2.3568 22.7388 2.06391C22.4459 1.77102 21.971 1.77101 21.6781 2.06391L1.52233 22.2197Z" />
<path d="M6.24075 15.5L4.74075 17H3.992C2.33515 17 0.992004 15.6569 0.992004 14V7.00001C0.992004 5.34315 2.33515 4.00001 3.992 4.00001H17.7407L16.2407 5.50001H4.992C4.992 6.88072 3.87272 8.00001 2.492 8.00001L2.492 13C3.87272 13 4.992 14.1193 4.992 15.5H6.24075Z" />
<path d="M19.992 17H11.1047L12.6047 15.5H18.992C18.992 14.1193 20.1113 13 21.492 13V8.00001C21.0886 8.00001 20.7074 7.90444 20.37 7.7347L22.5137 5.591C22.5414 5.56328 22.5683 5.53502 22.5943 5.50625C22.8473 5.94609 22.992 6.45615 22.992 7.00001V14C22.992 15.6569 21.6489 17 19.992 17Z" />
<path d="M19.6061 22.6431C16.2768 20.6455 12.2272 19.9583 8.37985 19.7249L9.78096 18.3238C13.0803 18.6166 16.5388 19.3021 19.5678 20.9008L20.2805 18.7629C20.4115 18.3699 20.8362 18.1575 21.2292 18.2885C21.6221 18.4195 21.8345 18.8443 21.7035 19.2372L20.7035 22.2372C20.6316 22.453 20.4656 22.6245 20.2522 22.7034C20.0389 22.7823 19.8012 22.7602 19.6061 22.6431Z" />
<path d="M11.992 7.50001C12.6286 7.50001 13.2188 7.69826 13.7044 8.03639L12.6086 9.13218C12.4205 9.04727 12.2118 9.00001 11.992 9.00001C11.1636 9.00001 10.492 9.67158 10.492 10.5C10.492 10.7198 10.5393 10.9285 10.6242 11.1166L9.52839 12.2124C9.19026 11.7268 8.992 11.1366 8.992 10.5C8.992 8.84315 10.3351 7.50001 11.992 7.50001Z" />
<path d="M17.4993 10.6054C17.5506 10.9697 17.8636 11.25 18.242 11.25C18.6562 11.25 18.992 10.9142 18.992 10.5C18.992 10.1216 18.7117 9.80857 18.3474 9.75735L17.4993 10.6054Z" />
<path d="M6.492 10.5C6.492 10.0858 6.15622 9.75001 5.742 9.75001C5.32779 9.75001 4.992 10.0858 4.992 10.5C4.992 10.9142 5.32779 11.25 5.742 11.25C6.15622 11.25 6.492 10.9142 6.492 10.5Z" />
</svg>
