<svg  viewBox="0 0 24 24" fill="white" xmlns="http://www.w3.org/2000/svg">
<path d="M19.781 12.797C19.7176 12.7225 19.6387 12.6628 19.5497 12.6221C19.4607 12.5815 19.3638 12.561 19.266 12.562C19.168 12.5609 19.071 12.5813 18.9818 12.6219C18.8926 12.6626 18.8135 12.7223 18.75 12.797L12.727 19.102V2.76599C12.7306 2.66635 12.7137 2.56702 12.6774 2.47415C12.6411 2.38127 12.5862 2.29682 12.516 2.22599C12.4524 2.15156 12.3732 2.09201 12.284 2.05158C12.1949 2.01114 12.0979 1.9908 12 1.99199C11.902 1.99092 11.805 2.01142 11.7158 2.05203C11.6267 2.09264 11.5475 2.15237 11.484 2.22699C11.4141 2.29779 11.3594 2.38212 11.3233 2.4748C11.2872 2.56749 11.2704 2.66658 11.274 2.76599V19.102L5.25 12.797C5.18654 12.7223 5.1074 12.6626 5.01822 12.6219C4.92903 12.5813 4.83199 12.5609 4.734 12.562C4.63618 12.561 4.53934 12.5815 4.45034 12.6221C4.36134 12.6628 4.28236 12.7225 4.219 12.797C4.14894 12.8677 4.09408 12.952 4.0578 13.0447C4.02151 13.1374 4.00457 13.2365 4.008 13.336C4.008 13.539 4.078 13.719 4.218 13.875L12 22.008L19.781 13.875C19.9179 13.7287 19.9935 13.5354 19.992 13.335C19.9954 13.2357 19.9786 13.1368 19.9425 13.0443C19.9064 12.9518 19.8518 12.8677 19.782 12.797H19.781Z" />
</svg>
