<svg  viewBox="0 0 24 24" fill="white" xmlns="http://www.w3.org/2000/svg">
<path d="M12 2.25C10.6945 2.24205 9.4015 2.50527 8.20299 3.023C7.03767 3.50845 5.97874 4.21747 5.08599 5.11C4.20293 5.99677 3.50208 7.04788 3.02299 8.204C2.50539 9.4022 2.24217 10.6948 2.24999 12C2.24999 13.344 2.50799 14.61 3.02299 15.797C3.50567 16.958 4.20591 18.016 5.08599 18.914C5.98394 19.7941 7.04195 20.4944 8.20299 20.977C9.4015 21.4947 10.6945 21.758 12 21.75C13.3055 21.758 14.5985 21.4947 15.797 20.977C16.9531 20.4979 18.0042 19.7971 18.891 18.914C19.7831 18.0211 20.4918 16.9622 20.977 15.797C21.4947 14.5985 21.7579 13.3055 21.75 12C21.7579 10.6945 21.4947 9.40151 20.977 8.203C20.495 7.04291 19.7853 5.9912 18.89 5.11C18.0084 4.21489 16.9564 3.50558 15.796 3.024C14.5979 2.50606 13.3053 2.2425 12 2.25ZM3.74999 12C3.74999 10.86 3.96899 9.79 4.40599 8.79C4.8152 7.80844 5.41241 6.91637 6.16399 6.164C6.91635 5.41242 7.80842 4.81522 8.78999 4.406C9.78999 3.969 10.86 3.75 12.001 3.75C13.141 3.75 14.211 3.969 15.211 4.406C16.1925 4.81522 17.0846 5.41242 17.837 6.164C18.5885 6.91607 19.1857 7.80779 19.595 8.789C20.032 9.789 20.251 10.859 20.251 12C20.251 13.14 20.032 14.21 19.595 15.21C19.1858 16.1916 18.5886 17.0836 17.837 17.836C17.0849 18.5875 16.1932 19.1847 15.212 19.594C14.212 20.031 13.142 20.25 12.001 20.25C10.861 20.25 9.79099 20.031 8.79099 19.594C7.80942 19.1848 6.91735 18.5876 6.16499 17.836C5.41352 17.0839 4.81632 16.1922 4.40699 15.211C3.96999 14.211 3.74999 13.141 3.74999 12Z" />
<path d="M9 10.758C8.79962 10.7565 8.60632 10.8321 8.46 10.969C8.39 11.0399 8.33525 11.1234 8.29913 11.2163C8.26302 11.3091 8.2463 11.4084 8.25 11.508C8.24802 11.6036 8.26563 11.6986 8.30174 11.7872C8.33786 11.8758 8.39172 11.956 8.46 12.023L11.46 15.023C11.5292 15.097 11.6128 15.156 11.7057 15.1965C11.7985 15.2369 11.8987 15.2578 12 15.258C12.1013 15.2578 12.2015 15.2369 12.2944 15.1965C12.3872 15.156 12.4708 15.097 12.54 15.023L15.54 12.023C15.68 11.883 15.75 11.711 15.75 11.508C15.75 11.289 15.68 11.109 15.54 10.968C15.383 10.828 15.203 10.758 15 10.758C14.7996 10.7565 14.6063 10.8321 14.46 10.969L12 13.43L9.54 10.968C9.383 10.828 9.203 10.758 9 10.758Z" />
</svg>
