<svg  viewBox="0 0 24 24" fill="white" xmlns="http://www.w3.org/2000/svg">
<path d="M14.46 13.031C14.617 13.171 14.797 13.242 15 13.242C15.203 13.242 15.383 13.172 15.54 13.032C15.68 12.891 15.75 12.719 15.75 12.516C15.7537 12.4164 15.737 12.3171 15.7008 12.2243C15.6647 12.1314 15.61 12.0469 15.54 11.976L12.54 8.976C12.4707 8.90219 12.3871 8.84334 12.2942 8.8031C12.2013 8.76285 12.1012 8.74206 12 8.742C11.8987 8.74219 11.7985 8.76314 11.7056 8.80355C11.6128 8.84397 11.5291 8.90301 11.46 8.97701L8.45998 11.977C8.3901 12.0478 8.33543 12.1321 8.29931 12.2248C8.2632 12.3175 8.24641 12.4166 8.24998 12.516C8.24998 12.719 8.31998 12.891 8.45998 13.031C8.61698 13.171 8.79698 13.242 8.99998 13.242C9.20298 13.242 9.38298 13.172 9.53998 13.032L12 10.57L14.46 13.031Z" />
</svg>
