<svg viewBox="0 0 25 24" fill="white" xmlns="http://www.w3.org/2000/svg">
<path d="M3.15576 6.047C3.15576 4.922 3.54576 3.969 4.32776 3.187C5.10876 2.391 6.05376 1.992 7.16376 1.992H17.1478C18.2578 1.992 19.2028 2.391 19.9838 3.188C20.7658 3.968 21.1558 4.921 21.1558 6.046V20.976C21.1558 21.413 20.9608 21.726 20.5698 21.913C20.1798 22.085 19.8198 22.03 19.4918 21.749L13.4918 16.335C13.127 16.0015 12.65 15.8176 12.1558 15.82C11.6558 15.82 11.2108 15.992 10.8198 16.336L4.81976 21.75C4.49176 22.031 4.13276 22.086 3.74176 21.914C3.35176 21.727 3.15576 21.414 3.15576 20.977V6.047Z" />
</svg>
