<svg  viewBox="0 0 24 24" fill="white" xmlns="http://www.w3.org/2000/svg">
<path d="M4.21899 11.203C4.35899 11.359 4.53099 11.438 4.73399 11.438C4.83198 11.4391 4.92902 11.4187 5.0182 11.3781C5.10738 11.3374 5.18652 11.2777 5.24999 11.203L11.273 4.898V21.234C11.273 21.454 11.343 21.641 11.484 21.797C11.625 21.937 11.797 22.007 12 22.007C12.203 22.007 12.375 21.937 12.516 21.797C12.6554 21.6431 12.7306 21.4416 12.726 21.234V4.898L18.75 11.203C18.89 11.359 19.063 11.438 19.266 11.438C19.3638 11.439 19.4607 11.4185 19.5497 11.3778C19.6387 11.3372 19.7176 11.2775 19.781 11.203C19.8495 11.1361 19.9035 11.0559 19.9398 10.9673C19.9761 10.8788 19.9938 10.7837 19.992 10.688C19.9966 10.4804 19.9214 10.2789 19.782 10.125L12 1.992L4.21899 10.125C4.07921 10.2788 4.00369 10.4802 4.00799 10.688C4.00799 10.891 4.07799 11.062 4.21799 11.203H4.21899Z" />
</svg>
