<svg  viewBox="0 0 25 24" fill="white" xmlns="http://www.w3.org/2000/svg">
<path d="M13.1549 2.7395C13.1549 2.32605 12.8209 1.99035 12.4075 1.99122C12.3266 1.99139 12.2421 1.99165 12.1557 1.99204C11.2337 1.99204 10.3587 2.16404 9.53065 2.50804C8.72876 2.83468 7.9969 3.31195 7.37465 3.91404C6.76286 4.51132 6.26983 5.21915 5.92165 6.00004C5.55902 6.81076 5.37487 7.68995 5.38165 8.57804C5.38165 9.01604 5.36665 9.60204 5.33565 10.336C5.31965 11.055 5.25765 11.836 5.14765 12.68C5.03765 13.523 4.85865 14.367 4.60865 15.21C4.38858 16.0218 4.04886 16.7963 3.60065 17.508C3.35065 17.914 3.33565 18.352 3.55365 18.82C3.77365 19.273 4.14765 19.5 4.67865 19.5H19.6327C20.1477 19.5 20.5147 19.273 20.7337 18.82C20.9687 18.352 20.9607 17.914 20.7107 17.508C20.2611 16.7943 19.9137 16.0211 19.6787 15.211C19.4473 14.3806 19.2752 13.5348 19.1637 12.68C19.0537 11.836 18.9837 11.055 18.9527 10.336C18.9523 10.3224 18.952 10.3089 18.9517 10.2955C18.9429 9.88909 18.6168 9.56253 18.2103 9.56253C17.7942 9.56253 17.4502 9.90417 17.452 10.3203C17.4522 10.3471 17.4524 10.3686 17.4527 10.383C17.4837 11.148 17.5627 11.977 17.6867 12.867C17.7967 13.711 17.9687 14.586 18.2027 15.492C18.4527 16.382 18.8037 17.219 19.2577 18H5.05365C5.50765 17.219 5.85065 16.383 6.08565 15.492C6.33565 14.586 6.51565 13.711 6.62465 12.867C6.74965 11.977 6.81965 11.148 6.83465 10.383C6.86665 9.61704 6.88265 9.01604 6.88265 8.57804C6.88265 7.87504 7.01465 7.21804 7.28065 6.60904C7.55307 6.01256 7.93463 5.47228 8.40565 5.01604C8.89637 4.54269 9.46811 4.1613 10.0936 3.89004C10.7478 3.62194 11.4488 3.48665 12.1557 3.49204C12.2012 3.49171 12.2925 3.49155 12.4022 3.49149C12.8176 3.49129 13.1549 3.15492 13.1549 2.7395Z" />
<path d="M10.1627 21C10.0613 20.9973 9.96058 21.0168 9.86763 21.0573C9.77467 21.0977 9.69171 21.158 9.62461 21.234C9.55602 21.301 9.5019 21.3814 9.46561 21.4701C9.42932 21.5589 9.41162 21.6541 9.41361 21.75C9.41361 21.953 9.48361 22.133 9.62361 22.29C9.76461 22.43 9.94461 22.5 10.1637 22.5H14.1476C14.2472 22.5037 14.3465 22.487 14.4394 22.4509C14.5322 22.4148 14.6167 22.36 14.6876 22.29C14.8242 22.1435 14.8994 21.9503 14.8976 21.75C14.8998 21.6542 14.8822 21.559 14.8461 21.4703C14.81 21.3815 14.7561 21.3011 14.6876 21.234C14.6203 21.1578 14.537 21.0973 14.4437 21.0568C14.3504 21.0164 14.2493 20.997 14.1476 21H10.1627Z" />
<circle cx="16.6156" cy="5.68988" r="3" fill="#44F4D4"/>
</svg>
