<svg  viewBox="0 0 24 24" fill="white" xmlns="http://www.w3.org/2000/svg">
<path d="M12.0001 22.008C10.6621 22.0154 9.33732 21.744 8.1101 21.211C6.91888 20.714 5.83601 19.9895 4.9221 19.078C4.01073 18.1644 3.28622 17.0818 2.7891 15.891C2.25595 14.6634 1.98451 13.3383 1.9921 12C1.98465 10.662 2.25608 9.3372 2.7891 8.10998C3.28615 6.91878 4.01066 5.83592 4.9221 4.92198C5.83574 4.01065 6.91826 3.28614 8.1091 2.78898C9.33663 2.25582 10.6618 1.98438 12.0001 1.99198C13.3381 1.98452 14.6629 2.25596 15.8901 2.78898C17.0813 3.286 18.1642 4.01052 19.0781 4.92198C19.9895 5.83559 20.714 6.91811 21.2111 8.10898C21.7443 9.3365 22.0157 10.6617 22.0081 12C22.0156 13.3379 21.7441 14.6628 21.2111 15.89C20.7141 17.0812 19.9896 18.1641 19.0781 19.078C18.1645 19.9894 17.082 20.7139 15.8911 21.211C14.6636 21.7441 13.3384 22.0156 12.0001 22.008ZM12.0001 20.508C13.1372 20.5151 14.2632 20.2834 15.3051 19.828C16.3119 19.4067 17.2273 18.7936 18.0001 18.023C18.7798 17.244 19.4007 16.3209 19.8281 15.305C20.2836 14.263 20.5152 13.1371 20.5081 12C20.5152 10.8629 20.2836 9.73691 19.8281 8.69498C19.4042 7.68393 18.7827 6.76769 18.0001 5.99998C17.2324 5.21733 16.3162 4.59584 15.3051 4.17198C14.2632 3.7165 13.1372 3.48484 12.0001 3.49198C10.863 3.48484 9.73703 3.7165 8.6951 4.17198C7.67919 4.5994 6.75606 5.22025 5.9771 5.99998C5.20645 6.77283 4.59341 7.68815 4.1721 8.69498C3.71662 9.73691 3.48496 10.8629 3.4921 12C3.4921 13.172 3.7191 14.273 4.1721 15.305C4.59697 16.3167 5.20941 17.2389 5.9771 18.023C6.76113 18.7907 7.68335 19.4031 8.6951 19.828C9.73703 20.2834 10.863 20.5151 12.0001 20.508Z" />
<path d="M12.5161 10.218C12.3751 10.078 12.2031 10.008 12.0001 10.008C11.7999 10.0063 11.6066 10.0814 11.4601 10.218C11.3901 10.2889 11.3354 10.3734 11.2992 10.4663C11.2631 10.5591 11.2464 10.6584 11.2501 10.758V16.242C11.2464 16.3416 11.2631 16.4408 11.2992 16.5337C11.3354 16.6266 11.3901 16.7111 11.4601 16.782C11.6066 16.9186 11.7999 16.9937 12.0001 16.992C12.0959 16.9941 12.1911 16.9766 12.2799 16.9405C12.3686 16.9043 12.449 16.8504 12.5161 16.782C12.5924 16.7147 12.6528 16.6314 12.6933 16.5381C12.7337 16.4447 12.7531 16.3437 12.7501 16.242V10.758C12.7501 10.539 12.6721 10.359 12.5161 10.218Z" />
<path d="M12.6933 7.46192C12.7337 7.55524 12.7531 7.65632 12.7501 7.75799V8.24999C12.7501 8.35122 12.7294 8.45137 12.6891 8.54425C12.6489 8.63714 12.59 8.72077 12.5161 8.78999C12.3751 8.92999 12.2031 8.99999 12.0001 8.99999C11.7971 8.99999 11.6171 8.92999 11.4601 8.78999C11.3201 8.63299 11.2501 8.45299 11.2501 8.24999V7.75799C11.2464 7.65841 11.2631 7.55913 11.2992 7.46626C11.3354 7.37339 11.3901 7.2889 11.4601 7.21799C11.6066 7.08143 11.7999 7.00627 12.0001 7.00799C12.0959 7.00587 12.1911 7.02341 12.2799 7.05953C12.3686 7.09565 12.449 7.14958 12.5161 7.21799C12.5924 7.28531 12.6528 7.36859 12.6933 7.46192Z" />
</svg>
