<svg  viewBox="0 0 24 24" fill="white" xmlns="http://www.w3.org/2000/svg">
<path d="M22.008 12C22.0154 10.662 21.744 9.33722 21.211 8.11C20.714 6.91878 19.9895 5.83591 19.078 4.922C18.1643 4.01065 17.0818 3.28614 15.891 2.789C14.6634 2.25585 13.3383 1.98441 12 1.992C10.662 1.98455 9.3372 2.25598 8.10998 2.789C6.91878 3.28605 5.83592 4.01056 4.92198 4.922C4.01065 5.83564 3.28614 6.91816 2.78898 8.109C2.25582 9.33653 1.98438 10.6617 1.99198 12C1.98452 13.338 2.25596 14.6628 2.78898 15.89C3.28598 17.0812 4.0105 18.1641 4.92198 19.078C5.83559 19.9894 6.91811 20.7139 8.10898 21.211C9.3365 21.7442 10.6617 22.0156 12 22.008C13.3379 22.0155 14.6628 21.744 15.89 21.211C17.0812 20.714 18.1641 19.9895 19.078 19.078C19.9894 18.1644 20.7139 17.0819 21.211 15.891C21.7441 14.6635 22.0156 13.3383 22.008 12ZM9.53898 13.523C9.46996 13.5969 9.38652 13.6559 9.29382 13.6963C9.20111 13.7368 9.10111 13.7577 8.99998 13.758C8.89867 13.7579 8.79848 13.737 8.70559 13.6965C8.6127 13.6561 8.52911 13.597 8.45998 13.523C8.39169 13.456 8.33783 13.3758 8.30172 13.2872C8.2656 13.1986 8.24799 13.1036 8.24998 13.008C8.24627 12.9084 8.26299 12.8091 8.29911 12.7163C8.33522 12.6234 8.38997 12.5389 8.45998 12.468L11.11 9.82C11.36 9.586 11.656 9.469 12 9.469C12.344 9.469 12.64 9.586 12.89 9.82L15.54 12.469C15.68 12.609 15.75 12.789 15.75 13.008C15.75 13.211 15.68 13.383 15.54 13.523C15.4708 13.597 15.3872 13.656 15.2943 13.6964C15.2014 13.7369 15.1013 13.7578 15 13.758C14.8987 13.7578 14.7985 13.7369 14.7056 13.6964C14.6127 13.656 14.5291 13.597 14.46 13.523L12 11.063L9.53998 13.523H9.53898Z" />
</svg>
