<svg  viewBox="0 0 24 24" fill="white" xmlns="http://www.w3.org/2000/svg">
<path d="M12 2.24999C10.6945 2.24204 9.4015 2.50526 8.20299 3.02299C7.03767 3.50844 5.97874 4.21746 5.08599 5.10999C4.20293 5.99676 3.50208 7.04787 3.02299 8.20399C2.50539 9.40219 2.24217 10.6948 2.24999 12C2.24999 13.344 2.50799 14.61 3.02299 15.797C3.50567 16.958 4.20591 18.016 5.08599 18.914C5.98394 19.7941 7.04195 20.4944 8.20299 20.977C9.4015 21.4947 10.6945 21.7579 12 21.75C13.3055 21.7579 14.5985 21.4947 15.797 20.977C16.9531 20.4979 18.0042 19.797 18.891 18.914C19.7831 18.0211 20.4918 16.9622 20.977 15.797C21.4947 14.5985 21.7579 13.3055 21.75 12C21.7579 10.6945 21.4947 9.4015 20.977 8.20299C20.495 7.04291 19.7853 5.99119 18.89 5.10999C18.0084 4.21488 16.9564 3.50558 15.796 3.02399C14.5979 2.50605 13.3053 2.24249 12 2.24999ZM3.74999 12C3.74999 10.86 3.96899 9.78999 4.40599 8.78999C4.8152 7.80843 5.41241 6.91636 6.16399 6.16399C6.91635 5.41242 7.80842 4.81521 8.78999 4.40599C9.78999 3.96899 10.86 3.74999 12.001 3.74999C13.141 3.74999 14.211 3.96899 15.211 4.40599C16.1925 4.81521 17.0846 5.41242 17.837 6.16399C18.5885 6.91606 19.1857 7.80779 19.595 8.78899C20.032 9.78899 20.251 10.859 20.251 12C20.251 13.14 20.032 14.21 19.595 15.21C19.1858 16.1916 18.5886 17.0836 17.837 17.836C17.0849 18.5875 16.1932 19.1847 15.212 19.594C14.212 20.031 13.142 20.25 12.001 20.25C10.861 20.25 9.79099 20.031 8.79099 19.594C7.80942 19.1848 6.91735 18.5876 6.16499 17.836C5.41352 17.0839 4.81632 16.1922 4.40699 15.211C3.96999 14.211 3.74999 13.141 3.74999 12Z" />
<path d="M10.2565 8.70557C10.2969 8.61269 10.356 8.52909 10.4301 8.45996C10.497 8.39167 10.5773 8.33782 10.6658 8.3017C10.7544 8.26558 10.8494 8.24798 10.9451 8.24996C11.1453 8.24824 11.3386 8.3234 11.4851 8.45996L14.4851 11.46C14.6216 11.6064 14.6968 11.7997 14.6951 12C14.6968 12.2002 14.6216 12.3935 14.4851 12.54L11.4851 15.54C11.3281 15.68 11.1481 15.75 10.9451 15.75C10.7421 15.75 10.5701 15.68 10.4301 15.54C10.2731 15.383 10.1951 15.203 10.1951 15C10.1952 14.8987 10.2162 14.7985 10.2566 14.7056C10.297 14.6127 10.3561 14.5291 10.4301 14.46L12.8901 12L10.4301 9.53996C10.356 9.47083 10.2969 9.38723 10.2565 9.29434C10.2161 9.20146 10.1952 9.10126 10.1951 8.99996C10.1952 8.89866 10.2161 8.79846 10.2565 8.70557Z" />
</svg>
