<svg  viewBox="0 0 24 24" fill="white" xmlns="http://www.w3.org/2000/svg">
<path d="M12.82 16.594C12.7577 16.6637 12.682 16.7203 12.5976 16.7605C12.5131 16.8007 12.4214 16.8236 12.328 16.828C12.1389 16.833 11.9548 16.7662 11.813 16.641L7.313 12.539H7.289V12.516C7.219 12.4496 7.1632 12.3696 7.125 12.281C7.09425 12.1905 7.07837 12.0956 7.078 12C7.078 11.953 7.086 11.906 7.102 11.86L7.148 11.672L7.195 11.578L7.289 11.484L7.313 11.461L11.813 7.359C11.8826 7.29719 11.9644 7.25066 12.0531 7.22241C12.1418 7.19416 12.2355 7.18482 12.328 7.195C12.531 7.195 12.695 7.265 12.82 7.406C12.96 7.563 13.023 7.742 13.008 7.946C13.0072 8.04021 12.9857 8.13309 12.9451 8.2181C12.9045 8.30311 12.8458 8.37817 12.773 8.438L9.656 11.273H15.726C15.93 11.273 16.102 11.343 16.242 11.484C16.382 11.625 16.453 11.797 16.453 12C16.453 12.203 16.383 12.375 16.243 12.516C16.1759 12.5844 16.0955 12.6383 16.0068 12.6745C15.918 12.7106 15.8228 12.7281 15.727 12.726H9.657L12.773 15.562C12.93 15.703 13.008 15.875 13.008 16.078C13.0152 16.1724 13.0021 16.2673 12.9697 16.3563C12.9372 16.4453 12.8862 16.5263 12.82 16.594Z" />
</svg>
