<svg  viewBox="0 0 24 24" fill="white" xmlns="http://www.w3.org/2000/svg">
<path d="M19.523 16.313C19.4558 16.3891 19.3726 16.4495 19.2795 16.49C19.1864 16.5304 19.0855 16.5499 18.984 16.547C18.8861 16.548 18.7893 16.5275 18.7003 16.4868C18.6113 16.4462 18.5323 16.3865 18.469 16.312L12 9.845L5.53097 16.314C5.46376 16.3901 5.38064 16.4505 5.2875 16.491C5.19436 16.5314 5.09347 16.5509 4.99197 16.548C4.89415 16.549 4.79731 16.5285 4.70831 16.4878C4.61931 16.4472 4.54033 16.3875 4.47697 16.313C4.40249 16.2496 4.34283 16.1706 4.30222 16.0816C4.26162 15.9926 4.24105 15.8958 4.24197 15.798C4.24197 15.595 4.31997 15.415 4.47697 15.258L11.109 8.626C11.359 8.376 11.656 8.251 12 8.251C12.344 8.251 12.64 8.376 12.89 8.626L19.523 15.259C19.5969 15.3281 19.6558 15.4115 19.6962 15.5042C19.7366 15.5969 19.7577 15.6969 19.758 15.798C19.759 15.8958 19.7384 15.9927 19.6978 16.0817C19.6572 16.1707 19.5975 16.2496 19.523 16.313Z" />
</svg>
