<svg  viewBox="0 0 24 24" fill="white" xmlns="http://www.w3.org/2000/svg">
<path d="M3.00003 12C3.00003 11.797 3.07003 11.625 3.21003 11.484C3.27925 11.4101 3.36288 11.3513 3.45577 11.311C3.54865 11.2708 3.6488 11.25 3.75003 11.25H20.25C20.453 11.25 20.625 11.328 20.766 11.484C20.922 11.625 21 11.797 21 12C21 12.1012 20.9792 12.2014 20.9389 12.2942C20.8987 12.3871 20.8398 12.4707 20.766 12.54C20.6989 12.6084 20.6185 12.6623 20.5298 12.6985C20.441 12.7346 20.3458 12.7521 20.25 12.75H3.75003C3.54978 12.7517 3.3565 12.6766 3.21003 12.54C3.07347 12.3935 2.9983 12.2002 3.00003 12Z" />
</svg>
