<svg  viewBox="0 0 24 24" fill="white"  xmlns="http://www.w3.org/2000/svg">
<path d="M11.766 21.61C10.4756 21.6177 9.19795 21.354 8.01602 20.836C6.88253 20.351 5.84925 19.6592 4.96902 18.796C4.09997 17.907 3.40081 16.8665 2.90602 15.726C2.40185 14.549 2.14651 13.2804 2.15602 12C2.15602 10.672 2.40602 9.43 2.90602 8.273C3.39759 7.13759 4.09769 6.10441 4.97002 5.227C5.84516 4.35171 6.87933 3.65152 8.01702 3.164C9.19905 2.64642 10.4767 2.38306 11.767 2.391C13.095 2.391 14.337 2.648 15.493 3.164C16.6349 3.64375 17.6705 4.3449 18.54 5.227C19.422 6.0962 20.1232 7.13144 20.603 8.273C21.103 9.43 21.353 10.672 21.353 12C21.353 13.328 21.103 14.57 20.603 15.727C20.1197 16.8737 19.4191 17.9162 18.54 18.797C17.6652 19.6667 16.6306 20.359 15.493 20.836C14.3199 21.355 13.0498 21.6185 11.767 21.609L11.766 21.61ZM11.719 7.36C11.5678 7.23598 11.3737 7.17668 11.179 7.195C11.087 7.19476 10.9958 7.21335 10.9112 7.24964C10.8266 7.28592 10.7503 7.33913 10.687 7.406C10.5634 7.55857 10.4972 7.74966 10.5 7.946C10.5155 8.13303 10.5987 8.30799 10.734 8.438L13.875 11.273H7.80502C7.70916 11.2711 7.61392 11.2888 7.52518 11.3251C7.43643 11.3614 7.35606 11.4155 7.28902 11.484C7.22061 11.5511 7.16668 11.6315 7.13056 11.7202C7.09444 11.809 7.0769 11.9042 7.07902 12C7.07902 12.203 7.14902 12.375 7.28902 12.516C7.42902 12.656 7.60202 12.726 7.80502 12.726H13.875L10.735 15.562C10.5957 15.6991 10.512 15.8829 10.5 16.078C10.5 16.266 10.563 16.438 10.688 16.594C10.818 16.7293 10.993 16.8126 11.18 16.828C11.376 16.8305 11.5667 16.7644 11.719 16.641L16.195 12.539H16.219C16.219 12.523 16.227 12.516 16.242 12.516C16.2702 12.4886 16.2939 12.4569 16.312 12.422L16.359 12.328C16.391 12.266 16.414 12.211 16.429 12.164C16.4436 12.1105 16.4516 12.0554 16.453 12C16.454 11.9092 16.4298 11.8199 16.383 11.742C16.3521 11.6483 16.3047 11.561 16.243 11.484H16.219C16.219 11.469 16.211 11.461 16.195 11.461L11.72 7.359L11.719 7.36Z" />
</svg>
