<svg  viewBox="0 0 24 24" fill="white" xmlns="http://www.w3.org/2000/svg">
<path fill-rule="evenodd" clip-rule="evenodd" d="M8.1101 21.211C9.33732 21.744 10.6621 22.0154 12.0001 22.008C13.3384 22.0156 14.6636 21.7441 15.8911 21.211C17.082 20.7139 18.1645 19.9894 19.0781 19.078C19.9896 18.1641 20.7141 17.0812 21.2111 15.89C21.7441 14.6628 22.0156 13.3379 22.0081 12C22.0157 10.6617 21.7443 9.3365 21.2111 8.10898C20.714 6.91811 19.9895 5.83559 19.0781 4.92198C18.1642 4.01052 17.0813 3.286 15.8901 2.78898C14.6629 2.25596 13.3381 1.98452 12.0001 1.99198C10.6618 1.98438 9.33663 2.25582 8.1091 2.78898C6.91826 3.28614 5.83574 4.01065 4.9221 4.92198C4.01066 5.83592 3.28615 6.91878 2.7891 8.10998C2.25608 9.3372 1.98465 10.662 1.9921 12C1.98451 13.3383 2.25595 14.6634 2.7891 15.891C3.28622 17.0818 4.01073 18.1644 4.9221 19.078C5.83601 19.9895 6.91888 20.714 8.1101 21.211ZM12.7501 7.75798C12.7532 7.65632 12.7337 7.55524 12.6933 7.46191C12.6529 7.36859 12.5924 7.28531 12.5161 7.21798C12.449 7.14957 12.3686 7.09564 12.2799 7.05952C12.1911 7.02341 12.0959 7.00586 12.0001 7.00798C11.7999 7.00626 11.6066 7.08142 11.4601 7.21798C11.3901 7.2889 11.3354 7.37339 11.2993 7.46626C11.2632 7.55913 11.2464 7.65841 11.2501 7.75798V8.24998C11.2501 8.45298 11.3201 8.63298 11.4601 8.78998C11.6171 8.92998 11.7971 8.99998 12.0001 8.99998C12.2031 8.99998 12.3751 8.92998 12.5161 8.78998C12.59 8.72077 12.6489 8.63713 12.6891 8.54425C12.7294 8.45136 12.7501 8.35121 12.7501 8.24998V7.75798ZM12.0001 10.008C12.2031 10.008 12.3751 10.078 12.5161 10.218C12.6721 10.359 12.7501 10.539 12.7501 10.758V16.242C12.7532 16.3437 12.7337 16.4447 12.6933 16.5381C12.6529 16.6314 12.5924 16.7147 12.5161 16.782C12.449 16.8504 12.3686 16.9043 12.2799 16.9404C12.1911 16.9766 12.0959 16.9941 12.0001 16.992C11.7999 16.9937 11.6066 16.9185 11.4601 16.782C11.3901 16.7111 11.3354 16.6266 11.2993 16.5337C11.2632 16.4408 11.2464 16.3416 11.2501 16.242V10.758C11.2464 10.6584 11.2632 10.5591 11.2993 10.4663C11.3354 10.3734 11.3901 10.2889 11.4601 10.218C11.6066 10.0814 11.7999 10.0063 12.0001 10.008Z" />
</svg>
