<svg  viewBox="0 0 25 24" fill="white" xmlns="http://www.w3.org/2000/svg">
<path fill-rule="evenodd" clip-rule="evenodd" d="M12.1568 1.99201C11.2348 1.99201 10.3598 2.16401 9.5318 2.50801C8.72991 2.83465 7.99805 3.31192 7.3758 3.91401C6.76401 4.51129 6.27098 5.21912 5.9228 6.00001C5.56017 6.81073 5.37601 7.68992 5.3828 8.57801C5.3828 9.01601 5.3678 9.60201 5.3368 10.336C5.3208 11.055 5.2588 11.836 5.1488 12.68C5.0388 13.523 4.8598 14.367 4.6098 15.21C4.38973 16.0218 4.05 16.7963 3.6018 17.508C3.5764 17.5493 3.55342 17.5908 3.53287 17.6327L1.84824 19.0514C1.52769 19.3213 1.48413 19.797 1.75094 20.1138C2.01775 20.4307 2.4939 20.4687 2.81445 20.1988L20.8763 4.98876C21.1969 4.71883 21.2405 4.24315 20.9737 3.92632C20.7068 3.60948 20.2307 3.57146 19.9101 3.8414L18.0778 5.38444C17.7679 4.8451 17.3845 4.35009 16.9378 3.91401C16.3156 3.3119 15.5837 2.83462 14.7818 2.50801C13.9498 2.16335 13.0574 1.98794 12.1568 1.99201ZM16.9124 6.36578C16.6481 5.86183 16.3006 5.40539 15.8838 5.01601C15.4148 4.54701 14.8598 4.17101 14.2198 3.89101C13.5655 3.62244 12.8642 3.4868 12.1568 3.49201C11.4499 3.48662 10.749 3.62191 10.0948 3.89001C9.46926 4.16127 8.89752 4.54266 8.4068 5.01601C7.93578 5.47225 7.55422 6.01253 7.2818 6.60901C7.0158 7.21801 6.8838 7.87501 6.8838 8.57801C6.8838 9.01601 6.8678 9.61701 6.8358 10.383C6.8208 11.148 6.7508 11.977 6.6258 12.867C6.51732 13.707 6.33851 14.5777 6.09036 15.4791L16.9124 6.36578ZM19.6338 19.5H5.90201L7.68326 18H19.2588C18.8048 17.219 18.4538 16.382 18.2038 15.492C17.9698 14.586 17.7978 13.711 17.6878 12.867C17.5638 11.977 17.4848 11.148 17.4538 10.383C17.4494 10.1699 17.4456 9.96949 17.4423 9.78188L18.9297 8.52939L18.9298 8.57801C18.9319 9.16408 18.9399 9.75011 18.9538 10.336C18.9848 11.055 19.0548 11.836 19.1648 12.68C19.2763 13.5348 19.4484 14.3806 19.6798 15.211C19.9149 16.0211 20.2622 16.7943 20.7118 17.508C20.9618 17.914 20.9698 18.352 20.7348 18.82C20.5158 19.273 20.1488 19.5 19.6338 19.5ZM9.86878 21.0573C9.96173 21.0168 10.0624 20.9973 10.1638 21H14.1488C14.2505 20.997 14.3515 21.0164 14.4449 21.0568C14.5382 21.0973 14.6215 21.1578 14.6888 21.234C14.7572 21.3011 14.8111 21.3815 14.8473 21.4703C14.8834 21.559 14.9009 21.6542 14.8988 21.75C14.9005 21.9503 14.8254 22.1435 14.6888 22.29C14.6179 22.36 14.5334 22.4148 14.4405 22.4509C14.3477 22.487 14.2484 22.5037 14.1488 22.5H10.1648C9.94576 22.5 9.76576 22.43 9.62476 22.29C9.48476 22.133 9.41476 21.953 9.41476 21.75C9.41277 21.6541 9.43047 21.5589 9.46676 21.4701C9.50305 21.3814 9.55717 21.301 9.62576 21.234C9.69286 21.158 9.77582 21.0977 9.86878 21.0573Z" />
</svg>
