<svg  viewBox="0 0 24 24" fill="white" xmlns="http://www.w3.org/2000/svg">
<path d="M21.352 12C21.352 13.328 21.102 14.57 20.602 15.727C20.1187 16.8737 19.4181 17.9162 18.539 18.797C17.6642 19.6667 16.6296 20.359 15.492 20.836C14.3189 21.355 13.0488 21.6185 11.766 21.609C10.4757 21.617 9.19803 21.3536 8.01602 20.836C6.88253 20.351 5.84925 19.6592 4.96902 18.796C4.09997 17.907 3.40081 16.8665 2.90602 15.726C2.40185 14.549 2.14651 13.2804 2.15602 12C2.15602 10.672 2.40602 9.43 2.90602 8.273C3.39759 7.13759 4.09769 6.10441 4.97002 5.227C5.84516 4.35172 6.87933 3.65152 8.01702 3.164C9.19905 2.64642 10.4767 2.38307 11.767 2.391C13.095 2.391 14.337 2.648 15.493 3.164C16.6349 3.64375 17.6705 4.34491 18.54 5.227C19.422 6.09621 20.1232 7.13145 20.603 8.273C21.103 9.43 21.353 10.672 21.353 12H21.352ZM7.12502 12.047C7.05673 12.114 7.00287 12.1942 6.96676 12.2828C6.93064 12.3714 6.91304 12.4664 6.91502 12.562C6.92007 12.6578 6.94563 12.7514 6.98997 12.8364C7.03431 12.9215 7.09639 12.996 7.17202 13.055C7.31202 13.195 7.48402 13.265 7.68802 13.265C7.78363 13.2598 7.87701 13.2342 7.96188 13.1898C8.04675 13.1455 8.12114 13.0835 8.18002 13.008L11.04 9.891V15.961C11.04 16.164 11.11 16.336 11.25 16.477C11.39 16.617 11.563 16.687 11.766 16.687C11.969 16.687 12.133 16.617 12.258 16.477C12.3264 16.4099 12.3803 16.3295 12.4164 16.2407C12.4525 16.152 12.4701 16.0568 12.468 15.961V9.89L15.328 13.007C15.4516 13.1545 15.6284 13.2472 15.82 13.265C16.023 13.265 16.203 13.195 16.36 13.054C16.5 12.929 16.57 12.764 16.57 12.562C16.5803 12.4693 16.5711 12.3755 16.5428 12.2866C16.5146 12.1977 16.468 12.1157 16.406 12.046L12.305 7.57C12.297 7.56231 12.289 7.55465 12.281 7.547C12.281 7.531 12.273 7.523 12.258 7.523C12.2306 7.49478 12.1989 7.47115 12.164 7.453C12.1366 7.4248 12.1049 7.40116 12.07 7.383C12.016 7.36526 11.9613 7.34958 11.906 7.336C11.861 7.32051 11.8137 7.3124 11.766 7.312C11.6678 7.31282 11.5712 7.3368 11.484 7.382C11.3995 7.41723 11.3207 7.46474 11.25 7.523L11.227 7.547V7.57L7.12502 12.047Z" />
</svg>
