<svg  viewBox="0 0 24 24" fill="white" xmlns="http://www.w3.org/2000/svg">
<path d="M4.47697 4.47699C4.54037 4.40251 4.61936 4.34285 4.70835 4.30224C4.79734 4.26164 4.89416 4.24107 4.99197 4.24199C5.21097 4.24199 5.39097 4.31999 5.53197 4.47699L12 10.945L18.469 4.47699C18.5323 4.40245 18.6113 4.34276 18.7003 4.30215C18.7893 4.26154 18.8861 4.241 18.984 4.24199C19.204 4.24199 19.383 4.31999 19.524 4.47699C19.68 4.61699 19.758 4.79699 19.758 5.01599C19.759 5.11382 19.7384 5.21066 19.6978 5.29966C19.6572 5.38866 19.5975 5.46764 19.523 5.53099L13.055 12L19.523 18.469C19.68 18.609 19.758 18.789 19.758 19.008C19.759 19.1058 19.7384 19.2027 19.6978 19.2917C19.6572 19.3807 19.5975 19.4596 19.523 19.523C19.4559 19.5993 19.3728 19.6599 19.2796 19.7005C19.1865 19.7411 19.0855 19.7607 18.984 19.758C18.8861 19.759 18.7893 19.7385 18.7003 19.6978C18.6113 19.6572 18.5323 19.5975 18.469 19.523L12 13.055L5.53097 19.523C5.46385 19.5993 5.38078 19.6599 5.28763 19.7005C5.19449 19.7411 5.09355 19.7607 4.99197 19.758C4.89415 19.759 4.79731 19.7385 4.70831 19.6978C4.61931 19.6572 4.54033 19.5975 4.47697 19.523C4.40249 19.4596 4.34283 19.3806 4.30222 19.2916C4.26162 19.2026 4.24105 19.1058 4.24197 19.008C4.24197 18.789 4.31997 18.609 4.47697 18.468L10.945 12L4.47697 5.53099C4.40249 5.46759 4.34283 5.38861 4.30222 5.29962C4.26162 5.21063 4.24105 5.1138 4.24197 5.01599C4.24197 4.79599 4.31997 4.61699 4.47697 4.47599V4.47699Z" />
</svg>
