<svg  viewBox="0 0 24 24" fill="white" xmlns="http://www.w3.org/2000/svg">
<path d="M15.54 4.477C15.68 4.617 15.75 4.797 15.75 5.016C15.75 5.219 15.68 5.391 15.54 5.531L9.07 12L15.54 18.469C15.68 18.609 15.75 18.789 15.75 19.008C15.75 19.211 15.68 19.383 15.54 19.523C15.4708 19.597 15.3872 19.656 15.2944 19.6965C15.2015 19.7369 15.1013 19.7578 15 19.758C14.8987 19.7578 14.7985 19.7369 14.7057 19.6965C14.6128 19.656 14.5292 19.597 14.46 19.523L7.828 12.891C7.70795 12.776 7.61274 12.6376 7.54824 12.4843C7.48374 12.3311 7.45133 12.1663 7.453 12C7.453 11.656 7.578 11.36 7.828 11.11L14.461 4.477C14.5301 4.40313 14.6135 4.34417 14.7062 4.30375C14.7989 4.26334 14.8989 4.24232 15 4.242C15.203 4.242 15.383 4.32 15.54 4.477Z" />
</svg>
