<svg  viewBox="0 0 24 24" fill="white" xmlns="http://www.w3.org/2000/svg">
<path fill-rule="evenodd" clip-rule="evenodd" d="M12 22C17.5228 22 22 17.5228 22 12C22 6.47715 17.5228 2 12 2C6.47715 2 2 6.47715 2 12C2 17.5228 6.47715 22 12 22ZM12 8.75C11.3096 8.75 10.75 9.30964 10.75 10C10.75 10.4142 10.4142 10.75 10 10.75C9.58579 10.75 9.25 10.4142 9.25 10C9.25 8.48122 10.4812 7.25 12 7.25C13.5188 7.25 14.75 8.48122 14.75 10C14.75 11.042 14.1702 11.9475 13.3191 12.4134C13.1279 12.5181 12.9695 12.639 12.8671 12.7584C12.768 12.8739 12.75 12.952 12.75 13V13.5C12.75 13.9142 12.4142 14.25 12 14.25C11.5858 14.25 11.25 13.9142 11.25 13.5V13C11.25 12.4957 11.4692 12.0842 11.7285 11.7819C11.9845 11.4833 12.3056 11.2582 12.5988 11.0977C12.9885 10.8843 13.25 10.4722 13.25 10C13.25 9.30964 12.6904 8.75 12 8.75ZM12 17C12.5523 17 13 16.5523 13 16C13 15.4477 12.5523 15 12 15C11.4477 15 11 15.4477 11 16C11 16.5523 11.4477 17 12 17Z" />
</svg>
