<svg  viewBox="0 0 24 24" fill="white" xmlns="http://www.w3.org/2000/svg">
<path d="M12 22.008C13.3379 22.0155 14.6628 21.744 15.89 21.211C17.0812 20.714 18.1641 19.9895 19.078 19.078C19.9894 18.1644 20.7139 17.0819 21.211 15.891C21.7441 14.6635 22.0156 13.3383 22.008 12C22.0154 10.6621 21.744 9.33723 21.211 8.11001C20.714 6.91879 19.9895 5.83591 19.078 4.92201C18.1643 4.01066 17.0818 3.28615 15.891 2.78901C14.6634 2.25585 13.3383 1.98441 12 1.99201C10.662 1.98455 9.3372 2.25599 8.10998 2.78901C6.91878 3.28606 5.83592 4.01057 4.92198 4.92201C4.01065 5.83565 3.28614 6.91817 2.78898 8.10901C2.25582 9.33654 1.98438 10.6617 1.99198 12C1.98452 13.338 2.25596 14.6628 2.78898 15.89C3.28598 17.0812 4.0105 18.1641 4.92198 19.078C5.83559 19.9894 6.91811 20.7139 8.10898 21.211C9.3365 21.7442 10.6617 22.0156 12 22.008ZM16.523 9.46801C16.68 9.60901 16.758 9.78901 16.758 10.008C16.759 10.1058 16.7384 10.2027 16.6978 10.2917C16.6572 10.3807 16.5975 10.4597 16.523 10.523L10.993 16.055L7.47698 12.539C7.4031 12.47 7.34414 12.3865 7.30372 12.2938C7.26331 12.2011 7.2423 12.1011 7.24198 12C7.24198 11.797 7.31998 11.617 7.47698 11.46C7.61698 11.32 7.78898 11.25 7.99198 11.25C8.09155 11.2463 8.19083 11.263 8.2837 11.2991C8.37657 11.3353 8.46106 11.39 8.53198 11.46L10.992 13.945L15.47 9.47001C15.61 9.33001 15.782 9.25901 15.985 9.25901C16.0846 9.2553 16.1838 9.27202 16.2767 9.30814C16.3696 9.34425 16.4541 9.399 16.525 9.46901L16.523 9.46801Z" />
</svg>
