<svg  viewBox="0 0 24 24" fill="white" xmlns="http://www.w3.org/2000/svg">
<path d="M16.36 10.945C16.5 11.07 16.57 11.235 16.57 11.437C16.5803 11.5297 16.5711 11.6235 16.5428 11.7124C16.5146 11.8013 16.468 11.8833 16.406 11.953L12.305 16.43C12.289 16.445 12.281 16.46 12.281 16.477H12.258C12.189 16.544 12.1097 16.5994 12.023 16.641C11.9411 16.673 11.8539 16.6889 11.766 16.688C11.7026 16.6877 11.6394 16.6797 11.578 16.664C11.5314 16.6483 11.4847 16.6326 11.438 16.617L11.344 16.57L11.25 16.477H11.227V16.43L7.12501 11.953C7.05672 11.886 7.00286 11.8058 6.96675 11.7172C6.93063 11.6286 6.91302 11.5336 6.91501 11.438C6.92006 11.3422 6.94562 11.2486 6.98996 11.1636C7.03429 11.0785 7.09638 11.004 7.17201 10.945C7.23825 10.8768 7.31911 10.8245 7.4085 10.7921C7.49788 10.7597 7.59345 10.7481 7.68801 10.758C7.78266 10.7554 7.87659 10.7753 7.9621 10.8159C8.04761 10.8566 8.12228 10.9169 8.18001 10.992L11.04 14.109V8.04C11.04 7.837 11.11 7.665 11.25 7.524C11.39 7.384 11.563 7.314 11.766 7.314C11.953 7.314 12.117 7.384 12.258 7.524C12.398 7.665 12.468 7.837 12.468 8.04V14.11L15.328 10.993C15.3879 10.9204 15.463 10.8618 15.548 10.8214C15.633 10.781 15.7259 10.7597 15.82 10.759C15.9181 10.7502 16.017 10.7624 16.1101 10.7946C16.2031 10.8268 16.2883 10.8784 16.36 10.946V10.945Z" />
</svg>
