<svg  viewBox="0 0 25 24" fill="white" xmlns="http://www.w3.org/2000/svg">
<path d="M10.5858 7.28999C10.4127 7.41494 10.2114 7.495 9.99976 7.52299C9.79674 7.5544 9.58915 7.51295 9.41376 7.40599C9.41376 7.39099 9.40576 7.38299 9.38976 7.38299H9.36676C9.2282 7.26193 9.13683 7.09583 9.10876 6.91399C9.09071 6.83035 9.09408 6.74351 9.11855 6.66152C9.14302 6.57953 9.18781 6.50505 9.24876 6.44499C9.49876 6.19499 9.78076 5.98499 10.0938 5.81199C10.4278 5.63173 10.7815 5.49047 11.1478 5.39099C12.2578 5.12499 13.2968 5.28899 14.2648 5.88299C15.2348 6.47699 15.8588 7.32799 16.1398 8.43699C16.2028 8.73399 16.2338 9.02299 16.2338 9.30499C16.2498 9.58499 16.2338 9.86699 16.1868 10.148C16.6868 10.352 17.0938 10.688 17.4058 11.156C17.7338 11.609 17.8978 12.125 17.8978 12.703V14.953C17.8978 16 17.5308 16.891 16.7968 17.625C16.0768 18.344 15.1948 18.703 14.1478 18.703H10.1638C9.11676 18.703 8.22576 18.343 7.49176 17.625C6.77276 16.891 6.41376 16 6.41376 14.953V12.703C6.41376 11.938 6.67876 11.289 7.21076 10.758C7.45995 10.4934 7.76169 10.2837 8.09663 10.1425C8.43157 10.0013 8.79232 9.93164 9.15576 9.93799H14.6868C14.7028 9.76599 14.7108 9.57799 14.7108 9.37499C14.7258 9.17199 14.7108 8.97699 14.6638 8.78899C14.5865 8.45176 14.4405 8.13411 14.2349 7.85588C14.0293 7.57765 13.7684 7.34483 13.4688 7.17199C13.1791 6.98814 12.8546 6.86614 12.5156 6.81365C12.1766 6.76117 11.8304 6.77933 11.4988 6.86699C11.3281 6.89804 11.1628 6.95326 11.0078 7.03099C10.8668 7.10899 10.7258 7.19599 10.5858 7.28999ZM9.15576 11.436C8.81176 11.436 8.51576 11.562 8.26576 11.812C8.03076 12.062 7.91376 12.358 7.91376 12.702V14.952C7.91376 15.577 8.13276 16.108 8.56976 16.546C8.77655 16.7584 9.02468 16.9262 9.29883 17.0391C9.57298 17.1519 9.86734 17.2073 10.1638 17.202H14.1478C14.4442 17.2073 14.7385 17.1519 15.0127 17.0391C15.2868 16.9262 15.535 16.7584 15.7418 16.546C15.9542 16.3392 16.122 16.0911 16.2348 15.8169C16.3476 15.5428 16.4031 15.2484 16.3978 14.952V12.702C16.3978 12.358 16.2728 12.062 16.0228 11.812C15.9134 11.6911 15.7795 11.595 15.63 11.5301C15.4804 11.4652 15.3187 11.4332 15.1558 11.436H9.15576Z" />
<path d="M12.6718 12.375C12.5308 12.219 12.3588 12.14 12.1558 12.14C12.0546 12.1401 11.9544 12.1618 11.8616 12.2021C11.7687 12.2423 11.685 12.3012 11.6158 12.375C11.4758 12.516 11.4058 12.687 11.4058 12.891V15.726C11.4041 15.9263 11.4792 16.1195 11.6158 16.266C11.7623 16.4025 11.9556 16.4776 12.1558 16.476C12.2516 16.4781 12.3468 16.4606 12.4355 16.4245C12.5243 16.3883 12.6047 16.3344 12.6718 16.266C12.7455 16.1969 12.8043 16.1134 12.8446 16.0207C12.8848 15.928 12.9057 15.8281 12.9058 15.727V12.891C12.9058 12.688 12.8278 12.515 12.6718 12.375Z" />
</svg>
