<svg  viewBox="0 0 25 24" fill="white" xmlns="http://www.w3.org/2000/svg">
<path d="M16.2108 10.172C16.7108 10.375 17.1168 10.711 17.4288 11.18C17.7418 11.633 17.8988 12.14 17.8988 12.703V14.977C17.8988 16.007 17.5308 16.891 16.7968 17.625C16.0768 18.359 15.1948 18.727 14.1478 18.727H10.1638C9.11679 18.727 8.22579 18.359 7.49179 17.625C7.14315 17.2789 6.86796 16.866 6.68273 16.411C6.4975 15.9559 6.40602 15.4682 6.41379 14.977V12.703C6.41379 12.141 6.56979 11.633 6.88279 11.18C7.17589 10.7271 7.60108 10.3752 8.10079 10.172C8.08579 10.047 8.07079 9.92201 8.05379 9.79701C8.03877 9.66454 8.03109 9.53133 8.03079 9.39801C8.03079 8.25801 8.42879 7.28901 9.22579 6.49201C10.0388 5.68001 11.0158 5.27301 12.1558 5.27301C13.2958 5.27301 14.2658 5.68001 15.0618 6.49301C15.8748 7.28901 16.2808 8.25801 16.2808 9.39801C16.2808 9.52301 16.2728 9.65601 16.2578 9.79701L16.2108 10.172ZM12.1558 6.77301C11.4368 6.77301 10.8198 7.03101 10.3038 7.54701C10.0554 7.7864 9.85862 8.07414 9.72567 8.39249C9.59273 8.71084 9.5264 9.05305 9.53079 9.39801V9.68001C9.54679 9.77301 9.57079 9.86701 9.60079 9.96001H14.7108C14.7414 9.86981 14.7573 9.77526 14.7578 9.68001C14.7732 9.58681 14.7809 9.49248 14.7808 9.39801C14.7808 8.68001 14.5228 8.06301 14.0078 7.54701C13.7684 7.29829 13.4805 7.10128 13.162 6.96816C12.8434 6.83503 12.501 6.76862 12.1558 6.77301ZM9.15579 11.461C8.81179 11.461 8.51579 11.586 8.26579 11.836C8.151 11.9488 8.06055 12.0839 8.00001 12.2331C7.93947 12.3822 7.91012 12.5421 7.91379 12.703V14.977C7.91379 15.602 8.13279 16.133 8.56979 16.57C8.77649 16.7826 9.02458 16.9506 9.29874 17.0636C9.57289 17.1766 9.8673 17.2322 10.1638 17.227H14.1478C14.4443 17.2322 14.7387 17.1766 15.0128 17.0636C15.287 16.9506 15.5351 16.7826 15.7418 16.57C15.9541 16.3633 16.1218 16.1154 16.2346 15.8414C16.3475 15.5674 16.403 15.2733 16.3978 14.977V12.703C16.3978 12.359 16.2728 12.07 16.0228 11.836C15.9135 11.7151 15.7795 11.619 15.63 11.5541C15.4805 11.4893 15.3188 11.4572 15.1558 11.46H9.15579V11.461Z" />
<path d="M12.6718 12.375C12.5308 12.219 12.3588 12.14 12.1558 12.14C12.0546 12.1401 11.9545 12.1619 11.8616 12.2021C11.7687 12.2424 11.6851 12.3012 11.6158 12.375C11.4758 12.516 11.4058 12.687 11.4058 12.891V15.726C11.4041 15.9263 11.4793 16.1196 11.6158 16.266C11.7623 16.4025 11.9556 16.4776 12.1558 16.476C12.2516 16.4781 12.3468 16.4606 12.4356 16.4245C12.5243 16.3884 12.6047 16.3344 12.6718 16.266C12.7456 16.1969 12.8044 16.1134 12.8446 16.0207C12.8849 15.928 12.9057 15.8281 12.9058 15.727V12.891C12.9058 12.688 12.8278 12.515 12.6718 12.375Z" />
</svg>
