<svg  viewBox="0 0 24 24" fill="white" xmlns="http://www.w3.org/2000/svg">
<path d="M22.008 12C22.0154 10.6621 21.744 9.33723 21.211 8.11001C20.714 6.91879 19.9895 5.83591 19.078 4.92201C18.1643 4.01066 17.0818 3.28615 15.891 2.78901C14.6634 2.25585 13.3383 1.98441 12 1.99201C10.662 1.98455 9.3372 2.25599 8.10998 2.78901C6.91878 3.28606 5.83592 4.01057 4.92198 4.92201C4.01065 5.83565 3.28614 6.91817 2.78898 8.10901C2.25582 9.33654 1.98438 10.6617 1.99198 12C1.98452 13.338 2.25596 14.6628 2.78898 15.89C3.28598 17.0812 4.0105 18.1641 4.92198 19.078C5.83559 19.9894 6.91811 20.7139 8.10898 21.211C9.3365 21.7442 10.6617 22.0156 12 22.008C13.3379 22.0155 14.6628 21.744 15.89 21.211C17.0812 20.714 18.1641 19.9895 19.078 19.078C19.9894 18.1644 20.7139 17.0819 21.211 15.891C21.7441 14.6635 22.0156 13.3383 22.008 12ZM20.508 12C20.5151 13.1371 20.2834 14.2631 19.828 15.305C19.4006 16.3209 18.7797 17.244 18 18.023C17.2271 18.7937 16.3118 19.4067 15.305 19.828C14.263 20.2835 13.1371 20.5151 12 20.508C10.8629 20.5151 9.73691 20.2835 8.69498 19.828C7.68323 19.4032 6.76101 18.7907 5.97698 18.023C5.20929 17.2389 4.59685 16.3167 4.17198 15.305C3.7165 14.2631 3.48484 13.1371 3.49198 12C3.49198 10.828 3.71898 9.72701 4.17198 8.69501C4.59329 7.68818 5.20633 6.77287 5.97698 6.00001C6.75594 5.22028 7.67907 4.59943 8.69498 4.17201C9.73691 3.71653 10.8629 3.48487 12 3.49201C13.172 3.49201 14.273 3.71901 15.305 4.17201C16.316 4.59587 17.2323 5.21736 18 6.00001C18.7826 6.76772 19.4041 7.68396 19.828 8.69501C20.2834 9.73694 20.5151 10.8629 20.508 12Z" />
<path d="M16.7579 10.008C16.7579 9.78901 16.6799 9.60901 16.5229 9.46901H16.5249C16.454 9.399 16.3695 9.34425 16.2766 9.30814C16.1838 9.27202 16.0845 9.2553 15.9849 9.25901C15.7819 9.25901 15.6099 9.33001 15.4699 9.47001L11.2029 13.734C11.1559 13.781 11.0859 13.804 10.9919 13.804C10.9139 13.804 10.8439 13.781 10.7819 13.734L8.53192 11.46C8.46101 11.39 8.37652 11.3353 8.28365 11.2991C8.19078 11.263 8.0915 11.2463 7.99192 11.25C7.78892 11.25 7.61692 11.32 7.47692 11.46C7.31992 11.617 7.24192 11.797 7.24192 12C7.2421 12.1013 7.26305 12.2015 7.30347 12.2944C7.34389 12.3872 7.40292 12.4708 7.47692 12.54L10.6409 15.703C10.6869 15.7491 10.7419 15.7854 10.8024 15.8094C10.863 15.8335 10.9278 15.8449 10.9929 15.843C11.0577 15.8447 11.1222 15.8331 11.1823 15.809C11.2425 15.785 11.2972 15.7489 11.3429 15.703L16.5229 10.523C16.5975 10.4597 16.6572 10.3807 16.6978 10.2917C16.7384 10.2027 16.7589 10.1058 16.7579 10.008Z" />
</svg>
