<svg  viewBox="0 0 24 24" fill="white" xmlns="http://www.w3.org/2000/svg">
<path d="M11.203 4.219C11.359 4.359 11.438 4.531 11.438 4.734C11.4391 4.832 11.4187 4.92903 11.3781 5.01822C11.3374 5.1074 11.2777 5.18654 11.203 5.25L4.898 11.273H21.234C21.3337 11.2694 21.433 11.2863 21.5258 11.3226C21.6187 11.3589 21.7032 11.4138 21.774 11.484C21.93 11.625 22.008 11.797 22.008 12C22.0091 12.098 21.9887 12.195 21.9481 12.2842C21.9074 12.3734 21.8477 12.4525 21.773 12.516C21.7022 12.5859 21.6179 12.6406 21.5252 12.6767C21.4325 12.7128 21.3334 12.7296 21.234 12.726H4.898L11.203 18.75C11.359 18.89 11.438 19.063 11.438 19.266C11.439 19.3638 11.4185 19.4607 11.3778 19.5497C11.3372 19.6387 11.2775 19.7176 11.203 19.781C11.1323 19.8511 11.048 19.9059 10.9553 19.9422C10.8626 19.9785 10.7635 19.9954 10.664 19.992C10.4641 19.9935 10.2712 19.9183 10.125 19.782L1.992 12L10.125 4.219C10.2713 4.08208 10.4646 4.00655 10.665 4.008C10.7642 4.00457 10.8631 4.02143 10.9557 4.05754C11.0482 4.09365 11.1323 4.14925 11.203 4.219Z" />
</svg>
