<svg  viewBox="0 0 24 24" fill="white" xmlns="http://www.w3.org/2000/svg">
<path d="M15.1724 10.4675C14.5192 10.6087 13.9791 9.9535 14.2423 9.33924L14.2603 9.29721C14.4089 8.95061 14.3141 8.53935 13.9873 8.35136C13.4104 8.01964 12.7224 7.81523 12.0003 7.81523C9.66871 7.81523 7.8155 9.66844 7.8155 12C7.8155 14.3316 9.66871 16.1848 12.0003 16.1848C14.3319 16.1848 16.1851 14.3316 16.1851 12C16.1851 11.6341 16.1403 11.2906 16.0507 10.9558C15.95 10.5793 15.5534 10.3852 15.1724 10.4675ZM12.0003 13.1359C11.3427 13.1359 10.8643 12.5978 10.8643 12C10.8643 11.3425 11.4024 10.8641 12.0003 10.8641C12.5981 10.8641 13.1362 11.4022 13.1362 12C13.1362 12.6576 12.6578 13.1359 12.0003 13.1359Z" />
<path d="M3.08083 9.71062C2.49928 9.36985 1.99795 8.90698 1.61203 8.35721C1.21539 9.49618 1 10.7218 1 12C1 18.0978 5.90217 23 12 23C18.0978 23 23 18.0978 23 12C23 5.90217 18.0978 1 12 1C10.5803 1 9.22532 1.26574 7.98198 1.75045C8.54652 2.11679 9.02702 2.60164 9.38826 3.16976C10.2164 2.92491 11.0929 2.79348 12 2.79348C17.0815 2.79348 21.2065 6.91848 21.2065 12C21.2065 17.0815 17.0815 21.2065 12 21.2065C6.91848 21.2065 2.79348 17.0815 2.79348 12C2.79348 11.2098 2.89324 10.4427 3.08083 9.71062Z" />
<path d="M7.54999 5.43261C7.54999 6.66009 6.55492 7.65515 5.32744 7.65515C4.09996 7.65515 3.1049 6.66009 3.1049 5.43261C3.1049 4.20513 4.09996 3.21006 5.32744 3.21006C6.55492 3.21006 7.54999 4.20513 7.54999 5.43261Z" />
</svg>
