<svg viewBox="0 0 20 20" fill="none" xmlns="http://www.w3.org/2000/svg">
    <path
        d="M10.0003 18.3403C8.88532 18.3465 7.7813 18.1203 6.75862 17.6761C5.76594 17.2619 4.86354 16.6582 4.10195 15.8986C3.34248 15.1373 2.73872 14.2352 2.32445 13.2428C1.88016 12.2198 1.65396 11.1155 1.66029 10.0003C1.65407 8.88532 1.88027 7.7813 2.32445 6.75862C2.73866 5.76596 3.34242 4.86357 4.10195 4.10195C4.86332 3.34251 5.76542 2.73875 6.75779 2.32445C7.78073 1.88016 8.88504 1.65396 10.0003 1.66029C11.1152 1.65407 12.2193 1.88027 13.242 2.32445C14.2346 2.73864 15.137 3.3424 15.8986 4.10195C16.6581 4.8633 17.2619 5.7654 17.6761 6.75779C18.1204 7.78073 18.3466 8.88504 18.3403 10.0003C18.3465 11.1152 18.1203 12.2193 17.6761 13.242C17.262 14.2346 16.6582 15.137 15.8986 15.8986C15.1373 16.6581 14.2352 17.2619 13.2428 17.6761C12.2198 18.1204 11.1155 18.3466 10.0003 18.3403ZM10.0003 17.0903C10.9479 17.0962 11.8862 16.9032 12.7545 16.5236C13.5935 16.1725 14.3563 15.6617 15.0003 15.0195C15.6501 14.3703 16.1674 13.601 16.5236 12.7545C16.9032 11.8862 17.0962 10.9479 17.0903 10.0003C17.0962 9.05269 16.9032 8.1144 16.5236 7.24612C16.1704 6.40358 15.6525 5.64005 15.0003 5.00029C14.3605 4.34808 13.597 3.83018 12.7545 3.47695C11.8862 3.09739 10.9479 2.90434 10.0003 2.91029C9.05269 2.90434 8.1144 3.09739 7.24612 3.47695C6.39953 3.83314 5.63026 4.35051 4.98112 5.00029C4.33891 5.64433 3.82805 6.4071 3.47695 7.24612C3.09739 8.1144 2.90434 9.05269 2.91029 10.0003C2.91029 10.977 3.09945 11.8945 3.47695 12.7545C3.83101 13.5976 4.34138 14.3661 4.98112 15.0195C5.63448 15.6592 6.403 16.1696 7.24612 16.5236C8.1144 16.9032 9.05269 17.0962 10.0003 17.0903Z" />
    <path
        d="M10.4303 8.5153C10.3128 8.39863 10.1695 8.3403 10.0003 8.3403C9.83342 8.33886 9.67236 8.4015 9.5503 8.5153C9.49196 8.57439 9.44634 8.6448 9.41624 8.72219C9.38615 8.79958 9.37221 8.88232 9.3753 8.9653V13.5353C9.37221 13.6183 9.38615 13.701 9.41624 13.7784C9.44634 13.8558 9.49196 13.9262 9.5503 13.9853C9.67236 14.0991 9.83342 14.1617 10.0003 14.1603C10.0801 14.1621 10.1595 14.1474 10.2334 14.1173C10.3074 14.0872 10.3744 14.0423 10.4303 13.9853C10.4938 13.9292 10.5442 13.8598 10.5779 13.782C10.6116 13.7043 10.6278 13.62 10.6253 13.5353V8.9653C10.6253 8.7828 10.5603 8.6328 10.4303 8.5153Z" />
    <path
        d="M10.5779 6.21857C10.6116 6.29634 10.6278 6.38058 10.6253 6.4653V6.8753C10.6253 6.95965 10.608 7.04311 10.5745 7.12052C10.5409 7.19792 10.4919 7.26762 10.4303 7.3253C10.3128 7.44196 10.1695 7.5003 10.0003 7.5003C9.83113 7.5003 9.68113 7.44196 9.5503 7.3253C9.43363 7.19446 9.3753 7.04446 9.3753 6.8753V6.4653C9.37221 6.38232 9.38615 6.29958 9.41624 6.22219C9.44634 6.1448 9.49196 6.07439 9.5503 6.0153C9.67236 5.9015 9.83342 5.83886 10.0003 5.8403C10.0801 5.83853 10.1595 5.85315 10.2334 5.88325C10.3074 5.91335 10.3744 5.95829 10.4303 6.0153C10.4938 6.0714 10.5442 6.1408 10.5779 6.21857Z" />
</svg>