<svg viewBox="0 0 25 24" fill="white" xmlns="http://www.w3.org/2000/svg">
<path d="M17.1478 3.516C17.8508 3.516 18.4448 3.766 18.9288 4.266C19.4138 4.75 19.6558 5.344 19.6558 6.046V19.852L14.4758 15.211C13.8453 14.6275 13.0147 14.3089 12.1558 14.321C11.2658 14.321 10.4918 14.617 9.83576 15.211L4.65576 19.85V6.048C4.65576 5.345 4.89776 4.751 5.38276 4.267C5.86676 3.767 6.46076 3.517 7.16276 3.517H17.1478V3.516ZM7.16376 1.992C6.05376 1.992 5.10876 2.391 4.32776 3.188C3.54576 3.968 3.15576 4.921 3.15576 6.046V20.976C3.15576 21.413 3.35076 21.726 3.74176 21.913C4.13176 22.085 4.49176 22.03 4.81976 21.749L10.8198 16.335C11.2098 15.991 11.6558 15.819 12.1558 15.819C12.6558 15.819 13.1008 15.991 13.4918 16.335L19.4918 21.749C19.8198 22.03 20.1788 22.085 20.5698 21.913C20.9598 21.726 21.1558 21.413 21.1558 20.976V6.047C21.1558 4.922 20.7658 3.969 19.9838 3.187C19.2028 2.391 18.2578 1.992 17.1478 1.992H7.16376Z" />
</svg>
