<svg  viewBox="0 0 24 24" fill="white" xmlns="http://www.w3.org/2000/svg">
<path d="M2.24999 12.07C2.24999 10.727 2.50799 9.46 3.02299 8.273C3.5022 7.11724 4.20304 6.06647 5.08599 5.18C5.97883 4.28783 7.03776 3.57915 8.20299 3.094C9.40143 2.57593 10.6944 2.31236 12 2.32C13.3056 2.31236 14.5986 2.57593 15.797 3.094C16.957 3.5757 18.0087 4.285 18.89 5.18C19.785 6.0613 20.4943 7.113 20.976 8.273C21.4937 9.47151 21.7569 10.7645 21.749 12.07C21.7569 13.3755 21.4937 14.6685 20.976 15.867C20.4908 17.0322 19.7821 18.0911 18.89 18.984C18.0032 19.8671 16.9521 20.5679 15.796 21.047C14.5978 21.5646 13.3052 21.8278 12 21.82C10.6945 21.828 9.4015 21.5647 8.20299 21.047C7.04196 20.5644 5.98395 19.8641 5.08599 18.984C4.20587 18.086 3.50563 17.028 3.02299 15.867C2.50526 14.6685 2.24204 13.3755 2.24999 12.07ZM12 3.82C10.86 3.82 9.78999 4.04 8.78999 4.477C7.80851 4.88592 6.91645 5.48278 6.16399 6.234C5.41242 6.98637 4.81521 7.87844 4.40599 8.86C3.96899 9.86 3.74999 10.93 3.74999 12.071C3.74999 13.211 3.96899 14.282 4.40599 15.282C4.81532 16.2632 5.41252 17.1549 6.16399 17.907C6.91606 18.6585 7.80779 19.2557 8.78899 19.665C9.78899 20.103 10.859 20.321 12 20.321C13.14 20.321 14.21 20.103 15.21 19.665C16.1916 19.2558 17.0836 18.6586 17.836 17.907C18.5875 17.1549 19.1847 16.2632 19.594 15.282C20.031 14.282 20.25 13.212 20.25 12.072C20.25 10.931 20.031 9.86 19.594 8.86C19.1847 7.8788 18.5875 6.98707 17.836 6.235C17.0838 5.48389 16.1921 4.88704 15.211 4.478C14.211 4.04 13.141 3.821 12 3.821V3.82Z" />
<path d="M11.7037 7.02027C11.7966 7.05267 11.8816 7.10438 11.953 7.17198L16.617 11.437C16.633 11.437 16.641 11.445 16.641 11.461C16.656 11.461 16.665 11.469 16.665 11.484C16.7295 11.5502 16.7775 11.6307 16.805 11.719C16.8501 11.8058 16.8741 11.9021 16.875 12C16.8751 12.0634 16.8674 12.1265 16.852 12.188L16.804 12.328C16.789 12.359 16.766 12.398 16.734 12.446C16.7191 12.4764 16.6945 12.501 16.664 12.516C16.664 12.532 16.656 12.547 16.641 12.562H16.617L11.954 16.829C11.797 16.969 11.617 17.039 11.414 17.039C11.3153 17.0323 11.2189 17.0061 11.1304 16.962C11.0418 16.9179 10.9628 16.8567 10.898 16.782C10.757 16.625 10.687 16.445 10.687 16.242C10.694 16.1434 10.7204 16.0471 10.7646 15.9587C10.8089 15.8703 10.8702 15.7916 10.945 15.727L14.203 12.75H7.87504C7.67204 12.75 7.49204 12.68 7.33504 12.54C7.19504 12.383 7.12504 12.203 7.12504 12C7.12292 11.9042 7.14046 11.809 7.17658 11.7202C7.2127 11.6315 7.26663 11.5511 7.33504 11.484C7.40426 11.4101 7.4879 11.3512 7.58078 11.311C7.67366 11.2707 7.77381 11.25 7.87504 11.25H14.203L10.945 8.27298C10.8704 8.20829 10.8093 8.12949 10.7652 8.04111C10.7211 7.95274 10.6949 7.85652 10.688 7.75798C10.6866 7.55807 10.7617 7.3652 10.898 7.21898C10.9615 7.14436 11.0407 7.08463 11.1299 7.04402C11.219 7.0034 11.3161 6.98291 11.414 6.98398C11.5121 6.9755 11.6108 6.98787 11.7037 7.02027Z" />
</svg>
