<svg  viewBox="0 0 25 24" fill="white" xmlns="http://www.w3.org/2000/svg">
<path d="M6.41375 9.39801V7.75801C6.41375 6.96101 6.56175 6.21101 6.85875 5.50801C7.14221 4.82513 7.55629 4.20418 8.07775 3.68001C8.61302 3.16116 9.24088 2.74734 9.92875 2.46001C10.6287 2.14546 11.3884 1.98615 12.1557 1.99301C12.9527 1.99301 13.6957 2.14901 14.3827 2.46201C15.0656 2.74547 15.6866 3.15955 16.2107 3.68101C16.7442 4.20002 17.1667 4.82191 17.4528 5.50901C17.7498 6.21201 17.8977 6.96201 17.8977 7.75901V9.39901C18.5631 9.72148 19.1237 10.2255 19.5147 10.853C19.9367 11.493 20.1477 12.212 20.1477 13.009V16.009C20.1477 16.837 19.9917 17.61 19.6788 18.329C19.3773 19.047 18.9396 19.6997 18.3897 20.251C17.8418 20.794 17.1983 21.2313 16.4917 21.541C15.7503 21.8547 14.9528 22.0139 14.1477 22.009H10.1637C9.33575 22.009 8.55375 21.853 7.81975 21.54C7.10804 21.2271 6.45734 20.7907 5.89775 20.251C5.36039 19.6945 4.9314 19.0427 4.63275 18.329C4.31701 17.5966 4.15696 16.8066 4.16275 16.009V13.009C4.16275 12.212 4.36675 11.493 4.77275 10.853C5.17657 10.2278 5.7437 9.72503 6.41275 9.39901L6.41375 9.39801ZM16.3977 9.00001V7.75801C16.3977 6.58601 15.9837 5.58601 15.1557 4.75801C14.3277 3.91401 13.3277 3.49201 12.1557 3.49201C10.9837 3.49201 9.98375 3.91401 9.15575 4.75801C8.32775 5.58601 7.91375 6.58601 7.91375 7.75801V9.00001H16.3977ZM18.6477 13.008C18.6477 12.305 18.4058 11.711 17.9218 11.227C17.694 10.9921 17.4204 10.8064 17.1181 10.6814C16.8157 10.5563 16.4909 10.4946 16.1637 10.5H8.14775C7.46075 10.5 6.87475 10.742 6.38975 11.227C5.90575 11.711 5.66375 12.305 5.66375 13.007V16.007C5.66375 17.242 6.10075 18.305 6.97575 19.195C7.85075 20.07 8.91375 20.508 10.1637 20.508H14.1477C15.3977 20.508 16.4607 20.07 17.3357 19.195C18.2107 18.305 18.6477 17.242 18.6477 16.008V13.008Z" />
<path d="M12.6718 12.468C12.5308 12.328 12.3588 12.258 12.1558 12.258C11.9555 12.2563 11.7622 12.3315 11.6158 12.468C11.5458 12.5389 11.491 12.6234 11.4549 12.7163C11.4188 12.8092 11.4021 12.9085 11.4058 13.008V18C11.404 18.2003 11.4792 18.3936 11.6158 18.54C11.7622 18.6766 11.9555 18.7518 12.1558 18.75C12.2516 18.7522 12.3468 18.7346 12.4355 18.6985C12.5243 18.6624 12.6047 18.6084 12.6718 18.54C12.7456 18.4708 12.8044 18.3871 12.8447 18.2943C12.8849 18.2014 12.9057 18.1013 12.9058 18V13.008C12.9058 12.789 12.8278 12.609 12.6718 12.468Z" />
</svg>
