<svg  viewBox="0 0 24 24" fill="white" xmlns="http://www.w3.org/2000/svg">
<path d="M2.63698 11.9995C2.63698 10.7025 2.88698 9.49152 3.38698 8.36652C3.85207 7.25492 4.52859 6.24421 5.37898 5.39051C6.23305 4.53453 7.24328 3.85018 8.35498 3.37451C9.51212 2.88697 10.7564 2.63996 12.012 2.64852C13.292 2.64852 14.504 2.89051 15.644 3.37451C16.7603 3.84232 17.7723 4.52763 18.621 5.39051C19.4738 6.24722 20.1577 7.2568 20.637 8.36652C21.1259 9.51481 21.373 10.7515 21.363 11.9995C21.373 13.2475 21.1259 14.4842 20.637 15.6325C20.1542 16.7475 19.4709 17.7643 18.621 18.6325C17.767 19.483 16.7559 20.1596 15.644 20.6245C14.4951 21.1107 13.2594 21.358 12.012 21.3515C10.7563 21.3598 9.51205 21.1124 8.35498 20.6245C7.24753 20.1517 6.2382 19.4761 5.37898 18.6325C4.53141 17.7673 3.85548 16.7494 3.38698 15.6325C2.88293 14.4882 2.62731 13.2499 2.63698 11.9995ZM12.012 4.07751C10.918 4.07751 9.88698 4.28852 8.91798 4.71052C7.98079 5.10634 7.12912 5.67989 6.40998 6.39951C5.68908 7.12199 5.10918 7.97252 4.69998 8.90751C4.29298 9.87551 4.08998 10.9075 4.08998 12.0005C4.08998 13.0945 4.29298 14.1255 4.69998 15.0945C5.1092 16.0295 5.6891 16.88 6.40998 17.6025C7.12932 18.3214 7.98098 18.8942 8.91798 19.2895C9.88698 19.7115 10.918 19.9225 12.012 19.9225C13.0685 19.9301 14.1147 19.7144 15.082 19.2895C16.9865 18.5022 18.5028 16.9945 19.301 15.0945C19.723 14.1255 19.934 13.0945 19.934 12.0005C19.934 10.9075 19.723 9.87551 19.301 8.90751C18.503 7.00742 16.9866 5.49961 15.082 4.71251C14.1147 4.28729 13.0686 4.07124 12.012 4.07852V4.07751Z" />
<path d="M16.7886 11.6424C16.7604 11.7311 16.7139 11.8129 16.652 11.8825V11.8835L12.551 16.3605C12.535 16.3755 12.527 16.3915 12.527 16.4075H12.504C12.4351 16.4745 12.3557 16.5299 12.269 16.5715C12.192 16.6025 12.105 16.6175 12.012 16.6175C11.9487 16.6176 11.8855 16.6099 11.824 16.5945L11.684 16.5475L11.59 16.5005L11.496 16.4075H11.473V16.3605L7.37105 11.8835C7.23005 11.7435 7.16005 11.5715 7.16005 11.3675C7.16536 11.2718 7.19114 11.1784 7.23565 11.0935C7.28016 11.0086 7.34236 10.9343 7.41805 10.8755C7.48429 10.8073 7.56515 10.7551 7.65454 10.7227C7.74392 10.6903 7.83949 10.6786 7.93405 10.6885C8.0287 10.6859 8.12262 10.7058 8.20814 10.7465C8.29365 10.7871 8.36832 10.8475 8.42605 10.9225L11.286 14.0395V7.96951C11.2839 7.87372 11.3015 7.77851 11.3376 7.68976C11.3737 7.60101 11.4276 7.5206 11.496 7.45351C11.5631 7.3851 11.6435 7.33117 11.7323 7.29505C11.821 7.25893 11.9163 7.24139 12.012 7.24351C12.104 7.24314 12.1951 7.26158 12.2797 7.29769C12.3643 7.33381 12.4407 7.38683 12.504 7.45351C12.5724 7.52064 12.6263 7.60105 12.6624 7.68979C12.6985 7.77853 12.7161 7.87373 12.714 7.96951V14.0385L15.574 10.9215C15.634 10.8489 15.7091 10.7904 15.7941 10.7499C15.8791 10.7095 15.9719 10.6882 16.066 10.6875C16.1642 10.6788 16.263 10.6909 16.3561 10.7231C16.4492 10.7554 16.5344 10.807 16.606 10.8745C16.6753 10.9361 16.7301 11.0122 16.7664 11.0974C16.8027 11.1827 16.8196 11.2749 16.816 11.3675C16.8262 11.4601 16.8169 11.5537 16.7886 11.6424Z" />
</svg>
