<svg  viewBox="0 0 24 24" fill="white" xmlns="http://www.w3.org/2000/svg">
<path d="M9.54002 10.969C9.3937 10.8321 9.2004 10.7565 9.00002 10.758C8.79977 10.7563 8.60649 10.8314 8.46002 10.968C8.39001 11.0389 8.33526 11.1234 8.29915 11.2163C8.26303 11.3091 8.24631 11.4084 8.25002 11.508C8.25002 11.711 8.32002 11.883 8.46002 12.023L11.46 15.023C11.5292 15.097 11.6128 15.156 11.7057 15.1965C11.7985 15.2369 11.8987 15.2578 12 15.258C12.1013 15.2578 12.2015 15.2369 12.2944 15.1965C12.3872 15.156 12.4708 15.097 12.54 15.023L15.54 12.023C15.68 11.883 15.75 11.711 15.75 11.508C15.7537 11.4084 15.737 11.3091 15.7009 11.2163C15.6648 11.1234 15.61 11.0389 15.54 10.968C15.3935 10.8314 15.2003 10.7563 15 10.758C14.7998 10.7563 14.6065 10.8314 14.46 10.968L12 13.43L9.54002 10.969Z" />
</svg>
