<svg  viewBox="0 0 24 24" fill="white" xmlns="http://www.w3.org/2000/svg">
<path d="M3.844 4.87499C4.266 4.45299 4.688 4.13299 5.109 3.91499C5.547 3.69499 5.969 3.56199 6.375 3.51499C6.80858 3.47061 7.24666 3.51068 7.665 3.63299C8.133 3.75799 8.617 4.00799 9.117 4.38299L10.312 5.39099C10.797 5.79699 11.36 5.99999 12 5.99999C12.64 5.99999 13.203 5.79699 13.688 5.38999L14.883 4.38299C15.383 4.00799 15.859 3.75799 16.313 3.63299C16.7391 3.51176 17.1842 3.47206 17.625 3.51599C18.031 3.56199 18.445 3.69599 18.867 3.91399C19.305 4.13299 19.734 4.45399 20.157 4.87499C20.7524 5.47479 21.1666 6.23039 21.352 7.05499C21.555 7.88299 21.547 8.66499 21.328 9.39799L21.305 9.44499V9.51499C21.102 10.359 20.703 11.265 20.109 12.235C19.4546 13.2692 18.7178 14.2491 17.906 15.165C17.484 15.648 17.039 16.125 16.57 16.594C16.102 17.062 15.625 17.524 15.14 17.977C14.672 18.414 14.203 18.828 13.734 19.219C13.25 19.625 12.789 20.008 12.352 20.367C12.2558 20.4553 12.1305 20.5051 12 20.507C11.8695 20.5051 11.7442 20.4553 11.648 20.367C11.211 20.007 10.75 19.625 10.266 19.219C9.796 18.829 9.32 18.414 8.836 17.977C8.367 17.523 7.898 17.062 7.43 16.594C6.96841 16.1328 6.52281 15.6558 6.094 15.164C5.28215 14.2481 4.54543 13.2682 3.891 12.234C3.297 11.266 2.898 10.359 2.695 9.51599V9.44599L2.672 9.39799C2.453 8.66399 2.437 7.88299 2.625 7.05499C2.82572 6.23107 3.24715 5.47741 3.844 4.87499ZM10.054 3.18699C9.414 2.71899 8.774 2.39099 8.133 2.20299C7.50975 2.01847 6.85541 1.96301 6.21 2.03999C5.58772 2.10671 4.98355 2.28989 4.429 2.57999C3.81082 2.91084 3.24915 3.33784 2.765 3.84499C1.97501 4.62924 1.42248 5.6206 1.171 6.70499C0.920997 7.79799 0.943997 8.84499 1.241 9.84499C1.476 10.876 1.929 11.931 2.601 13.009C3.30317 14.1122 4.08633 15.1618 4.944 16.149C5.8533 17.1679 6.81563 18.1383 7.827 19.056C8.76887 19.9148 9.73803 20.7433 10.733 21.54C11.108 21.853 11.53 22.009 11.999 22.009C12.468 22.009 12.889 21.853 13.265 21.54C14.2599 20.7432 15.2291 19.9148 16.171 19.056C17.1788 18.1421 18.1337 17.1715 19.031 16.149C19.9007 15.1659 20.6918 14.116 21.397 13.009C22.069 11.931 22.522 10.876 22.757 9.84499C23.054 8.84499 23.069 7.79799 22.804 6.70499C22.5677 5.62008 22.0224 4.62677 21.234 3.84499C20.7496 3.33738 20.1876 2.91005 19.569 2.57899C19.0071 2.28699 18.395 2.1041 17.765 2.03999C17.1274 1.96409 16.4811 2.01991 15.866 2.20399C15.226 2.39199 14.585 2.71999 13.944 3.18899L12.702 4.24299C12.5072 4.41139 12.2575 4.50278 12 4.49999C11.734 4.49999 11.5 4.41399 11.297 4.24199L10.055 3.18799L10.054 3.18699Z" />
</svg>
