<svg  viewBox="0 0 24 24" fill="white" xmlns="http://www.w3.org/2000/svg">
<path d="M6 2.492H18C19.11 2.492 20.055 2.882 20.836 3.664C21.617 4.445 22.008 5.391 22.008 6.5V18.5C22.008 19.61 21.618 20.555 20.836 21.336C20.055 22.117 19.109 22.508 18 22.508H6C4.89 22.508 3.945 22.118 3.164 21.336C2.383 20.555 1.992 19.609 1.992 18.5V6.5C1.992 5.39 2.382 4.445 3.164 3.664C3.945 2.883 4.891 2.492 6 2.492ZM18 3.992H6C5.312 3.992 4.719 4.242 4.219 4.742C3.98412 4.9698 3.79842 5.24332 3.67338 5.54569C3.54834 5.84806 3.48661 6.17285 3.492 6.5V14.867L7.477 10.578C8.023 9.984 8.695 9.688 9.492 9.688C10.289 9.688 10.961 9.984 11.508 10.578L13.618 12.828L14.062 12.383C14.311 12.1259 14.6099 11.9226 14.9405 11.7855C15.2711 11.6485 15.6262 11.5806 15.984 11.586C16.75 11.586 17.406 11.852 17.954 12.383L20.508 14.938V6.5C20.508 5.812 20.258 5.227 19.758 4.742C19.273 4.242 18.688 3.992 18 3.992ZM20.508 17.07L20.484 17.047L20.461 17.023L16.875 13.438C16.7622 13.3232 16.6271 13.2328 16.478 13.1722C16.3288 13.1117 16.1689 13.0823 16.008 13.086C15.664 13.086 15.368 13.203 15.118 13.437L14.625 13.93L16.547 15.992C16.687 16.148 16.75 16.328 16.734 16.532C16.7351 16.6297 16.7146 16.7265 16.6742 16.8155C16.6338 16.9045 16.5743 16.9835 16.5 17.047C16.4291 17.117 16.3446 17.1718 16.2517 17.2079C16.1589 17.244 16.0596 17.2607 15.96 17.257C15.8615 17.2502 15.7652 17.224 15.6769 17.1799C15.5885 17.1358 15.5097 17.0746 15.445 17L10.406 11.586C10.2928 11.4558 10.1521 11.3525 9.99399 11.2835C9.83589 11.2144 9.66442 11.1815 9.492 11.187C9.132 11.187 8.828 11.32 8.578 11.586L3.54 17C3.54 17.016 3.532 17.031 3.517 17.047L3.493 17.07V18.5C3.493 19.188 3.735 19.781 4.22 20.281C4.72 20.766 5.313 21.008 6.001 21.008H18.001C18.689 21.008 19.274 20.766 19.759 20.281C20.259 19.781 20.509 19.188 20.509 18.5V17.07H20.508Z" />
</svg>
