<svg  viewBox="0 0 24 24" fill="white" xmlns="http://www.w3.org/2000/svg">
<path d="M11.1877 13.5162C10.8565 13.2675 10.7895 12.7974 11.0382 12.4661L12.8156 10.0984C12.8467 10.057 12.8812 10.0198 12.9184 9.9868C12.9713 9.92182 13.0362 9.86469 13.1121 9.81886C13.4666 9.60467 13.9276 9.71845 14.1418 10.073L14.9769 11.4554L18.3943 5.53626C18.6014 5.17754 19.0601 5.05463 19.4189 5.26174C19.7776 5.46885 19.9005 5.92754 19.6934 6.28626L15.6496 13.2902C15.4425 13.6489 14.9838 13.7718 14.6251 13.5647C14.5535 13.5234 14.4913 13.472 14.4392 13.4133C14.3909 13.3677 14.3479 13.3149 14.3119 13.2553L13.4243 11.7861L12.2378 13.3667C11.9891 13.6979 11.519 13.7649 11.1877 13.5162Z" />
<path fill-rule="evenodd" clip-rule="evenodd" d="M4.67505 6.7522C4.67505 5.92377 5.34662 5.2522 6.17505 5.2522H8.25635C9.08477 5.2522 9.75635 5.92377 9.75635 6.7522V12.1177C9.75635 12.9461 9.08477 13.6177 8.25635 13.6177H6.17505C5.34662 13.6177 4.67505 12.9461 4.67505 12.1177V6.7522ZM6.17578 7.54994C6.17578 7.10811 6.53395 6.74994 6.97578 6.74994H7.45578C7.89761 6.74994 8.25578 7.10811 8.25578 7.54994V11.3199C8.25578 11.7618 7.89761 12.1199 7.45578 12.1199H6.97578C6.53395 12.1199 6.17578 11.7618 6.17578 11.3199V7.54994Z" />
<path fill-rule="evenodd" clip-rule="evenodd" d="M5.44434 2.14648C3.37327 2.14648 1.69434 3.82542 1.69434 5.89649V15.4992C1.69434 17.5703 3.37327 19.2492 5.44434 19.2492H11.25L11.2502 20.3536H9.9043C9.49008 20.3536 9.1543 20.6894 9.1543 21.1036C9.1543 21.5179 9.49008 21.8536 9.9043 21.8536H14.0952C14.5094 21.8536 14.8452 21.5179 14.8452 21.1036C14.8452 20.6894 14.5094 20.3536 14.0952 20.3536H12.7502L12.75 19.2492H18.5562C20.6272 19.2492 22.3062 17.5703 22.3062 15.4992V5.89648C22.3062 3.82542 20.6272 2.14648 18.5562 2.14648H5.44434ZM3.19434 5.89649C3.19434 4.65384 4.2017 3.64648 5.44434 3.64648H18.5562C19.7988 3.64648 20.8062 4.65384 20.8062 5.89648V10.9318L20.8047 10.9303V13.1152L20.8062 13.1167V14.5053H3.19434V14.2957H3.19141V5.9908L3.19434 5.99094V5.89649ZM3.25148 16.0053H20.749C20.5194 17.0042 19.6248 17.7492 18.5562 17.7492H5.44434C4.37572 17.7492 3.48109 17.0042 3.25148 16.0053Z" />
</svg>
