<svg  viewBox="0 0 24 24" fill="white" xmlns="http://www.w3.org/2000/svg">
<path d="M13.102 2.438L4.266 5.858C4.219 5.874 4.164 5.898 4.102 5.928L3.961 5.976C3.16988 6.315 2.48828 6.86678 1.992 7.57C1.492 8.29 1.242 9.102 1.242 10.008V17.344C1.242 18.578 1.688 19.625 2.578 20.484C3.484 21.328 4.563 21.75 5.813 21.75H18.188C19.438 21.75 20.508 21.328 21.398 20.484C22.305 19.625 22.758 18.578 22.758 17.344V10.008C22.758 8.883 22.375 7.914 21.609 7.102C20.844 6.273 19.914 5.789 18.82 5.648C18.6884 5.05732 18.424 4.50435 18.047 4.031C17.6707 3.559 17.2094 3.16151 16.687 2.859C16.1605 2.55872 15.579 2.36758 14.977 2.297C14.3493 2.20435 13.7089 2.25316 13.102 2.438ZM9.07 5.601L13.547 3.866C14.344 3.647 15.086 3.718 15.773 4.077C16.461 4.421 16.945 4.929 17.227 5.601H9.07ZM21.258 10.007V10.171H17.227C16.507 10.171 15.883 10.421 15.352 10.921C15.1026 11.1548 14.9049 11.4383 14.7716 11.7531C14.6383 12.0679 14.5723 12.4072 14.578 12.749V14.601C14.578 15.319 14.836 15.929 15.352 16.429C15.882 16.929 16.508 17.179 17.227 17.179H21.257V17.343C21.257 18.124 20.961 18.803 20.367 19.382C19.773 19.96 19.047 20.249 18.187 20.249H5.813C4.954 20.249 4.228 19.959 3.633 19.382C3.04 18.804 2.743 18.124 2.743 17.342V10.007C2.743 9.429 2.899 8.905 3.212 8.437C3.53494 7.9727 3.98099 7.60768 4.5 7.383L4.805 7.266C4.961 7.203 5.125 7.164 5.297 7.148C5.469 7.118 5.641 7.102 5.813 7.102H18.188C19.047 7.102 19.773 7.391 20.368 7.969C20.961 8.547 21.258 9.227 21.258 10.008V10.007ZM21.258 11.671V15.679H17.227C16.898 15.679 16.625 15.569 16.407 15.351C16.3039 15.255 16.2216 15.139 16.165 15.01C16.1084 14.881 16.0788 14.7418 16.078 14.601V12.75C16.078 12.469 16.188 12.219 16.406 12C16.625 11.781 16.898 11.672 17.226 11.672H21.258V11.671Z" />
</svg>
