<svg  viewBox="0 0 24 24" fill="white" xmlns="http://www.w3.org/2000/svg">
<path d="M11.297 11.836L2.883 10.125C2.64677 10.0772 2.43259 9.95361 2.273 9.773C2.10211 9.58662 2.00289 9.34566 1.993 9.093C1.977 8.843 2.039 8.617 2.18 8.414C2.32 8.211 2.516 8.07 2.766 7.992L20.531 2.062C20.7256 1.98425 20.9411 1.97612 21.141 2.039C21.344 2.086 21.523 2.179 21.68 2.32C21.8186 2.47294 21.9151 2.65915 21.9604 2.86051C22.0056 3.06187 21.9979 3.2715 21.938 3.469L16.008 21.234C15.9485 21.4642 15.8065 21.6646 15.609 21.797C15.422 21.937 15.203 22.007 14.953 22.007H14.906C14.6533 21.9971 14.4124 21.8979 14.226 21.727C14.0458 21.5673 13.9225 21.3531 13.875 21.117L12.165 12.703C12.1205 12.4896 12.0141 12.2942 11.859 12.141C11.7057 11.9863 11.5102 11.8802 11.297 11.836ZM20.273 3.726L4.617 8.954L11.602 10.36C12.117 10.47 12.555 10.712 12.914 11.087C13.289 11.447 13.531 11.884 13.641 12.399L15.047 19.384L20.273 3.728V3.726Z" />
</svg>
