<svg  viewBox="0 0 24 24" fill="white" xmlns="http://www.w3.org/2000/svg">
<path d="M14.7419 7.008C14.7419 6.305 14.6169 5.656 14.3669 5.062C14.1115 4.46819 13.7461 3.92803 13.2899 3.47C12.8314 3.01331 12.2905 2.64753 11.6959 2.392C11.0824 2.12532 10.42 1.98944 9.75094 1.993C9.06294 1.993 8.41494 2.126 7.80594 2.392C7.19594 2.657 6.66594 3.017 6.21194 3.47C5.75522 3.92854 5.38945 4.4694 5.13394 5.064C4.87949 5.68054 4.75195 6.34206 4.75894 7.009C4.75894 7.696 4.88394 8.345 5.13394 8.954C5.39894 9.564 5.75894 10.094 6.21194 10.548C6.66494 10.985 7.19594 11.337 7.80594 11.603C8.41594 11.868 9.06394 12.001 9.75094 12.001C10.4389 12.001 11.0869 11.868 11.6959 11.603C12.2863 11.3499 12.8263 10.9925 13.2899 10.548C13.7467 10.0895 14.1124 9.54861 14.3679 8.954C14.6179 8.344 14.7429 7.696 14.7429 7.009L14.7419 7.008ZM13.2419 7.008C13.2419 7.977 12.8979 8.805 12.2109 9.492C11.5389 10.164 10.7189 10.5 9.74994 10.5C9.2894 10.5076 8.83206 10.4222 8.40526 10.249C7.97846 10.0759 7.59096 9.81837 7.26594 9.492C6.93957 9.16698 6.68209 8.77949 6.5089 8.35269C6.3357 7.92589 6.25035 7.46854 6.25794 7.008C6.25794 6.039 6.59394 5.211 7.26594 4.523C7.58769 4.19078 7.97409 3.92799 8.40131 3.75084C8.82852 3.57369 9.2875 3.48594 9.74994 3.493C10.7189 3.493 11.5399 3.836 12.2099 4.523C12.5427 4.8447 12.8059 5.23118 12.9834 5.65859C13.1609 6.086 13.2489 6.54526 13.2419 7.008Z" />
<path d="M2.74206 19.008C2.58606 19.617 2.50806 20.281 2.50806 21C2.50787 21.1013 2.48693 21.2015 2.44651 21.2943C2.40609 21.3872 2.34706 21.4708 2.27306 21.54C2.13306 21.68 1.96106 21.75 1.75806 21.75C1.53906 21.75 1.35906 21.68 1.21806 21.54C1.07806 21.383 1.00806 21.203 1.00806 21C1.01161 20.1874 1.10586 19.3777 1.28906 18.586C1.49206 17.758 1.93006 17.008 2.60206 16.336C3.25806 15.68 4.16406 15.172 5.32006 14.813C6.47706 14.438 7.95306 14.25 9.75006 14.25C11.5471 14.25 13.0231 14.437 14.1801 14.813C15.3361 15.172 16.2421 15.68 16.8981 16.336C17.5701 17.008 18.0001 17.758 18.1871 18.586C18.3911 19.414 18.4921 20.219 18.4921 21C18.4935 21.2004 18.418 21.3937 18.2811 21.54C18.2104 21.6098 18.1262 21.6644 18.0337 21.7005C17.9412 21.7366 17.8423 21.7534 17.7431 21.75C17.5391 21.75 17.3591 21.68 17.2031 21.54C17.0621 21.383 16.9921 21.203 16.9921 21C16.9921 20.281 16.9141 19.618 16.7581 19.008C16.6021 18.398 16.2971 17.867 15.8441 17.414C15.3911 16.945 14.6881 16.555 13.7341 16.242C12.7811 15.914 11.4531 15.75 9.75006 15.75C8.04606 15.75 6.71906 15.914 5.76606 16.242C4.81206 16.554 4.10906 16.945 3.65606 17.414C3.20306 17.868 2.89806 18.398 2.74206 19.008Z" />
<path d="M15.6681 4.75C15.6681 5.797 16.0351 6.688 16.7701 7.422C17.1162 7.77064 17.5291 8.04582 17.9842 8.23106C18.4392 8.41629 18.9269 8.50777 19.4181 8.5C20.4651 8.5 21.3481 8.14 22.0671 7.422C22.8011 6.688 23.1681 5.797 23.1681 4.75C23.1681 3.719 22.8011 2.836 22.0671 2.102C21.3471 1.367 20.4651 1 19.4181 1C18.3871 1 17.5041 1.367 16.7701 2.102C16.0351 2.836 15.6681 3.719 15.6681 4.75ZM19.4181 2.5C19.5901 2.5 19.7541 2.524 19.9101 2.57C20.0821 2.602 20.2461 2.656 20.4031 2.735L17.4031 5.735C17.3269 5.58407 17.264 5.42682 17.2151 5.265C17.184 5.0951 17.1682 4.92273 17.1681 4.75C17.1681 4.14 17.3871 3.617 17.8241 3.18C18.2781 2.727 18.8091 2.5 19.4181 2.5ZM19.4181 7C19.2461 7 19.0741 6.985 18.9031 6.953C18.7511 6.90782 18.6021 6.85305 18.4571 6.789L21.4571 3.789C21.5201 3.929 21.5671 4.086 21.5971 4.258C21.6451 4.414 21.6681 4.578 21.6681 4.75C21.6734 5.04641 21.618 5.34078 21.5052 5.61493C21.3923 5.88908 21.2245 6.13721 21.0121 6.344C20.8053 6.55643 20.5572 6.72423 20.283 6.83706C20.0089 6.94989 19.7145 7.00534 19.4181 7Z" />
</svg>
