<svg  viewBox="0 0 24 24" fill="white" xmlns="http://www.w3.org/2000/svg">
<path d="M8.25 3C8.25 2.58579 8.58579 2.25 9 2.25H15C15.4142 2.25 15.75 2.58579 15.75 3C15.75 3.41421 15.4142 3.75 15 3.75H9C8.58579 3.75 8.25 3.41421 8.25 3Z" />
<path d="M13.25 16.25C13.25 16.9404 12.6904 17.5 12 17.5C11.3096 17.5 10.75 16.9404 10.75 16.25C10.75 15.5596 11.3096 15 12 15C12.6904 15 13.25 15.5596 13.25 16.25Z" />
<path fill-rule="evenodd" clip-rule="evenodd" d="M6 5.25C3.37665 5.25 1.25 7.37665 1.25 10V17C1.25 19.6234 3.37665 21.75 6 21.75H18C20.6234 21.75 22.75 19.6234 22.75 17V10C22.75 7.37665 20.6234 5.25 18 5.25H6ZM2.75 17V12.2657C3.28807 12.6203 3.94643 12.9256 4.68117 13.1828C6.58961 13.8507 9.17724 14.25 12 14.25C14.8228 14.25 17.4104 13.8507 19.3188 13.1828C20.0536 12.9256 20.7119 12.6203 21.25 12.2657V17C21.25 18.7949 19.7949 20.25 18 20.25H6C4.20507 20.25 2.75 18.7949 2.75 17ZM20.736 10.7845C21.153 10.4395 21.25 10.1706 21.25 10C21.25 8.20507 19.7949 6.75 18 6.75H6C4.20507 6.75 2.75 8.20507 2.75 10C2.75 10.1706 2.847 10.4395 3.26399 10.7845C3.67621 11.1256 4.31781 11.4664 5.17669 11.767C6.88754 12.3658 9.29991 12.75 12 12.75C14.7001 12.75 17.1125 12.3658 18.8233 11.767C19.6822 11.4664 20.3238 11.1256 20.736 10.7845Z" />
</svg>
