<svg  viewBox="0 0 24 24" fill="white" xmlns="http://www.w3.org/2000/svg">
<path d="M6.758 6V6.258H6.5C5.469 6.258 4.586 6.625 3.852 7.359C3.117 8.079 2.75 8.961 2.75 10.008V18C2.75 19.031 3.117 19.914 3.852 20.648C4.586 21.383 5.469 21.75 6.5 21.75H14.492C15.539 21.75 16.422 21.383 17.141 20.648C17.875 19.914 18.242 19.031 18.242 18V17.742H18.5C18.9912 17.7498 19.4789 17.6583 19.9339 17.4731C20.389 17.2878 20.8019 17.0126 21.148 16.664C21.883 15.93 22.25 15.039 22.25 13.992V6C22.25 4.969 21.883 4.086 21.148 3.352C20.414 2.617 19.531 2.25 18.5 2.25H10.508C9.461 2.25 8.57 2.617 7.836 3.352C7.48736 3.69812 7.21218 4.11105 7.02694 4.56606C6.84171 5.02107 6.75023 5.50879 6.758 6ZM8.258 6.258V6C8.258 5.375 8.477 4.844 8.914 4.406C9.12079 4.19357 9.36892 4.02577 9.64307 3.91294C9.91722 3.80011 10.2116 3.74466 10.508 3.75H18.5C18.7964 3.74466 19.0908 3.80011 19.3649 3.91294C19.6391 4.02577 19.8872 4.19357 20.094 4.406C20.531 4.844 20.75 5.375 20.75 6V13.992C20.7553 14.2884 20.6999 14.5828 20.5871 14.8569C20.4742 15.1311 20.3064 15.3792 20.094 15.586C19.8872 15.7984 19.6391 15.9662 19.3649 16.0791C19.0908 16.1919 18.7964 16.2473 18.5 16.242H18.242V10.008C18.242 8.961 17.875 8.078 17.141 7.359C16.421 6.625 15.539 6.258 14.492 6.258H8.258ZM4.25 10.008C4.25 9.383 4.469 8.852 4.906 8.414C5.11279 8.20157 5.36092 8.03377 5.63507 7.92094C5.90922 7.80811 6.20359 7.75266 6.5 7.758H14.492C14.7884 7.75266 15.0828 7.80811 15.3569 7.92094C15.6311 8.03377 15.8792 8.20157 16.086 8.414C16.523 8.852 16.742 9.383 16.742 10.008V18C16.7473 18.2964 16.6919 18.5908 16.5791 18.8649C16.4662 19.1391 16.2984 19.3872 16.086 19.594C15.8792 19.8064 15.6311 19.9742 15.3569 20.0871C15.0828 20.1999 14.7884 20.2553 14.492 20.25H6.5C6.20359 20.2553 5.90922 20.1999 5.63507 20.0871C5.36092 19.9742 5.11279 19.8064 4.906 19.594C4.69357 19.3872 4.52577 19.1391 4.41294 18.8649C4.30011 18.5908 4.24466 18.2964 4.25 18V10.008Z" />
</svg>
