<svg  viewBox="0 0 24 24" fill="white" xmlns="http://www.w3.org/2000/svg">
<path fill-rule="evenodd" clip-rule="evenodd" d="M10.0996 2.8819C7.89047 2.8819 6.09961 4.67276 6.09961 6.8819V16.8819C6.09961 19.091 7.89047 20.8819 10.0996 20.8819H14.1007C16.3098 20.8819 18.1007 19.091 18.1007 16.8819V6.8819C18.1007 4.67276 16.3098 2.8819 14.1007 2.8819H10.0996ZM10.6002 4.3819C8.94337 4.3819 7.60022 5.72504 7.60022 7.3819V16.3819C7.60022 18.0388 8.94337 19.3819 10.6002 19.3819H13.6002C15.2571 19.3819 16.6002 18.0388 16.6002 16.3819V7.3819C16.6002 5.72504 15.2571 4.3819 13.6002 4.3819H10.6002Z" />
<path d="M23.079 3.93335C23.079 3.39382 22.5971 2.971 22.0972 3.17383C20.6328 3.76795 19.6001 5.20432 19.6001 6.88189V16.8819C19.6001 18.5595 20.6328 19.9958 22.0972 20.5899C22.5971 20.7928 23.079 20.37 23.079 19.8304C23.079 19.4541 22.8354 19.1288 22.5161 18.9297C21.6662 18.4 21.1007 17.457 21.1007 16.3819V7.38189C21.1007 6.30678 21.6662 5.36375 22.5161 4.83408C22.8354 4.63501 23.079 4.30969 23.079 3.93335Z" />
<path d="M4.60059 6.88189C4.60059 5.20432 3.56788 3.76795 2.10351 3.17383C1.60356 2.971 1.1217 3.39382 1.1217 3.93335C1.1217 4.30969 1.36523 4.63501 1.68462 4.83408C2.53444 5.36375 3.09998 6.30678 3.09998 7.38189V16.3819C3.09998 17.457 2.53444 18.4 1.68462 18.9297C1.36523 19.1288 1.1217 19.4541 1.1217 19.8304C1.1217 20.37 1.60356 20.7928 2.10351 20.5899C3.56788 19.9958 4.60059 18.5595 4.60059 16.8819V6.88189Z" />
</svg>
