<svg  viewBox="0 0 24 24" fill="white" xmlns="http://www.w3.org/2000/svg">
<path d="M12.2239 11.8846C11.931 11.5917 11.4562 11.5917 11.1633 11.8846L9.42481 13.6231C9.13192 13.916 9.13192 14.3908 9.42481 14.6837C9.7177 14.9766 10.1926 14.9766 10.4855 14.6837L12.2239 12.9453C12.5168 12.6524 12.5168 12.1775 12.2239 11.8846Z" />
<path fill-rule="evenodd" clip-rule="evenodd" d="M15.5237 2.78714C14.7426 2.00609 13.4763 2.00609 12.6953 2.78714L10.3637 5.11869C10.233 5.24944 10.141 5.41388 10.0981 5.59374L9.31227 8.88776C9.26936 9.06762 9.17742 9.23206 9.04667 9.36281L2.79697 15.6125C2.01592 16.3936 2.01592 17.6599 2.79697 18.4409L5.56888 21.2129C6.34993 21.9939 7.61626 21.9939 8.39731 21.2129L14.6493 14.9609C14.7786 14.8316 14.9409 14.7402 15.1185 14.6967L18.4001 13.8931C18.5777 13.8496 18.74 13.7582 18.8693 13.6289L21.2031 11.295C21.9842 10.514 21.9842 9.24766 21.2031 8.46661L15.5237 2.78714ZM14.8967 4.12269C14.5062 3.73216 13.873 3.73216 13.4825 4.12268L12.7917 4.8134L19.1769 11.1986L19.8677 10.5079C20.2582 10.1173 20.2582 9.48418 19.8677 9.09366L14.8967 4.12269ZM11.5419 6.0632L11.7311 5.87405L18.1163 12.2593L17.9129 12.4626C17.7846 12.5909 17.6239 12.6818 17.4479 12.7258L14.6369 13.4269C14.4608 13.4709 14.3001 13.5618 14.1718 13.6901L7.95475 19.9072C7.56422 20.2977 6.93106 20.2977 6.54053 19.9072L4.19107 17.5577C3.80054 17.1672 3.80054 16.534 4.19107 16.1435L10.3939 9.94061C10.5311 9.80342 10.6254 9.62928 10.6654 9.43943L11.2704 6.56438C11.3104 6.37453 11.4047 6.20039 11.5419 6.0632Z" />
</svg>
