<svg  viewBox="0 0 24 24" fill="white" xmlns="http://www.w3.org/2000/svg">
<path d="M12.516 2.063C12.3557 1.98358 12.1789 1.94315 12 1.945C11.812 1.945 11.64 1.985 11.484 2.062L4.477 5.228C4.2809 5.31562 4.11099 5.45278 3.984 5.626C3.875 5.782 3.813 5.954 3.797 6.142C3.719 7.267 3.757 8.563 3.914 10.032C4.07 11.501 4.437 12.985 5.016 14.485C5.609 15.97 6.461 17.392 7.57 18.751C8.664 20.111 10.11 21.235 11.906 22.126C11.9351 22.1409 11.9673 22.1488 12 22.149C12.0327 22.1488 12.0649 22.1409 12.094 22.126C13.891 21.236 15.336 20.11 16.43 18.751C17.54 17.391 18.383 15.97 18.96 14.485C19.555 12.985 19.93 11.501 20.086 10.032C20.242 8.563 20.281 7.267 20.203 6.142C20.187 5.95267 20.1137 5.7727 19.993 5.626C19.8787 5.45014 19.7153 5.31174 19.523 5.228L12.516 2.063ZM10.875 0.68C11.235 0.523 11.609 0.445 12 0.445C12.39 0.445 12.766 0.523 13.125 0.68L20.156 3.867C20.563 4.055 20.906 4.344 21.188 4.734C21.484 5.109 21.656 5.539 21.703 6.024C21.781 7.195 21.743 8.578 21.586 10.172C21.414 11.766 21.008 13.382 20.367 15.023C19.727 16.648 18.797 18.211 17.578 19.711C16.359 21.211 14.75 22.461 12.75 23.461C12.5195 23.5849 12.2617 23.6491 12 23.648C11.7383 23.6491 11.4805 23.5849 11.25 23.461C9.25 22.461 7.64 21.211 6.422 19.711C5.203 18.211 4.273 16.648 3.632 15.023C2.992 13.383 2.586 11.766 2.414 10.172C2.258 8.578 2.219 7.195 2.297 6.023C2.344 5.539 2.507 5.109 2.789 4.734C3.086 4.344 3.437 4.054 3.844 3.867L10.875 0.68Z" />
<path d="M17.7421 9.00002C17.7421 8.79702 17.6711 8.61702 17.5311 8.46002C17.4601 8.39001 17.3767 8.33526 17.2838 8.29915C17.1909 8.26303 17.0916 8.24631 16.9921 8.25002C16.7891 8.25002 16.6171 8.32102 16.4771 8.46102L10.9921 13.945L8.53206 11.46C8.46115 11.39 8.37666 11.3353 8.28379 11.2991C8.19092 11.263 8.09164 11.2463 7.99206 11.25C7.78906 11.25 7.61706 11.32 7.47706 11.46C7.32006 11.617 7.24206 11.797 7.24206 12C7.24238 12.1011 7.26339 12.2011 7.30381 12.2938C7.34422 12.3865 7.40318 12.47 7.47706 12.539L10.4771 15.539C10.5454 15.6058 10.6241 15.6612 10.7101 15.703C10.8927 15.7644 11.0904 15.7644 11.2731 15.703C11.3649 15.658 11.4517 15.6034 11.5321 15.54L17.5321 9.54002C17.6721 9.38302 17.7421 9.20302 17.7421 9.00002Z" />
</svg>
