<svg  viewBox="0 0 24 24" fill="white" xmlns="http://www.w3.org/2000/svg">
<path fill-rule="evenodd" clip-rule="evenodd" d="M16.617 5.06201C16.867 5.656 16.992 6.30501 16.992 7.00801C16.992 7.695 16.867 8.34301 16.617 8.95301C16.3615 9.54761 15.9957 10.0885 15.539 10.547C15.0753 10.9915 14.5354 11.3489 13.945 11.602C13.336 11.867 12.688 12 12 12C11.313 12 10.665 11.867 10.055 11.602C9.445 11.336 8.914 10.984 8.461 10.547C8.008 10.093 7.648 9.56301 7.383 8.95301C7.133 8.34401 7.008 7.695 7.008 7.00801C7.00101 6.34106 7.12855 5.67955 7.383 5.06301C7.63851 4.4684 8.00428 3.92754 8.461 3.46901C8.915 3.01601 9.445 2.65601 10.055 2.39101C10.664 2.12501 11.312 1.99201 12 1.99201C12.6694 1.98861 13.3322 2.12485 13.946 2.39201C14.5406 2.64753 15.0815 3.01331 15.54 3.47001C15.9962 3.92803 16.3616 4.46819 16.617 5.06201ZM14.461 9.492C15.148 8.80501 15.492 7.97701 15.492 7.00801C15.4989 6.54526 15.4109 6.086 15.2334 5.65859C15.0559 5.23118 14.7927 4.8447 14.46 4.52301C13.79 3.836 12.969 3.49301 12 3.49301C11.5376 3.48594 11.0786 3.57369 10.6514 3.75084C10.2241 3.92799 9.83775 4.19078 9.516 4.52301C8.844 5.211 8.508 6.03901 8.508 7.00801C8.50041 7.46855 8.58577 7.92589 8.75896 8.35269C8.93215 8.77949 9.18963 9.16698 9.516 9.492C9.84102 9.81837 10.2285 10.0759 10.6553 10.249C11.0821 10.4222 11.5395 10.5076 12 10.5C12.969 10.5 13.789 10.164 14.461 9.492Z" />
<path d="M4.75806 21C4.75806 20.281 4.83606 19.617 4.99206 19.008C5.14806 18.398 5.45306 17.868 5.90606 17.414C6.35906 16.945 7.06306 16.554 8.01606 16.242C8.96906 15.914 10.2961 15.75 12.0001 15.75C13.7031 15.75 15.0311 15.914 15.9841 16.242C16.6354 16.4557 17.1698 16.7053 17.5874 16.9914C17.886 17.196 18.3031 17.2002 18.5561 16.9415C18.8841 16.606 18.8832 16.0634 18.5001 15.7926C17.934 15.3924 17.244 15.0658 16.4301 14.813C15.2731 14.437 13.7971 14.25 12.0001 14.25C10.2031 14.25 8.72706 14.438 7.57006 14.813C6.41406 15.172 5.50806 15.68 4.85206 16.336C4.18006 17.008 3.74206 17.758 3.53906 18.586C3.35586 19.3777 3.26161 20.1874 3.25806 21C3.25806 21.203 3.32806 21.383 3.46806 21.54C3.60906 21.68 3.78906 21.75 4.00806 21.75C4.21106 21.75 4.38306 21.68 4.52306 21.54C4.59706 21.4708 4.65609 21.3872 4.69651 21.2944C4.73693 21.2015 4.75787 21.1013 4.75806 21Z" />
<path d="M14.0217 18.893C14.0217 18.4788 14.3575 18.143 14.7717 18.143H21.6006C22.0148 18.143 22.3506 18.4788 22.3506 18.893C22.3506 19.3072 22.0148 19.643 21.6006 19.643H14.7717C14.3575 19.643 14.0217 19.3072 14.0217 18.893Z" />
<path d="M14.7717 21.143C14.3575 21.143 14.0217 21.4788 14.0217 21.893C14.0217 22.3072 14.3575 22.643 14.7717 22.643H18.6573C19.0716 22.643 19.4073 22.3072 19.4073 21.893C19.4073 21.4788 19.0716 21.143 18.6573 21.143H14.7717Z" />
</svg>
