<svg  viewBox="0 0 24 24" fill="white" xmlns="http://www.w3.org/2000/svg">
<path d="M12 16.781C12.203 16.781 12.375 16.711 12.516 16.571C12.5898 16.5018 12.6487 16.4181 12.6889 16.3252C12.7292 16.2324 12.75 16.1322 12.75 16.031V4.57098L15 6.81998C15.156 6.95998 15.336 7.02998 15.54 7.02998C15.742 7.02998 15.914 6.95998 16.055 6.81998C16.1288 6.75073 16.1876 6.66708 16.2279 6.57421C16.2681 6.48133 16.2889 6.3812 16.289 6.27998C16.29 6.18225 16.2696 6.08547 16.2292 5.99649C16.1887 5.90751 16.1293 5.82848 16.055 5.76498L12.539 2.22498C12.4696 2.15165 12.3861 2.09325 12.2934 2.05335C12.2007 2.01346 12.1009 1.99292 12 1.99298C11.8987 1.99316 11.7985 2.01411 11.7056 2.05453C11.6127 2.09495 11.5291 2.15398 11.46 2.22798L7.94595 5.76598C7.87165 5.82948 7.81218 5.9085 7.77175 5.99749C7.73132 6.08647 7.7109 6.18325 7.71195 6.28098C7.71195 6.48398 7.78995 6.66398 7.94595 6.82098C8.08595 6.96098 8.25895 7.03098 8.46195 7.03098C8.66495 7.03098 8.84495 6.96098 9.00095 6.82098L11.251 4.57098V16.031C11.251 16.234 11.321 16.414 11.461 16.571C11.618 16.711 11.798 16.781 12.001 16.781H12Z" />
<path d="M3.18819 13.218C3.04719 13.078 2.88319 13.008 2.69519 13.008V13.007C2.60312 13.0067 2.51196 13.0253 2.42734 13.0616C2.34272 13.0979 2.26644 13.1511 2.20319 13.218C2.06219 13.343 1.99219 13.507 1.99219 13.71V17.507C1.99219 18.741 2.42219 19.804 3.28219 20.694C4.15619 21.569 5.20319 22.007 6.42219 22.007H17.5782C18.7972 22.007 19.8352 21.569 20.6952 20.694C21.5702 19.804 22.0072 18.741 22.0072 17.507V13.71C22.0072 13.507 21.9372 13.343 21.7972 13.217C21.6562 13.077 21.4922 13.007 21.3052 13.007C21.2131 13.0067 21.122 13.0253 21.0373 13.0616C20.9527 13.0979 20.8764 13.1511 20.8132 13.218C20.6712 13.343 20.6012 13.507 20.6012 13.71V17.508C20.6012 18.352 20.3052 19.078 19.7112 19.688C19.1332 20.281 18.4222 20.578 17.5782 20.578H6.42219C5.57819 20.578 4.85919 20.281 4.26619 19.688C3.68819 19.078 3.39819 18.352 3.39819 17.508V13.711C3.39819 13.508 3.32819 13.344 3.18819 13.218Z" />
</svg>
