<svg viewBox="0 0 24 24" fill="white" xmlns="http://www.w3.org/2000/svg">
<path d="M11.25 2.99999C11.25 2.79699 11.32 2.62499 11.46 2.48399C11.5292 2.41017 11.6129 2.35133 11.7058 2.31108C11.7986 2.27084 11.8988 2.25005 12 2.24999C13.3055 2.24204 14.5985 2.50526 15.797 3.02299C16.9571 3.50499 18.0088 4.21464 18.89 5.10999C19.7851 5.99158 20.4944 7.04363 20.976 8.20399C21.4939 9.40212 21.7575 10.6947 21.75 12C21.7579 13.3055 21.4947 14.5985 20.977 15.797C20.4918 16.9622 19.7831 18.0211 18.891 18.914C18.0042 19.797 16.9531 20.4979 15.797 20.977C14.5985 21.4947 13.3055 21.7579 12 21.75C10.6945 21.7579 9.4015 21.4947 8.20299 20.977C7.04196 20.4944 5.98395 19.7941 5.08599 18.914C4.20591 18.016 3.50567 16.958 3.02299 15.797C2.50526 14.5985 2.24204 13.3055 2.24999 12C2.24999 11.797 2.31999 11.625 2.45999 11.484C2.52921 11.4101 2.61285 11.3512 2.70573 11.311C2.79861 11.2708 2.89876 11.25 2.99999 11.25C3.20299 11.25 3.37499 11.328 3.51599 11.484C3.67199 11.625 3.74999 11.797 3.74999 12C3.74999 13.14 3.96899 14.21 4.40599 15.21C4.81521 16.1916 5.41242 17.0836 6.16399 17.836C6.91606 18.5875 7.80779 19.1847 8.78899 19.594C9.78899 20.031 10.859 20.25 12 20.25C13.14 20.25 14.21 20.031 15.21 19.594C16.1916 19.1848 17.0836 18.5876 17.836 17.836C18.5875 17.0839 19.1847 16.1922 19.594 15.211C20.031 14.211 20.25 13.141 20.25 12C20.25 10.86 20.031 9.78999 19.594 8.78999C19.1848 7.80843 18.5876 6.91636 17.836 6.16399C17.0839 5.41252 16.1922 4.81532 15.211 4.40599C14.211 3.96899 13.141 3.74999 12 3.74999C11.7997 3.75172 11.6065 3.67655 11.46 3.53999C11.3234 3.39352 11.2483 3.20024 11.25 2.99999Z" />
</svg>
