<svg  viewBox="0 0 24 24" fill="white" xmlns="http://www.w3.org/2000/svg">
<path d="M15.96 17.016L20.46 21.539C20.617 21.679 20.797 21.75 21 21.75C21.203 21.75 21.383 21.68 21.54 21.54C21.6765 21.3935 21.7517 21.2002 21.75 21C21.7517 20.7997 21.6765 20.6065 21.54 20.46L17.016 15.96C17.6457 15.2175 18.1378 14.3685 18.469 13.453C18.829 12.516 19.008 11.531 19.008 10.5C19.0151 9.36288 18.7835 8.23693 18.328 7.195C17.9041 6.18395 17.2826 5.26771 16.5 4.5C15.7323 3.71735 14.816 3.09586 13.805 2.672C12.763 2.21652 11.6371 1.98486 10.5 1.992C9.36286 1.98486 8.23692 2.21652 7.19498 2.672C6.17907 3.09942 5.25595 3.72027 4.47698 4.5C3.70633 5.27286 3.09329 6.18817 2.67198 7.195C2.21651 8.23693 1.98484 9.36288 1.99198 10.5C1.99198 11.672 2.21898 12.773 2.67198 13.805C3.09686 14.8167 3.70929 15.7389 4.47698 16.523C5.26101 17.2907 6.18324 17.9032 7.19498 18.328C8.23692 18.7835 9.36286 19.0151 10.5 19.008C11.5071 19.0121 12.5069 18.8374 13.453 18.492C14.3671 18.1467 15.2153 17.6475 15.961 17.016H15.96ZM17.508 10.5C17.508 11.469 17.32 12.375 16.945 13.219C16.585 14.079 16.085 14.829 15.445 15.469C14.8071 16.1024 14.0507 16.6039 13.219 16.945C12.3627 17.3228 11.4359 17.5147 10.5 17.508C9.56403 17.5147 8.63731 17.3228 7.78098 16.945C6.94399 16.6005 6.18036 16.0995 5.53098 15.469C4.90048 14.8196 4.39954 14.056 4.05498 13.219C3.67715 12.3627 3.48526 11.4359 3.49198 10.5C3.49198 9.531 3.67998 8.625 4.05498 7.781C4.41498 6.921 4.90598 6.18 5.53098 5.555C6.17098 4.915 6.92098 4.415 7.78098 4.055C8.63731 3.67717 9.56403 3.48528 10.5 3.492C11.469 3.492 12.375 3.68 13.219 4.055C14.079 4.415 14.82 4.915 15.445 5.555C16.0908 6.18759 16.6011 6.94495 16.945 7.781C17.32 8.625 17.508 9.531 17.508 10.5Z" />
</svg>
