<svg  viewBox="0 0 24 24" fill="white" xmlns="http://www.w3.org/2000/svg">
<path d="M17.765 2.492C16.718 2.492 15.827 2.859 15.093 3.594C14.7444 3.94011 14.4692 4.35305 14.2839 4.80806C14.0987 5.26307 14.0072 5.75079 14.015 6.242C14.015 6.53354 14.0465 6.82423 14.109 7.109L8.249 10.25C7.90636 9.79783 7.46564 9.42926 6.96 9.172C6.43507 8.88845 5.84658 8.74322 5.25 8.75C4.218 8.75 3.335 9.117 2.6 9.852C1.866 10.586 1.5 11.469 1.5 12.5C1.5 13.531 1.866 14.414 2.6 15.148C3.335 15.883 4.218 16.25 5.25 16.25C5.83622 16.2555 6.41506 16.1189 6.937 15.852C7.4501 15.5857 7.89809 15.2094 8.249 14.75L14.085 17.984C14.054 18.109 14.03 18.234 14.015 18.359V18.758C14.0072 19.2492 14.0987 19.7369 14.2839 20.1919C14.4692 20.6469 14.7444 21.0599 15.093 21.406C15.827 22.141 16.718 22.508 17.765 22.508C18.796 22.508 19.679 22.141 20.413 21.406C21.148 20.672 21.515 19.789 21.515 18.758C21.515 17.711 21.148 16.828 20.413 16.109C19.679 15.375 18.796 15.008 17.765 15.008C17.1606 15.0029 16.5645 15.1479 16.03 15.43C15.5124 15.6998 15.0636 16.0846 14.718 16.555L8.905 13.344C8.937 13.219 8.96 13.086 8.975 12.945C9.02511 12.5141 9.00144 12.0779 8.905 11.655L14.765 8.515C15.109 8.969 15.538 9.328 16.054 9.594C16.5848 9.85928 17.1706 9.99564 17.764 9.992C18.2555 10 18.7436 9.90869 19.199 9.72345C19.6544 9.53821 20.0676 9.26288 20.414 8.914C21.148 8.18 21.514 7.289 21.514 6.242C21.514 5.211 21.148 4.328 20.414 3.594C19.679 2.859 18.796 2.492 17.764 2.492H17.765ZM15.515 6.242C15.515 5.632 15.734 5.109 16.171 4.672C16.609 4.219 17.14 3.992 17.765 3.992C18.375 3.992 18.898 4.219 19.335 4.672C19.788 5.109 20.015 5.632 20.015 6.242C20.015 6.867 19.788 7.398 19.335 7.836C18.898 8.273 18.375 8.492 17.765 8.492C17.4686 8.49734 17.1742 8.44188 16.9001 8.32906C16.6259 8.21623 16.3778 8.04843 16.171 7.836C15.9586 7.6292 15.7908 7.38108 15.6779 7.10693C15.5651 6.83277 15.5097 6.53841 15.515 6.242ZM2.999 12.5C2.999 11.875 3.218 11.344 3.655 10.906C3.86357 10.6959 4.11203 10.5297 4.38577 10.4171C4.6595 10.3044 4.953 10.2476 5.249 10.25C5.54541 10.2447 5.83978 10.3001 6.11393 10.4129C6.38808 10.5258 6.63621 10.6936 6.843 10.906C7.28 11.344 7.499 11.875 7.499 12.5C7.50434 12.7964 7.44889 13.0908 7.33606 13.3649C7.22323 13.6391 7.05543 13.8872 6.843 14.094C6.63621 14.3064 6.38808 14.4742 6.11393 14.5871C5.83978 14.6999 5.54541 14.7553 5.249 14.75C4.639 14.75 4.109 14.531 3.655 14.094C3.44257 13.8872 3.27477 13.6391 3.16194 13.3649C3.04911 13.0908 2.99366 12.7964 2.999 12.5ZM17.765 16.508C18.375 16.508 18.898 16.727 19.335 17.164C19.788 17.602 20.015 18.133 20.015 18.758C20.015 19.368 19.788 19.898 19.335 20.352C18.898 20.789 18.375 21.008 17.765 21.008C17.4686 21.0133 17.1742 20.9579 16.9001 20.8451C16.6259 20.7322 16.3778 20.5644 16.171 20.352C15.734 19.898 15.515 19.367 15.515 18.758C15.515 18.133 15.734 17.602 16.171 17.164C16.3778 16.9516 16.6259 16.7838 16.9001 16.6709C17.1742 16.5581 17.4686 16.5027 17.765 16.508Z" />
</svg>
