<svg  viewBox="0 0 25 24" fill="white" xmlns="http://www.w3.org/2000/svg">
<path fill-rule="evenodd" clip-rule="evenodd" d="M22.2581 12C22.2581 17.5228 17.7809 22 12.2581 22C6.73521 22 2.25806 17.5228 2.25806 12C2.25806 6.47715 6.73521 2 12.2581 2C17.7809 2 22.2581 6.47715 22.2581 12ZM20.7581 12C20.7581 16.6944 16.9525 20.5 12.2581 20.5C7.56364 20.5 3.75806 16.6944 3.75806 12C3.75806 7.30558 7.56364 3.5 12.2581 3.5C16.9525 3.5 20.7581 7.30558 20.7581 12Z" />
<path d="M12.2581 18C15.5718 18 18.2581 15.3137 18.2581 12C18.2581 8.68629 15.5718 6 12.2581 6C8.94435 6 6.25806 8.68629 6.25806 12C6.25806 15.3137 8.94435 18 12.2581 18Z" />
</svg>
