<svg  viewBox="0 0 24 24" fill="white" xmlns="http://www.w3.org/2000/svg">
<path d="M10.7074 3.79682C10.8061 3.78264 10.9009 3.74822 10.9857 3.69574C11.0705 3.64326 11.1436 3.57384 11.2004 3.49182C11.2606 3.41254 11.3041 3.32183 11.3282 3.22522C11.3522 3.1286 11.3564 3.0281 11.3404 2.92982C11.3204 2.83363 11.2811 2.74248 11.2249 2.66188C11.1687 2.58128 11.0967 2.51288 11.0134 2.46082C10.9389 2.39977 10.852 2.35564 10.7588 2.33146C10.6656 2.30729 10.5682 2.30366 10.4734 2.32082C9.9434 2.41382 9.1614 2.67182 8.1304 3.09382C7.1144 3.51582 6.1694 4.17182 5.2944 5.06282C4.2004 6.17282 3.5044 7.22682 3.2084 8.22682C2.9274 9.22682 2.7474 10.0158 2.6684 10.5938V10.7338L2.6224 11.0858C2.6064 11.1958 2.5994 11.3048 2.5994 11.4138V11.5078L2.5524 11.8128V12.0938C2.5204 12.3278 2.4824 12.5468 2.4344 12.7498C2.4044 12.9378 2.3564 13.1098 2.2944 13.2658C2.21608 13.4519 2.20755 13.66 2.2704 13.8518C2.30876 13.9441 2.36618 14.0273 2.4389 14.0959C2.51162 14.1645 2.59801 14.2169 2.6924 14.2498C2.87048 14.3279 3.07133 14.3365 3.2554 14.2738C3.44547 14.1932 3.59679 14.0419 3.6774 13.8518C3.7874 13.5858 3.8644 13.3118 3.9114 13.0318C3.97053 12.7685 4.01725 12.5025 4.0514 12.2348V11.9298L4.0994 11.6018V11.2028L4.1454 10.9228V10.8518C4.15816 10.8304 4.16634 10.8066 4.1694 10.7818C4.2314 10.2498 4.3794 9.57782 4.6144 8.76582C4.8644 7.93782 5.4424 7.05482 6.3494 6.11682C7.0994 5.36682 7.9034 4.81282 8.7634 4.45282C9.6384 4.09382 10.2864 3.87482 10.7084 3.79682H10.7074Z" />
<path d="M14.7394 2.2967C14.6424 2.26533 14.5399 2.25534 14.4387 2.26743C14.3375 2.27951 14.2402 2.31338 14.1534 2.3667C14.068 2.4137 13.9929 2.47741 13.9326 2.55403C13.8723 2.63065 13.828 2.71862 13.8024 2.8127C13.7557 3.00226 13.7807 3.20237 13.8724 3.3747C13.9824 3.5627 14.1304 3.6797 14.3174 3.7267C15.0994 3.9457 15.9194 4.3207 16.7784 4.8517C17.6384 5.3667 18.3724 6.1167 18.9814 7.1017C19.2784 7.5857 19.5364 8.1487 19.7554 8.7887C19.9744 9.4287 20.1224 10.1557 20.2004 10.9687C20.2944 11.7807 20.2944 12.6877 20.2004 13.6877C20.1224 14.6877 19.9354 15.8047 19.6384 17.0387C19.6065 17.1317 19.5963 17.2307 19.6084 17.3283C19.6205 17.4258 19.6547 17.5193 19.7084 17.6017C19.8184 17.7737 19.9744 17.8827 20.1774 17.9297C20.3804 17.9917 20.5674 17.9687 20.7394 17.8597C20.8282 17.811 20.9055 17.7439 20.9662 17.6628C21.027 17.5817 21.0696 17.4886 21.0914 17.3897C21.4034 16.1097 21.6064 14.9217 21.7014 13.8277C21.7944 12.7347 21.7944 11.7347 21.7014 10.8277C21.6217 9.97525 21.4483 9.13417 21.1844 8.3197C20.9545 7.6127 20.6398 6.93611 20.2474 6.3047C19.5134 5.1017 18.6304 4.1947 17.5994 3.5857C16.5674 2.9757 15.6144 2.5467 14.7394 2.2967Z" />
<path d="M7.82542 9.7737C8.05942 9.1797 8.55942 8.5387 9.32542 7.8517C10.0914 7.1487 11.0674 6.8117 12.2554 6.8437C12.9584 6.8747 13.5524 6.9997 14.0364 7.2187C14.5204 7.4217 14.9194 7.6637 15.2314 7.9447C15.5754 8.2417 15.8494 8.5627 16.0514 8.9057C16.2714 9.2347 16.4424 9.5387 16.5674 9.8207C16.6454 10.0077 16.7784 10.1407 16.9664 10.2187C17.1583 10.2815 17.3663 10.2729 17.5524 10.1947C17.7326 10.1085 17.8744 9.95846 17.9504 9.7737C17.9893 9.6802 18.0074 9.57936 18.0035 9.47817C17.9995 9.37698 17.9735 9.27786 17.9274 9.1877C17.7382 8.80085 17.5269 8.42522 17.2944 8.0627C17.0062 7.59871 16.6507 7.18013 16.2394 6.8207C15.7864 6.4297 15.2314 6.0937 14.5754 5.8127C13.9354 5.5307 13.1774 5.3747 12.3024 5.3427C11.5054 5.3277 10.7784 5.4457 10.1224 5.6957C9.49556 5.92896 8.91014 6.26117 8.38842 6.6797C7.88842 7.0697 7.47442 7.4917 7.14542 7.9457C6.81742 8.4137 6.57542 8.8437 6.41942 9.2347C6.38083 9.32739 6.36096 9.4268 6.36096 9.5272C6.36096 9.6276 6.38083 9.72701 6.41942 9.8197C6.46032 9.90789 6.51887 9.98676 6.59145 10.0514C6.66404 10.1161 6.74911 10.1652 6.84142 10.1957C6.93009 10.2342 7.02574 10.2541 7.12242 10.2541C7.2191 10.2541 7.31475 10.2342 7.40342 10.1957C7.50038 10.1606 7.58843 10.1046 7.66135 10.0316C7.73427 9.95871 7.79028 9.87066 7.82542 9.7737Z" />
<path d="M13.1694 10.7347C13.0767 10.5951 12.957 10.4754 12.8174 10.3827C12.6774 10.2887 12.4744 10.2497 12.2074 10.2657C12.0478 10.2757 11.8904 10.3074 11.7394 10.3597C11.6388 10.4015 11.5442 10.4566 11.4584 10.5237C11.3954 10.5697 11.3334 10.6327 11.2704 10.7107C11.2191 10.7823 11.1796 10.8616 11.1534 10.9457C11.0723 11.1473 11.025 11.3608 11.0134 11.5777C10.9974 11.8127 10.9894 12.0697 10.9894 12.3517V12.4457C10.9515 13.3571 10.8099 14.2613 10.5674 15.1407C10.3174 15.9687 10.0284 16.7107 9.70038 17.3667C9.21423 18.4096 8.57445 19.3736 7.80238 20.2267C7.73766 20.3016 7.65874 20.363 7.57018 20.4073C7.48162 20.4516 7.38516 20.4779 7.28638 20.4847C7.08634 20.4859 6.89345 20.4104 6.74738 20.2737C6.67157 20.2148 6.60929 20.1403 6.56478 20.0553C6.52027 19.9702 6.49455 19.8766 6.48938 19.7807C6.48938 19.5627 6.55938 19.3747 6.70038 19.2187C6.91938 18.9687 7.17738 18.6327 7.47438 18.2107C7.81637 17.739 8.11429 17.2369 8.36438 16.7107C8.64538 16.1327 8.89538 15.4847 9.11438 14.7657C9.31738 14.0307 9.44238 13.2417 9.48938 12.3987V12.2807C9.48938 12.0307 9.49738 11.7347 9.51338 11.3907C9.54338 11.0467 9.63038 10.7027 9.77038 10.3597C9.84938 10.1717 9.95038 9.99171 10.0754 9.81971C10.2004 9.63271 10.3654 9.46071 10.5674 9.30471C10.7786 9.15972 11.007 9.04149 11.2474 8.95271C11.4974 8.85971 11.7704 8.79671 12.0674 8.76571H12.1144C12.6924 8.73471 13.1694 8.84371 13.5444 9.09371C13.9344 9.32771 14.2394 9.62471 14.4584 9.98371C14.6454 10.3127 14.7704 10.6637 14.8334 11.0387C14.8954 11.3987 14.9194 11.7187 14.9034 11.9997V12.0697C14.8559 12.7353 14.7935 13.3998 14.7164 14.0627C14.6384 14.7347 14.4974 15.4527 14.2944 16.2187C14.0914 16.9687 13.7944 17.7737 13.4044 18.6327C13.0284 19.4767 12.5044 20.3987 11.8334 21.3987C11.7814 21.4822 11.7131 21.5544 11.6325 21.6107C11.5519 21.6671 11.4607 21.7066 11.3644 21.7267C11.169 21.7594 10.9685 21.7176 10.8024 21.6097C10.6354 21.492 10.5184 21.3162 10.4744 21.1167C10.4415 20.9213 10.4833 20.7207 10.5914 20.5547C11.2014 19.6487 11.6854 18.8047 12.0444 18.0237C12.3884 17.2577 12.6544 16.5307 12.8414 15.8437C13.0284 15.1557 13.1534 14.4917 13.2164 13.8517C13.2944 13.2267 13.3564 12.6017 13.4034 11.9767V11.8827C13.4194 11.7267 13.4034 11.5387 13.3564 11.3197C13.3296 11.1151 13.2662 10.9169 13.1694 10.7347Z" />
<path d="M17.5753 12.5857C17.6741 12.5925 17.7706 12.6188 17.8591 12.6631C17.9477 12.7074 18.0266 12.7687 18.0913 12.8437C18.2313 12.9997 18.2943 13.1797 18.2783 13.3827C18.2473 13.8357 18.1853 14.3667 18.0913 14.9767C17.9813 15.5867 17.8333 16.2347 17.6453 16.9217C17.4743 17.5937 17.2553 18.2817 16.9893 18.9847C16.731 19.6727 16.4176 20.3389 16.0523 20.9767C16.0087 21.0671 15.9463 21.1473 15.8695 21.2119C15.7926 21.2765 15.7029 21.3242 15.6063 21.3517C15.5113 21.3757 15.4122 21.3797 15.3155 21.3635C15.2188 21.3474 15.1264 21.3113 15.0443 21.2577C14.954 21.2141 14.8739 21.1519 14.8093 21.0752C14.7447 20.9986 14.697 20.9091 14.6693 20.8127C14.6452 20.7174 14.6411 20.6182 14.6573 20.5213C14.6735 20.4244 14.7096 20.3319 14.7633 20.2497C15.0753 19.6717 15.3563 19.0627 15.6063 18.4217C15.8413 17.7817 16.0443 17.1487 16.2163 16.5237C16.3798 15.9384 16.5051 15.3432 16.5913 14.7417C16.6843 14.1797 16.7473 13.6957 16.7783 13.2887C16.7853 13.1901 16.8117 13.0938 16.8559 13.0054C16.9002 12.917 16.9615 12.8383 17.0363 12.7737C17.1079 12.7059 17.1931 12.6542 17.2862 12.6218C17.3793 12.5894 17.4782 12.5771 17.5763 12.5857H17.5753Z" />
<path d="M6.72438 12.5627C6.92738 12.6097 7.08338 12.7187 7.19238 12.8907C7.31738 13.0627 7.35638 13.2507 7.30938 13.4527C7.21638 13.9227 6.99738 14.5627 6.65338 15.3747C6.32538 16.1717 5.83338 16.9147 5.17738 17.6017C5.10812 17.6755 5.02448 17.7344 4.93161 17.7746C4.83873 17.8149 4.7386 17.8357 4.63738 17.8357C4.43782 17.8369 4.24535 17.7618 4.09938 17.6257C3.96005 17.4886 3.87635 17.3048 3.86438 17.1097C3.86438 16.9057 3.93438 16.7267 4.07538 16.5697C4.59065 16.0318 5.00371 15.4046 5.29438 14.7187C5.57538 14.0467 5.75438 13.5237 5.83338 13.1487C5.85341 13.0523 5.8928 12.9609 5.94918 12.8801C6.00556 12.7993 6.07775 12.7308 6.16138 12.6787C6.32782 12.5707 6.5288 12.5293 6.72438 12.5627Z" />
</svg>
