<svg  viewBox="0 0 24 24" fill="white" xmlns="http://www.w3.org/2000/svg">
<path fill-rule="evenodd" clip-rule="evenodd" d="M17.5319 1.47698C17.3909 1.31998 17.2109 1.24198 16.9919 1.24198C16.8907 1.24216 16.7915 1.26311 16.6986 1.30353C16.6057 1.34395 16.5221 1.40298 16.4529 1.47698C16.3119 1.61698 16.2419 1.78898 16.2419 1.99198V2.99998H7.75794V1.99198C7.75794 1.78898 7.67994 1.61698 7.52294 1.47698C7.38294 1.31998 7.21094 1.24198 7.00794 1.24198C6.9062 1.23909 6.80507 1.25865 6.71174 1.29926C6.61841 1.33988 6.53517 1.40056 6.46794 1.47698C6.32794 1.61698 6.25794 1.78898 6.25794 1.99198V2.99998H4.99994C3.89094 2.99998 2.94494 3.38998 2.16394 4.17198C1.38194 4.95298 0.991943 5.89798 0.991943 7.00798V18C0.991943 19.109 1.38294 20.055 2.16394 20.836C2.94494 21.618 3.88994 22.008 4.99994 22.008H18.9999C20.1089 22.008 21.0549 21.617 21.8359 20.836C22.6179 20.055 23.0079 19.11 23.0079 18V7.00798C23.0079 5.89798 22.6169 4.95298 21.8359 4.17198C21.0549 3.38998 20.1099 2.99998 18.9999 2.99998H17.7419V1.99198C17.7419 1.78898 17.6719 1.61698 17.5319 1.47698ZM4.99994 4.49998H18.9999C19.3271 4.49459 19.6519 4.55632 19.9543 4.68136C20.2566 4.8064 20.5301 4.99209 20.7579 5.22698C21.2579 5.71098 21.5079 6.30498 21.5079 7.00798L2.49194 7.00698C2.49194 6.30498 2.73394 5.71098 3.21894 5.22698C3.71894 4.74198 4.31194 4.49998 4.99994 4.49998ZM2.49194 8.50798H21.5079V18C21.5079 18.688 21.2579 19.281 20.7579 19.781C20.2729 20.266 19.6879 20.508 18.9999 20.508H4.99994C4.31194 20.508 3.71894 20.266 3.21894 19.781C2.73394 19.281 2.49194 18.688 2.49194 18V8.50798Z" />
<path d="M12.6657 11.3167C12.4562 10.6718 11.5438 10.6718 11.3342 11.3167L10.9684 12.4426C10.8747 12.731 10.606 12.9263 10.3027 12.9263H9.11891C8.44081 12.9263 8.15886 13.794 8.70746 14.1926L9.66516 14.8884C9.91051 15.0666 10.0132 15.3826 9.91945 15.671L9.55365 16.7968C9.3441 17.4418 10.0822 17.9781 10.6308 17.5795L11.5885 16.8837C11.8339 16.7054 12.1661 16.7054 12.4114 16.8837L13.3691 17.5795C13.9177 17.9781 14.6559 17.4418 14.4463 16.7968L14.0805 15.671C13.9868 15.3826 14.0895 15.0666 14.3348 14.8884L15.2925 14.1926C15.8411 13.794 15.5592 12.9263 14.8811 12.9263H13.6973C13.394 12.9263 13.1252 12.731 13.0315 12.4426L12.6657 11.3167Z" />
</svg>
