<svg  viewBox="0 0 24 24" fill="white" xmlns="http://www.w3.org/2000/svg">
<path d="M7.992 3V3.375C7.99161 3.54878 7.94316 3.71906 7.852 3.867C7.77126 4.00999 7.64832 4.12454 7.5 4.195C7.35063 4.28642 7.18235 4.34251 7.008 4.359C6.83423 4.35861 6.66395 4.31016 6.516 4.219L6.21 4.03C5.98088 3.89982 5.72825 3.81628 5.46669 3.78418C5.20513 3.75209 4.9398 3.77208 4.686 3.843C4.156 3.983 3.749 4.288 3.468 4.757L1.477 8.227C1.33979 8.45304 1.25029 8.70476 1.214 8.96668C1.17772 9.2286 1.19541 9.49518 1.266 9.75C1.422 10.281 1.734 10.688 2.203 10.969L2.531 11.156C2.671 11.234 2.781 11.352 2.859 11.508C2.953 11.664 3 11.828 3 12C2.99956 12.1738 2.95111 12.344 2.86 12.492C2.78922 12.6404 2.67432 12.7634 2.531 12.844L2.203 13.031C1.74399 13.3 1.40788 13.7373 1.266 14.25C1.125 14.781 1.196 15.29 1.476 15.773L3.469 19.243C3.75 19.711 4.156 20.016 4.688 20.156C5.218 20.296 5.727 20.234 6.211 19.969L6.516 19.781C6.66292 19.6896 6.83564 19.6485 7.008 19.664C7.18 19.664 7.344 19.711 7.5 19.804C7.65325 19.8789 7.77713 20.0028 7.852 20.156C7.945 20.296 7.992 20.453 7.992 20.625V21C7.992 21.547 8.188 22.016 8.578 22.406C8.968 22.796 9.445 22.992 10.008 22.992H13.992C14.555 22.992 15.032 22.797 15.422 22.406C15.812 22.016 16.008 21.546 16.008 21V20.625C16.0059 20.4612 16.0462 20.2996 16.125 20.156C16.2133 20.0051 16.3436 19.8832 16.5 19.805C16.6479 19.7139 16.8182 19.6654 16.992 19.665C17.1642 19.6492 17.337 19.6899 17.484 19.781L17.789 19.969C18.273 20.234 18.781 20.297 19.312 20.156C19.844 20.016 20.25 19.711 20.532 19.242L22.523 15.773C22.805 15.289 22.867 14.781 22.711 14.25C22.6481 13.9959 22.5348 13.7571 22.3778 13.5477C22.2208 13.3383 22.0233 13.1626 21.797 13.031L21.469 12.844C21.3224 12.7601 21.2009 12.6386 21.117 12.492C21.0396 12.3395 20.9993 12.171 20.9993 12C20.9993 11.829 21.0396 11.6605 21.117 11.508C21.2009 11.3614 21.3224 11.2399 21.469 11.156L21.797 10.969C22.266 10.688 22.57 10.281 22.711 9.75C22.7894 9.49732 22.8131 9.23086 22.7807 8.9683C22.7483 8.70573 22.6605 8.45305 22.523 8.227L20.531 4.757C20.3995 4.531 20.2239 4.33372 20.0147 4.17689C19.8054 4.02005 19.5668 3.90685 19.313 3.844C19.0592 3.77308 18.7939 3.75309 18.5323 3.78518C18.2708 3.81728 18.0181 3.90082 17.789 4.031L17.484 4.219C17.3361 4.31016 17.1658 4.35861 16.992 4.359C16.8177 4.34251 16.6494 4.28642 16.5 4.195C16.3482 4.12074 16.2188 4.00756 16.125 3.867C16.0479 3.71448 16.0078 3.54592 16.008 3.375V3C16.008 2.453 15.813 1.984 15.422 1.594C15.2363 1.4038 15.0137 1.25367 14.7677 1.15288C14.5217 1.05209 14.2578 1.00279 13.992 1.008H10.008C9.445 1.008 8.968 1.203 8.578 1.594C8.188 1.984 7.992 2.454 7.992 3ZM9.492 3C9.492 2.86 9.539 2.742 9.632 2.648C9.73574 2.5565 9.86968 2.50663 10.008 2.508H13.992C14.132 2.508 14.25 2.555 14.344 2.648C14.454 2.742 14.508 2.859 14.508 3V3.375C14.508 3.844 14.625 4.265 14.859 4.641C15.094 5.016 15.391 5.305 15.75 5.508C16.11 5.711 16.508 5.82 16.945 5.836C17.398 5.852 17.828 5.742 18.235 5.508L18.539 5.344C18.593 5.30643 18.6554 5.28252 18.7207 5.27434C18.786 5.26615 18.8524 5.27393 18.914 5.297C19.054 5.328 19.156 5.398 19.219 5.507L21.234 8.977C21.2962 9.09995 21.3129 9.24095 21.281 9.375C21.2657 9.43645 21.2367 9.49365 21.1962 9.54231C21.1557 9.59097 21.1047 9.62984 21.047 9.656L20.719 9.844C20.3297 10.0609 20.0121 10.3865 19.805 10.781C19.6056 11.1564 19.5009 11.5749 19.5 12C19.5 12.422 19.602 12.828 19.805 13.219C20.008 13.609 20.313 13.922 20.719 14.156L21.047 14.344C21.1071 14.3728 21.1595 14.4154 21.2002 14.4682C21.2408 14.521 21.2685 14.5826 21.281 14.648C21.312 14.7745 21.2953 14.9081 21.234 15.023L19.219 18.493C19.1506 18.6068 19.0416 18.6904 18.914 18.727C18.8501 18.7422 18.7837 18.7438 18.7191 18.7318C18.6545 18.7197 18.5931 18.6942 18.539 18.657L18.234 18.492C17.8445 18.2619 17.3972 18.1481 16.945 18.164C16.5259 18.1746 16.1158 18.2872 15.75 18.492C15.39 18.695 15.094 18.984 14.86 19.359C14.6241 19.7387 14.5019 20.178 14.508 20.625V21C14.508 21.14 14.453 21.258 14.344 21.352C14.298 21.3981 14.243 21.4344 14.1825 21.4584C14.122 21.4825 14.0571 21.4939 13.992 21.492H10.008C9.87002 21.4931 9.73648 21.4433 9.633 21.352C9.58686 21.306 9.55064 21.251 9.52656 21.1905C9.50248 21.13 9.49106 21.0651 9.493 21V20.625C9.493 20.156 9.375 19.735 9.141 19.359C8.92219 18.9992 8.61561 18.7009 8.25 18.492C7.87644 18.285 7.45798 18.1724 7.031 18.164C6.58665 18.1502 6.14766 18.264 5.766 18.492L5.461 18.656C5.40268 18.694 5.33725 18.7199 5.26867 18.7319C5.20009 18.7439 5.12979 18.7419 5.062 18.726C4.94365 18.6841 4.84428 18.601 4.782 18.492L2.766 15.023C2.70469 14.9081 2.68796 14.7745 2.719 14.648C2.73152 14.5826 2.7592 14.521 2.79984 14.4682C2.84048 14.4154 2.89294 14.3728 2.953 14.344L3.281 14.156C3.687 13.922 3.992 13.609 4.195 13.219C4.398 12.829 4.5 12.422 4.5 12C4.5 11.578 4.398 11.172 4.195 10.781C3.98789 10.3865 3.67027 10.0609 3.281 9.844L2.953 9.656C2.89534 9.62984 2.84434 9.59097 2.80381 9.54231C2.76329 9.49365 2.7343 9.43645 2.719 9.375C2.68714 9.24095 2.7038 9.09995 2.766 8.977L4.781 5.507C4.81056 5.45411 4.85096 5.40805 4.89956 5.37186C4.94815 5.33567 5.00385 5.31016 5.063 5.297C5.12846 5.27356 5.19847 5.2656 5.26752 5.27375C5.33658 5.28191 5.4028 5.30595 5.461 5.344L5.766 5.508C6.172 5.742 6.594 5.852 7.031 5.836C7.484 5.82 7.891 5.711 8.25 5.508C8.61 5.305 8.906 5.016 9.14 4.641C9.375 4.266 9.492 3.844 9.492 3.375V3Z" />
<path d="M16.008 12C16.008 10.89 15.618 9.945 14.836 9.164C14.055 8.383 13.109 7.992 12 7.992C10.89 7.992 9.945 8.382 9.164 9.164C8.383 9.945 7.992 10.891 7.992 12C7.992 13.11 8.382 14.055 9.164 14.836C9.945 15.617 10.891 16.008 12 16.008C13.11 16.008 14.055 15.618 14.836 14.836C15.617 14.055 16.008 13.109 16.008 12ZM14.508 12C14.508 12.688 14.258 13.281 13.758 13.781C13.5302 14.0159 13.2567 14.2016 12.9543 14.3266C12.652 14.4517 12.3272 14.5134 12 14.508C11.6696 14.5119 11.3418 14.4496 11.0359 14.3248C10.73 14.1999 10.4523 14.015 10.219 13.781C9.98495 13.5478 9.80003 13.27 9.67516 12.9641C9.55029 12.6582 9.48801 12.3304 9.492 12C9.492 11.312 9.734 10.727 10.219 10.242C10.719 9.742 11.313 9.492 12 9.492C12.688 9.492 13.273 9.742 13.758 10.242C14.258 10.727 14.508 11.312 14.508 12Z" />
</svg>
