<svg  viewBox="0 0 24 24" fill="white" xmlns="http://www.w3.org/2000/svg">
<path d="M2 12.2271C2 9.59433 3.01746 7.19914 4.68062 5.41337C4.95486 5.11891 5.4159 5.12908 5.70044 5.4136C6.00123 5.71437 5.98813 6.20328 5.70236 6.51836C4.33388 8.02711 3.5 10.0297 3.5 12.2271C3.5 14.2266 4.19037 16.0648 5.34575 17.5165C5.59921 17.8349 5.59577 18.2975 5.30798 18.5853C5.00959 18.8837 4.52169 18.8796 4.25458 18.5529C2.84539 16.8295 2 14.627 2 12.2271Z" />
<path d="M18.7719 18.485C19.0732 18.7863 19.5669 18.779 19.8321 18.4454C21.1893 16.7383 22 14.5774 22 12.2271C22 9.64377 21.0204 7.2892 19.4124 5.51462C19.1394 5.21338 18.6727 5.22065 18.3853 5.5081C18.0872 5.80611 18.0967 6.28939 18.3755 6.6054C19.6977 8.10373 20.5 10.0718 20.5 12.2271C20.5 14.1844 19.8384 15.9872 18.7268 17.424C18.4801 17.7429 18.4868 18.1999 18.7719 18.485Z" />
<path d="M14 12.2271C14 13.3317 13.1046 14.2271 12 14.2271C10.8954 14.2271 10 13.3317 10 12.2271C10 11.1226 10.8954 10.2271 12 10.2271C13.1046 10.2271 14 11.1226 14 12.2271Z" />
<path d="M7.05453 7.76466C5.98815 8.9457 5.33887 10.5106 5.33887 12.2271C5.33887 13.7008 5.81737 15.0628 6.6276 16.166C6.88039 16.5102 7.37645 16.5168 7.67844 16.2149C7.96366 15.9297 7.96871 15.4734 7.74069 15.1407C7.17247 14.3116 6.83997 13.3082 6.83997 12.2271C6.83997 10.9587 7.29769 9.79708 8.05696 8.89856C8.33564 8.56877 8.35784 8.071 8.05254 7.7657C7.77284 7.486 7.31961 7.47108 7.05453 7.76466Z" />
<path d="M17.4569 16.0483C17.2076 16.4035 16.7022 16.4153 16.3954 16.1085C16.1144 15.8276 16.1042 15.38 16.3216 15.0475C16.8517 14.2369 17.1599 13.268 17.1599 12.2271C17.1599 10.9984 16.7304 9.86991 16.0133 8.98371C15.7455 8.65274 15.7295 8.16384 16.0305 7.86279C16.3149 7.57841 16.7772 7.56774 17.0403 7.87194C18.0502 9.03968 18.6611 10.562 18.6611 12.2271C18.6611 13.6488 18.2157 14.9665 17.4569 16.0483Z" />
</svg>
