<svg  viewBox="0 0 24 24" fill="white" xmlns="http://www.w3.org/2000/svg">
<path d="M15.703 6C15.703 5.797 15.773 5.625 15.914 5.484C15.9813 5.40776 16.0646 5.34727 16.1579 5.30683C16.2513 5.26639 16.3523 5.24699 16.454 5.25H22.008C22.211 5.25 22.383 5.328 22.523 5.484C22.68 5.625 22.758 5.797 22.758 6V11.46C22.7579 11.5613 22.737 11.6615 22.6965 11.7544C22.6561 11.8473 22.5971 11.9309 22.523 12C22.456 12.0683 22.3758 12.1221 22.2872 12.1583C22.1987 12.1944 22.1036 12.212 22.008 12.21C21.9084 12.2137 21.8092 12.197 21.7163 12.1609C21.6234 12.1248 21.5389 12.07 21.468 12C21.3314 11.8535 21.2563 11.6602 21.258 11.46V7.782L13.641 15.259C13.4945 15.3956 13.3013 15.4707 13.101 15.469C13.0054 15.4709 12.9104 15.4533 12.8218 15.4172C12.7333 15.3811 12.653 15.3272 12.586 15.259L9.21001 11.953L2.53001 18.54C2.38394 18.6767 2.19105 18.7522 1.99101 18.751C1.89326 18.7521 1.79647 18.7317 1.70747 18.6913C1.61848 18.6509 1.53946 18.5914 1.47601 18.517C1.40139 18.4535 1.34166 18.3743 1.30104 18.2852C1.26043 18.196 1.23994 18.099 1.24101 18.001C1.24101 17.782 1.31901 17.603 1.47601 17.461L8.69401 10.384C8.75752 10.3094 8.83666 10.2496 8.92584 10.209C9.01501 10.1684 9.11203 10.1479 9.21001 10.149C9.42901 10.149 9.60801 10.228 9.74901 10.384L13.101 13.689L20.155 6.751H16.452C16.3526 6.75457 16.2535 6.73778 16.1608 6.70167C16.0681 6.66555 15.9838 6.61088 15.913 6.541C15.7764 6.39453 15.7013 6.20125 15.703 6.001V6Z" />
</svg>
