<svg  viewBox="0 0 24 24" fill="white" xmlns="http://www.w3.org/2000/svg">
<path d="M2.16419 2.16394C1.38219 2.94494 0.992188 3.88994 0.992188 4.99994V16.9999C0.992188 18.1089 1.38319 19.0549 2.16419 19.8359C2.94519 20.6179 3.89019 21.0079 5.00019 21.0079H9.19586C9.61008 21.0079 9.94586 20.6722 9.94586 20.2579C9.94586 19.8437 9.61007 19.5079 9.19586 19.5079H5.00019C4.31219 19.5079 3.71919 19.2659 3.21919 18.7809C2.73419 18.2809 2.49219 17.6879 2.49219 16.9999V4.99994C2.4868 4.67279 2.54853 4.348 2.67357 4.04563C2.79861 3.74326 2.9843 3.46974 3.21919 3.24194C3.71919 2.74194 4.31219 2.49194 5.00019 2.49194H17.0002C17.6882 2.49194 18.2732 2.74194 18.7582 3.24194C19.2582 3.72694 19.5082 4.31194 19.5082 4.99994V11.1325C19.5082 11.5467 19.844 11.8825 20.2582 11.8825C20.6724 11.8825 21.0082 11.5467 21.0082 11.1325V4.99994C21.0082 3.89094 20.6172 2.94494 19.8362 2.16394C19.0552 1.38194 18.1102 0.991943 17.0002 0.991943H5.00019C3.89119 0.991943 2.94519 1.38294 2.16419 2.16394Z" />
<path d="M6.99219 7.74194C6.99219 7.53894 7.06219 7.36694 7.20319 7.22694C7.27236 7.15294 7.35596 7.09391 7.44884 7.05349C7.54172 7.01307 7.6419 6.99213 7.74319 6.99194H14.2582C14.4612 6.99194 14.6332 7.06994 14.7732 7.22694C14.9302 7.36694 15.0082 7.53894 15.0082 7.74194C15.0111 7.84369 14.9915 7.94482 14.9509 8.03815C14.9103 8.13148 14.8496 8.21472 14.7732 8.28194C14.7062 8.35023 14.626 8.40409 14.5374 8.4402C14.4488 8.47632 14.3538 8.49393 14.2582 8.49194H11.7502V14.2579C11.75 14.359 11.7291 14.4589 11.6889 14.5516C11.6487 14.6443 11.5899 14.7278 11.5162 14.7969C11.4491 14.8654 11.3687 14.9193 11.2799 14.9554C11.1912 14.9915 11.096 15.0091 11.0002 15.0069C10.7999 15.0087 10.6067 14.9335 10.4602 14.7969C10.3236 14.6505 10.2485 14.4572 10.2502 14.2569V8.49294H7.74219C7.54228 8.49441 7.34941 8.41926 7.20319 8.28294C7.13318 8.21203 7.07843 8.12754 7.04232 8.03467C7.0062 7.9418 6.98948 7.84252 6.99319 7.74294L6.99219 7.74194Z" />
<path d="M21.9026 15.0741C21.9431 15.1632 21.9634 15.2602 21.9621 15.3581V22.3661C21.9632 22.4639 21.9429 22.5607 21.9024 22.6497C21.862 22.7387 21.8025 22.8177 21.7281 22.8811C21.6647 22.9558 21.5855 23.0156 21.4963 23.0562C21.4071 23.0968 21.3101 23.1173 21.2121 23.1161C21.1108 23.116 21.0106 23.095 20.9178 23.0546C20.8249 23.0142 20.7413 22.9551 20.6721 22.8811C20.5321 22.7411 20.4621 22.5691 20.4621 22.3661V15.3581C20.46 15.2624 20.4775 15.1671 20.5137 15.0784C20.5498 14.9896 20.6037 14.9092 20.6721 14.8421C20.7414 14.7683 20.825 14.7095 20.9179 14.6692C21.0108 14.629 21.1109 14.6082 21.2121 14.6081C21.31 14.6069 21.407 14.6272 21.4962 14.6676C21.5854 14.7081 21.6646 14.7677 21.7281 14.8421C21.8026 14.9057 21.8622 14.9849 21.9026 15.0741Z" />
<path fill-rule="evenodd" clip-rule="evenodd" d="M15.7037 14.6082C15.9387 14.6082 16.1727 14.6782 16.4067 14.8182C16.6567 14.9602 16.8287 15.1782 16.9227 15.4752L18.9387 22.1312C18.9863 22.3286 18.9615 22.5365 18.8687 22.7172C18.8218 22.8028 18.7581 22.8781 18.6815 22.9385C18.6049 22.999 18.5168 23.0434 18.4227 23.0692C18.3306 23.1002 18.2331 23.1121 18.1363 23.104C18.0395 23.0959 17.9453 23.068 17.8597 23.0222C17.7694 22.9786 17.6893 22.9164 17.6246 22.8397C17.56 22.763 17.5123 22.6736 17.4847 22.5772L16.8287 20.3972H14.5787L13.9227 22.5772C13.895 22.6736 13.8473 22.763 13.7827 22.8397C13.7181 22.9164 13.638 22.9786 13.5477 23.0222C13.4622 23.0687 13.3681 23.0969 13.2711 23.105C13.1742 23.1131 13.0766 23.1009 12.9847 23.0692C12.7994 23.0081 12.6417 22.8834 12.5397 22.7172C12.4935 22.6274 12.4656 22.5294 12.4576 22.4289C12.4495 22.3283 12.4614 22.2271 12.4927 22.1312L14.5087 15.4752C14.6027 15.1782 14.7667 14.9602 15.0007 14.8192C15.2507 14.6792 15.4847 14.6082 15.7037 14.6082ZM15.7037 16.6942L16.3834 18.8972H15.0477L15.7037 16.6942Z" />
</svg>
