<svg  viewBox="0 0 24 24" fill="white" xmlns="http://www.w3.org/2000/svg">
<path d="M9.07411 15.1935L9.07411 14.6935C9.07411 14.2793 9.4099 13.9435 9.82411 13.9435C10.2383 13.9435 10.5741 14.2793 10.5741 14.6935V15.1935C10.5741 15.6078 10.2383 15.9435 9.82411 15.9435C9.4099 15.9435 9.07411 15.6078 9.07411 15.1935Z" />
<path d="M9.07411 11.1935V11.6935C9.07411 12.1077 9.4099 12.4435 9.82411 12.4435C10.2383 12.4435 10.5741 12.1077 10.5741 11.6935V11.1935C10.5741 10.7793 10.2383 10.4435 9.82411 10.4435C9.4099 10.4435 9.07411 10.7793 9.07411 11.1935Z" />
<path d="M9.07411 8.19354L9.07411 7.69354C9.07411 7.27934 9.4099 6.94354 9.82411 6.94354C10.2383 6.94354 10.5741 7.27934 10.5741 7.69354V8.19354C10.5741 8.60774 10.2383 8.94354 9.82411 8.94354C9.4099 8.94354 9.07411 8.60774 9.07411 8.19354Z" />
<path fill-rule="evenodd" clip-rule="evenodd" d="M4.2854 18.7453H19.8188V18.7219C21.2253 18.6418 22.3562 17.5158 22.4355 16.1086C22.4375 16.0735 22.4369 16.0384 22.4362 16.003C22.4359 15.9852 22.4355 15.9674 22.4355 15.9494L22.437 13.7336C22.437 13.3693 22.0278 13.1232 21.6638 13.1232C20.7644 13.1232 20.0354 12.3937 20.0354 11.4943C20.0354 10.5959 20.7644 9.86639 21.6638 9.86639C21.8452 9.86639 22.0378 9.80487 22.1855 9.69842C22.334 9.591 22.437 9.43768 22.437 9.25507L22.4355 7.03729C22.4355 7.01874 22.4359 7.00018 22.4363 6.98163C22.437 6.94452 22.4377 6.90741 22.4355 6.8703C22.3523 5.46698 21.2227 4.34491 19.8188 4.26483V4.2453L4.2854 4.2453L4.2854 4.26093C2.8396 4.29706 1.66284 5.43768 1.57837 6.8703C1.57617 6.90643 1.57691 6.94354 1.57764 6.98065L1.57837 7.03632L1.5769 9.25507C1.5769 9.61932 1.98608 9.86639 2.3501 9.86639C3.24951 9.86639 3.97852 10.5959 3.97852 11.4943C3.97852 12.3937 3.24951 13.1232 2.3501 13.1232C1.98608 13.1232 1.5769 13.3693 1.5769 13.7336L1.57837 15.968L1.57788 16.0148L1.57837 16.1086C1.65039 17.5539 2.83081 18.7092 4.2854 18.7453ZM20.9355 16.1086L20.9355 14.4641C19.5786 14.1584 18.5652 12.9445 18.5652 11.4953C18.5652 10.0461 19.5789 8.83221 20.936 8.52655L20.9355 8.46405V6.8703L20.9419 6.7453C20.9419 6.19354 20.4941 5.7453 19.9419 5.7453L4.07202 5.7453C3.89868 5.7453 3.73633 5.78827 3.59497 5.86444C3.4812 5.92499 3.3811 6.008 3.30005 6.10663C3.16113 6.27655 3.07837 6.49432 3.07837 6.73358L3.07837 8.52655C4.4353 8.83221 5.44873 10.0461 5.44873 11.4953C5.44873 12.9445 4.4353 14.1584 3.07837 14.4641L3.07837 16.2512C3.07837 16.8029 3.51172 17.2521 4.06397 17.2521L4.2854 17.2453H17.2014L17.1953 17.2336H19.95C20.5022 17.2336 20.95 16.7853 20.95 16.2336V16.1086H20.9355Z" />
</svg>
