<svg  viewBox="0 0 24 24" fill="white" xmlns="http://www.w3.org/2000/svg">
<path d="M12 1.99301C10.662 1.98555 9.33719 2.25699 8.10997 2.79001C6.91878 3.28706 5.83591 4.01157 4.92197 4.92301C4.01064 5.83665 3.28613 6.91917 2.78897 8.11001C2.25595 9.33723 1.98452 10.6621 1.99197 12C1.98452 13.338 2.25595 14.6628 2.78897 15.89C3.28597 17.0812 4.01049 18.1641 4.92197 19.078C5.83558 19.9894 6.91811 20.7139 8.10897 21.211C9.3365 21.7442 10.6617 22.0156 12 22.008C13.3379 22.0155 14.6628 21.744 15.89 21.211C17.0812 20.714 18.1641 19.9895 19.078 19.078C19.9894 18.1644 20.7139 17.0819 21.211 15.891C21.7441 14.6635 22.0156 13.3383 22.008 12C22.0154 10.6621 21.744 9.33723 21.211 8.11001C20.714 6.91879 19.9894 5.83591 19.078 4.92201C18.1643 4.01066 17.0818 3.28615 15.891 2.78901C14.6634 2.25585 13.3383 1.98441 12 1.99201V1.99301ZM3.65597 12C3.64693 10.8881 3.87037 9.78653 4.31197 8.76601C4.73132 7.77729 5.33622 6.87808 6.09397 6.11701C6.86126 5.35055 7.76827 4.73818 8.76597 4.31301C9.78634 3.87072 10.8879 3.6466 12 3.65501C13.1119 3.64597 14.2134 3.86941 15.234 4.31101C16.2269 4.73291 17.127 5.34625 17.883 6.11601C18.6527 6.87193 19.2661 7.77206 19.688 8.76501C20.1294 9.78591 20.3525 10.8878 20.343 12C20.3517 13.112 20.1279 14.2136 19.686 15.234C19.2608 16.2317 18.6484 17.1387 17.882 17.906C17.1209 18.6637 16.2217 19.2686 15.233 19.688C14.2124 20.1296 13.1109 20.353 11.999 20.344C10.887 20.3527 9.78542 20.129 8.76497 19.687C7.77154 19.2647 6.86544 18.661 6.09297 17.907C5.3381 17.1344 4.73379 16.228 4.31097 15.234C3.86972 14.2134 3.64661 13.1119 3.65597 12Z" />
<path d="M16.968 11.602C16.922 11.54 16.898 11.469 16.898 11.39V10.523C16.8974 10.4834 16.8888 10.4444 16.8726 10.4083C16.8565 10.3722 16.8331 10.3398 16.804 10.313C16.742 10.25 16.672 10.219 16.594 10.219H16.125C16.0853 10.2194 16.0461 10.228 16.0098 10.2442C15.9735 10.2603 15.9409 10.2838 15.914 10.313C15.852 10.375 15.82 10.445 15.82 10.523V11.391C15.8196 11.4307 15.811 11.4699 15.7948 11.5062C15.7787 11.5425 15.7552 11.5751 15.726 11.602C15.68 11.648 15.609 11.672 15.516 11.672H14.672C14.6285 11.6707 14.5852 11.6784 14.5447 11.6946C14.5043 11.7108 14.4676 11.7351 14.437 11.766C14.391 11.828 14.367 11.898 14.367 11.977V12.445C14.3637 12.5289 14.3883 12.6115 14.437 12.68C14.5054 12.7287 14.5881 12.7533 14.672 12.75H15.516C15.609 12.75 15.68 12.781 15.727 12.844C15.756 12.871 15.7793 12.9036 15.7953 12.9399C15.8113 12.9762 15.8197 13.0153 15.82 13.055V13.922C15.8206 13.9618 15.8293 14.0011 15.8456 14.0373C15.862 14.0736 15.8856 14.1062 15.915 14.133C15.9418 14.1621 15.9742 14.1855 16.0103 14.2016C16.0464 14.2178 16.0854 14.2264 16.125 14.227H16.594C16.6338 14.2264 16.673 14.2177 16.7093 14.2014C16.7456 14.185 16.7782 14.1614 16.805 14.132C16.8341 14.1052 16.8575 14.0728 16.8736 14.0367C16.8898 14.0006 16.8984 13.9615 16.899 13.922V13.054C16.8984 12.9782 16.923 12.9043 16.969 12.844C16.9995 12.8132 17.036 12.7889 17.0762 12.7727C17.1165 12.7566 17.1596 12.7488 17.203 12.75H18.071C18.1468 12.7506 18.2207 12.726 18.281 12.68C18.3118 12.6495 18.336 12.613 18.3522 12.5727C18.3683 12.5325 18.3761 12.4893 18.375 12.446V11.976C18.3744 11.9364 18.3658 11.8974 18.3496 11.8613C18.3335 11.8252 18.3101 11.7928 18.281 11.766C18.219 11.703 18.148 11.672 18.07 11.672H17.203C17.1191 11.6753 17.0364 11.6507 16.968 11.602Z" />
<path d="M6.91395 9.117L5.27295 9.68001L5.57795 10.734L6.74995 10.406V15.328H7.96995V9.117H6.91395Z" />
<path d="M13.2659 10.8047C13.2659 11.1017 13.2029 11.3587 13.0779 11.5777C12.9679 11.7807 12.8129 11.9527 12.6089 12.0937C12.8909 12.2657 13.1019 12.4837 13.2419 12.7497C13.3979 12.9997 13.4769 13.2807 13.4769 13.5937C13.4769 14.1717 13.2729 14.6327 12.8669 14.9767C12.4769 15.3047 11.9369 15.4687 11.2499 15.4687C10.5619 15.4687 10.0159 15.3047 9.60995 14.9767C9.21895 14.6327 9.02295 14.1717 9.02295 13.5937C9.02295 13.2807 9.09295 12.9997 9.23395 12.7497C9.39095 12.4837 9.60195 12.2657 9.86695 12.0937C9.67935 11.953 9.5202 11.7779 9.39795 11.5777C9.28368 11.3364 9.22752 11.0717 9.23395 10.8047C9.23395 10.2107 9.42995 9.75774 9.81995 9.44474C10.2299 9.13128 10.734 8.96627 11.2499 8.97674C11.7969 8.97674 12.2659 9.13274 12.6559 9.44474C13.0619 9.75774 13.2659 10.2107 13.2659 10.8047ZM12.0459 10.8747C12.0459 10.6407 11.9689 10.4607 11.8129 10.3347C11.6719 10.2107 11.4839 10.1477 11.2499 10.1477C11.0387 10.1403 10.8314 10.2068 10.6639 10.3357C10.5239 10.4607 10.4539 10.6407 10.4539 10.8747C10.4539 11.0937 10.5239 11.2727 10.6639 11.4147C10.8316 11.5434 11.0388 11.6095 11.2499 11.6017C11.4839 11.6017 11.6719 11.5387 11.8129 11.4137C11.8891 11.3465 11.9495 11.2634 11.9899 11.1703C12.0303 11.0771 12.0498 10.9762 12.0469 10.8747H12.0459ZM10.2419 13.4297C10.2419 13.7097 10.3359 13.9297 10.5229 14.0857C10.7109 14.2257 10.9529 14.2957 11.2499 14.2957C11.5469 14.2957 11.7899 14.2257 11.9769 14.0857C12.1639 13.9297 12.2569 13.7107 12.2569 13.4297C12.2569 13.1637 12.1639 12.9597 11.9769 12.8197C11.7889 12.6637 11.5469 12.5857 11.2499 12.5857C10.9529 12.5857 10.7099 12.6637 10.5229 12.8197C10.3359 12.9597 10.2429 13.1637 10.2429 13.4297H10.2419Z" />
</svg>
