<svg  viewBox="0 0 24 24" fill="white" xmlns="http://www.w3.org/2000/svg">
<path d="M7.49994 1.11C7.41349 1.05579 7.31611 1.02139 7.21479 1.00929C7.11347 0.997188 7.01072 1.00768 6.91394 1.04C6.81538 1.06166 6.72257 1.10408 6.6417 1.16443C6.56083 1.22478 6.49375 1.30168 6.44494 1.39L5.06194 3.782C4.95474 3.95738 4.92131 4.16805 4.96894 4.368C5.03094 4.571 5.15594 4.728 5.34394 4.837L7.75794 6.22C7.94494 6.33 8.14094 6.36 8.34394 6.313C8.54313 6.25383 8.71139 6.11929 8.81294 5.938C8.86611 5.85131 8.8999 5.75414 8.91198 5.65316C8.92406 5.55218 8.91415 5.44979 8.88294 5.353C8.86118 5.25408 8.81851 5.16097 8.7578 5.0799C8.69709 4.99884 8.61974 4.9317 8.53094 4.883L7.66394 4.392C8.61694 3.892 9.60894 3.602 10.6409 3.524C11.6418 3.4277 12.6519 3.52341 13.6169 3.806C14.5859 4.071 15.4839 4.516 16.3119 5.142C17.1452 5.77245 17.8462 6.56077 18.3749 7.462C19.4302 9.30123 19.7166 11.4827 19.1719 13.532C18.9014 14.5258 18.4394 15.4572 17.8119 16.274C17.1775 17.1421 16.362 17.862 15.4219 18.384C14.4933 18.9228 13.4642 19.2659 12.3979 19.392C11.3705 19.5183 10.3284 19.4466 9.32794 19.181C8.33192 18.9096 7.39455 18.4567 6.56294 17.845C5.70187 17.2028 4.98339 16.389 4.45294 15.455C4.40148 15.3641 4.3308 15.2854 4.24582 15.2247C4.16084 15.1639 4.06362 15.1223 3.96094 15.103C3.86794 15.0711 3.76891 15.0609 3.67136 15.073C3.5738 15.0851 3.4803 15.1193 3.39794 15.173C3.21664 15.2745 3.08211 15.4428 3.02294 15.642C2.97526 15.8394 3.00011 16.0474 3.09294 16.228C3.73553 17.3352 4.59706 18.2999 5.62494 19.063C6.60988 19.8136 7.73288 20.363 8.92994 20.68C10.1219 20.9928 11.3618 21.0803 12.5859 20.938C13.8592 20.7789 15.0872 20.364 16.1959 19.718C17.3155 19.094 18.29 18.2395 19.0549 17.211C19.8046 16.243 20.3543 15.1355 20.6719 13.953C20.9848 12.761 21.0723 11.5211 20.9299 10.297C20.7731 9.03073 20.3579 7.81017 19.7099 6.711C19.1108 5.66257 18.3153 4.73941 17.3669 3.992C16.4514 3.26927 15.4108 2.72115 14.2969 2.375C13.1909 2.02968 12.0317 1.88672 10.8749 1.953C9.68176 2.0014 8.51037 2.28838 7.42994 2.797L7.80494 2.164C7.85113 2.07428 7.87907 1.97629 7.88714 1.87571C7.89521 1.77512 7.88324 1.67393 7.85194 1.578C7.83005 1.47926 7.78732 1.38635 7.72662 1.30546C7.66591 1.22458 7.58863 1.15859 7.49994 1.11Z" />
<path d="M12.6902 6.70846C12.7306 6.79746 12.751 6.89425 12.7499 6.992V12.007C12.7498 12.1082 12.729 12.2084 12.6888 12.3012C12.6486 12.3941 12.5897 12.4777 12.5159 12.547C12.3749 12.687 12.2029 12.757 11.9999 12.757H8.99989C8.79689 12.757 8.61689 12.687 8.45989 12.547C8.31989 12.391 8.24989 12.211 8.24989 12.008C8.24619 11.9084 8.26291 11.8091 8.29903 11.7163C8.33514 11.6234 8.38989 11.5389 8.45989 11.468C8.60637 11.3314 8.79965 11.2563 8.99989 11.258H11.2499V6.992C11.2479 6.89637 11.2655 6.80135 11.3016 6.71278C11.3377 6.62421 11.3916 6.54397 11.4599 6.477C11.5291 6.403 11.6127 6.34397 11.7055 6.30355C11.7984 6.26313 11.8986 6.24218 11.9999 6.242C12.0979 6.24093 12.1949 6.26142 12.2841 6.30204C12.3732 6.34265 12.4524 6.40238 12.5159 6.477C12.5903 6.54045 12.6498 6.61947 12.6902 6.70846Z" />
</svg>
