<svg  viewBox="0 0 25 24" fill="white" xmlns="http://www.w3.org/2000/svg">
<path d="M5.25156 3.46901L7.26857 5.46001C7.40857 5.616 7.47957 5.79601 7.47957 5.99901C7.47957 6.20201 7.40957 6.382 7.26957 6.53901C7.12309 6.67557 6.92981 6.75073 6.72957 6.74901C6.52932 6.75073 6.33604 6.67557 6.18957 6.53901L4.19857 4.522C4.1301 4.45512 4.07605 4.37491 4.03977 4.28634C4.00348 4.19777 3.98571 4.1027 3.98757 4.007C3.98386 3.90743 4.00058 3.80815 4.0367 3.71528C4.07281 3.62241 4.12756 3.53792 4.19757 3.46701C4.33857 3.32701 4.51057 3.257 4.71357 3.257C4.81314 3.2533 4.91242 3.27002 5.00529 3.30614C5.09816 3.34225 5.18265 3.397 5.25357 3.46701L5.25156 3.46901Z" />
<path fill-rule="evenodd" clip-rule="evenodd" d="M13.6668 4.52299C13.5098 4.10199 13.1968 3.89099 12.7288 3.89099C12.2598 3.89099 11.9478 4.10099 11.7908 4.52299L10.1988 8.85999C10.0821 9.1346 9.86345 9.35325 9.58885 9.46999L5.25285 11.064C4.83185 11.22 4.62085 11.532 4.62085 12.001C4.62085 12.47 4.83085 12.782 5.25285 12.939L9.58885 14.53C9.72408 14.5884 9.8444 14.6766 9.94085 14.788C10.0508 14.882 10.1358 14.999 10.1988 15.14L11.7928 19.476C11.9488 19.897 12.2608 20.108 12.7298 20.108C13.1988 20.108 13.5108 19.898 13.6678 19.476L15.2608 15.14C15.3778 14.8655 15.5964 14.6469 15.8708 14.53L20.2068 12.936C20.6278 12.78 20.8389 12.468 20.8389 11.999C20.8389 11.53 20.6288 11.218 20.2068 11.061L15.8688 9.46999C15.7331 9.41033 15.6067 9.33116 15.4938 9.23499C15.3977 9.12207 15.3185 8.99575 15.2588 8.85999L13.6648 4.52399L13.6668 4.52299ZM12.7288 6.32899L13.8538 9.39899C13.9938 9.72699 14.1898 10.023 14.4398 10.289C14.7058 10.539 15.0018 10.734 15.3298 10.875L18.4009 12L15.3308 13.125C14.6686 13.4112 14.1406 13.9395 13.8548 14.602L12.7298 17.672L11.6048 14.602C11.4641 14.2734 11.2563 13.9778 10.9948 13.734C10.7513 13.473 10.456 13.2656 10.1278 13.125L7.05685 12L10.1268 10.875C10.7895 10.589 11.3179 10.0607 11.6038 9.39799L12.7288 6.32899Z" />
<path d="M20.7208 20.742C20.5178 20.742 20.3458 20.671 20.2058 20.531L18.1888 18.54C18.0488 18.383 17.9788 18.203 17.9788 18C17.9771 17.7997 18.0522 17.6065 18.1888 17.46C18.3353 17.3234 18.5285 17.2483 18.7288 17.25C18.9288 17.2488 19.1217 17.3243 19.2678 17.461L21.2608 19.476C21.3308 19.5469 21.3855 19.6314 21.4217 19.7243C21.4578 19.8171 21.4745 19.9164 21.4708 20.016C21.473 20.1118 21.4555 20.207 21.4193 20.2958C21.3832 20.3846 21.3292 20.4649 21.2608 20.532C21.1899 20.602 21.1054 20.6568 21.0125 20.6929C20.9196 20.729 20.8204 20.7457 20.7208 20.742Z" />
<path d="M4.03833 20.2952C4.07444 20.3838 4.1283 20.464 4.19659 20.531C4.26356 20.5993 4.3438 20.6531 4.43237 20.6892C4.52094 20.7254 4.61596 20.743 4.71159 20.741C4.81107 20.7444 4.9102 20.7275 5.0029 20.6912C5.09559 20.6549 5.17988 20.6 5.25059 20.53L7.26859 18.54C7.40859 18.383 7.47859 18.203 7.47859 18C7.47859 17.797 7.40859 17.617 7.26859 17.46C7.11159 17.32 6.93159 17.25 6.72859 17.25C6.52855 17.2488 6.33565 17.3243 6.18959 17.461L4.19659 19.476C4.12658 19.5469 4.07184 19.6314 4.03572 19.7243C3.9996 19.8171 3.98288 19.9164 3.98659 20.016C3.98461 20.1116 4.00221 20.2066 4.03833 20.2952Z" />
<path d="M21.2598 3.469C21.1891 3.39894 21.1048 3.34408 21.0121 3.3078C20.9194 3.27151 20.8203 3.25457 20.7208 3.258C20.6251 3.25602 20.5301 3.27363 20.4416 3.30974C20.353 3.34586 20.2727 3.39972 20.2058 3.468L18.1888 5.462C18.0527 5.60797 17.9776 5.80044 17.9788 6C17.9788 6.203 18.0488 6.383 18.1888 6.54C18.3458 6.68 18.5258 6.75 18.7288 6.75C18.9318 6.75 19.1118 6.68 19.2688 6.54L21.2598 4.523C21.3282 4.45611 21.3823 4.37591 21.4186 4.28734C21.4549 4.19877 21.4726 4.1037 21.4708 4.008C21.4745 3.90843 21.4578 3.80915 21.4216 3.71628C21.3855 3.62341 21.3308 3.53891 21.2608 3.468L21.2598 3.469Z" />
</svg>
