<svg  viewBox="0 0 24 24" fill="white" xmlns="http://www.w3.org/2000/svg">
<path d="M18.023 4.453C17.398 3.813 16.648 3.493 15.773 3.493C14.898 3.493 14.148 3.813 13.523 4.453L6.56301 11.531C6.07319 12.031 5.68323 12.6199 5.41401 13.266C4.91582 14.539 4.91582 15.953 5.41401 17.226C5.68001 17.867 6.06301 18.446 6.56301 18.961C7.06301 19.477 7.63301 19.859 8.27301 20.109C8.87996 20.3711 9.5339 20.5068 10.195 20.508C10.8637 20.5054 11.5252 20.3698 12.141 20.109C12.7834 19.8471 13.3654 19.4564 13.851 18.961L18.023 14.719C18.09 14.6504 18.1704 14.5963 18.2591 14.56C18.3479 14.5237 18.4431 14.506 18.539 14.508C18.6393 14.4971 18.7407 14.5104 18.8347 14.547C18.9287 14.5836 19.0125 14.6422 19.079 14.718C19.1475 14.7851 19.2014 14.8654 19.2376 14.9542C19.2737 15.043 19.2912 15.1382 19.289 15.234C19.2972 15.334 19.2825 15.4346 19.2461 15.5282C19.2097 15.6217 19.1526 15.7058 19.079 15.774L14.906 20.016C14.2818 20.6611 13.532 21.1716 12.703 21.516C11.9068 21.8409 11.055 22.008 10.195 22.008C9.35201 22.008 8.51501 21.844 7.68701 21.516C6.86217 21.1639 6.11389 20.6544 5.48401 20.016C4.85559 19.3783 4.3615 18.621 4.03101 17.789C3.53718 16.5607 3.41162 15.2153 3.66963 13.9168C3.92765 12.6184 4.5581 11.4231 5.48401 10.477L12.445 3.398C12.898 2.93 13.415 2.578 13.992 2.344C14.5496 2.11354 15.1467 1.99397 15.75 1.992C16.3609 1.99247 16.9659 2.11203 17.531 2.344C18.1152 2.58229 18.6425 2.94149 19.078 3.398C19.547 3.868 19.891 4.391 20.109 4.968C20.5766 6.10963 20.5766 7.38936 20.109 8.531C19.8897 9.12591 19.5374 9.66289 19.079 10.101L12.117 17.18C11.586 17.727 10.945 18 10.195 18C9.44501 18 8.80501 17.727 8.27301 17.18C8.01613 16.931 7.81298 16.6319 7.67608 16.3014C7.53918 15.9708 7.47143 15.6157 7.47701 15.258C7.47701 14.492 7.74201 13.844 8.27301 13.313L12.445 9.047C12.585 8.907 12.758 8.836 12.961 8.836C13.0604 8.83243 13.1595 8.84922 13.2522 8.88533C13.3449 8.92144 13.4292 8.97612 13.5 9.046C13.656 9.188 13.734 9.367 13.734 9.586C13.734 9.789 13.664 9.961 13.524 10.102L9.35201 14.367C9.10201 14.602 8.97701 14.898 8.97701 15.257C8.97701 15.602 9.10201 15.891 9.35201 16.125C9.58601 16.375 9.86701 16.5 10.195 16.5C10.539 16.5 10.828 16.375 11.062 16.125L18.023 9.047C18.3264 8.75216 18.5662 8.39827 18.7275 8.00715C18.8889 7.61604 18.9683 7.19601 18.961 6.773C18.961 5.867 18.648 5.093 18.023 4.453Z" />
</svg>
