<svg  viewBox="0 0 24 24" fill="white" xmlns="http://www.w3.org/2000/svg">
<path d="M6.39999 9.914C6.47384 9.98551 6.53256 10.0711 6.57266 10.1658C6.61277 10.2605 6.63343 10.3622 6.63343 10.465C6.63343 10.5678 6.61277 10.6695 6.57266 10.7642C6.53256 10.8589 6.47384 10.9445 6.39999 11.016L5.01699 12.375C4.54767 12.8369 4.17329 13.3863 3.91499 13.992C3.68294 14.5744 3.55598 15.1933 3.53999 15.82C3.52399 16.43 3.62599 17.023 3.84499 17.602C4.07805 18.1776 4.42035 18.7026 4.85299 19.148C5.30599 19.586 5.82099 19.922 6.39899 20.156C6.97799 20.375 7.57099 20.476 8.18099 20.461C8.8077 20.445 9.42661 20.3181 10.009 20.086C10.6147 19.8277 11.1641 19.4533 11.626 18.984L12.986 17.602C13.0575 17.5283 13.1431 17.4697 13.2376 17.4297C13.3322 17.3897 13.4338 17.3691 13.5365 17.3691C13.6392 17.3691 13.7408 17.3897 13.8354 17.4297C13.9299 17.4697 14.0155 17.5283 14.087 17.602C14.227 17.758 14.297 17.945 14.297 18.164C14.297 18.367 14.227 18.547 14.087 18.704L12.704 20.062C11.5122 21.2684 9.89926 21.9659 8.20399 22.008C7.39515 22.0214 6.59135 21.8781 5.83699 21.586C5.06142 21.2826 4.35848 20.8192 3.77399 20.226C3.18126 19.6417 2.71821 18.9391 2.41499 18.164C2.12285 17.4096 1.97955 16.6058 1.99299 15.797C2.00899 14.984 2.18099 14.187 2.50899 13.407C2.84298 12.6169 3.32883 11.9 3.93899 11.297L5.29799 9.914C5.44421 9.77768 5.63709 9.70253 5.83699 9.704C6.05599 9.704 6.24399 9.774 6.39999 9.914Z" />
<path d="M15.845 8.92903C15.845 8.71003 15.767 8.53003 15.61 8.39003C15.47 8.23303 15.29 8.15503 15.072 8.15503C14.9707 8.15521 14.8705 8.17616 14.7777 8.21658C14.6848 8.257 14.6012 8.31603 14.532 8.39003L8.392 14.53C8.235 14.687 8.157 14.874 8.157 15.093C8.15608 15.1908 8.17665 15.2877 8.21725 15.3767C8.25786 15.4656 8.31752 15.5446 8.392 15.608C8.45541 15.6825 8.53439 15.7422 8.62338 15.7828C8.71237 15.8234 8.80919 15.844 8.907 15.843C9.01193 15.8445 9.11604 15.8243 9.21288 15.7839C9.30971 15.7435 9.39723 15.6836 9.47001 15.608L15.61 9.46803C15.6839 9.39898 15.7428 9.31553 15.7833 9.22284C15.8237 9.13014 15.8447 9.03015 15.845 8.92903Z" />
<path d="M17.602 3.84402C18.1776 4.07708 18.7026 4.41938 19.148 4.85202C19.5807 5.29744 19.923 5.82244 20.156 6.39802C20.3746 6.97399 20.4782 7.58721 20.461 8.20302C20.4434 8.8221 20.3165 9.43318 20.086 10.008C19.8277 10.6138 19.4534 11.1631 18.984 11.625L17.601 12.985C17.5273 13.0565 17.4687 13.1421 17.4287 13.2366C17.3887 13.3312 17.3681 13.4328 17.3681 13.5355C17.3681 13.6382 17.3887 13.7398 17.4287 13.8344C17.4687 13.929 17.5273 14.0145 17.601 14.086C17.7475 14.2226 17.9408 14.2977 18.141 14.296C18.3483 14.3004 18.5494 14.2253 18.703 14.086L20.062 12.704C20.6722 12.101 21.158 11.3842 21.492 10.594C21.8134 9.84479 21.9885 9.04103 22.008 8.22602C22.0228 7.40959 21.8795 6.59801 21.586 5.83602C21.2828 5.06089 20.8198 4.35831 20.227 3.77402C19.617 3.16402 18.93 2.71102 18.164 2.41402C17.4017 2.12041 16.5898 1.97711 15.773 1.99202C14.977 2.00702 14.187 2.18002 13.407 2.50702C12.6169 2.84101 11.9 3.32686 11.297 3.93702L9.914 5.29702C9.773 5.45302 9.703 5.64102 9.703 5.85902C9.70208 6.0592 9.77795 6.25211 9.915 6.39802C9.98649 6.47156 10.072 6.53002 10.1665 6.56994C10.2609 6.60986 10.3624 6.63043 10.465 6.63043C10.5676 6.63043 10.6691 6.60986 10.7635 6.56994C10.858 6.53002 10.9435 6.47156 11.015 6.39802L12.375 5.01602C12.8369 4.5467 13.3863 4.17232 13.992 3.91402C14.5668 3.68353 15.1779 3.55658 15.797 3.53902C16.4128 3.5219 17.026 3.62551 17.602 3.84402Z" />
</svg>
