<svg  viewBox="0 0 24 24" fill="white" xmlns="http://www.w3.org/2000/svg">
<path d="M7.99219 8.74194C7.99219 8.53894 8.06219 8.36694 8.20319 8.22694C8.27236 8.15294 8.35596 8.09391 8.44884 8.05349C8.54172 8.01307 8.6419 7.99213 8.74319 7.99194H15.2582C15.4612 7.99194 15.6332 8.06994 15.7732 8.22694C15.9302 8.36694 16.0082 8.53894 16.0082 8.74194C16.0111 8.84369 15.9915 8.94482 15.9509 9.03815C15.9103 9.13148 15.8496 9.21472 15.7732 9.28194C15.7062 9.35023 15.626 9.40409 15.5374 9.4402C15.4488 9.47632 15.3538 9.49393 15.2582 9.49194H12.7502V15.2579C12.75 15.359 12.7291 15.4589 12.6889 15.5516C12.6487 15.6443 12.5899 15.7278 12.5162 15.7969C12.4491 15.8654 12.3687 15.9193 12.2799 15.9554C12.1912 15.9915 12.096 16.0091 12.0002 16.0069C11.7999 16.0087 11.6067 15.9335 11.4602 15.7969C11.3236 15.6505 11.2485 15.4572 11.2502 15.2569V9.49294H8.74219C8.54228 9.49441 8.34941 9.41926 8.20319 9.28294C8.13318 9.21203 8.07843 9.12754 8.04232 9.03467C8.0062 8.9418 7.98948 8.84252 7.99319 8.74294L7.99219 8.74194Z" />
<path fill-rule="evenodd" clip-rule="evenodd" d="M3.16419 3.16394C2.38219 3.94494 1.99219 4.88994 1.99219 5.99994V17.9999C1.99219 19.1089 2.38319 20.0549 3.16419 20.8359C3.94519 21.6179 4.89019 22.0079 6.00019 22.0079H18.0002C19.1092 22.0079 20.0552 21.6169 20.8362 20.8359C21.6182 20.0549 22.0082 19.1099 22.0082 17.9999V5.99994C22.0082 4.89094 21.6172 3.94494 20.8362 3.16394C20.0552 2.38194 19.1102 1.99194 18.0002 1.99194H6.00019C4.89119 1.99194 3.94519 2.38294 3.16419 3.16394ZM4.21919 4.24194C4.71919 3.74194 5.31219 3.49194 6.00019 3.49194H18.0002C18.6882 3.49194 19.2732 3.74194 19.7582 4.24194C20.2582 4.72694 20.5082 5.31194 20.5082 5.99994V17.9999C20.5082 18.6879 20.2582 19.2809 19.7582 19.7809C19.2732 20.2659 18.6882 20.5079 18.0002 20.5079H6.00019C5.31219 20.5079 4.71919 20.2659 4.21919 19.7809C3.73419 19.2809 3.49219 18.6879 3.49219 17.9999V5.99994C3.4868 5.67279 3.54853 5.348 3.67357 5.04563C3.79861 4.74326 3.9843 4.46974 4.21919 4.24194Z" />
</svg>
