<svg  viewBox="0 0 24 24" fill="white" xmlns="http://www.w3.org/2000/svg">
<path d="M16.992 7.00801C16.992 6.30501 16.867 5.656 16.617 5.06201C16.3616 4.46819 15.9962 3.92803 15.54 3.47001C15.0815 3.01331 14.5406 2.64753 13.946 2.39201C13.3322 2.12485 12.6694 1.98861 12 1.99201C11.312 1.99201 10.664 2.12501 10.055 2.39101C9.445 2.65601 8.915 3.01601 8.461 3.46901C8.00428 3.92754 7.63851 4.4684 7.383 5.06301C7.12855 5.67955 7.00101 6.34106 7.008 7.00801C7.008 7.695 7.133 8.34401 7.383 8.95301C7.648 9.56301 8.008 10.093 8.461 10.547C8.914 10.984 9.445 11.336 10.055 11.602C10.665 11.867 11.313 12 12 12C12.688 12 13.336 11.867 13.945 11.602C14.5354 11.3489 15.0753 10.9915 15.539 10.547C15.9957 10.0885 16.3615 9.54761 16.617 8.95301C16.867 8.34301 16.992 7.695 16.992 7.00801ZM15.492 7.00801C15.492 7.97701 15.148 8.80501 14.461 9.492C13.789 10.164 12.969 10.5 12 10.5C11.5395 10.5076 11.0821 10.4222 10.6553 10.249C10.2285 10.0759 9.84102 9.81837 9.516 9.492C9.18963 9.16698 8.93215 8.77949 8.75896 8.35269C8.58577 7.92589 8.50041 7.46855 8.508 7.00801C8.508 6.03901 8.844 5.211 9.516 4.52301C9.83775 4.19078 10.2241 3.92799 10.6514 3.75084C11.0786 3.57369 11.5376 3.48594 12 3.49301C12.969 3.49301 13.79 3.836 14.46 4.52301C14.7927 4.8447 15.0559 5.23118 15.2334 5.65859C15.4109 6.086 15.4989 6.54526 15.492 7.00801Z" />
<path d="M4.99206 19.008C4.83606 19.617 4.75806 20.281 4.75806 21C4.75787 21.1013 4.73693 21.2015 4.69651 21.2944C4.65609 21.3872 4.59706 21.4708 4.52306 21.54C4.38306 21.68 4.21106 21.75 4.00806 21.75C3.78906 21.75 3.60906 21.68 3.46806 21.54C3.32806 21.383 3.25806 21.203 3.25806 21C3.26161 20.1874 3.35586 19.3777 3.53906 18.586C3.74206 17.758 4.18006 17.008 4.85206 16.336C5.50806 15.68 6.41406 15.172 7.57006 14.813C8.72706 14.438 10.2031 14.25 12.0001 14.25C13.7971 14.25 15.2731 14.437 16.4301 14.813C17.5861 15.172 18.4921 15.68 19.1481 16.336C19.8201 17.008 20.2501 17.758 20.4371 18.586C20.6411 19.414 20.7421 20.219 20.7421 21C20.7435 21.2004 20.668 21.3937 20.5311 21.54C20.4604 21.6098 20.3762 21.6644 20.2837 21.7005C20.1912 21.7366 20.0923 21.7534 19.9931 21.75C19.7891 21.75 19.6091 21.68 19.4531 21.54C19.3121 21.383 19.2421 21.203 19.2421 21C19.2421 20.281 19.1641 19.618 19.0081 19.008C18.8521 18.398 18.5471 17.867 18.0941 17.414C17.6411 16.945 16.9381 16.555 15.9841 16.242C15.0311 15.914 13.7031 15.75 12.0001 15.75C10.2961 15.75 8.96906 15.914 8.01606 16.242C7.06306 16.554 6.35906 16.945 5.90606 17.414C5.45306 17.868 5.14806 18.398 4.99206 19.008Z" />
</svg>
