<svg  viewBox="0 0 24 24" fill="white" xmlns="http://www.w3.org/2000/svg">
<path d="M16.9919 1.24198C17.2109 1.24198 17.3909 1.31998 17.5319 1.47698C17.6719 1.61698 17.7419 1.78898 17.7419 1.99198V2.99998H17.9999C19.1099 2.99998 20.0549 3.38998 20.8359 4.17198C21.6169 4.95298 22.0079 5.89798 22.0079 7.00798V18C22.0079 19.11 21.6179 20.055 20.8359 20.836C20.0549 21.617 19.1089 22.008 17.9999 22.008H5.99994C4.88994 22.008 3.94494 21.618 3.16394 20.836C2.38294 20.055 1.99194 19.109 1.99194 18V7.00798C1.99194 5.89798 2.38194 4.95298 3.16394 4.17198C3.94494 3.38998 4.89094 2.99998 5.99994 2.99998H6.25794V1.99198C6.25794 1.78898 6.32794 1.61698 6.46794 1.47698C6.53517 1.40056 6.61841 1.33988 6.71174 1.29926C6.80507 1.25865 6.9062 1.23909 7.00794 1.24198C7.21094 1.24198 7.38294 1.31998 7.52294 1.47698C7.67994 1.61698 7.75794 1.78898 7.75794 1.99198V2.99998H16.2419V1.99198C16.2419 1.78898 16.3119 1.61698 16.4529 1.47698C16.5221 1.40298 16.6057 1.34395 16.6986 1.30353C16.7915 1.26311 16.8907 1.24216 16.9919 1.24198ZM17.9999 4.49998H5.99994C5.31194 4.49998 4.71894 4.74198 4.21894 5.22698C3.73394 5.71098 3.49194 6.30498 3.49194 7.00698V8.24998H20.5079V7.00798C20.5079 6.30498 20.2579 5.71098 19.7579 5.22698C19.5301 4.99209 19.2566 4.8064 18.9543 4.68136C18.6519 4.55632 18.3271 4.49459 17.9999 4.49998ZM20.5079 9.74998H3.49194V18C3.49194 18.688 3.73394 19.281 4.21894 19.781C4.71894 20.266 5.31194 20.508 5.99994 20.508H17.9999C18.6879 20.508 19.2729 20.266 19.7579 19.781C20.2579 19.281 20.5079 18.688 20.5079 18V9.74998Z" />
<path d="M13.992 12H16.992C17.555 12 18.032 12.195 18.422 12.586C18.812 12.976 19.008 13.453 19.008 14.016V17.016C19.008 17.563 18.813 18.031 18.422 18.422C18.032 18.812 17.555 19.008 16.992 19.008H13.992C13.73 19.0115 13.4701 18.9613 13.2283 18.8606C12.9865 18.7598 12.7679 18.6105 12.586 18.422C12.196 18.032 12 17.562 12 17.016V14.016C12 13.453 12.195 12.976 12.586 12.586C12.976 12.196 13.446 12 13.992 12ZM16.992 13.5H13.992C13.9249 13.499 13.8585 13.5133 13.7977 13.5417C13.7369 13.5701 13.6833 13.6119 13.641 13.664C13.5947 13.7099 13.5583 13.7648 13.534 13.8254C13.5098 13.8859 13.4982 13.9508 13.5 14.016V17.016C13.4979 17.0812 13.5092 17.1461 13.5332 17.2067C13.5572 17.2674 13.5934 17.3224 13.6395 17.3685C13.6856 17.4146 13.7406 17.4508 13.8013 17.4748C13.8619 17.4988 13.9268 17.5101 13.992 17.508H16.992C17.132 17.508 17.25 17.461 17.344 17.368C17.3962 17.3256 17.4381 17.2719 17.4665 17.2109C17.4949 17.1499 17.5091 17.0833 17.508 17.016V14.016C17.5091 13.9487 17.4949 13.8821 17.4665 13.8211C17.4381 13.7601 17.3962 13.7064 17.344 13.664C17.3016 13.6118 17.2479 13.5699 17.1869 13.5415C17.1259 13.5131 17.0593 13.4989 16.992 13.5Z" />
</svg>
