<svg  viewBox="0 0 24 24" fill="white" xmlns="http://www.w3.org/2000/svg">
<path d="M7.99168 1.75802C7.98811 1.65838 8.00498 1.55905 8.04127 1.46618C8.07756 1.37331 8.13249 1.28885 8.20268 1.21802C8.34915 1.08146 8.54243 1.0063 8.74268 1.00802H15.2577C15.4607 1.00802 15.6327 1.07802 15.7727 1.21802C15.9297 1.35902 16.0077 1.53902 16.0077 1.75802C16.0074 1.85916 15.9864 1.95916 15.946 2.05187C15.9056 2.14457 15.8466 2.22801 15.7727 2.29702C15.7057 2.36531 15.6255 2.41917 15.5369 2.45528C15.4483 2.4914 15.3533 2.50901 15.2577 2.50702H8.74168C8.54178 2.50849 8.3489 2.43335 8.20268 2.29702C8.06612 2.15055 7.99096 1.95727 7.99268 1.75702L7.99168 1.75802Z" />
<path d="M13.0078 9.75C13.0078 9.547 13.0778 9.375 13.2178 9.234C13.2852 9.15776 13.3684 9.09727 13.4618 9.05683C13.5551 9.01639 13.6562 8.99699 13.7578 9C13.9608 9 14.1328 9.078 14.2728 9.234C14.4298 9.375 14.5078 9.547 14.5078 9.75V16.242C14.5107 16.3437 14.4912 16.4449 14.4505 16.5382C14.4099 16.6315 14.3493 16.7148 14.2728 16.782C14.2059 16.8503 14.1256 16.9041 14.037 16.9403C13.9485 16.9764 13.8535 16.994 13.7578 16.992C13.6583 16.9957 13.559 16.979 13.4661 16.9429C13.3732 16.9067 13.2887 16.852 13.2178 16.782C13.1478 16.7111 13.0931 16.6266 13.057 16.5337C13.0208 16.4409 13.0041 16.3416 13.0078 16.242V9.75Z" />
<path d="M9.94816 9.06129C10.0409 9.02105 10.1408 9.00019 10.2418 9C10.3435 8.99699 10.4446 9.01639 10.5379 9.05683C10.6312 9.09727 10.7145 9.15776 10.7818 9.234C10.8503 9.30109 10.9042 9.38149 10.9403 9.47024C10.9764 9.55899 10.994 9.6542 10.9918 9.75V16.242C10.9954 16.3416 10.9785 16.441 10.9423 16.5338C10.906 16.6267 10.851 16.7112 10.7808 16.782C10.7102 16.8518 10.626 16.9064 10.5335 16.9425C10.441 16.9786 10.3421 16.9954 10.2428 16.992C10.0388 16.992 9.85885 16.922 9.70285 16.782C9.56285 16.641 9.49285 16.461 9.49285 16.242V9.75C9.49073 9.6542 9.50827 9.55899 9.54439 9.47024C9.58051 9.38149 9.63444 9.30109 9.70285 9.234C9.77199 9.16031 9.85547 9.10153 9.94816 9.06129Z" />
<path fill-rule="evenodd" clip-rule="evenodd" d="M20.2499 4.00802H3.74995C3.54956 4.00656 3.35626 4.08209 3.20995 4.21902C3.14019 4.28969 3.08559 4.37386 3.04948 4.46637C3.01337 4.55887 2.99652 4.65777 2.99995 4.75702C2.99822 4.95727 3.07339 5.15055 3.20995 5.29702C3.35626 5.43394 3.54956 5.50947 3.74995 5.50802H4.99195V18C4.99195 19.109 5.38295 20.055 6.16395 20.836C6.94495 21.618 7.88995 22.008 8.99995 22.008H14.9999C16.1089 22.008 17.0549 21.617 17.8359 20.836C18.6179 20.055 19.0079 19.11 19.0079 18V5.50702H20.2499C20.3457 5.50914 20.441 5.4916 20.5297 5.45548C20.6185 5.41936 20.6989 5.36543 20.7659 5.29702C20.8397 5.22791 20.8985 5.14444 20.9387 5.05174C20.979 4.95904 20.9998 4.85908 20.9999 4.75802C20.9999 4.53902 20.9219 4.35902 20.7659 4.21802C20.6249 4.07802 20.4529 4.00802 20.2499 4.00802ZM16.7579 19.781C16.2729 20.266 15.6879 20.508 14.9999 20.508H8.99995C8.31195 20.508 7.71895 20.266 7.21895 19.781C6.73395 19.281 6.49195 18.688 6.49195 18V5.50802H17.5079V18C17.5079 18.688 17.2579 19.281 16.7579 19.781Z" />
</svg>
