<svg  viewBox="0 0 24 24" fill="white" xmlns="http://www.w3.org/2000/svg">
<path d="M4.99202 13.508H7.99202C8.82002 13.508 9.52302 13.805 10.102 14.398C10.695 14.977 10.992 15.68 10.992 16.508V19.508C10.992 20.336 10.695 21.047 10.102 21.641C9.82823 21.922 9.49974 22.144 9.13683 22.2931C8.77392 22.4422 8.3843 22.5154 7.99202 22.508H4.99202C4.59652 22.5139 4.20388 22.4402 3.83745 22.2912C3.47101 22.1423 3.13828 21.9212 2.85902 21.641C2.57889 21.3618 2.35778 21.029 2.20883 20.6626C2.05989 20.2962 1.98616 19.9035 1.99202 19.508V16.508C1.99202 15.68 2.28202 14.977 2.85902 14.398C3.45302 13.805 4.16402 13.508 4.99202 13.508ZM7.99202 15.008H4.99202C4.58602 15.008 4.23402 15.156 3.93802 15.453C3.79315 15.5872 3.67847 15.7507 3.60157 15.9326C3.52468 16.1145 3.48734 16.3106 3.49202 16.508V19.508C3.49202 19.914 3.64102 20.266 3.93802 20.563C4.23402 20.859 4.58602 21.008 4.99202 21.008H7.99202C8.41402 21.008 8.76602 20.859 9.04702 20.563C9.34402 20.266 9.49202 19.914 9.49202 19.508V16.508C9.49202 16.086 9.34402 15.734 9.04702 15.453C8.91274 15.3083 8.74924 15.1938 8.56736 15.1171C8.38548 15.0404 8.18937 15.0032 7.99202 15.008Z" />
<path d="M4.99276 2.49179H7.99276C8.82076 2.49179 9.52376 2.78879 10.1028 3.38179C10.6958 3.96079 10.9928 4.66379 10.9928 5.49179V8.49179C10.9928 9.31979 10.6958 10.0308 10.1028 10.6248C9.82896 10.9058 9.50047 11.1277 9.13756 11.2768C8.77466 11.426 8.38504 11.4991 7.99276 11.4918H4.99276C4.59725 11.4977 4.20461 11.4239 3.83818 11.275C3.47175 11.126 3.13901 10.9049 2.85976 10.6248C2.57962 10.3455 2.35851 10.0128 2.20956 9.64637C2.06062 9.27994 1.98689 8.88729 1.99276 8.49179V5.49179C1.99276 4.66379 2.28276 3.96079 2.85976 3.38179C3.45376 2.78879 4.16476 2.49179 4.99276 2.49179ZM7.99276 3.99179H4.99276C4.58676 3.99179 4.23476 4.13979 3.93876 4.43679C3.79388 4.57098 3.6792 4.73444 3.60231 4.91633C3.52541 5.09822 3.48807 5.29437 3.49276 5.49179V8.49179C3.49276 8.89779 3.64176 9.24979 3.93876 9.54679C4.23476 9.84279 4.58676 9.99179 4.99276 9.99179H7.99276C8.41476 9.99179 8.76676 9.84279 9.04776 9.54679C9.34476 9.24979 9.49276 8.89779 9.49276 8.49179V5.49179C9.49276 5.06979 9.34476 4.71779 9.04776 4.43679C8.91347 4.2921 8.74998 4.1776 8.56809 4.10088C8.38621 4.02416 8.1901 3.98698 7.99276 3.99179Z" />
<path d="M15.9961 2.49179H18.9961C19.8241 2.49179 20.5271 2.78879 21.1061 3.38179C21.6991 3.96079 21.9961 4.66379 21.9961 5.49179V8.49179C21.9961 9.31979 21.6991 10.0308 21.1061 10.6248C20.8323 10.9058 20.5038 11.1277 20.1409 11.2768C19.778 11.426 19.3884 11.4991 18.9961 11.4918H15.9961C15.6006 11.4977 15.2079 11.4239 14.8415 11.275C14.4751 11.126 14.1423 10.9049 13.8631 10.6248C13.5829 10.3455 13.3618 10.0128 13.2129 9.64637C13.0639 9.27994 12.9902 8.88729 12.9961 8.49179V5.49179C12.9961 4.66379 13.2861 3.96079 13.8631 3.38179C14.4571 2.78879 15.1681 2.49179 15.9961 2.49179ZM18.9961 3.99179H15.9961C15.5901 3.99179 15.2381 4.13979 14.9421 4.43679C14.7972 4.57098 14.6825 4.73444 14.6056 4.91633C14.5287 5.09822 14.4914 5.29437 14.4961 5.49179V8.49179C14.4961 8.89779 14.6451 9.24979 14.9421 9.54679C15.2381 9.84279 15.5901 9.99179 15.9961 9.99179H18.9961C19.4181 9.99179 19.7701 9.84279 20.0511 9.54679C20.3481 9.24979 20.4961 8.89779 20.4961 8.49179V5.49179C20.4961 5.06979 20.3481 4.71779 20.0511 4.43679C19.9168 4.2921 19.7533 4.1776 19.5714 4.10088C19.3895 4.02416 19.1934 3.98698 18.9961 3.99179Z" />
<path d="M5.27307 5.79701C5.08607 5.98401 4.99207 6.21901 4.99207 6.50001L4.99307 7.50801C4.99135 7.76985 5.0918 8.02205 5.27307 8.21101C5.47707 8.39801 5.71907 8.49201 6.00007 8.49201H7.00807C7.1346 8.49412 7.26022 8.47028 7.37717 8.42195C7.49413 8.37361 7.59994 8.30183 7.68807 8.21101C7.89107 8.00801 7.99207 7.77301 7.99207 7.50801V6.50001C7.99506 6.36784 7.96945 6.23659 7.91698 6.11525C7.8645 5.99391 7.78642 5.88535 7.68807 5.79701C7.50007 5.59401 7.27307 5.49201 7.00807 5.49201H6.00007C5.86447 5.49046 5.73001 5.51673 5.60496 5.56918C5.47992 5.62164 5.36696 5.69918 5.27307 5.79701Z" />
<path d="M16.2891 5.79701C16.4921 5.59401 16.7271 5.49201 16.9921 5.49201H18.0001C18.1323 5.48913 18.2636 5.51491 18.3849 5.56755C18.5063 5.6202 18.6148 5.69847 18.7031 5.79701C18.8016 5.88525 18.8799 5.99377 18.9325 6.11512C18.9852 6.23647 19.0109 6.36776 19.0081 6.50001V7.50801C19.0079 7.63979 18.9807 7.77015 18.9282 7.89104C18.8758 8.01194 18.7992 8.12083 18.7031 8.21101C18.6113 8.30334 18.5015 8.3759 18.3806 8.42423C18.2597 8.47255 18.1302 8.49562 18.0001 8.49201H16.9921C16.7271 8.49201 16.4921 8.39801 16.2891 8.21101C16.1021 8.00801 16.0081 7.77301 16.0081 7.50801V6.50001C16.0044 6.36986 16.0275 6.24034 16.0758 6.11944C16.1242 5.99854 16.1967 5.88881 16.2891 5.79701Z" />
<path d="M5.60496 16.5852C5.73001 16.5327 5.86447 16.5065 6.00007 16.508H7.00807C7.13662 16.5067 7.26395 16.5332 7.38132 16.5856C7.49868 16.6381 7.60332 16.7153 7.68807 16.812C7.78475 16.8967 7.86197 17.0014 7.91444 17.1187C7.96691 17.2361 7.99339 17.3634 7.99207 17.492V18.5C7.99374 18.6355 7.96763 18.7699 7.91535 18.895C7.86306 19.02 7.78571 19.133 7.68807 19.227C7.59985 19.3176 7.494 19.3892 7.37705 19.4374C7.2601 19.4856 7.13452 19.5092 7.00807 19.507H6.00007C5.71907 19.507 5.47707 19.414 5.27307 19.227C5.08607 19.023 4.99307 18.781 4.99307 18.5V17.493C4.99082 17.3665 5.01451 17.241 5.06267 17.124C5.11082 17.0071 5.18243 16.9012 5.27307 16.813C5.36696 16.7152 5.47992 16.6376 5.60496 16.5852Z" />
<path d="M18.023 19.484C17.883 19.328 17.711 19.25 17.508 19.25C17.4063 19.247 17.3052 19.2664 17.2119 19.3068C17.1186 19.3473 17.0353 19.4078 16.968 19.484C16.828 19.625 16.758 19.797 16.758 20V21.5C16.7562 21.7002 16.8314 21.8935 16.968 22.04C17.0389 22.11 17.1234 22.1648 17.2162 22.2009C17.3091 22.237 17.4084 22.2537 17.508 22.25C17.6036 22.252 17.6986 22.2344 17.7872 22.1983C17.8757 22.1621 17.956 22.1083 18.023 22.04C18.097 21.9708 18.156 21.8872 18.1964 21.7943C18.2368 21.7015 18.2578 21.6013 18.258 21.5V20C18.258 19.797 18.18 19.625 18.023 19.484Z" />
<path d="M21.6906 19.7159C21.731 19.8051 21.7513 19.9021 21.75 20V21.5C21.75 21.6012 21.7292 21.7014 21.689 21.7943C21.6487 21.8871 21.5899 21.9708 21.5161 22.04C21.375 22.18 21.203 22.25 21 22.25C20.7971 22.25 20.617 22.18 20.46 22.04C20.32 21.883 20.25 21.703 20.25 21.5V20C20.2479 19.9042 20.2655 19.809 20.3016 19.7203C20.3377 19.6315 20.3916 19.5511 20.46 19.484C20.5293 19.4102 20.6129 19.3514 20.7058 19.3111C20.7987 19.2709 20.8988 19.2501 21 19.25C21.098 19.2488 21.195 19.2691 21.2841 19.3095C21.3733 19.35 21.4525 19.4095 21.5161 19.484C21.5905 19.5476 21.6501 19.6268 21.6906 19.7159Z" />
<path d="M14.812 15.336C14.766 15.383 14.742 15.437 14.742 15.5V21.5C14.7435 21.7004 14.6679 21.8937 14.531 22.04C14.4603 22.1098 14.3762 22.1644 14.2837 22.2005C14.1911 22.2366 14.0922 22.2534 13.993 22.25C13.789 22.25 13.609 22.18 13.453 22.04C13.312 21.883 13.242 21.703 13.242 21.5V15.5C13.2386 15.2687 13.2826 15.0392 13.3714 14.8256C13.4601 14.612 13.5917 14.4188 13.758 14.258C14.102 13.914 14.516 13.742 15 13.742H16.5C16.7313 13.7386 16.9608 13.7826 17.1744 13.8714C17.3881 13.9601 17.5812 14.0917 17.742 14.258C18.086 14.602 18.258 15.016 18.258 15.5V16C18.26 16.0687 18.2846 16.1348 18.328 16.188C18.3491 16.2102 18.3746 16.2279 18.4028 16.2399C18.431 16.252 18.4613 16.2581 18.492 16.258H19.992C20.0265 16.2598 20.0609 16.2545 20.0932 16.2424C20.1256 16.2304 20.1551 16.2119 20.18 16.188C20.2234 16.1348 20.248 16.0687 20.25 16V14.492C20.248 14.3964 20.2656 14.3014 20.3017 14.2128C20.3379 14.1242 20.3917 14.044 20.46 13.977C20.5292 13.903 20.6128 13.844 20.7057 13.8036C20.7985 13.7631 20.8987 13.7422 21 13.742C21.098 13.7409 21.195 13.7613 21.2842 13.8019C21.3734 13.8426 21.4525 13.9023 21.516 13.977C21.5904 14.0405 21.6499 14.1195 21.6903 14.2085C21.7307 14.2975 21.7511 14.3943 21.75 14.492V16C21.75 16.484 21.578 16.898 21.234 17.242C20.891 17.586 20.477 17.758 19.992 17.758H18.492C18.008 17.758 17.594 17.586 17.25 17.242C16.922 16.898 16.758 16.484 16.758 16V15.5C16.758 15.437 16.727 15.383 16.664 15.336C16.617 15.273 16.563 15.242 16.5 15.242H15C14.938 15.242 14.875 15.273 14.812 15.336Z" />
</svg>
