<svg  viewBox="0 0 24 24" fill="white" xmlns="http://www.w3.org/2000/svg">
<path d="M8.18896 7.8876C7.77475 7.8876 7.43896 8.22339 7.43896 8.6376C7.43896 9.05182 7.77475 9.3876 8.18896 9.3876H15.8755C16.2897 9.3876 16.6255 9.05182 16.6255 8.6376C16.6255 8.22339 16.2897 7.8876 15.8755 7.8876H8.18896Z" />
<path d="M8.40527 12C8.40527 11.5858 8.74106 11.25 9.15527 11.25H14.8453C15.2595 11.25 15.5953 11.5858 15.5953 12C15.5953 12.4142 15.2595 12.75 14.8453 12.75H9.15527C8.74106 12.75 8.40527 12.4142 8.40527 12Z" />
<path d="M8.18896 14.6124C7.77475 14.6124 7.43896 14.9482 7.43896 15.3624C7.43896 15.7766 7.77475 16.1124 8.18896 16.1124H15.8755C16.2897 16.1124 16.6255 15.7766 16.6255 15.3624C16.6255 14.9482 16.2897 14.6124 15.8755 14.6124H8.18896Z" />
<path fill-rule="evenodd" clip-rule="evenodd" d="M2.25 15C2.25 17.6234 4.37665 19.75 7 19.75H17C19.6234 19.75 21.75 17.6234 21.75 15V9C21.75 6.37665 19.6234 4.25 17 4.25H7C4.37665 4.25 2.25 6.37665 2.25 9V15ZM7 18.25C5.20507 18.25 3.75 16.7949 3.75 15V9C3.75 7.20507 5.20507 5.75 7 5.75H17C18.7949 5.75 20.25 7.20507 20.25 9V15C20.25 16.7949 18.7949 18.25 17 18.25H7Z" />
</svg>
