<svg  viewBox="0 0 24 24" fill="white" xmlns="http://www.w3.org/2000/svg">
<path d="M19.9919 3.25801C20.0915 3.25431 20.1908 3.27103 20.2837 3.30714C20.3765 3.34326 20.461 3.39801 20.5319 3.46801C20.6719 3.60901 20.7419 3.78901 20.7419 4.00801V9.75001H14.9999C14.7997 9.75174 14.6064 9.67657 14.4599 9.54001C14.3234 9.39354 14.2482 9.20026 14.2499 9.00001C14.2499 8.79701 14.3199 8.62501 14.4599 8.48401C14.5292 8.4102 14.6128 8.35135 14.7057 8.3111C14.7986 8.27086 14.8987 8.25007 14.9999 8.25001H18.2579C17.9808 7.825 17.667 7.42513 17.3199 7.05501C16.9121 6.61905 16.4468 6.24059 15.9369 5.93001C15.3915 5.57172 14.8006 5.28787 14.1799 5.08601C13.5229 4.86701 12.7969 4.75801 11.9999 4.75801C10.9999 4.75801 10.1169 4.92201 9.35195 5.25001C8.56995 5.57801 7.89795 5.97701 7.33595 6.44501C6.80668 6.87747 6.34109 7.38245 5.95295 7.94501C5.59295 8.46101 5.34295 8.90601 5.20295 9.28101C5.12242 9.47114 4.97108 9.62249 4.78095 9.70301C4.69229 9.74161 4.59664 9.76152 4.49995 9.76152C4.40326 9.76152 4.3076 9.74161 4.21895 9.70301C4.03381 9.62723 3.88342 9.4854 3.79695 9.30501C3.75822 9.21218 3.73828 9.1126 3.73828 9.01201C3.73828 8.91143 3.75822 8.81184 3.79695 8.71901C3.98395 8.26601 4.28895 7.72701 4.71095 7.10201C5.13295 6.47701 5.67995 5.88201 6.35095 5.32001C7.03895 4.74201 7.85095 4.25001 8.78895 3.84401C9.72695 3.45401 10.7969 3.25801 11.9999 3.25801C12.8899 3.25801 13.7099 3.36801 14.4599 3.58601C15.2099 3.82001 15.8829 4.11701 16.4769 4.47601C17.0859 4.83601 17.6169 5.24201 18.0699 5.69601C18.5399 6.14801 18.9299 6.60201 19.2419 7.05501V4.00801C19.2384 3.90836 19.2553 3.80904 19.2915 3.71617C19.3278 3.62329 19.3828 3.53884 19.4529 3.46801C19.5994 3.33145 19.7917 3.25629 19.9919 3.25801Z" />
<path d="M3.25684 14.25H8.99984C9.09775 14.2487 9.19474 14.269 9.28392 14.3095C9.3731 14.3499 9.45228 14.4095 9.51584 14.484C9.59032 14.5475 9.64991 14.6267 9.69035 14.7159C9.73079 14.8051 9.7511 14.9021 9.74984 15C9.74978 15.1012 9.72899 15.2013 9.68874 15.2942C9.6485 15.3871 9.58965 15.4707 9.51584 15.54C9.37484 15.68 9.20284 15.75 8.99984 15.75H5.74184C6.01893 16.175 6.33281 16.5749 6.67984 16.945C7.08624 17.3803 7.54275 17.766 8.03984 18.094C8.59948 18.4352 9.19681 18.7104 9.81984 18.914C10.4768 19.132 11.2028 19.242 11.9998 19.242C12.9998 19.242 13.8828 19.078 14.6478 18.75C15.4298 18.422 16.1018 18.023 16.6638 17.555C17.1927 17.1224 17.658 16.6175 18.0458 16.055C18.4058 15.539 18.6558 15.094 18.7958 14.719C18.8318 14.6287 18.8858 14.5468 18.9546 14.4782C19.0234 14.4096 19.1055 14.3557 19.1958 14.32C19.2855 14.2741 19.384 14.2482 19.4847 14.2438C19.5853 14.2394 19.6857 14.2567 19.779 14.2946C19.8724 14.3324 19.9565 14.3899 20.0256 14.4631C20.0948 14.5364 20.1474 14.6236 20.1798 14.719C20.2257 14.8049 20.2516 14.9 20.2556 14.9974C20.2596 15.0947 20.2415 15.1916 20.2028 15.281C20.0158 15.734 19.7108 16.273 19.2888 16.898C18.8668 17.523 18.3128 18.125 17.6248 18.703C16.9528 19.266 16.1478 19.75 15.2098 20.156C14.2728 20.547 13.2028 20.742 11.9998 20.742C11.1098 20.742 10.2898 20.633 9.53984 20.414C8.78984 20.18 8.10984 19.883 7.49984 19.523C6.90584 19.165 6.38284 18.758 5.92984 18.305C5.46084 17.852 5.06984 17.398 4.75784 16.945V19.992C4.76073 20.0937 4.74117 20.1949 4.70055 20.2882C4.65994 20.3815 4.59926 20.4648 4.52284 20.532C4.38284 20.672 4.21084 20.742 4.00784 20.742C3.78884 20.742 3.60884 20.672 3.46884 20.532C3.32784 20.391 3.25684 20.211 3.25684 19.992V14.25Z" />
</svg>
