<svg  viewBox="0 0 25 24" fill="white" xmlns="http://www.w3.org/2000/svg">
<path d="M21.0307 11.916C21.079 12.3394 20.7352 12.6937 20.309 12.6937C19.9059 12.6937 19.5779 12.3753 19.5269 11.9754C19.2969 10.1733 18.49 8.43078 17.106 7.04677C15.5819 5.52268 13.623 4.69836 11.6286 4.57382C11.208 4.54755 10.8596 4.2125 10.8596 3.79104C10.8596 3.38453 11.1844 3.04937 11.5905 3.06936C13.9823 3.18716 16.3399 4.15939 18.1666 5.98611C19.8285 7.64799 20.7832 9.74926 21.0307 11.916Z" />
<path d="M16.9481 12.6937C17.3821 12.6937 17.7311 12.328 17.6561 11.9006C17.4278 10.599 16.811 9.35234 15.8057 8.34702C14.6283 7.16965 13.1198 6.52519 11.58 6.41359C11.1789 6.38451 10.8595 6.71892 10.8595 7.12111C10.8595 7.54685 11.2166 7.88122 11.64 7.92588C12.7737 8.04546 13.8753 8.53969 14.7442 9.40857C15.4802 10.1446 15.9473 11.0476 16.1457 11.9957C16.2271 12.3845 16.5508 12.6937 16.9481 12.6937Z" />
<path fill-rule="evenodd" clip-rule="evenodd" d="M4.17594 5.31935C5.03509 4.46019 6.42806 4.46019 7.28721 5.31935L9.15797 7.19011C10.0171 8.04926 10.0171 9.44222 9.15797 10.3014L8.39476 11.0646C8.23326 11.2261 8.20077 11.4771 8.32385 11.6695C8.78924 12.3969 9.3636 13.1146 10.0382 13.7892C10.7128 14.4638 11.4304 15.0381 12.1578 15.5035C12.3502 15.6266 12.6012 15.5941 12.7627 15.4326L13.5259 14.6693C14.3851 13.8102 15.7781 13.8102 16.6372 14.6694L18.508 16.5401C19.3671 17.3993 19.3671 18.7922 18.508 19.6514L17.1459 21.0134C17.0988 21.0606 17.05 21.1052 16.9998 21.1472C16.9591 21.1962 16.9162 21.2433 16.871 21.2885C15.1077 23.0518 10.4699 21.2729 6.5122 17.3152C2.5545 13.3575 0.775572 8.71972 2.53886 6.95643C2.58395 6.91134 2.63092 6.86856 2.67972 6.82808C2.72184 6.77768 2.76656 6.72872 2.8139 6.68139L4.17594 5.31935ZM5.05293 6.17538C5.44345 5.78486 6.07662 5.78486 6.46714 6.17538L8.20101 7.90925C8.59153 8.29977 8.59153 8.93294 8.20101 9.32346L7.1399 10.3846C6.99655 10.5279 6.95321 10.7438 7.03488 10.9294C7.51611 12.0227 8.22317 13.3054 9.37268 14.4546C10.5136 15.5952 11.7833 16.2963 12.8689 16.7788C13.0548 16.8614 13.2718 16.8184 13.4157 16.6745L14.4838 15.6063C14.8744 15.2158 15.5075 15.2158 15.898 15.6063L17.7038 17.4121C18.0943 17.8026 18.0943 18.4357 17.7038 18.8263L15.7241 20.806C15.6746 20.8555 15.6213 20.8987 15.565 20.9356C14.7912 21.7094 9.72581 19.0871 7.24421 16.583C4.73856 14.0547 2.15507 9.07324 3.02374 8.2063L3.03627 8.19404L3.04291 8.18673L3.04534 8.18422C3.04847 8.18101 3.05473 8.17458 3.07321 8.1551L5.05293 6.17538Z" />
</svg>
