<svg  viewBox="0 0 24 24" fill="white" xmlns="http://www.w3.org/2000/svg">
<path fill-rule="evenodd" clip-rule="evenodd" d="M13.5938 5.84853V3.01755C13.5938 2.60333 13.9295 2.26755 14.3438 2.26755C14.4542 2.26755 14.559 2.29141 14.6534 2.33426C14.7419 2.37086 14.8247 2.42511 14.8967 2.49702L21.4876 9.08797C21.5375 9.13788 21.5789 9.19308 21.6118 9.25176C21.6843 9.36718 21.7262 9.50374 21.7262 9.65009C21.7262 10.0643 21.3904 10.4001 20.9762 10.4001H18.145L14.0135 14.5316L13.0967 20.3198C13.039 20.6844 12.7276 20.9458 12.371 20.9525C12.1707 20.9592 11.9683 20.8861 11.8155 20.7332L8.07468 16.9924L3.55426 21.5128C3.26136 21.8057 2.78649 21.8057 2.4936 21.5128C2.2007 21.2199 2.2007 20.7451 2.4936 20.4522L7.01402 15.9317L3.27301 12.1907C3.22065 12.1384 3.17765 12.0802 3.14401 12.0183C3.09725 11.9392 3.06433 11.8502 3.04909 11.7539C2.98429 11.3448 3.26342 10.9606 3.67253 10.8958L9.46367 9.97862L13.5938 5.84853ZM15.0938 4.81543V6.15931C15.0938 6.37042 15.0065 6.56116 14.8661 6.69745L14.8648 6.69879L10.3443 11.2193C10.2028 11.3608 10.0189 11.4339 9.8336 11.4387L5.35211 12.1485L11.844 18.6404L12.5553 14.1496C12.5626 13.9678 12.6356 13.7882 12.7744 13.6494L17.2949 9.12892L17.3029 9.12099C17.4387 8.98455 17.6267 8.90009 17.8345 8.90009H19.1784L15.0938 4.81543Z" />
</svg>
