<svg  viewBox="0 0 24 24" fill="white" xmlns="http://www.w3.org/2000/svg">
<path d="M20.953 8.11L7.336 21.702C7.24011 21.7976 7.12934 21.8769 7.008 21.937C6.88906 21.9856 6.76146 22.0094 6.633 22.007H3.023C2.88757 22.0084 2.7533 21.9821 2.62844 21.9296C2.50358 21.8772 2.39078 21.7997 2.297 21.702C2.19929 21.6082 2.12183 21.4954 2.06937 21.3706C2.01692 21.2457 1.99059 21.1114 1.992 20.976V17.366C1.992 17.226 2.016 17.101 2.062 16.991C2.12205 16.8697 2.20142 16.7589 2.297 16.663L15.89 3.047C16.593 2.344 17.436 1.992 18.42 1.992C19.405 1.992 20.249 2.344 20.952 3.047C21.655 3.75 22.007 4.594 22.007 5.578C22.007 6.562 21.655 7.406 20.952 8.109L20.953 8.11ZM6.211 20.46C6.27404 20.46 6.33684 20.4523 6.398 20.437C6.45898 20.4072 6.5147 20.3677 6.563 20.32L16.805 10.078L13.922 7.195L3.68 17.437C3.63196 17.4852 3.5921 17.541 3.562 17.602C3.5467 17.6632 3.53898 17.726 3.539 17.789V19.969C3.53691 20.0342 3.54821 20.0991 3.5722 20.1597C3.59619 20.2204 3.63236 20.2754 3.67846 20.3215C3.72457 20.3676 3.77964 20.4038 3.84028 20.4278C3.90091 20.4518 3.96582 20.4631 4.031 20.461H6.211V20.46ZM15 6.118L17.883 9L19.875 7.008C20.265 6.618 20.461 6.141 20.461 5.578C20.461 5.016 20.266 4.531 19.875 4.125C19.6839 3.93567 19.457 3.78633 19.2075 3.68571C18.958 3.58509 18.691 3.53522 18.422 3.539C17.859 3.539 17.382 3.734 16.992 4.125L15 6.117V6.118Z" />
</svg>
