<svg  viewBox="0 0 24 24" fill="white" xmlns="http://www.w3.org/2000/svg">
<path d="M13.336 3.984C12.976 3.656 12.531 3.492 12 3.492C11.469 3.492 11.023 3.656 10.664 3.984L3.984 9.797C3.828 9.953 3.704 10.117 3.609 10.289C3.5314 10.4584 3.49148 10.6427 3.492 10.829V19.008C3.492 19.352 3.648 19.688 3.961 20.016C4.289 20.344 4.75 20.508 5.344 20.508H7.547C8.141 20.508 8.594 20.344 8.907 20.016C9.234 19.688 9.398 19.352 9.398 19.008V16.523C9.398 15.883 9.61801 15.391 10.055 15.047C10.492 14.687 10.953 14.507 11.438 14.507H12.562C13.047 14.507 13.508 14.687 13.945 15.047C14.383 15.391 14.602 15.883 14.602 16.523V19.008C14.602 19.352 14.758 19.688 15.07 20.016C15.398 20.344 15.86 20.508 16.453 20.508H18.656C19.25 20.508 19.703 20.344 20.016 20.016C20.344 19.688 20.508 19.352 20.508 19.008V10.828C20.5079 10.6394 20.4597 10.4538 20.368 10.289C20.2813 10.1051 20.162 9.93846 20.016 9.797L13.336 3.984ZM21 8.672C21.313 8.953 21.555 9.282 21.727 9.656C21.914 10.031 22.007 10.422 22.007 10.828V19.008C22.007 19.836 21.68 20.547 21.023 21.141C20.367 21.719 19.578 22.008 18.656 22.008H16.453C15.531 22.008 14.743 21.718 14.086 21.141C13.43 20.547 13.102 19.836 13.102 19.008V16.523C13.1028 16.4558 13.0884 16.3893 13.0599 16.3285C13.0313 16.2677 12.9893 16.2142 12.937 16.172C12.8911 16.1182 12.8336 16.0756 12.7688 16.0472C12.704 16.0188 12.6337 16.0054 12.563 16.008H11.437C11.363 16.0067 11.2895 16.0206 11.221 16.0488C11.1526 16.077 11.0906 16.1189 11.039 16.172C10.993 16.2179 10.9568 16.2727 10.9328 16.333C10.9087 16.3934 10.8972 16.458 10.899 16.523V19.008C10.899 19.836 10.57 20.547 9.914 21.141C9.258 21.719 8.469 22.008 7.547 22.008H5.344C4.422 22.008 3.633 21.718 2.977 21.141C2.32 20.547 1.992 19.836 1.992 19.008V10.828C1.992 10.422 2.078 10.031 2.25 9.656C2.438 9.281 2.688 8.953 3 8.672L9.68 2.859C10.32 2.281 11.094 1.992 12 1.992C12.906 1.992 13.68 2.282 14.32 2.859L21 8.672Z" />
</svg>
