<svg  viewBox="0 0 24 24" fill="white" xmlns="http://www.w3.org/2000/svg">
<path d="M12 22.008C10.6621 22.0155 9.33723 21.744 8.11001 21.211C6.91879 20.714 5.83591 19.9895 4.92201 19.078C4.01064 18.1644 3.28612 17.0819 2.78901 15.891C2.25585 14.6635 1.98441 13.3383 1.99201 12C1.98455 10.6621 2.25599 9.33723 2.78901 8.11001C3.28606 6.91881 4.01057 5.83595 4.92201 4.92201C5.83565 4.01068 6.91817 3.28617 8.10901 2.78901C9.33654 2.25585 10.6617 1.98441 12 1.99201C13.338 1.98455 14.6628 2.25599 15.89 2.78901C17.0812 3.28603 18.1641 4.01055 19.078 4.92201C19.9894 5.83562 20.7139 6.91814 21.211 8.10901C21.7442 9.33654 22.0156 10.6617 22.008 12C22.0155 13.338 21.744 14.6628 21.211 15.89C20.714 17.0812 19.9895 18.1641 19.078 19.078C18.1644 19.9894 17.0819 20.7139 15.891 21.211C14.6635 21.7442 13.3383 22.0156 12 22.008ZM12 20.508C13.1371 20.5151 14.2631 20.2835 15.305 19.828C16.3118 19.4067 17.2272 18.7937 18 18.023C18.7797 17.244 19.4006 16.3209 19.828 15.305C20.2835 14.2631 20.5151 13.1371 20.508 12C20.5151 10.8629 20.2835 9.73694 19.828 8.69501C19.4041 7.68396 18.7826 6.76772 18 6.00001C17.2323 5.21736 16.3161 4.59587 15.305 4.17201C14.2631 3.71653 13.1371 3.48487 12 3.49201C10.8629 3.48487 9.73694 3.71653 8.69501 4.17201C7.6791 4.59943 6.75597 5.22028 5.97701 6.00001C5.20636 6.77287 4.59332 7.68818 4.17201 8.69501C3.71653 9.73694 3.48487 10.8629 3.49201 12C3.49201 13.172 3.71901 14.273 4.17201 15.305C4.59688 16.3167 5.20932 17.2389 5.97701 18.023C6.76104 18.7907 7.68326 19.4032 8.69501 19.828C9.73694 20.2835 10.8629 20.5151 12 20.508Z" />
<path d="M12.6904 5.71595C12.7309 5.80512 12.7512 5.90211 12.7499 6.00003V11.578C12.7501 11.6107 12.758 11.6429 12.7729 11.672C12.7899 11.703 12.8049 11.734 12.8199 11.766L15.5399 14.46C15.6765 14.6065 15.7517 14.7998 15.7499 15C15.7517 15.2003 15.6765 15.3936 15.5399 15.54C15.3829 15.68 15.2029 15.75 14.9999 15.75C14.7969 15.75 14.6169 15.68 14.4609 15.54L11.7659 12.82C11.5939 12.664 11.4609 12.477 11.3669 12.258C11.2899 12.039 11.2499 11.813 11.2499 11.578V6.00003C11.2478 5.90423 11.2654 5.80902 11.3015 5.72027C11.3376 5.63152 11.3915 5.55112 11.4599 5.48403C11.5292 5.41021 11.6128 5.35136 11.7057 5.31112C11.7986 5.27087 11.8987 5.25008 11.9999 5.25003C12.0978 5.24883 12.1948 5.26917 12.284 5.30961C12.3731 5.35005 12.4523 5.40959 12.5159 5.48403C12.5904 5.54759 12.65 5.62677 12.6904 5.71595Z" />
</svg>
