<svg  viewBox="0 0 24 24" fill="white" xmlns="http://www.w3.org/2000/svg">
<path d="M16.992 4.5C17.695 4.5 18.289 4.742 18.773 5.227C19.258 5.711 19.5 6.305 19.5 7.007V16.992C19.5 17.695 19.258 18.289 18.773 18.773C18.289 19.258 17.695 19.5 16.993 19.5H7.007C6.304 19.5 5.71 19.258 5.226 18.773C4.741 18.289 4.499 17.695 4.499 16.993V7.007C4.499 6.304 4.741 5.71 5.226 5.226C5.71 4.741 6.304 4.499 7.006 4.499H16.991L16.992 4.5ZM7.008 3C5.898 3 4.953 3.39 4.172 4.172C3.39 4.953 3 5.898 3 7.008V16.992C3 18.102 3.39 19.047 4.172 19.828C4.953 20.61 5.898 21 7.008 21H16.992C18.102 21 19.047 20.61 19.828 19.828C20.609 19.047 21 18.102 21 16.992V7.008C21 5.898 20.61 4.953 19.828 4.172C19.047 3.39 18.102 3 16.992 3H7.008Z" />
</svg>
