<svg  viewBox="0 0 24 24" fill="white" xmlns="http://www.w3.org/2000/svg">
<path fill-rule="evenodd" clip-rule="evenodd" d="M11.75 12C14.5114 12 16.75 9.76142 16.75 7C16.75 4.23858 14.5114 2 11.75 2C8.98858 2 6.75 4.23858 6.75 7C6.75 9.76142 8.98858 12 11.75 12ZM11.75 10.5C13.683 10.5 15.25 8.933 15.25 7C15.25 5.067 13.683 3.5 11.75 3.5C9.817 3.5 8.25 5.067 8.25 7C8.25 8.933 9.817 10.5 11.75 10.5Z" />
<path d="M5.28568 6.57546C5.57559 6.27961 5.57077 5.80476 5.27492 5.51486C4.97908 5.22495 4.50423 5.22976 4.21432 5.52561C3.46392 6.29139 3 7.34228 3 8.50003C3 10.5265 4.41754 12.2201 6.31442 12.6466C6.71854 12.7374 7.11981 12.4835 7.21067 12.0793C7.30153 11.6752 7.04758 11.2739 6.64345 11.1831C5.41628 10.9072 4.5 9.80971 4.5 8.50003C4.5 7.75047 4.79889 7.07223 5.28568 6.57546Z" />
<path d="M18.7251 5.51486C18.4292 5.80476 18.4244 6.27961 18.7143 6.57546C19.2011 7.07223 19.5 7.75047 19.5 8.50003C19.5 9.80971 18.5837 10.9072 17.3565 11.1831C16.9524 11.2739 16.6985 11.6752 16.7893 12.0793C16.8802 12.4835 17.2815 12.7374 17.6856 12.6466C19.5825 12.2201 21 10.5265 21 8.50003C21 7.34228 20.5361 6.29139 19.7857 5.52561C19.4958 5.22976 19.0209 5.22495 18.7251 5.51486Z" />
<path d="M7.38125 17.325C6.69215 18.2438 6.5 19.5297 6.5 21C6.5 21.4142 6.16421 21.75 5.75 21.75C5.33579 21.75 5 21.4142 5 21C5 19.4703 5.18285 17.7562 6.18126 16.425C7.21493 15.0468 8.98307 14.25 11.75 14.25C14.517 14.25 16.2851 15.0468 17.3188 16.425C18.3172 17.7562 18.5 19.4703 18.5 21C18.5 21.4142 18.1642 21.75 17.75 21.75C17.3358 21.75 17 21.4142 17 21C17 19.5297 16.8079 18.2438 16.1188 17.325C15.465 16.4532 14.2331 15.75 11.75 15.75C9.26697 15.75 8.03509 16.4532 7.38125 17.325Z" />
<path d="M20.4328 14.1848C20.1132 14.4483 20.0677 14.921 20.3311 15.2406C21.2573 16.3641 21.5 18.0664 21.5 20C21.5 20.4142 21.8358 20.75 22.25 20.75C22.6642 20.75 23 20.4142 23 20C23 18.0415 22.779 15.8518 21.4886 14.2864C21.2251 13.9668 20.7524 13.9213 20.4328 14.1848Z" />
<path d="M3.66887 15.2406C3.93235 14.921 3.88684 14.4483 3.56723 14.1848C3.24762 13.9213 2.77493 13.9668 2.51145 14.2864C1.22101 15.8518 1 18.0415 1 20C1 20.4142 1.33579 20.75 1.75 20.75C2.16421 20.75 2.5 20.4142 2.5 20C2.5 18.0664 2.74271 16.3641 3.66887 15.2406Z" />
</svg>
