<svg  viewBox="0 0 24 24" fill="white" xmlns="http://www.w3.org/2000/svg">
<path fill-rule="evenodd" clip-rule="evenodd" d="M12 23C18.0751 23 23 18.0751 23 12C23 5.92487 18.0751 1 12 1C5.92487 1 1 5.92487 1 12C1 18.0751 5.92487 23 12 23ZM2.52917 11.25C2.67825 9.34116 3.39151 7.59074 4.50233 6.16534C4.83351 6.34578 5.47172 6.63832 6.50408 6.90282C6.12528 8.1663 5.83008 9.63388 5.75856 11.25H2.52917ZM2.52917 12.75C2.67702 14.6431 3.37976 16.3803 4.47487 17.7992C4.83195 17.6121 5.48005 17.3287 6.49747 17.0751C6.12185 15.8166 5.82967 14.3567 5.75856 12.75H2.52917ZM7.2411 12.75C7.26795 14.3073 7.47217 15.6612 7.76257 16.8154C8.70506 16.6591 9.85754 16.5427 11.25 16.5145V12.75H7.2411ZM12.75 12.75V16.5189C14.1328 16.555 15.2853 16.6781 16.2318 16.8392C16.5254 15.6798 16.7322 14.318 16.7593 12.75H12.75ZM16.732 11.25H12.75V7.48326C14.0791 7.45253 15.198 7.34162 16.1279 7.19315C16.4243 8.34546 16.6522 9.69659 16.732 11.25ZM18.2418 11.25C18.1706 9.64098 17.8777 8.1792 17.5013 6.91948C18.4946 6.67776 19.1573 6.40991 19.5433 6.22442C20.628 7.63898 21.3238 9.36745 21.4708 11.25H18.2418ZM18.2418 12.75H21.4708C21.3227 14.6472 20.6172 16.3879 19.5179 17.8086C19.1544 17.628 18.4998 17.3527 17.4949 17.1018C17.8744 15.8373 18.1702 14.3681 18.2418 12.75ZM11.25 11.25H7.26834C7.34827 9.694 7.57679 8.34096 7.87392 7.1874C8.79187 7.33873 9.90806 7.45209 11.25 7.48325V11.25ZM5.33826 18.7728C5.73464 18.6209 6.25219 18.468 6.92367 18.3388C7.26699 19.2501 7.63363 20.0121 7.94708 20.5946C6.97591 20.1358 6.095 19.5172 5.33826 18.7728ZM8.16333 18.1528C8.66774 19.5924 9.27446 20.6113 9.70184 21.2201C10.2033 21.3447 10.7206 21.4295 11.25 21.4708V18.0009C10.0284 17.9981 9.01037 18.057 8.16333 18.1528ZM9.74928 2.7682C9.35043 3.37596 8.77484 4.39928 8.27526 5.84912C9.09686 5.94128 10.0786 5.99866 11.25 5.99905V2.52917C10.7373 2.56922 10.2359 2.64997 9.74928 2.7682ZM6.93015 5.64397C7.2716 4.74029 7.63559 3.9842 7.94707 3.40545C6.9873 3.85884 6.11569 4.46827 5.36497 5.20099C5.75279 5.35475 6.26315 5.51098 6.93015 5.64397ZM12.75 18.0317V21.4708C13.2796 21.4295 13.797 21.3447 14.2986 21.22C14.714 20.6282 15.2988 19.6491 15.7944 18.2729C14.9538 18.163 13.9488 18.0764 12.75 18.0317ZM17.0267 18.4701C16.6981 19.3234 16.3517 20.0401 16.0534 20.5943C16.9854 20.154 17.8342 19.5665 18.5699 18.8619C18.1744 18.7303 17.6686 18.5943 17.0267 18.4701ZM12.75 5.97152C13.8973 5.93116 14.8693 5.85259 15.6912 5.75181C15.1997 4.35348 14.641 3.36239 14.2512 2.76831C13.7644 2.65002 13.2629 2.56923 12.75 2.52917V5.97152ZM17.033 5.54631C17.6786 5.42487 18.1905 5.29109 18.5936 5.16077C17.8524 4.44607 16.9954 3.85073 16.0534 3.40568C16.3536 3.96343 16.7025 4.68584 17.033 5.54631Z" />
</svg>
