<svg  viewBox="0 0 24 24" fill="white" xmlns="http://www.w3.org/2000/svg">
<path d="M12 3.25C12 2.83579 11.6642 2.5 11.25 2.5H5C3.34315 2.5 2 3.84315 2 5.5V18.5C2 20.1569 3.34315 21.5 5 21.5H19C20.6569 21.5 22 20.1569 22 18.5V13.25C22 12.8358 21.6642 12.5 21.25 12.5C20.8358 12.5 20.5 12.8358 20.5 13.25V18C20.5 19.1046 19.6046 20 18.5 20H5.5C4.39543 20 3.5 19.1046 3.5 18V6C3.5 4.89543 4.39543 4 5.5 4H11.25C11.6642 4 12 3.66422 12 3.25Z" />
<path d="M5.10608 8.47873C5.10608 8.06451 5.44187 7.72873 5.85608 7.72873H10.8479C11.2621 7.72873 11.5979 8.06451 11.5979 8.47873C11.5979 8.89294 11.2621 9.22873 10.8479 9.22873H5.85608C5.44187 9.22873 5.10608 8.89294 5.10608 8.47873Z" />
<path d="M5.85608 11.75C5.44187 11.75 5.10608 12.0858 5.10608 12.5C5.10608 12.9142 5.44187 13.25 5.85608 13.25H14.1051C14.5193 13.25 14.8551 12.9142 14.8551 12.5C14.8551 12.0858 14.5193 11.75 14.1051 11.75H5.85608Z" />
<path d="M5.10608 16.5213C5.10608 16.1071 5.44187 15.7713 5.85608 15.7713H18.1439C18.5581 15.7713 18.8939 16.1071 18.8939 16.5213C18.8939 16.9355 18.5581 17.2713 18.1439 17.2713H5.85608C5.44187 17.2713 5.10608 16.9355 5.10608 16.5213Z" />
<path d="M17.243 2.70265L20.5334 2.70266L20.5449 2.70265C20.9591 2.70261 21.2949 3.03838 21.2949 3.45265L21.2949 3.46411L21.2949 6.75453C21.2949 7.16879 20.9591 7.50458 20.5449 7.50453C20.1307 7.50456 19.7949 7.16879 19.7949 6.75452V5.26331L16.3853 8.67288C16.0924 8.96577 15.6175 8.96575 15.3246 8.67288C15.0318 8.38 15.0317 7.90511 15.3246 7.61222L18.7342 4.20265H17.243C16.8287 4.2026 16.4929 3.86683 16.493 3.45265C16.4929 3.03838 16.8287 2.70259 17.243 2.70265Z" />
</svg>
