<svg  viewBox="0 0 24 24" fill="white" xmlns="http://www.w3.org/2000/svg">
<path d="M1.008 7.008C1.008 5.898 1.398 4.953 2.18 4.172C2.96 3.39 3.898 3 4.992 3H19.008C20.102 3 21.039 3.39 21.82 4.172C22.602 4.953 22.992 5.898 22.992 7.008V16.992C22.992 18.102 22.602 19.047 21.82 19.828C21.04 20.609 20.102 21 19.008 21H4.992C3.898 21 2.961 20.61 2.18 19.828C1.398 19.047 1.008 18.102 1.008 16.992V7.008ZM4.992 4.5C4.539 4.5 4.117 4.617 3.727 4.852C3.35709 5.0654 3.04981 5.37233 2.836 5.742L10.266 12.188C10.484 12.391 10.742 12.547 11.039 12.656C11.352 12.75 11.672 12.796 12 12.796C12.328 12.796 12.64 12.75 12.938 12.656C13.25 12.546 13.516 12.391 13.734 12.187L21.164 5.742C20.9458 5.36787 20.6298 5.06021 20.25 4.852C19.8782 4.61835 19.4471 4.49619 19.008 4.5H4.992ZM2.508 7.43V16.992C2.508 17.211 2.531 17.414 2.578 17.602C2.625 17.789 2.695 17.969 2.789 18.141L8.203 12.492C8.21867 12.4763 8.23433 12.4607 8.25 12.445L2.508 7.43ZM3.844 19.219C4.016 19.312 4.195 19.383 4.383 19.429C4.58297 19.4758 4.78762 19.4996 4.993 19.5H19.008C19.211 19.5 19.406 19.477 19.594 19.43C19.797 19.383 19.984 19.313 20.156 19.219L14.719 13.523C14.6934 13.5113 14.6698 13.4958 14.649 13.477C14.649 13.445 14.641 13.422 14.625 13.407C14.25 13.703 13.835 13.93 13.383 14.086C12.4825 14.3674 11.5175 14.3674 10.617 14.086C10.1674 13.9316 9.74734 13.7016 9.375 13.406C9.35581 13.4268 9.33996 13.4504 9.328 13.476C9.328 13.492 9.31299 13.508 9.281 13.523L3.844 19.22V19.219ZM21.21 18.14C21.3028 17.9697 21.3734 17.7882 21.42 17.6C21.468 17.413 21.491 17.21 21.491 16.991V7.43L15.749 12.445V12.469C15.765 12.469 15.78 12.477 15.796 12.492L21.21 18.141V18.14Z" />
</svg>
