<svg  viewBox="0 0 24 24" fill="white" xmlns="http://www.w3.org/2000/svg">
<path d="M3.76595 7.0079H5.26595C5.81295 7.0079 6.28095 7.2029 6.67195 7.5939C7.06195 7.9839 7.25795 8.4539 7.25795 8.9999V19.9919C7.25795 20.5549 7.06295 21.0319 6.67195 21.4219C6.28195 21.8119 5.81195 22.0079 5.26595 22.0079H3.76595C3.20295 22.0079 2.72595 21.8129 2.33595 21.4219C2.14574 21.2362 1.99561 21.0136 1.89483 20.7676C1.79404 20.5217 1.74473 20.2577 1.74995 19.9919V8.9999C1.74995 8.4529 1.94595 7.9839 2.33595 7.5939C2.72595 7.2039 3.20295 7.0079 3.76595 7.0079ZM5.26595 8.5079H3.76595C3.62797 8.50678 3.49443 8.55663 3.39095 8.6479C3.34481 8.6939 3.30858 8.74887 3.28451 8.80941C3.26043 8.86995 3.24901 8.93478 3.25095 8.9999V19.9919C3.25095 20.1319 3.29695 20.2579 3.39095 20.3669C3.49443 20.4582 3.62797 20.508 3.76595 20.5069H5.26595C5.40595 20.5069 5.52395 20.4609 5.61695 20.3669C5.70858 20.2636 5.7588 20.13 5.75795 19.9919V8.9999C5.76003 8.93473 5.74873 8.86982 5.72474 8.80919C5.70075 8.74855 5.66459 8.69348 5.61848 8.64737C5.57237 8.60126 5.5173 8.5651 5.45667 8.54111C5.39603 8.51712 5.33112 8.50582 5.26595 8.5079Z" />
<path d="M11.2504 1.99191H12.7504C13.2974 1.99191 13.7664 2.18791 14.1564 2.57791C14.5464 2.96791 14.7424 3.44491 14.7424 4.00791V19.9919C14.7424 20.5549 14.5474 21.0319 14.1564 21.4219C13.7664 21.8119 13.2964 22.0079 12.7504 22.0079H11.2504C10.9884 22.0114 10.7285 21.9613 10.4867 21.8605C10.2449 21.7597 10.0263 21.6104 9.84437 21.4219C9.65417 21.2362 9.50404 21.0136 9.40325 20.7676C9.30246 20.5217 9.25315 20.2577 9.25837 19.9919V4.00791C9.25837 3.44491 9.45337 2.96791 9.84437 2.57791C10.2344 2.18791 10.7044 1.99191 11.2504 1.99191ZM12.7504 3.49191H11.2504C11.1831 3.4908 11.1165 3.50498 11.0555 3.53339C10.9945 3.5618 10.9408 3.6037 10.8984 3.65591C10.8522 3.70191 10.816 3.75688 10.7919 3.81742C10.7679 3.87796 10.7564 3.94279 10.7584 4.00791V19.9919C10.7584 20.1319 10.8054 20.2579 10.8984 20.3669C10.9924 20.4609 11.1094 20.5069 11.2504 20.5069H12.7504C12.8904 20.5069 13.0084 20.4609 13.1024 20.3669C13.1936 20.2634 13.2435 20.1299 13.2424 19.9919V4.00791C13.2443 3.94279 13.2329 3.87796 13.2088 3.81742C13.1847 3.75688 13.1485 3.70191 13.1024 3.65591C13.06 3.6037 13.0062 3.5618 12.9453 3.53339C12.8843 3.50498 12.8176 3.4908 12.7504 3.49191Z" />
<path d="M16.7424 13.9919V19.9919C16.7424 20.5549 16.9374 21.0319 17.3284 21.4219C17.7184 21.8119 18.1884 22.0079 18.7344 22.0079H20.2344C20.7974 22.0079 21.2744 21.8129 21.6644 21.4219C22.0544 21.0319 22.2504 20.5549 22.2504 19.9919V13.9919C22.2504 13.4449 22.0554 12.9769 21.6644 12.5859C21.4787 12.3957 21.256 12.2456 21.0101 12.1448C20.7641 12.044 20.5001 11.9947 20.2344 11.9999H18.7344C18.1874 11.9999 17.7194 12.1949 17.3284 12.5859C16.9384 12.9759 16.7424 13.4459 16.7424 13.9919ZM18.7344 13.4999H20.2344C20.3744 13.4999 20.4924 13.5469 20.5864 13.6399C20.6964 13.7339 20.7504 13.8519 20.7504 13.9919V19.9919C20.7504 20.1319 20.6954 20.2579 20.5864 20.3669C20.5404 20.4131 20.4854 20.4493 20.4249 20.4734C20.3643 20.4974 20.2995 20.5089 20.2344 20.5069H18.7344C18.6694 20.5087 18.6048 20.4972 18.5444 20.4732C18.4841 20.4491 18.4293 20.4129 18.3834 20.3669C18.2917 20.2636 18.2415 20.13 18.2424 19.9919V13.9919C18.2403 13.9267 18.2516 13.8618 18.2756 13.8012C18.2996 13.7406 18.3357 13.6855 18.3818 13.6394C18.4279 13.5933 18.483 13.5571 18.5437 13.5331C18.6043 13.5091 18.6692 13.4978 18.7344 13.4999Z" />
</svg>
