<svg  viewBox="0 0 24 24" fill="white" xmlns="http://www.w3.org/2000/svg">
<path fill-rule="evenodd" clip-rule="evenodd" d="M12.0313 5.26032C12.3282 5.23078 12.6164 5.09549 12.8342 4.85444L14.6658 2.82688C14.9976 2.4596 15.4695 2.25 15.9644 2.25H17.246C17.985 2.25 18.6983 2.5341 19.2279 3.04706L21.917 5.65167C22.9669 6.66857 23.0337 8.30817 22.0646 9.40323L20.799 10.8333C20.1976 11.5128 19.14 11.5501 18.49 10.9206C18.4705 10.9017 18.4554 10.8966 18.4427 10.8944C18.426 10.8916 18.4035 10.8932 18.3803 10.9025C18.357 10.9118 18.3448 10.9242 18.3404 10.9301C18.3388 10.9324 18.3351 10.9373 18.3351 10.9543C18.3351 10.9852 18.3332 11.0161 18.3294 11.0468L17.3346 19.0501C17.3072 20.5673 16.0354 21.75 14.5202 21.75H9.80925C8.2941 21.75 7.02239 20.5674 6.9948 19.0504L6.00014 11.093C5.99628 11.0622 5.99435 11.0311 5.99435 11C5.99435 10.9777 5.98921 10.9701 5.98551 10.965C5.979 10.956 5.96375 10.9414 5.93709 10.9307C5.9105 10.92 5.88415 10.918 5.8638 10.9214C5.84736 10.9242 5.8286 10.9311 5.80604 10.9529C5.18118 11.5582 4.17771 11.5582 3.55285 10.9529L2.08304 9.52933C0.930086 8.41261 0.981399 6.57868 2.19078 5.52445L5.14633 2.94806C5.66418 2.49664 6.33201 2.25 7.0205 2.25H7.84881C8.34377 2.25 8.81558 2.4596 9.14738 2.82688L10.9791 4.85445C11.1968 5.0955 11.4851 5.23079 11.7819 5.26032C11.8225 5.25353 11.8642 5.25 11.9066 5.25C11.9491 5.25 11.9908 5.25353 12.0313 5.26032ZM6.13198 4.07876C6.37245 3.86914 6.68875 3.75 7.0205 3.75H7.84881C7.91952 3.75 7.98692 3.77994 8.03432 3.83241L9.86601 5.85998C10.2274 6.26006 10.6771 6.52772 11.1566 6.66294V10C11.1566 10.4142 11.4924 10.75 11.9066 10.75C12.3208 10.75 12.6566 10.4142 12.6566 10V6.66294C13.1361 6.52771 13.5858 6.26005 13.9472 5.85997L15.7789 3.83241C15.8263 3.77994 15.8937 3.75 15.9644 3.75H17.246C17.6023 3.75 17.9394 3.88733 18.1843 4.12451L20.8734 6.72912C21.3495 7.19017 21.3766 7.91725 20.9413 8.40915L19.6757 9.83926C19.6619 9.85481 19.6393 9.8677 19.607 9.8689C19.5746 9.8701 19.5499 9.8589 19.5336 9.84315C18.5787 8.91821 16.8778 9.50681 16.8359 10.9015L15.8408 18.9075C15.837 18.9382 15.8351 18.9691 15.8351 19C15.8351 19.668 15.2691 20.25 14.5202 20.25H9.80925C9.06029 20.25 8.49435 19.668 8.49435 19C8.49435 18.9689 8.49241 18.9378 8.48855 18.907L7.49356 10.947C7.45144 9.53557 5.72966 8.93867 4.76244 9.87548C4.74333 9.89399 4.715 9.90685 4.67944 9.90685C4.64389 9.90685 4.61555 9.89399 4.59644 9.87548L3.12664 8.45187C2.60651 7.94809 2.62709 7.13401 3.17643 6.65515L6.13198 4.07876Z" />
</svg>
