<svg  viewBox="0 0 24 24" fill="white" xmlns="http://www.w3.org/2000/svg">
<path d="M10.055 3.18799C9.415 2.71799 8.773 2.39099 8.133 2.20299C7.50975 2.01847 6.85541 1.96301 6.21 2.03999C5.58772 2.10671 4.98355 2.28989 4.429 2.57999C3.81082 2.91084 3.24915 3.33784 2.765 3.84499C1.97501 4.62924 1.42248 5.6206 1.171 6.70499C0.920997 7.79799 0.943997 8.84499 1.241 9.84499C1.476 10.876 1.929 11.931 2.601 13.009C3.30317 14.1122 4.08633 15.1618 4.944 16.149C5.8533 17.1679 6.81563 18.1383 7.827 19.056C8.76887 19.9148 9.73803 20.7433 10.733 21.54C11.108 21.853 11.53 22.009 11.999 22.009C12.468 22.009 12.889 21.853 13.265 21.54C14.2599 20.7432 15.2291 19.9148 16.171 19.056C17.1788 18.1421 18.1337 17.1715 19.031 16.149C19.9007 15.1659 20.6918 14.116 21.397 13.009C22.069 11.931 22.522 10.876 22.757 9.84499C23.054 8.84499 23.069 7.79799 22.804 6.70499C22.5677 5.62008 22.0224 4.62677 21.234 3.84499C20.7496 3.33738 20.1876 2.91005 19.569 2.57899C19.0071 2.28699 18.395 2.1041 17.765 2.03999C17.1274 1.96409 16.4811 2.01991 15.866 2.20399C15.226 2.39199 14.585 2.71999 13.944 3.18899L12.702 4.24299C12.5072 4.41139 12.2575 4.50278 12 4.49999C11.734 4.49999 11.5 4.41399 11.297 4.24199L10.055 3.18799Z" />
</svg>
