<svg width="23" height="23" viewBox="0 0 23 23" fill="white" xmlns="http://www.w3.org/2000/svg">
<path fill-rule="evenodd" clip-rule="evenodd" d="M14.4492 6.97266C16.078 6.97266 17.3984 5.65298 17.3984 4.02509C17.3984 2.39719 16.078 1.07751 14.4492 1.07751C12.8204 1.07751 11.5 2.39719 11.5 4.02509C11.5 5.65298 12.8204 6.97266 14.4492 6.97266ZM14.449 5.47431C15.2498 5.47431 15.899 4.82548 15.899 4.02512C15.899 3.22475 15.2498 2.57593 14.449 2.57593C13.6482 2.57593 12.999 3.22475 12.999 4.02512C12.999 4.82548 13.6482 5.47431 14.449 5.47431Z" />
<path fill-rule="evenodd" clip-rule="evenodd" d="M4.04054 7.81921C3.6299 7.81921 3.29634 8.14922 3.29061 8.5585C3.28019 8.73964 3.33509 8.92506 3.4591 9.07651L8.86134 15.6743V20.5067C8.86134 20.9209 9.19712 21.2567 9.61134 21.2567H12.5166C12.9308 21.2567 13.2666 20.9209 13.2666 20.5067V15.7858L18.7602 9.07651C19.0226 8.75603 18.9755 8.28349 18.655 8.02108C18.5549 7.9391 18.4399 7.88732 18.3212 7.86465C18.2408 7.83526 18.154 7.81921 18.0635 7.81921H11.7952C11.6434 6.33362 10.3878 5.17456 8.86134 5.17456C7.33486 5.17456 6.07925 6.33362 5.9275 7.81921H4.04054ZM7.44287 7.81921H10.2794C10.14 7.16428 9.558 6.67297 8.86114 6.67297C8.16429 6.67297 7.58225 7.16428 7.44287 7.81921ZM11.7666 19.7567V15.5315C11.7666 15.3483 11.8323 15.1805 11.9413 15.0503C11.9605 15.0179 11.9823 14.9866 12.0069 14.9566L16.6228 9.31921H5.5965L10.2124 14.9566C10.3669 15.1453 10.4141 15.3868 10.3613 15.607V19.7567H11.7666Z" />
</svg>
