<svg  viewBox="0 0 24 24" fill="white" xmlns="http://www.w3.org/2000/svg">
<path d="M11.25 2.742C11.25 2.539 11.32 2.367 11.46 2.227C11.5291 2.15301 11.6128 2.09397 11.7056 2.05355C11.7985 2.01314 11.8987 1.99219 12 1.992C12.203 1.992 12.375 2.07 12.516 2.227C12.672 2.367 12.75 2.539 12.75 2.742V14.227L15 11.977C15.0691 11.903 15.1527 11.8439 15.2456 11.8035C15.3385 11.7631 15.4387 11.7421 15.54 11.742C15.742 11.742 15.914 11.82 16.055 11.977C16.211 12.117 16.289 12.297 16.289 12.516C16.29 12.6137 16.2696 12.7105 16.2292 12.7995C16.1888 12.8885 16.1293 12.9675 16.055 13.031L12.539 16.571C12.3928 16.7073 12.1999 16.7825 12 16.781C11.7997 16.7827 11.6065 16.7076 11.46 16.571L7.94498 13.031C7.87062 12.9676 7.81112 12.8885 7.77068 12.7995C7.73025 12.7105 7.70986 12.6137 7.71098 12.516C7.71098 12.296 7.78898 12.117 7.94498 11.976C8.00854 11.9015 8.08772 11.8419 8.1769 11.8015C8.26608 11.7611 8.36307 11.7407 8.46098 11.742C8.56211 11.7423 8.66212 11.7633 8.75482 11.8037C8.84753 11.8441 8.93096 11.9031 8.99998 11.977L11.25 14.227V2.742Z" />
<path d="M3.34825 13.4415C3.38456 13.5266 3.4016 13.6186 3.39815 13.711V17.507C3.39218 17.9096 3.46578 18.3095 3.61474 18.6836C3.76369 19.0577 3.98506 19.3987 4.26615 19.687C4.54569 19.9748 4.8812 20.2022 5.25201 20.3552C5.62282 20.5083 6.02105 20.5838 6.42215 20.577H17.5781C18.4211 20.577 19.1332 20.28 19.7111 19.687C20.3051 19.077 20.6021 18.351 20.6021 17.507V13.71C20.5987 13.6174 20.6158 13.5251 20.6523 13.4398C20.6888 13.3546 20.7437 13.2785 20.8131 13.217C20.8765 13.1503 20.9528 13.0972 21.0374 13.0611C21.122 13.025 21.2132 13.0066 21.3051 13.007C21.3972 13.0067 21.4884 13.0253 21.573 13.0616C21.6576 13.0979 21.7339 13.1511 21.7971 13.218C21.8665 13.2794 21.9213 13.3553 21.9578 13.4404C21.9943 13.5254 22.0115 13.6175 22.0081 13.71V17.508C22.0081 18.742 21.5701 19.805 20.6951 20.695C19.8361 21.57 18.7971 22.008 17.5781 22.008H6.42115C5.20315 22.008 4.15615 21.57 3.28115 20.695C2.42215 19.805 1.99315 18.742 1.99315 17.508V13.711C1.98955 13.6184 2.00652 13.5262 2.04283 13.441C2.07914 13.3557 2.13389 13.2796 2.20315 13.218C2.26648 13.1513 2.34281 13.0982 2.42742 13.0621C2.51204 13.026 2.60315 13.0076 2.69515 13.008C2.78739 13.0076 2.87874 13.0261 2.96354 13.0624C3.04834 13.0987 3.12479 13.152 3.18815 13.219C3.25727 13.2805 3.31195 13.3564 3.34825 13.4415Z" />
</svg>
