<svg  viewBox="0 0 24 24" fill="white"  xmlns="http://www.w3.org/2000/svg">
<path d="M18.3746 3.11685H6.37462C5.68662 3.11685 5.09362 3.36685 4.59362 3.86685C4.35874 4.09465 4.17304 4.36817 4.048 4.67054C3.92296 4.9729 3.86123 5.29769 3.86662 5.62485V12.8669C3.86662 13.2811 3.53084 13.6169 3.11662 13.6169C2.70241 13.6169 2.36662 13.2811 2.36662 12.8669V5.62485C2.36662 4.51485 2.75662 3.56985 3.53862 2.78885C4.31962 2.00785 5.26562 1.61685 6.37462 1.61685H18.3746C19.4846 1.61685 20.4296 2.00685 21.2106 2.78885C21.9916 3.56985 22.3826 4.51585 22.3826 5.62485V17.6249C22.3826 18.7349 21.9926 19.6799 21.2106 20.4609C20.4296 21.2419 19.4836 21.6329 18.3746 21.6329H11.1326C10.7184 21.6329 10.3826 21.2971 10.3826 20.8829C10.3826 20.4686 10.7184 20.1329 11.1326 20.1329H18.3746C19.0626 20.1329 19.6476 19.8909 20.1326 19.4059C20.6326 18.9059 20.8826 18.3129 20.8826 17.6249V16.1949L20.8586 16.1719L20.8356 16.1479L17.2496 12.5629C17.1368 12.4481 17.0017 12.3576 16.8526 12.2971C16.7035 12.2365 16.5435 12.2072 16.3826 12.2109C16.0386 12.2109 15.7426 12.3279 15.4926 12.5619L14.9996 13.0549L16.9216 15.1169C17.0616 15.2729 17.1246 15.4529 17.1086 15.6569C17.1097 15.7546 17.0893 15.8514 17.0488 15.9403C17.0084 16.0293 16.9489 16.1084 16.8746 16.1719C16.8037 16.2419 16.7192 16.2966 16.6263 16.3327C16.5335 16.3688 16.4342 16.3856 16.3346 16.3819C16.2361 16.375 16.1399 16.3488 16.0515 16.3047C15.9631 16.2606 15.8843 16.1995 15.8196 16.1249L10.8276 10.7579C10.7088 10.6285 10.5638 10.526 10.4022 10.4572C10.2406 10.3884 10.0662 10.3549 9.89062 10.3589C9.53062 10.3589 9.22662 10.4999 8.97662 10.7809L6.93662 13.1249C6.87202 13.1997 6.79326 13.261 6.70488 13.3053C6.6165 13.3495 6.52023 13.3759 6.42162 13.3829C6.22516 13.3853 6.03406 13.3188 5.88162 13.1949C5.80698 13.1302 5.74586 13.0514 5.70175 12.963C5.65765 12.8746 5.63144 12.7784 5.62462 12.6799C5.616 12.5817 5.62829 12.4828 5.6607 12.3897C5.69311 12.2966 5.74489 12.2115 5.81262 12.1399L7.85162 9.79685C8.09865 9.50289 8.40706 9.26658 8.75517 9.10453C9.10327 8.94248 9.48265 8.85863 9.86662 8.85885C10.6946 8.84385 11.3826 9.14085 11.9296 9.74985L13.9916 11.9529L14.4366 11.5079C14.6856 11.2508 14.9846 11.0475 15.3151 10.9104C15.6457 10.7733 16.0008 10.7054 16.3586 10.7109C17.1246 10.7109 17.7806 10.9769 18.3286 11.5079L20.8826 14.0629V5.62485C20.8826 4.93685 20.6326 4.35185 20.1326 3.86685C19.6476 3.36685 19.0626 3.11685 18.3746 3.11685Z" />
<path d="M5.65835 14.932C5.56548 14.8959 5.4662 14.8792 5.36662 14.8829C5.16637 14.8811 4.97409 14.9563 4.82762 15.0929C4.75762 15.1638 4.70287 15.2483 4.66675 15.3411C4.63064 15.434 4.61392 15.5333 4.61762 15.6329V17.8829H2.36762C2.16724 17.8814 1.97394 17.9569 1.82762 18.0939C1.75787 18.1645 1.70326 18.2487 1.66716 18.3412C1.63105 18.4337 1.61419 18.5326 1.61762 18.6319C1.6159 18.8321 1.69106 19.0254 1.82762 19.1719C1.97394 19.3088 2.16724 19.3843 2.36762 19.3829H4.61762V21.6329C4.61564 21.7285 4.63325 21.8235 4.66936 21.9121C4.70548 22.0006 4.75934 22.0809 4.82762 22.1479C4.89664 22.2218 4.98008 22.2808 5.07278 22.3212C5.16548 22.3616 5.26549 22.3826 5.36662 22.3829C5.46837 22.3857 5.5695 22.3662 5.66283 22.3256C5.75616 22.285 5.8394 22.2243 5.90662 22.1479C6.04662 22.0079 6.11662 21.8359 6.11662 21.6319V19.3819H8.36662C8.4662 19.3856 8.56548 19.3688 8.65835 19.3327C8.75122 19.2966 8.83571 19.2419 8.90662 19.1719C9.04662 19.0159 9.11662 18.8359 9.11662 18.6329C9.11662 18.4139 9.04662 18.2339 8.90662 18.0929C8.83571 18.0229 8.75122 17.9681 8.65835 17.932C8.56548 17.8959 8.4662 17.8792 8.36662 17.8829H6.11662V15.6329C6.11662 15.4139 6.04662 15.2339 5.90662 15.0929C5.83571 15.0228 5.75122 14.9681 5.65835 14.932Z" />
</svg>
