<svg  viewBox="0 0 24 24" fill="white"  xmlns="http://www.w3.org/2000/svg">
<path d="M14.4535 12.7485C13.7846 12.7524 13.1221 12.6168 12.5085 12.3505C11.9181 12.0974 11.3781 11.7401 10.9145 11.2955C10.4578 10.837 10.092 10.2961 9.83649 9.70151C9.58495 9.0841 9.45752 8.42318 9.46149 7.75651C9.46149 7.05351 9.58649 6.40451 9.83649 5.81051C10.1015 5.20151 10.4615 4.67051 10.9145 4.21751C11.3729 3.76043 11.9138 3.39432 12.5085 3.13851C13.1221 2.87183 13.7845 2.73594 14.4535 2.73951C15.1415 2.73951 15.7895 2.87251 16.3985 3.13851C17.0085 3.40351 17.5385 3.76351 17.9925 4.21651C18.4455 4.66951 18.8055 5.20051 19.0705 5.81051C19.3205 6.40351 19.4455 7.05251 19.4455 7.75551C19.4455 8.44251 19.3205 9.09151 19.0705 9.70051C18.815 10.2951 18.4492 10.836 17.9925 11.2945C17.5288 11.739 16.9889 12.0964 16.3985 12.3495C15.7849 12.6162 15.1225 12.752 14.4535 12.7485ZM14.4535 11.2485C15.4225 11.2485 16.2435 10.9125 16.9135 10.2405C17.2461 9.91893 17.5092 9.53261 17.6867 9.10538C17.8642 8.67816 17.9523 8.21909 17.9455 7.75651C17.9455 6.78751 17.6015 5.95951 16.9145 5.27151C16.2425 4.58451 15.4225 4.24151 14.4535 4.24151C13.4845 4.24151 12.6565 4.58451 11.9695 5.27151C11.643 5.59665 11.3855 5.98431 11.2123 6.41129C11.0391 6.83827 10.9538 7.2958 10.9615 7.75651C10.9615 8.72551 11.2975 9.55351 11.9695 10.2405C12.2945 10.5669 12.682 10.8244 13.1088 10.9976C13.5356 11.1707 13.993 11.2561 14.4535 11.2485Z"/>
<path d="M7.44546 19.7565C7.59892 19.1517 7.915 18.6005 8.35945 18.1625C8.81245 17.6935 9.51546 17.3035 10.4695 16.9905C11.4225 16.6625 12.7505 16.4985 14.4535 16.4985C16.1575 16.4985 17.4845 16.6625 18.4375 16.9905C19.3915 17.3025 20.0945 17.6935 20.5475 18.1625C20.9919 18.6005 21.308 19.1517 21.4615 19.7565C21.6175 20.3655 21.6965 21.0295 21.6965 21.7485C21.6947 21.9488 21.7699 22.142 21.9065 22.2885C22.0527 22.4248 22.2456 22.5 22.4455 22.4985C22.545 22.5022 22.6443 22.4855 22.7372 22.4494C22.83 22.4133 22.9145 22.3585 22.9855 22.2885C23.1255 22.1315 23.1955 21.9515 23.1955 21.7485C23.1955 20.9675 23.0945 20.1625 22.8915 19.3345C22.7035 18.5065 22.2735 17.7565 21.6015 17.0845C20.9455 16.4285 20.0395 15.9205 18.8835 15.5615C17.7265 15.1865 16.2505 14.9985 14.4535 14.9985C12.6565 14.9985 11.1805 15.1855 10.0235 15.5615C8.86746 15.9205 7.96145 16.4285 7.30545 17.0845C6.63245 17.7565 6.19546 18.5065 5.99246 19.3345C5.80546 20.1625 5.71145 20.9675 5.71145 21.7485C5.70973 21.9488 5.78489 22.142 5.92145 22.2885C5.99237 22.3585 6.07686 22.4133 6.16973 22.4494C6.2626 22.4855 6.36188 22.5022 6.46145 22.4985C6.55708 22.5005 6.6521 22.4829 6.74067 22.4468C6.82924 22.4107 6.90948 22.3568 6.97645 22.2885C7.05045 22.2193 7.10949 22.1357 7.1499 22.0429C7.19032 21.95 7.21127 21.8498 7.21145 21.7485C7.20566 21.0773 7.28428 20.4081 7.44546 19.7565Z"/>
<path d="M5.24779 1.95534C5.2884 2.04867 5.30796 2.1498 5.30507 2.25154V4.50154H7.55507C7.65077 4.49969 7.74583 4.51745 7.83441 4.55374C7.92298 4.59003 8.00318 4.64407 8.07007 4.71254C8.14623 4.77955 8.20675 4.86247 8.24736 4.95543C8.28796 5.04839 8.30766 5.14913 8.30507 5.25054C8.30495 5.35184 8.28403 5.45204 8.2436 5.54493C8.20318 5.63781 8.14412 5.72141 8.07007 5.79054C7.93007 5.93054 7.75807 6.00054 7.55507 6.00054H5.30507V8.25054C5.30489 8.35183 5.28394 8.45201 5.24352 8.54489C5.2031 8.63777 5.14407 8.72137 5.07007 8.79054C4.93007 8.93054 4.75807 9.00054 4.55507 9.00054C4.33607 9.00054 4.15607 8.93054 4.01507 8.79054C3.87507 8.63454 3.80507 8.45454 3.80507 8.25054V6.00054H1.55507C1.33607 6.00054 1.15607 5.93054 1.01507 5.79054C0.875071 5.63454 0.80507 5.45454 0.80507 5.25154C0.801365 5.15197 0.818087 5.05269 0.854203 4.95982C0.890319 4.86695 0.945066 4.78245 1.01507 4.71154C1.08598 4.64154 1.17048 4.58679 1.26334 4.55067C1.35621 4.51456 1.45549 4.49784 1.55507 4.50154H3.80507V2.25154C3.80137 2.15197 3.81809 2.05269 3.8542 1.95982C3.89032 1.86695 3.94507 1.78245 4.01507 1.71154C4.08598 1.64154 4.17048 1.58679 4.26335 1.55067C4.35622 1.51456 4.45549 1.49784 4.55507 1.50154C4.6507 1.49956 4.74572 1.51717 4.83429 1.55328C4.92286 1.5894 5.0031 1.64326 5.07007 1.71154C5.14649 1.77877 5.20717 1.86201 5.24779 1.95534Z"/>
</svg>
