<svg  viewBox="0 0 24 24" fill="white"  xmlns="http://www.w3.org/2000/svg">
<path d="M22 12C22 17.5228 17.5228 22 12 22C11.7655 22 11.4313 21.9764 11.1353 21.9504C10.7573 21.9173 10.473 21.5978 10.473 21.2184C10.473 20.766 10.8721 20.4182 11.3225 20.46C11.5649 20.4825 11.8134 20.5 12 20.5C16.6944 20.5 20.5 16.6944 20.5 12C20.5 7.30558 16.6944 3.5 12 3.5C7.30558 3.5 3.5 7.30558 3.5 12V12.2069C3.5 12.6211 3.16421 12.9569 2.75 12.9569C2.33579 12.9569 2 12.6211 2 12.2069V12C2 6.47715 6.47715 2 12 2C17.5228 2 22 6.47715 22 12Z" />
<path d="M12 8.75C11.3096 8.75 10.75 9.30964 10.75 10C10.75 10.4142 10.4142 10.75 10 10.75C9.58579 10.75 9.25 10.4142 9.25 10C9.25 8.48122 10.4812 7.25 12 7.25C13.5188 7.25 14.75 8.48122 14.75 10C14.75 11.042 14.1702 11.9475 13.3191 12.4134C13.1279 12.5181 12.9695 12.639 12.8671 12.7584C12.768 12.8739 12.75 12.952 12.75 13V13.5C12.75 13.9142 12.4142 14.25 12 14.25C11.5858 14.25 11.25 13.9142 11.25 13.5V13C11.25 12.4957 11.4692 12.0842 11.7285 11.7819C11.9845 11.4833 12.3056 11.2582 12.5988 11.0977C12.9885 10.8843 13.25 10.4722 13.25 10C13.25 9.30964 12.6904 8.75 12 8.75Z" />
<path d="M12 17C12.5523 17 13 16.5523 13 16C13 15.4477 12.5523 15 12 15C11.4477 15 11 15.4477 11 16C11 16.5523 11.4477 17 12 17Z" />
<path d="M5.36662 14.6918C5.4662 14.6881 5.56548 14.7048 5.65835 14.7409C5.75122 14.7771 5.83571 14.8318 5.90662 14.9018C6.04662 15.0428 6.11662 15.2228 6.11662 15.4418V17.6918H8.36662C8.4662 17.6881 8.56548 17.7048 8.65835 17.7409C8.75122 17.7771 8.83571 17.8318 8.90662 17.9018C9.04662 18.0428 9.11662 18.2228 9.11662 18.4418C9.11662 18.6448 9.04662 18.8248 8.90662 18.9808C8.83571 19.0508 8.75122 19.1056 8.65835 19.1417C8.56548 19.1778 8.4662 19.1945 8.36662 19.1908H6.11662V21.4408C6.11662 21.6448 6.04662 21.8168 5.90662 21.9568C5.8394 22.0332 5.75616 22.0939 5.66283 22.1345C5.5695 22.1751 5.46837 22.1947 5.36662 22.1918C5.26549 22.1916 5.16548 22.1706 5.07278 22.1301C4.98008 22.0897 4.89664 22.0307 4.82762 21.9568C4.75934 21.8898 4.70548 21.8096 4.66936 21.721C4.63325 21.6325 4.61564 21.5374 4.61762 21.4418V19.1918H2.36762C2.16724 19.1933 1.97394 19.1177 1.82762 18.9808C1.69106 18.8343 1.6159 18.6411 1.61762 18.4408C1.61419 18.3416 1.63105 18.2427 1.66716 18.1502C1.70326 18.0577 1.75787 17.9735 1.82762 17.9028C1.97394 17.7659 2.16724 17.6904 2.36762 17.6918H4.61762V15.4418C4.61392 15.3422 4.63064 15.243 4.66675 15.1501C4.70287 15.0572 4.75762 14.9727 4.82762 14.9018C4.97409 14.7653 5.16637 14.6901 5.36662 14.6918Z" />
</svg>
