<svg  viewBox="0 0 24 24" fill="white"  xmlns="http://www.w3.org/2000/svg">
<path d="M22.3088 9.58041L8.85645 1.81368L8.84473 1.83398C7.58663 1.20009 6.04429 1.60978 5.27196 2.7888C5.25273 2.81821 5.2357 2.849 5.21858 2.87996C5.20998 2.8955 5.20134 2.91111 5.19237 2.92665L4.08319 4.84488C3.90106 5.16034 4.13238 5.57805 4.44762 5.76006C5.22654 6.20976 5.49313 7.20602 5.04342 7.98494C4.5942 8.76301 3.59812 9.03026 2.8192 8.58056C2.66211 8.48986 2.46453 8.44683 2.28339 8.46516C2.10113 8.48397 1.93524 8.56524 1.84393 8.72339L0.736316 10.6448C0.727038 10.6608 0.717455 10.6767 0.707872 10.6926C0.688707 10.7244 0.669542 10.7562 0.65282 10.7894C0.0232577 12.0463 0.440518 13.5829 1.61621 14.3541L1.60645 14.3711L1.9173 14.5505C2.27583 14.7575 2.73427 14.6349 2.94154 14.2765C3.14902 13.9177 3.0262 13.4587 2.6673 13.2515L2.24989 13.0105C1.77163 12.7344 1.60798 12.1223 1.88386 11.6445L1.95186 11.5394L2.74873 10.1592L2.77956 10.1048C4.10774 10.5187 5.59254 9.97426 6.31715 8.7192C7.04176 7.46414 6.77104 5.90619 5.74873 4.96301L6.571 3.5388L6.55852 3.5316L6.62102 3.42335C6.8969 2.94551 7.50879 2.7812 7.98705 3.05732L10.3726 4.43464L10.3732 4.42144L21.5588 10.8794L21.754 10.9842C22.2323 11.2604 22.3829 11.8661 22.1071 12.3439L21.2135 13.8916C19.8855 13.4778 18.4009 14.0224 17.6763 15.2774C16.9517 16.5325 17.2224 18.0904 18.2448 19.0336L17.3483 20.5864C17.2286 20.7936 17.0481 20.9408 16.8428 21.0185C16.7233 21.0634 16.5951 21.0852 16.4663 21.0808C16.3058 21.0761 16.1437 21.0321 15.9936 20.9454L13.1361 19.2956C12.7633 19.0804 12.2862 19.2224 12.0919 19.6065C11.9121 19.9618 12.0412 20.3956 12.3861 20.5947L15.0588 22.1378L15.0666 22.1242C16.3368 22.8159 17.9262 22.4164 18.7157 21.218C18.7356 21.1878 18.7536 21.1553 18.7715 21.1228L18.7987 21.0742L19.9093 19.1534C20.0914 18.838 19.8606 18.4194 19.5454 18.2374C18.7665 17.7877 18.4999 16.7915 18.9491 16.0134C19.3988 15.2345 20.3949 14.9672 21.1738 15.4169C21.489 15.5989 21.9664 15.5904 22.1486 15.2749L23.2645 13.3392L23.2884 13.2988L23.3348 13.2174C23.9951 11.9297 23.5505 10.339 22.3088 9.58041Z" />
<path d="M16.3858 10.262L16.1358 10.695C15.9287 11.0537 15.47 11.1766 15.1113 10.9695C14.7526 10.7624 14.6296 10.3037 14.8367 9.94498L15.0867 9.51197C15.2939 9.15325 15.7526 9.03034 16.1113 9.23745C16.47 9.44455 16.5929 9.90325 16.3858 10.262Z" />
<path d="M14.6358 13.2931L14.3858 13.7261C14.1787 14.0848 13.72 14.2077 13.3613 14.0006C13.0026 13.7935 12.8796 13.3348 13.0867 12.9761L13.3367 12.5431C13.5438 12.1843 14.0026 12.0614 14.3613 12.2685C14.72 12.4756 14.8429 12.9343 14.6358 13.2931Z" />
<path d="M12.6358 16.7572L12.8858 16.3241C13.0929 15.9654 12.97 15.5067 12.6113 15.2996C12.2526 15.0925 11.7938 15.2154 11.5867 15.5741L11.3367 16.0072C11.1296 16.3659 11.2526 16.8246 11.6113 17.0317C11.97 17.2388 12.4287 17.1159 12.6358 16.7572Z" />
<path d="M6.27007 14.0492C6.36965 14.0455 6.46893 14.0623 6.5618 14.0984C6.65467 14.1345 6.73916 14.1892 6.81007 14.2592C6.95007 14.4002 7.02007 14.5802 7.02007 14.7992V17.0492H9.27007C9.36965 17.0455 9.46893 17.0623 9.5618 17.0984C9.65467 17.1345 9.73916 17.1892 9.81007 17.2592C9.95007 17.4002 10.0201 17.5802 10.0201 17.7992C10.0201 18.0022 9.95007 18.1822 9.81007 18.3382C9.73916 18.4082 9.65467 18.463 9.5618 18.4991C9.46893 18.5352 9.36965 18.5519 9.27007 18.5482H7.02007V20.7982C7.02007 21.0022 6.95007 21.1742 6.81007 21.3142C6.74285 21.3907 6.65961 21.4513 6.56628 21.492C6.47295 21.5326 6.37182 21.5521 6.27007 21.5492C6.16894 21.549 6.06893 21.528 5.97623 21.4876C5.88352 21.4472 5.80009 21.3882 5.73107 21.3142C5.66279 21.2473 5.60893 21.167 5.57281 21.0785C5.5367 20.9899 5.51909 20.8949 5.52107 20.7992V18.5492H3.27107C3.07069 18.5507 2.87739 18.4752 2.73107 18.3382C2.59451 18.1918 2.51935 17.9985 2.52107 17.7982C2.51764 17.699 2.5345 17.6001 2.57061 17.5076C2.60671 17.4151 2.66132 17.3309 2.73107 17.2602C2.87739 17.1233 3.07069 17.0478 3.27107 17.0492H5.52107V14.7992C5.51737 14.6997 5.53409 14.6004 5.5702 14.5075C5.60632 14.4146 5.66107 14.3302 5.73107 14.2592C5.87754 14.1227 6.06982 14.0475 6.27007 14.0492Z" />
</svg>
