<svg  viewBox="0 0 24 24" fill="white" xmlns="http://www.w3.org/2000/svg">
<path d="M11.8789 13.9336L11.6445 15.3945C11.6445 15.3945 12.6845 15.7082 13.3711 15.7305L13.4349 15.7326C14.1645 15.7566 14.6433 15.7723 15.3125 15.4453C15.7574 15.2279 16.0303 15.0771 16.3203 14.6758C16.5682 14.3328 16.6891 14.0901 16.7188 13.668C16.7448 13.297 16.7102 13.0604 16.5312 12.7344C16.3909 12.4786 16.2401 12.3611 16.029 12.1967C15.9997 12.1738 15.9692 12.1501 15.9375 12.125C15.6886 11.928 15.4829 11.8375 15.2454 11.733C15.1352 11.6845 15.0181 11.633 14.8867 11.5664C14.293 11.2656 14.2305 11.1289 14.2305 10.9023C14.2305 10.7584 14.2997 10.6592 14.4258 10.5898C14.6602 10.4609 14.7727 10.4064 15.0156 10.3633C15.1663 10.3365 15.4483 10.3573 15.7227 10.3906L15.7408 10.3928C15.9501 10.4182 16.0748 10.4333 16.2812 10.4961C16.4626 10.5512 16.7305 10.6797 16.7305 10.6797L16.9766 9.27734C16.9766 9.27734 16.7038 9.17523 16.5234 9.1289C16.2783 9.06593 16.1347 9.05065 15.8847 9.02405L15.8789 9.02343C15.5904 8.99274 15.4264 8.97726 15.1367 8.99218C14.8566 9.00661 14.7 9.03478 14.4258 9.09375L14.3746 9.10472C14.176 9.14718 14.0488 9.1744 13.8477 9.2539C13.6618 9.32739 13.5611 9.37993 13.3906 9.48437C13.2231 9.58704 13.1274 9.64656 12.9844 9.78125C12.875 9.88424 12.8173 9.9477 12.7305 10.0703C12.6397 10.1985 12.6013 10.2794 12.5352 10.4219L12.5154 10.4643C12.4679 10.5656 12.4355 10.6347 12.4062 10.7539C12.3711 10.8969 12.3678 10.9817 12.3672 11.1289L12.3672 11.1319C12.3665 11.2834 12.3662 11.3726 12.4062 11.5195C12.4436 11.6566 12.4836 11.7286 12.5547 11.8516C12.6204 11.9652 12.6659 12.0243 12.75 12.125C12.8406 12.2334 12.8959 12.2917 13.0039 12.3828C13.0968 12.4611 13.1663 12.5037 13.2534 12.5571C13.2812 12.5742 13.3109 12.5924 13.3438 12.6133L13.3855 12.6398C13.4998 12.7126 13.5757 12.7608 13.707 12.8281C13.7784 12.8647 13.8353 12.888 13.8934 12.9118C13.9441 12.9326 13.9957 12.9537 14.0586 12.9844L14.087 12.9982C14.1768 13.0419 14.2353 13.0703 14.3281 13.125L14.3497 13.1377C14.4458 13.1942 14.5065 13.23 14.5977 13.3047C14.6149 13.3188 14.6309 13.3312 14.6461 13.3429C14.6985 13.3834 14.74 13.4155 14.7812 13.4805C14.8371 13.5684 14.8607 13.6302 14.8633 13.7344C14.8661 13.8473 14.8427 13.917 14.7812 14.0117C14.7211 14.1044 14.6543 14.1408 14.567 14.1882C14.5494 14.1978 14.531 14.2078 14.5117 14.2187C14.38 14.2937 14.2969 14.325 14.1484 14.3555C13.9743 14.3912 13.8488 14.391 13.6796 14.3907L13.6328 14.3906C13.4314 14.3906 13.3285 14.3861 13.1367 14.3555C12.9836 14.331 12.8988 14.3093 12.75 14.2656C12.6296 14.2302 12.5492 14.1982 12.4537 14.1601C12.4144 14.1444 12.3725 14.1277 12.3242 14.1094C12.1495 14.0429 11.8789 13.9336 11.8789 13.9336Z" fill="#1972F5"/>
<path fill-rule="evenodd" clip-rule="evenodd" d="M19.3478 9.50388L16.6256 15.6387H18.4852L18.859 14.7089H21.1309L21.3513 15.6387H23.0001L21.5622 9.1588H19.9806C19.9806 9.1588 19.7299 9.168 19.5971 9.24507C19.4758 9.31555 19.3478 9.50388 19.3478 9.50388ZM20.854 13.3362H19.4026L20.3233 10.9194L20.854 13.3362Z" fill="#1972F5"/>
<path d="M10.5469 15.6641H8.76562L9.88672 9.13281H11.668L10.5469 15.6641Z" fill="#1972F5"/>
<path d="M1.03906 9.13672L1.00781 9.27344L1.83897 9.5625L2.88281 10.0039L4.45962 15.6284H6.3298L9.15837 9.13936H7.26156L5.51784 13.5586L4.71253 9.71839C4.71253 9.71839 4.68604 9.62127 4.66016 9.5625C4.63041 9.49497 4.61241 9.45614 4.56641 9.39844C4.51112 9.32909 4.46986 9.29301 4.39453 9.25C4.30779 9.20048 4.25798 9.18963 4.15314 9.16679C4.14905 9.1659 4.14488 9.16499 4.14063 9.16406C4.04375 9.14292 3.86328 9.13936 3.86328 9.13936L1.03906 9.13672Z" fill="#1972F5"/>
</svg>
