<svg  viewBox="0 0 24 24" fill="white" xmlns="http://www.w3.org/2000/svg">
<path d="M15.7065 4.003L13.6435 4C11.3255 4 9.82749 5.545 9.82749 7.938V9.753H7.75349C7.71081 9.75313 7.66858 9.76167 7.62919 9.77812C7.58981 9.79458 7.55406 9.81862 7.52397 9.8489C7.49389 9.87917 7.47006 9.91507 7.45385 9.95455C7.43764 9.99403 7.42936 10.0363 7.42949 10.079V12.71C7.42949 12.89 7.57449 13.036 7.75349 13.036H9.82749V19.673C9.82749 19.853 9.97249 19.999 10.1515 19.999H12.8575C12.9002 19.9989 12.9424 19.9903 12.9818 19.9739C13.0212 19.9574 13.0569 19.9334 13.087 19.9031C13.1171 19.8728 13.1409 19.8369 13.1571 19.7974C13.1733 19.758 13.1816 19.7157 13.1815 19.673V13.036H15.6065C15.6492 13.0359 15.6914 13.0273 15.7308 13.0109C15.7702 12.9944 15.8059 12.9704 15.836 12.9401C15.8661 12.9098 15.8899 12.8739 15.9061 12.8344C15.9223 12.795 15.9306 12.7527 15.9305 12.71L15.9315 10.079C15.9312 9.99287 15.8971 9.9103 15.8365 9.84912C15.7759 9.78793 15.6936 9.75305 15.6075 9.752H13.1815V8.213C13.1815 7.473 13.3565 7.098 14.3155 7.098H15.7055C15.7482 7.09787 15.7904 7.08933 15.8298 7.07288C15.8692 7.05642 15.9049 7.03237 15.935 7.0021C15.9651 6.97183 15.9889 6.93593 16.0051 6.89645C16.0213 6.85697 16.0296 6.81468 16.0295 6.772V4.329C16.0298 4.28637 16.0216 4.2441 16.0055 4.20463C15.9894 4.16515 15.9657 4.12924 15.9357 4.09896C15.9057 4.06867 15.87 4.04461 15.8306 4.02814C15.7913 4.01167 15.7491 4.00313 15.7065 4.003Z" />
</svg>
