<svg  viewBox="0 0 24 24" fill="white" xmlns="http://www.w3.org/2000/svg">
<path fill-rule="evenodd" clip-rule="evenodd" d="M16.4256 1.79462L15.2437 2.9765C15.9306 3.47708 16.49 4.13234 16.8766 4.88925C17.2921 5.66169 17.4999 6.50745 17.4999 7.42411H6.50005C6.49159 6.54285 6.69798 5.67281 7.10138 4.88925C7.49729 4.13808 8.06414 3.49043 8.75624 2.9985L7.55237 1.79462C7.50693 1.75395 7.47019 1.70451 7.44436 1.64927C7.41852 1.59403 7.40413 1.53413 7.40204 1.47318C7.4022 1.40851 7.41563 1.34455 7.44148 1.28527C7.46734 1.22599 7.50508 1.17264 7.55237 1.12852C7.59455 1.08624 7.64493 1.05305 7.70043 1.03098C7.75592 1.00891 7.81534 0.998429 7.87503 1.00019C7.93473 0.998429 7.99415 1.00891 8.04964 1.03098C8.10513 1.05305 8.15552 1.08624 8.1977 1.12852L9.57268 2.5035C9.93078 2.31895 10.3097 2.17473 10.7106 2.07451C11.1329 1.97345 11.5657 1.92298 12 1.92418C12.8426 1.93005 13.6728 2.1282 14.4273 2.5035L15.7815 1.12852C15.8235 1.0864 15.8737 1.05329 15.929 1.03122C15.9842 1.00916 16.0434 0.998597 16.1029 1.00019C16.1626 0.998429 16.222 1.00891 16.2775 1.03098C16.333 1.05305 16.3834 1.08624 16.4256 1.12852C16.5099 1.22344 16.5561 1.34623 16.5551 1.47318C16.5528 1.59258 16.5067 1.70695 16.4256 1.79462ZM9.25002 5.57613H10.174V4.67414H9.25002V5.57613ZM13.826 5.57613H14.7499V4.67414H13.826V5.57613Z" />
<path d="M6.5001 17.5C6.5001 17.7566 6.58565 17.9803 6.75676 18.1661C6.94376 18.3372 7.1662 18.4227 7.42409 18.4227H8.32608V21.6249C8.32394 21.8062 8.35809 21.986 8.42651 22.1539C8.49493 22.3218 8.59624 22.4742 8.72448 22.6024C8.85271 22.7305 9.00529 22.8317 9.17321 22.8999C9.34114 22.9682 9.52102 23.0022 9.70228 22.9999C10.0885 22.9999 10.4112 22.8716 10.669 22.6137C10.9416 22.3411 11.0773 22.0111 11.0773 21.6249V18.4227H12.9252V21.6249C12.9252 22.0111 13.0536 22.3411 13.3115 22.6137C13.584 22.8703 13.9128 22.9999 14.3002 22.9999C14.4814 23.002 14.6611 22.9679 14.8289 22.8996C14.9967 22.8312 15.1491 22.73 15.2772 22.6019C15.4053 22.4738 15.5065 22.3214 15.5749 22.1536C15.6432 21.9858 15.6773 21.8061 15.6752 21.6249V18.4227H16.5772C16.8351 18.4227 17.0502 18.3372 17.2213 18.1661C17.311 18.0801 17.3821 17.9766 17.4302 17.862C17.4784 17.7474 17.5025 17.6242 17.5012 17.5V8.32608H6.50132L6.5001 17.5Z" />
<path d="M19.2688 8.4261C19.4366 8.35781 19.6165 8.32381 19.7977 8.32611H19.7989C19.9795 8.32467 20.1584 8.36026 20.3247 8.43068C20.491 8.5011 20.6411 8.60486 20.7657 8.73555C21.0382 9.00688 21.1739 9.32832 21.1739 9.7011V16.125C21.176 16.3062 21.1419 16.4859 21.0736 16.6537C21.0052 16.8215 20.904 16.9739 20.7759 17.102C20.6478 17.2301 20.4954 17.3313 20.3276 17.3997C20.1598 17.468 19.9801 17.5021 19.7989 17.5C19.4115 17.5 19.0827 17.3704 18.8101 17.1138C18.5522 16.8412 18.4227 16.5112 18.4227 16.125V9.7011C18.4204 9.51989 18.4544 9.34006 18.5227 9.17221C18.591 9.00435 18.6922 8.85185 18.8203 8.72371C18.9484 8.59557 19.1009 8.49438 19.2688 8.4261Z" />
<path d="M4.20232 8.3261C3.82832 8.3261 3.50566 8.46177 3.23433 8.73432C3.10386 8.85903 3.00033 9.00916 2.93012 9.17543C2.85991 9.34171 2.82451 9.5206 2.82611 9.70108V16.125C2.82398 16.3063 2.85813 16.4861 2.92655 16.654C2.99497 16.8218 3.09628 16.9743 3.22452 17.1024C3.35275 17.2306 3.50532 17.3317 3.67325 17.4C3.84117 17.4683 4.02106 17.5023 4.20232 17.5C4.58976 17.5 4.9112 17.3717 5.16908 17.1138C5.44163 16.8412 5.5773 16.5112 5.5773 16.125V9.70108C5.5773 9.32831 5.44163 9.00687 5.16908 8.73554C5.04634 8.60278 4.89678 8.49762 4.73032 8.42703C4.56386 8.35645 4.38308 8.32204 4.20232 8.3261Z" />
</svg>
