<svg  viewBox="0 0 24 24" fill="white" xmlns="http://www.w3.org/2000/svg">
<path d="M15.812 7.734C15.135 7.112 13.948 6.367 12.188 6.367C11.0109 6.36804 9.86351 6.73634 8.90574 7.42057C7.94796 8.1048 7.22757 9.07084 6.84499 10.184C6.64953 10.7696 6.54827 11.3826 6.54499 12C6.54499 12.633 6.65899 13.245 6.85699 13.816C7.23598 14.9293 7.95395 15.896 8.9102 16.5805C9.86644 17.2651 11.013 17.6331 12.189 17.633C13.584 17.633 14.646 17.256 15.437 16.715C16.687 15.858 17.249 14.582 17.353 13.735H12.188V10.326H20.988C21.123 10.898 21.186 11.449 21.186 12.204C21.186 15 20.166 17.358 18.395 18.96C16.843 20.368 14.719 21.185 12.189 21.185C8.52299 21.185 5.35699 19.123 3.81599 16.123C3.1605 14.8474 2.81774 13.4342 2.81599 12C2.81599 10.52 3.18099 9.122 3.81599 7.877C5.35699 4.877 8.52299 2.815 12.189 2.815C14.719 2.815 16.833 3.723 18.457 5.203L15.813 7.734H15.812Z" />
</svg>
