<svg  viewBox="0 0 24 24" fill="white" xmlns="http://www.w3.org/2000/svg">
<path d="M18.773 10.715V8.067C17.879 8.032 17.184 7.837 16.69 7.484C16.195 7.144 15.83 6.761 15.595 6.337C15.36 5.913 15.219 5.519 15.171 5.154C15.1311 4.9379 15.1017 4.71997 15.083 4.501V4.465H12.33V14.758C12.33 14.982 12.295 15.2 12.224 15.412C12.154 15.612 12.054 15.806 11.924 15.994C11.794 16.171 11.635 16.324 11.447 16.454C11.2621 16.5817 11.0601 16.6827 10.847 16.754C10.623 16.824 10.394 16.859 10.158 16.859C9.93501 16.859 9.71101 16.829 9.48801 16.771C9.2749 16.6997 9.07291 16.5987 8.88801 16.471C8.70414 16.3457 8.54285 16.1902 8.41101 16.011C8.27131 15.8374 8.16363 15.6403 8.09301 15.429C8.0224 15.2179 7.98069 14.9983 7.96901 14.776C7.97023 14.3314 8.11238 13.8987 8.37501 13.54C8.50501 13.352 8.65801 13.193 8.83501 13.063C9.02301 12.934 9.22901 12.828 9.45201 12.746C9.66401 12.676 9.88201 12.64 10.105 12.64C10.341 12.64 10.57 12.67 10.794 12.728V10.009C10.6884 9.99714 10.5823 9.99114 10.476 9.991C10.3704 9.97946 10.2642 9.97379 10.158 9.974C9.66401 9.974 9.18101 10.044 8.71101 10.186C8.25101 10.316 7.81601 10.509 7.40401 10.768C7.00401 11.039 6.64501 11.357 6.32701 11.722C6.02298 12.0838 5.77335 12.4881 5.58601 12.922C5.39855 13.3543 5.27945 13.8131 5.23301 14.282C5.13501 15.2304 5.33234 16.186 5.79801 17.018C6.03301 17.43 6.32101 17.801 6.66301 18.131C7.35189 18.8135 8.2329 19.2692 9.18801 19.437C9.67001 19.531 10.153 19.555 10.635 19.507C11.1191 19.4625 11.5945 19.3497 12.047 19.172C12.495 18.996 12.907 18.76 13.283 18.466C13.672 18.16 14.001 17.806 14.273 17.406C14.543 17.018 14.749 16.6 14.89 16.153C15.031 15.694 15.102 15.229 15.102 14.758V14.652V9.497C15.726 10.05 16.491 10.392 17.397 10.521L18.774 10.715H18.773Z" />
</svg>
