<svg  viewBox="0 0 24 24" fill="white" xmlns="http://www.w3.org/2000/svg">
<path d="M8.69268 6.86322C8.78679 6.87911 8.88823 6.91089 8.99823 6.95733C9.10823 6.98911 9.20845 7.11377 9.30378 7.33255C9.38078 7.48899 9.46634 7.69921 9.56045 7.96565C9.67045 8.21621 9.77189 8.4582 9.866 8.69286C9.94422 8.8652 10.0066 9.01308 10.053 9.13897C10.1007 9.26364 10.1312 9.34186 10.1471 9.37363C10.18 9.44025 10.2038 9.51094 10.218 9.58385C10.2319 9.67313 10.2151 9.7645 10.1703 9.84296C10.1703 9.85763 10.163 9.87352 10.1471 9.88941C10.1471 9.9053 10.1398 9.91385 10.1227 9.91385C10.0946 9.98519 10.0637 10.0553 10.0298 10.1241C9.98827 10.183 9.9412 10.2379 9.88922 10.2878C9.87078 10.3228 9.84685 10.3546 9.81833 10.382C9.80659 10.4075 9.79092 10.431 9.77189 10.4516C9.71289 10.5104 9.65816 10.5733 9.60812 10.6398C9.57378 10.6905 9.53447 10.7376 9.49078 10.7804C9.42352 10.8492 9.3678 10.9285 9.32578 11.0151C9.27934 11.0933 9.29523 11.1947 9.37345 11.3206C9.45167 11.4612 9.62278 11.7264 9.88922 12.1175C10.1544 12.4927 10.4905 12.8606 10.8975 13.2199C11.3351 13.611 11.7335 13.8995 12.0941 14.0877C12.4534 14.2747 12.7272 14.4079 12.9142 14.4861L13.0083 14.5326L13.1024 14.5802C13.2034 14.6363 13.3158 14.6685 13.4312 14.6743C13.534 14.6524 13.6252 14.5938 13.6878 14.5093L14.1107 14.0168C14.3136 13.7675 14.4627 13.5719 14.5568 13.4301C14.6497 13.2908 14.7438 13.2199 14.8379 13.2199C14.932 13.2199 15.0408 13.2444 15.1667 13.2908C15.2914 13.3373 15.5969 13.4864 16.0809 13.7357C16.582 13.9704 16.9022 14.1182 17.0428 14.1818C17.0683 14.1935 17.0918 14.2092 17.1125 14.2282C17.1442 14.2441 17.1675 14.2527 17.1834 14.2527C17.2934 14.2991 17.3789 14.3456 17.4412 14.392C17.5036 14.4238 17.5427 14.4629 17.5586 14.5093C17.605 14.557 17.6209 14.7049 17.605 14.9555C17.581 15.2437 17.5181 15.5274 17.418 15.7988C17.2934 16.1129 17.011 16.4013 16.5735 16.6665C16.1518 16.933 15.8157 17.0735 15.5652 17.0894C15.5323 17.09 15.5 17.0984 15.471 17.1139H15.4246C15.1899 17.1444 14.8697 17.1359 14.4627 17.0894C14.0557 17.043 13.3285 16.8157 12.2811 16.4099C11.6514 16.166 11.0593 15.8343 10.5223 15.4248C10.027 15.0496 9.55709 14.6422 9.11557 14.205C8.76992 13.8519 8.44856 13.4758 8.15369 13.0794C7.97528 12.855 7.81078 12.6199 7.66114 12.3754L7.59025 12.3045C7.51203 12.1945 7.30181 11.8669 6.95715 11.3194C6.62925 10.7578 6.45908 10.118 6.4646 9.46774C6.4646 8.84198 6.58193 8.35676 6.81659 8.01332C7.05126 7.66866 7.23826 7.41933 7.37881 7.26288L7.42648 7.21522C7.53221 7.08805 7.66966 6.99108 7.82491 6.93411C7.93033 6.89413 8.04116 6.87023 8.15369 6.86322H8.69268Z" />
<path fill-rule="evenodd" clip-rule="evenodd" d="M1.44615 14.7208C1.6956 15.6413 2.06632 16.5245 2.54858 17.3473L1.00005 23L6.79331 21.4991C7.59915 21.9185 8.4483 22.2488 9.32572 22.4842C10.2161 22.7027 11.1296 22.8127 12.0464 22.8118C13.5118 22.8224 14.9642 22.5355 16.3155 21.9685C17.6104 21.4131 18.7882 20.6172 19.7866 19.623C20.7907 18.6329 21.5879 17.453 22.132 16.152C22.7127 14.8122 23.0083 13.3662 22.9998 11.906C22.9998 11.1874 22.9289 10.476 22.7896 9.77205C22.6478 9.06806 22.4449 8.38852 22.1784 7.73097C21.9132 7.07464 21.5771 6.44887 21.1701 5.85488C20.779 5.26089 20.3256 4.70601 19.8098 4.19023C19.2781 3.67324 18.7159 3.22103 18.1219 2.82992C17.5347 2.42719 16.9057 2.08912 16.2459 1.8216C15.5861 1.55488 14.9027 1.35069 14.2048 1.21172C13.5008 1.07116 12.7821 1.00027 12.0464 1.00027C10.5813 0.989838 9.12938 1.27673 7.7784 1.8436C6.47853 2.40295 5.29371 3.19863 4.28412 4.19023C3.28952 5.18852 2.49325 6.36635 1.93748 7.6613C1.37526 8.98984 1.09416 10.4052 1.09416 11.906C1.09362 12.8553 1.21187 13.8009 1.44615 14.7208ZM4.542 17.0662L4.33056 16.7374C3.87712 16.0016 3.52513 15.2292 3.27457 14.4164C3.03995 13.6008 2.92952 12.7545 2.94702 11.906C2.9399 10.6904 3.17896 9.48601 3.64979 8.36529C4.11533 7.29849 4.77559 6.32779 5.59677 5.50289C6.43054 4.6712 7.41863 4.01026 8.50562 3.55713C9.61538 3.07192 10.796 2.82992 12.0464 2.82992C13.247 2.8257 14.4361 3.06476 15.5419 3.53269C16.6493 3.98434 17.6543 4.65439 18.4972 5.50289C19.3481 6.33448 20.0184 7.33263 20.4661 8.43496C20.9181 9.53627 21.1494 10.7156 21.1469 11.906C21.1552 13.1143 20.9156 14.3115 20.4429 15.4235C19.9754 16.5087 19.3069 17.4956 18.4727 18.3324C17.6455 19.1552 16.6658 19.8086 15.5883 20.2561C14.4785 20.7401 13.2979 20.9834 12.0464 20.9834C11.2336 20.9834 10.4282 20.8746 9.63127 20.6546C8.85205 20.4367 8.10345 20.1213 7.40319 19.7159L7.07441 19.5057L3.62657 20.4199L4.542 17.0662Z" />
</svg>
