<svg  viewBox="0 0 24 24" fill="white" xmlns="http://www.w3.org/2000/svg">
<path d="M8.69262 6.8632C8.78673 6.87909 8.88817 6.91087 8.99817 6.95731C9.10817 6.98909 9.20839 7.11375 9.30372 7.33253C9.38072 7.48897 9.46627 7.69919 9.56038 7.96563C9.67038 8.21619 9.77182 8.45818 9.86593 8.69285C9.94416 8.86518 10.0065 9.01306 10.0529 9.13895C10.1006 9.26362 10.1312 9.34184 10.147 9.37361C10.1799 9.44023 10.2037 9.51092 10.2179 9.58383C10.2319 9.67311 10.2151 9.76448 10.1703 9.84294C10.1703 9.85761 10.1629 9.8735 10.147 9.88939C10.147 9.90527 10.1397 9.91383 10.1226 9.91383C10.0946 9.98517 10.0636 10.0553 10.0297 10.1241C9.9882 10.183 9.94113 10.2379 9.88916 10.2878C9.87072 10.3228 9.84678 10.3546 9.81827 10.3819C9.80652 10.4074 9.79085 10.4309 9.77182 10.4516C9.71282 10.5104 9.65809 10.5733 9.60805 10.6398C9.57371 10.6905 9.53441 10.7375 9.49072 10.7804C9.42345 10.8492 9.36774 10.9285 9.32572 11.015C9.27928 11.0933 9.29516 11.1947 9.37339 11.3206C9.45161 11.4611 9.62272 11.7264 9.88916 12.1175C10.1544 12.4927 10.4905 12.8606 10.8975 13.2199C11.335 13.611 11.7335 13.8994 12.094 14.0877C12.4533 14.2747 12.7271 14.4079 12.9141 14.4861L13.0082 14.5325L13.1023 14.5802C13.2033 14.6363 13.3158 14.6685 13.4311 14.6743C13.5339 14.6524 13.6252 14.5938 13.6878 14.5093L14.1107 14.0168C14.3135 13.7674 14.4627 13.5719 14.5568 13.4301C14.6497 13.2908 14.7438 13.2199 14.8379 13.2199C14.932 13.2199 15.0408 13.2443 15.1666 13.2908C15.2913 13.3372 15.5969 13.4863 16.0809 13.7357C16.582 13.9703 16.9022 14.1182 17.0427 14.1818C17.0683 14.1935 17.0918 14.2092 17.1124 14.2282C17.1442 14.2441 17.1674 14.2527 17.1833 14.2527C17.2933 14.2991 17.3788 14.3456 17.4412 14.392C17.5035 14.4238 17.5426 14.4629 17.5585 14.5093C17.6049 14.557 17.6208 14.7049 17.6049 14.9554C17.581 15.2437 17.5181 15.5274 17.418 15.7988C17.2933 16.1129 17.011 16.4013 16.5734 16.6665C16.1517 16.933 15.8156 17.0735 15.5651 17.0894C15.5322 17.09 15.5 17.0984 15.471 17.1139H15.4245C15.1899 17.1444 14.8697 17.1359 14.4627 17.0894C14.0557 17.043 13.3284 16.8156 12.281 16.4099C11.6513 16.1659 11.0592 15.8343 10.5223 15.4248C10.027 15.0496 9.55703 14.6421 9.1155 14.205C8.76986 13.8519 8.4485 13.4758 8.15362 13.0793C7.97521 12.855 7.81072 12.6199 7.66107 12.3754C7.64553 12.3599 7.63005 12.3445 7.61463 12.3289L7.59019 12.3045C7.51196 12.1945 7.30174 11.8669 6.95708 11.3194C6.62919 10.7578 6.45901 10.118 6.46453 9.46773C6.46453 8.84196 6.58186 8.35674 6.81653 8.0133C7.05119 7.66864 7.23819 7.41931 7.37874 7.26286L7.40319 7.23842L7.42641 7.2152C7.53214 7.08803 7.66959 6.99106 7.82485 6.93409C7.93027 6.89411 8.0411 6.87021 8.15362 6.8632H8.69262ZM2.54858 17.3473C2.06632 16.5245 1.6956 15.6413 1.44615 14.7208C1.21187 13.8009 1.09362 12.8553 1.09416 11.906C1.09416 10.4052 1.37526 8.98984 1.93748 7.6613C2.49325 6.36635 3.28952 5.18852 4.28412 4.19024C5.29371 3.19863 6.47853 2.40295 7.7784 1.8436C9.12938 1.27673 10.5813 0.989838 12.0464 1.00027C12.7821 1.00027 13.5008 1.07116 14.2048 1.21172C14.9027 1.35069 15.5861 1.55488 16.2459 1.8216C16.9057 2.08912 17.5347 2.42719 18.1219 2.82992C18.7159 3.22103 19.2782 3.67324 19.8098 4.19024C20.3256 4.70601 20.779 5.26089 21.1701 5.85488C21.5771 6.44887 21.9132 7.07464 22.1784 7.73097C22.4449 8.38852 22.6478 9.06806 22.7896 9.77205C22.9289 10.476 22.9998 11.1874 22.9998 11.906C23.0083 13.3662 22.7127 14.8122 22.132 16.152C21.5879 17.453 20.7907 18.6329 19.7866 19.623C18.7882 20.6172 17.6104 21.4131 16.3155 21.9685C14.9642 22.5355 13.5118 22.8224 12.0464 22.8118C11.1296 22.8127 10.2161 22.7027 9.32572 22.4842C8.4483 22.2488 7.59915 21.9185 6.79331 21.4991L1.00005 23L2.54858 17.3473ZM4.33056 16.7374L4.542 17.0662L3.62657 20.4199L7.07441 19.5057L7.40319 19.7159C8.10345 20.1213 8.85205 20.4367 9.63127 20.6546C10.4282 20.8746 11.2336 20.9834 12.0464 20.9834C13.2979 20.9834 14.4785 20.7401 15.5883 20.2561C16.6658 19.8086 17.6455 19.1552 18.4727 18.3324C19.3069 17.4956 19.9754 16.5087 20.4429 15.4235C20.9156 14.3115 21.1552 13.1143 21.1469 11.906C21.1494 10.7156 20.9181 9.53627 20.4661 8.43496C20.0184 7.33263 19.3481 6.33448 18.4972 5.50289C17.6543 4.65439 16.6493 3.98434 15.5419 3.53269C14.4361 3.06476 13.247 2.8257 12.0464 2.82992C10.796 2.82992 9.61538 3.07192 8.50562 3.55713C7.41863 4.01026 6.43054 4.6712 5.59677 5.50289C4.77559 6.32779 4.11533 7.29849 3.64979 8.36529C3.17896 9.48601 2.9399 10.6904 2.94702 11.906C2.92952 12.7545 3.03995 13.6008 3.27457 14.4164C3.52513 15.2292 3.87712 16.0029 4.33056 16.7386V16.7374Z" fill="#2EB743"/>
</svg>
