<svg  viewBox="0 0 24 24" fill="white" xmlns="http://www.w3.org/2000/svg">
<path d="M12.0946 6.09054C12.5441 6.0928 12.9895 6.00555 13.4048 5.83387C14.3327 5.47493 15.1019 4.79667 15.5743 3.9211C16.0607 3.03377 16.2966 2.19533 16.2832 1.40822C16.2837 1.3432 16.2763 1.27835 16.2612 1.21511V1C16.1681 1.01318 16.0752 1.02744 15.9825 1.04278L15.7246 1.08556C15.0231 1.25667 14.3997 1.55122 13.8546 1.96555C13.3254 2.36766 12.8891 2.88955 12.5456 3.53488C12.3305 3.90643 12.1667 4.30121 12.0518 4.71554C11.9512 5.12299 11.9223 5.54483 11.9663 5.9622C11.9663 6.01842 11.9724 6.05509 11.9871 6.06854C12.0207 6.0841 12.0575 6.09163 12.0946 6.09054Z" />
<path d="M20.7076 17.1516C19.8618 16.7226 19.1896 16.1714 18.6885 15.4979C18.2021 14.811 17.9222 13.9799 17.8513 13.0071C17.7938 12.0183 17.965 11.1591 18.3658 10.4294C18.7814 9.68507 19.3754 9.03973 20.1491 8.49585L20.1063 8.45307C20.1063 8.4384 20.0989 8.43229 20.0843 8.43229C19.5098 7.5713 18.6627 6.92825 17.679 6.6063C17.3355 6.49141 16.9847 6.41319 16.6266 6.36919C16.2685 6.31297 15.9031 6.2983 15.5315 6.32641C15.2883 6.35452 15.0451 6.40586 14.8006 6.47674C14.5721 6.53419 14.3362 6.6063 14.0917 6.69308C13.8779 6.77863 13.6554 6.86419 13.4256 6.94974L12.7388 7.20763C12.5383 7.29319 12.3379 7.33596 12.1374 7.33596C11.937 7.33596 11.7365 7.29319 11.5361 7.20641L10.848 6.94974L10.2039 6.69185C9.78832 6.53419 9.36666 6.43397 8.93644 6.39119C8.50744 6.34841 8.07111 6.38386 7.62622 6.49874C6.92484 6.65725 6.26581 6.96489 5.69389 7.40074C5.15001 7.8163 4.67701 8.34551 4.27612 8.98962C3.96079 9.5054 3.73223 10.0493 3.58924 10.6225C3.44386 11.1931 3.35018 11.7756 3.30935 12.3629C3.2809 12.8639 3.28825 13.3663 3.33135 13.8663C3.37412 14.3527 3.44501 14.8392 3.54524 15.3268C3.78411 16.4436 4.14436 17.5309 4.61956 18.5694C5.10786 19.5887 5.71327 20.5477 6.42356 21.4269C6.57373 21.619 6.7311 21.8053 6.89533 21.9855C7.0642 22.1542 7.24384 22.3118 7.43311 22.4572C7.59221 22.573 7.75701 22.6807 7.92688 22.7799C8.09606 22.8648 8.27753 22.9225 8.46466 22.951C8.69321 22.995 8.91566 23.0085 9.12955 22.995C9.34466 22.9669 9.55243 22.9156 9.75288 22.8447C9.93988 22.7726 10.1183 22.7005 10.2894 22.6296C10.4764 22.5575 10.6561 22.4866 10.8272 22.4145C11.3136 22.214 11.8013 22.1065 12.2878 22.0918C12.8009 22.08 13.3115 22.168 13.7911 22.3509C13.9467 22.393 14.0977 22.4503 14.2421 22.522C14.3885 22.5954 14.5391 22.6603 14.6931 22.7163C15.1085 22.8879 15.5539 22.9751 16.0033 22.973C16.304 22.9583 16.5838 22.8948 16.8417 22.7799C17.1074 22.6598 17.3534 22.5004 17.5714 22.3069C17.6863 22.2214 17.7938 22.1285 17.8941 22.0282C18.0077 21.9134 18.108 21.7924 18.1935 21.6628C18.6946 21.0615 19.1395 20.4308 19.5257 19.7732C19.931 19.1062 20.2696 18.4008 20.5365 17.6674L20.7076 17.1516Z" />
</svg>
