<svg  viewBox="0 0 24 24" fill="white" xmlns="http://www.w3.org/2000/svg">
<path d="M5.23199 17.89L5.28599 18.042C5.26684 17.9914 5.24884 17.9404 5.23199 17.889V17.89ZM7.38499 14.415C7.48 13.591 7.805 13.13 8.416 12.657C9.291 12.017 10.384 12.379 10.384 12.379V10.229C10.649 10.223 10.915 10.239 11.178 10.279V13.044C11.178 13.044 10.085 12.682 9.211 13.323C8.6 13.795 8.27399 14.257 8.17899 15.081C8.17599 15.528 8.25699 16.113 8.628 16.618C8.53219 16.5666 8.43876 16.5109 8.34799 16.451C7.52999 15.879 7.381 15.021 7.38499 14.415ZM15.69 6.256C15.2178 5.7309 14.9019 5.08421 14.778 4.389H15.535C15.535 4.389 15.385 5.666 16.485 6.922L16.499 6.939C16.2025 6.74479 15.9305 6.51546 15.689 6.256H15.69ZM19.336 8.203V10.913C19.336 10.913 18.37 10.873 17.656 10.684C16.657 10.42 16.016 10.014 16.016 10.014C16.016 10.014 15.573 9.724 15.536 9.704V15.299C15.536 15.611 15.455 16.389 15.205 17.038C14.879 17.887 14.375 18.444 14.283 18.558C14.283 18.558 13.671 19.311 12.591 19.818C11.618 20.276 10.763 20.265 10.508 20.276C10.508 20.276 9.03099 20.337 7.70199 19.437C7.41447 19.239 7.14598 19.0147 6.89999 18.767L6.90699 18.772C8.23699 19.672 9.713 19.61 9.713 19.61C9.969 19.599 10.823 19.61 11.796 19.153C12.876 18.645 13.488 17.893 13.488 17.893C13.58 17.778 14.085 17.221 14.41 16.372C14.66 15.723 14.742 14.944 14.742 14.632V9.039C14.778 9.059 15.221 9.349 15.221 9.349C15.221 9.349 15.863 9.756 16.861 10.02C17.576 10.21 18.541 10.249 18.541 10.249V8.125C18.872 8.202 19.154 8.223 19.336 8.203Z" fill="#EE1D52"/>
<path d="M18.542 8.125V10.247C18.542 10.247 17.576 10.207 16.862 10.018C15.862 9.754 15.221 9.348 15.221 9.348C15.221 9.348 14.778 9.058 14.742 9.038V14.634C14.742 14.945 14.66 15.724 14.411 16.372C14.085 17.222 13.581 17.779 13.489 17.892C13.489 17.892 12.876 18.646 11.797 19.153C10.824 19.611 9.96901 19.599 9.71401 19.611C9.71401 19.611 8.23701 19.671 6.90701 18.772L6.90001 18.767C6.75992 18.6257 6.62804 18.4764 6.50501 18.32C6.19052 17.9053 5.93789 17.4472 5.75501 16.96C5.65001 16.644 5.42901 15.885 5.45901 15.15C5.51201 13.854 5.95001 13.059 6.06601 12.86C6.3728 12.316 6.77173 11.8295 7.24501 11.422C7.66201 11.07 8.13501 10.79 8.64501 10.594C9.19629 10.3633 9.78649 10.2398 10.384 10.23V12.379C10.384 12.379 9.29101 12.018 8.41601 12.657C7.80601 13.13 7.48101 13.591 7.38601 14.415C7.38101 15.021 7.53001 15.879 8.34701 16.451C8.44201 16.514 8.53601 16.57 8.62701 16.619C8.77101 16.812 8.94401 16.98 9.14201 17.117C9.94001 17.643 10.609 17.68 11.464 17.338C12.034 17.11 12.464 16.595 12.663 16.024C12.788 15.668 12.786 15.309 12.786 14.938V4.39H14.776C14.859 4.877 15.086 5.57 15.688 6.257C15.9295 6.51646 16.2015 6.74579 16.498 6.94C16.585 7.035 17.033 7.501 17.608 7.787C17.905 7.936 18.218 8.049 18.542 8.126V8.125Z" />
<path d="M8.64501 10.594C8.13501 10.79 7.66201 11.07 7.24501 11.422C6.77155 11.8301 6.37261 12.3173 6.06601 12.862C5.95101 13.061 5.51301 13.857 5.45901 15.153C5.42901 15.888 5.65001 16.647 5.75501 16.963V16.965C5.82201 17.145 6.08101 17.782 6.50501 18.323C6.62801 18.479 6.76001 18.629 6.90101 18.77C6.45101 18.46 6.05001 18.084 5.71101 17.656C5.39787 17.243 5.14595 16.787 4.96301 16.302V16.299C4.85701 15.984 4.63601 15.225 4.66601 14.489C4.72001 13.193 5.15801 12.397 5.27401 12.198C5.58021 11.6533 5.97882 11.1661 6.45201 10.758C6.86901 10.406 7.34201 10.126 7.85201 9.93C8.17001 9.798 8.50201 9.701 8.84001 9.64C9.35059 9.55101 9.87201 9.54324 10.385 9.617V10.23C9.78715 10.2396 9.1966 10.3632 8.64501 10.594Z" fill="#69C9D0"/>
<path d="M14.778 4.39H12.788V14.939C12.788 15.309 12.788 15.667 12.664 16.025C12.464 16.595 12.036 17.11 11.466 17.338C10.61 17.681 9.94099 17.643 9.14399 17.117C8.94582 16.9809 8.77147 16.8129 8.62799 16.62C9.30799 16.982 9.91599 16.976 10.67 16.674C11.24 16.445 11.668 15.931 11.868 15.36C11.993 15.004 11.992 14.645 11.992 14.275V3.723H14.74C14.74 3.723 14.71 3.985 14.778 4.389V4.39ZM18.542 7.537V8.125C18.2194 8.04798 17.9067 7.93424 17.61 7.786C17.035 7.5 16.587 7.034 16.5 6.939C16.601 7.006 16.706 7.066 16.815 7.121C17.515 7.469 18.203 7.573 18.542 7.537Z" fill="#69C9D0"/>
</svg>
