<svg  viewBox="0 0 24 24" fill="white" xmlns="http://www.w3.org/2000/svg">
<path d="M22 12C22 17.5228 17.5228 22 12 22C6.47715 22 2 17.5228 2 12C2 6.47715 6.47715 2 12 2C17.5228 2 22 6.47715 22 12Z" fill="#24A1DE"/>
<path d="M11.2092 15.2424L16.2803 8.51781L15.8237 8.12407L11.9495 9.39971L7.85475 12.9274L9.5243 17.4945L9.7762 17.589L11.2092 15.2424Z" fill="#E2E2E2"/>
<path d="M9.67452 17.5098C9.57809 17.1328 9.82052 14.0935 9.82052 14.0935L12.1376 15.5074C12.1376 15.5074 10.3047 17.1875 9.91636 17.5554C9.84659 17.6215 9.69834 17.6029 9.67452 17.5098Z" fill="#B8B8B8"/>
<path d="M13.7961 7.7901C11.1228 8.7653 9.60724 9.32794 6.95581 10.3612C6.20165 10.6551 5.0278 11.1217 5.0278 11.1217C5.0278 11.1217 4.51301 11.3443 4.4089 11.5993C4.34197 11.7632 4.42565 11.9185 4.56797 12.0238C4.95929 12.3132 7.52851 13.0673 7.9285 13.0673C8.71613 13.0673 15.437 8.40598 15.5693 8.50404C15.7587 8.64444 9.68063 13.816 9.82101 14.1108C9.93443 14.349 14.7463 17.7238 14.7463 17.7238C14.7463 17.7238 15.1937 17.9883 15.4808 17.9312C15.7411 17.8795 15.9032 17.7522 16.0115 17.5067C16.313 16.823 16.6862 14.8051 17.0904 13.0673C17.6308 10.7435 18.3956 7.09919 18.3956 7.09919C18.3956 7.09919 18.5497 6.54657 18.3414 6.42185C18.1932 6.33316 17.9384 6.31732 17.7625 6.38165C16.8376 6.71985 15.3478 7.22405 13.7961 7.7901Z" />
</svg>
