<svg  viewBox="0 0 24 24" fill="white" xmlns="http://www.w3.org/2000/svg">
<path fill-rule="evenodd" clip-rule="evenodd" d="M12 22C17.5228 22 22 17.5228 22 12C22 6.47715 17.5228 2 12 2C6.47715 2 2 6.47715 2 12C2 17.5228 6.47715 22 12 22ZM6.96656 14.1577C6.66238 14.2146 6.43737 14.467 6.40661 14.7749C6.35845 15.2569 6.79502 15.6505 7.27253 15.569C8.37134 15.3813 10.1872 15.1334 11.5151 15.2661C12.843 15.3988 14.5739 16.001 15.6139 16.4023C16.0658 16.5767 16.5716 16.2773 16.6198 15.7953C16.6505 15.4874 16.4799 15.1954 16.193 15.0795C15.2697 14.7065 13.1981 13.9268 11.6642 13.7735C10.1303 13.6203 7.94535 13.9748 6.96656 14.1577ZM6.11061 11.8562C6.13945 11.5827 6.32826 11.3543 6.59532 11.2887C7.51059 11.064 9.73256 10.6115 12.0032 10.851C14.2988 11.0931 16.447 12.0888 17.2991 12.5255C17.5368 12.6473 17.6673 12.9036 17.6392 13.1693C17.5874 13.661 17.0353 13.9467 16.5884 13.7351C15.5636 13.2498 13.8055 12.5494 11.8459 12.3427C9.90087 12.1376 8.08988 12.4097 7.01402 12.6398C6.53203 12.7429 6.05891 12.3464 6.11061 11.8562ZM5.99184 8.23636C5.71976 8.3042 5.526 8.53638 5.4966 8.81524C5.44497 9.30478 5.91111 9.69744 6.39034 9.58495C7.7461 9.2667 10.2358 8.80391 12.3308 9.08761C14.4072 9.3688 16.6598 10.2501 17.8882 10.7851C18.3424 10.9829 18.8721 10.6867 18.9241 10.194C18.9543 9.90718 18.8087 9.63144 18.5495 9.50491C17.5539 9.01893 14.9658 7.85715 12.4881 7.59589C9.98646 7.33209 7.08456 7.96391 5.99184 8.23636Z" />
</svg>
