<svg  viewBox="0 0 24 24" fill="white" xmlns="http://www.w3.org/2000/svg">
<path d="M21.185 12.205C21.185 11.45 21.123 10.899 20.987 10.327H12.187V13.735H17.353C17.249 14.582 16.686 15.858 15.436 16.715L15.419 16.829L18.201 18.941L18.394 18.96C20.164 17.358 21.185 15.001 21.185 12.205Z" fill="#4285F4"/>
<path d="M12.188 21.184C14.718 21.184 16.843 20.368 18.395 18.96L15.437 16.715C14.647 17.256 13.584 17.633 12.187 17.633C11.0111 17.6332 9.86466 17.2653 8.90843 16.5809C7.9522 15.8966 7.23416 14.9301 6.855 13.817L6.745 13.826L3.852 16.02L3.814 16.123C5.355 19.123 8.522 21.184 12.188 21.184Z" fill="#34A853"/>
<path d="M6.855 13.817C6.65047 13.2333 6.54501 12.6195 6.543 12.001C6.543 11.369 6.657 10.756 6.845 10.185L6.84 10.063L3.911 7.83401L3.815 7.87901C3.15966 9.15468 2.8169 10.5679 2.815 12.002C2.815 13.482 3.179 14.879 3.815 16.124L6.856 13.818L6.855 13.817Z" fill="#FBBC05"/>
<path d="M12.188 6.36801C13.948 6.36801 15.135 7.11301 15.812 7.73501L18.457 5.20401C16.832 3.72401 14.719 2.81601 12.187 2.81601C8.522 2.81601 5.357 4.87701 3.815 7.87701L6.845 10.183C7.22774 9.07003 7.94821 8.10421 8.90597 7.42017C9.86373 6.73613 11.0111 6.36897 12.188 6.36801Z" fill="#EB4335"/>
</svg>
