<svg  viewBox="0 0 24 24" fill="white" xmlns="http://www.w3.org/2000/svg">
<path d="M22 12C22 17.5228 17.5228 22 12 22C6.47715 22 2 17.5228 2 12C2 6.47715 6.47715 2 12 2C17.5228 2 22 6.47715 22 12Z" />
<path fill-rule="evenodd" clip-rule="evenodd" d="M6.95584 10.3611C9.60728 9.3279 11.1228 8.76525 13.7961 7.79006C14.6605 7.47475 15.5056 7.17864 16.2446 6.91971C16.8322 6.71381 17.3528 6.53142 17.7625 6.38161C17.9384 6.31728 18.1932 6.33312 18.3414 6.42181C18.5498 6.54652 18.3956 7.09915 18.3956 7.09915C18.3956 7.09915 17.6309 10.7435 17.0904 13.0672C16.9706 13.5824 16.8535 14.1222 16.7402 14.6446C16.4712 15.8842 16.2236 17.0257 16.0115 17.5067C15.9032 17.7521 15.7412 17.8794 15.4809 17.9312C15.1938 17.9882 14.7463 17.7238 14.7463 17.7238C14.7463 17.7238 13.2567 16.679 11.9156 15.7111C11.4155 16.1699 10.2211 17.2667 9.91636 17.5554C9.88188 17.588 9.79832 17.6012 9.75 17.5938C9.75 17.5938 9.61312 17.5799 9.55859 17.5045C9.33499 17.1955 7.91381 13.0669 7.91381 13.0669C7.46945 13.0499 4.9548 12.3098 4.56801 12.0237C4.42568 11.9184 4.342 11.7631 4.40893 11.5992C4.51304 11.3443 5.02783 11.1217 5.02783 11.1217C5.02783 11.1217 6.20169 10.655 6.95584 10.3611ZM8.81411 12.8329L9.75 15.7111C9.79646 14.8874 9.81054 14.2199 9.8195 14.1064C9.77503 13.9255 11.4801 12.3727 13.0454 10.9473C14.4038 9.71012 15.6569 8.56894 15.5693 8.504C15.5197 8.46722 14.5434 9.09984 13.301 9.90493C11.6702 10.9617 9.86851 12.3056 8.81411 12.8329Z" fill="black"/>
</svg>
