<svg  viewBox="0 0 24 24" fill="white" xmlns="http://www.w3.org/2000/svg">
<path d="M6.50008 17.5C6.50008 17.7566 6.58563 17.9803 6.75674 18.1661C6.94374 18.3372 7.16618 18.4227 7.42407 18.4227H8.32605V21.6249C8.32376 21.8061 8.35775 21.9859 8.42604 22.1538C8.49432 22.3217 8.59552 22.4742 8.72365 22.6023C8.85179 22.7304 9.00429 22.8316 9.17215 22.8999C9.34 22.9682 9.51983 23.0022 9.70104 22.9999C10.0873 22.9999 10.4099 22.8716 10.6678 22.6137C10.9404 22.3411 11.076 22.0111 11.076 21.6249V18.4227H12.924V21.6249C12.924 22.0111 13.0523 22.3411 13.3102 22.6137C13.5828 22.8703 13.9115 22.9999 14.299 22.9999C14.4802 23.0022 14.66 22.9682 14.8279 22.8999C14.9957 22.8316 15.1482 22.7304 15.2764 22.6023C15.4045 22.4742 15.5057 22.3217 15.574 22.1538C15.6423 21.9859 15.6763 21.8061 15.674 21.6249V18.4227H16.5759C16.8326 18.4227 17.0489 18.3372 17.22 18.1661C17.3097 18.0801 17.3808 17.9766 17.429 17.862C17.4771 17.7474 17.5013 17.6242 17.4999 17.5V8.32609H6.50008V17.5ZM4.20111 8.32609C3.82834 8.32609 3.5069 8.46176 3.23434 8.73431C3.10388 8.85902 3.00034 9.00915 2.93013 9.17542C2.85993 9.34169 2.82453 9.52059 2.82613 9.70107V16.125C2.82383 16.3062 2.85783 16.486 2.92611 16.6539C2.9944 16.8217 3.09559 16.9742 3.22373 17.1024C3.35187 17.2305 3.50436 17.3317 3.67222 17.4C3.84008 17.4683 4.01991 17.5023 4.20111 17.5C4.58733 17.5 4.90999 17.3716 5.16787 17.1137C5.44043 16.8412 5.57609 16.5112 5.57609 16.125V9.70107C5.57609 9.3283 5.44043 9.00686 5.16787 8.73553C5.04499 8.60261 4.89524 8.49736 4.72855 8.42677C4.56187 8.35618 4.38208 8.32186 4.20111 8.32609ZM19.7989 8.32609C19.6177 8.32379 19.4379 8.35779 19.27 8.42607C19.1021 8.49436 18.9497 8.59555 18.8215 8.72369C18.6934 8.85183 18.5922 9.00432 18.5239 9.17218C18.4556 9.34004 18.4216 9.51987 18.4239 9.70107V16.125C18.4239 16.5112 18.5522 16.8412 18.8101 17.1137C19.0827 17.3704 19.4115 17.5 19.7989 17.5C19.9801 17.5023 20.1599 17.4683 20.3278 17.4C20.4956 17.3317 20.6481 17.2305 20.7763 17.1024C20.9044 16.9742 21.0056 16.8217 21.0739 16.6539C21.1422 16.486 21.1762 16.3062 21.1739 16.125V9.70107C21.1739 9.3283 21.037 9.00686 20.7657 8.73553C20.6411 8.60484 20.491 8.50108 20.3247 8.43066C20.1584 8.36024 19.9795 8.32465 19.7989 8.32609ZM15.2425 2.9765L16.4244 1.79462C16.505 1.70677 16.5507 1.59242 16.5527 1.47318C16.554 1.34639 16.5083 1.22362 16.4244 1.12852C16.3822 1.08624 16.3318 1.05305 16.2763 1.03098C16.2208 1.00891 16.1614 0.998429 16.1017 1.00019C16.0422 0.998597 15.983 1.00916 15.9278 1.03122C15.8725 1.05329 15.8223 1.0864 15.7803 1.12852L14.4273 2.5035C13.6728 2.12819 12.8426 1.93005 12 1.92418C11.5551 1.92418 11.1261 1.97307 10.7106 2.07451C10.3097 2.17473 9.92959 2.31895 9.5727 2.5035L8.1965 1.12852C8.15446 1.0864 8.10428 1.05329 8.04901 1.03122C7.99374 1.00916 7.93455 0.998597 7.87506 1.00019C7.81537 0.998429 7.75595 1.00891 7.70045 1.03098C7.64496 1.05305 7.59458 1.08624 7.5524 1.12852C7.50511 1.17264 7.46737 1.22599 7.44151 1.28527C7.41565 1.34455 7.40223 1.40851 7.40207 1.47318C7.40416 1.53413 7.41855 1.59403 7.44439 1.64927C7.47022 1.70451 7.50696 1.75395 7.5524 1.79462L8.75627 2.9985C8.06417 3.49043 7.49732 4.13808 7.1014 4.88925C6.69806 5.67282 6.49167 6.54285 6.50008 7.4241H17.4999C17.4999 6.50745 17.2922 5.66168 16.8766 4.88925C16.49 4.13234 15.9306 3.47708 15.2437 2.9765H15.2425ZM10.1728 5.57613H9.24882V4.67414H10.1728V5.57613ZM14.7487 5.57613H13.8248V4.67414H14.7487V5.57613Z" fill="#A4C639"/>
</svg>
