<svg  viewBox="0 0 24 24" fill="white" xmlns="http://www.w3.org/2000/svg">
<path d="M11.9994 17.4863C11.2432 17.4863 10.5309 17.3488 9.86129 17.0738C9.20802 16.7937 8.61366 16.3924 8.10956 15.8913C7.60733 15.387 7.20517 14.7922 6.92432 14.1382C6.64932 13.4686 6.51183 12.7563 6.51183 12.0001C6.51183 11.2439 6.64932 10.5316 6.92432 9.862C7.21582 9.19238 7.61181 8.60801 8.10956 8.11026C8.60731 7.61252 9.19168 7.21652 9.86129 6.92503C10.5309 6.65003 11.2432 6.51253 11.9994 6.51253C12.7556 6.51253 13.4679 6.65003 14.1375 6.92503C14.8071 7.21652 15.3915 7.61252 15.8892 8.11026C16.387 8.60801 16.783 9.19238 17.0745 9.862C17.3495 10.5316 17.487 11.2439 17.487 12.0001C17.487 12.7563 17.3495 13.4686 17.0745 14.1382C16.783 14.8078 16.387 15.3922 15.8892 15.8899C15.3915 16.3877 14.8071 16.7837 14.1375 17.0752C13.4679 17.3502 12.7556 17.4877 11.9994 17.4877V17.4863ZM11.9994 15.8391C13.0636 15.8391 13.9656 15.4692 14.704 14.7308C15.4602 13.9746 15.8384 13.0643 15.8384 12.0001C15.8384 10.9359 15.4602 10.0339 14.704 9.2955C14.3566 8.9291 13.9367 8.63902 13.4711 8.44372C13.0054 8.24842 12.5042 8.15219 11.9994 8.16114C10.9352 8.16114 10.0249 8.53926 9.26867 9.2955C8.53031 10.0339 8.16044 10.9359 8.16044 12.0001C8.16044 13.0643 8.53031 13.9746 9.26867 14.7308C10.0249 15.4692 10.9352 15.8391 11.9994 15.8391ZM17.4856 7.59464C17.6289 7.59871 17.7716 7.57336 17.9047 7.52015C18.0378 7.46694 18.1587 7.387 18.2597 7.28527C18.3652 7.18606 18.4492 7.06633 18.5067 6.93344C18.5641 6.80055 18.5938 6.65731 18.5938 6.51253C18.5971 6.36725 18.569 6.22298 18.5113 6.0896C18.4537 5.95622 18.3678 5.83689 18.2597 5.73979C18.1626 5.63168 18.0433 5.54585 17.9099 5.48818C17.7765 5.43051 17.6322 5.40236 17.487 5.40566C17.1941 5.40566 16.937 5.51566 16.7142 5.73979C16.6127 5.84067 16.5328 5.96127 16.4796 6.09416C16.4264 6.22706 16.401 6.36943 16.4049 6.51253C16.4049 6.8054 16.508 7.06252 16.7142 7.28527C16.937 7.49152 17.1955 7.59464 17.487 7.59464H17.4856ZM8.70355 1.00021H15.298C16.3636 1.00021 17.3591 1.20645 18.2872 1.61895C19.2305 2.01357 20.0472 2.56357 20.7347 3.26756C21.4373 3.95505 21.9873 4.77042 22.3819 5.71504C22.7944 6.64178 23.0007 7.63727 23.0007 8.70288V15.2973C23.0007 16.3629 22.7944 17.3584 22.3819 18.2865C22.0001 19.2109 21.4399 20.051 20.7333 20.7588C20.0458 21.4463 19.2305 21.9866 18.2858 22.3813C17.3591 22.7938 16.3636 23 15.298 23H8.70218C7.63657 23 6.64108 22.7938 5.71433 22.3813C4.79417 22.0026 3.95465 21.4519 3.24073 20.7588C2.54763 20.0448 1.99697 19.2053 1.61825 18.2852C1.20326 17.3446 0.992381 16.3267 0.999503 15.2987V8.70288C0.999503 7.63727 1.20575 6.64178 1.61825 5.71504C2.01287 4.77042 2.55324 3.95505 3.24073 3.26756C3.94878 2.56031 4.78935 1.99962 5.71433 1.61758C6.65544 1.20287 7.67379 0.992457 8.70218 1.00021H8.70355ZM15.298 2.65019H8.70218C7.86069 2.65019 7.0797 2.81244 6.35783 3.13831C5.63554 3.43678 4.9791 3.87456 4.42597 4.42667C3.87598 4.97667 3.44698 5.62016 3.13761 6.35853C2.80793 7.09574 2.64097 7.89534 2.64811 8.70288V15.2973C2.64811 16.1388 2.81174 16.9198 3.13761 17.6417C3.43611 18.3639 3.87389 19.0204 4.42597 19.5735C4.97597 20.1235 5.61946 20.5525 6.35783 20.8619C7.09504 21.1916 7.89464 21.3585 8.70218 21.3514H15.2966C16.1381 21.3514 16.9191 21.1878 17.641 20.8619C18.3632 20.5634 19.0197 20.1256 19.5728 19.5735C20.1228 19.0235 20.5518 18.38 20.8612 17.6417C21.1909 16.9045 21.3578 16.1049 21.3507 15.2973V8.70288C21.3507 7.86139 21.1871 7.0804 20.8612 6.35853C20.5627 5.63626 20.1249 4.97983 19.5728 4.42667C19.0197 3.87459 18.3632 3.43681 17.641 3.13831C16.9038 2.80859 16.1042 2.64163 15.2966 2.64882L15.298 2.65019Z" fill="url(#paint0_radial_155_3715)"/>
<defs>
<radialGradient id="paint0_radial_155_3715" cx="0" cy="0" r="1" gradientUnits="userSpaceOnUse" gradientTransform="translate(0.999505 24.4479) rotate(-48.3348) scale(37.1546 58.1302)">
<stop stop-color="#F9ED32"/>
<stop offset="0.479" stop-color="#EE2A7B"/>
<stop offset="1" stop-color="#002AFF"/>
</radialGradient>
</defs>
</svg>
