<svg  viewBox="0 0 24 24" fill="white" xmlns="http://www.w3.org/2000/svg">
<path d="M20.7072 17.1516L20.6217 17.4095L20.5361 17.6674C20.2696 18.4008 19.9315 19.1062 19.5266 19.7733C19.135 20.4385 18.6894 21.0705 18.1944 21.6628C18.1065 21.7943 18.0058 21.9167 17.8937 22.0282C17.7935 22.1285 17.6859 22.2213 17.5723 22.3069C17.3538 22.5005 17.1074 22.66 16.8414 22.7799C16.5847 22.8948 16.3036 22.9583 16.0041 22.973C15.5547 22.9751 15.1093 22.8879 14.6939 22.7163C14.5396 22.6603 14.3886 22.5954 14.2417 22.522C14.0978 22.4504 13.9471 22.393 13.7919 22.3509C13.3123 22.168 12.8018 22.08 12.2886 22.0918C11.8009 22.1065 11.3145 22.214 10.8268 22.4145C10.6557 22.4866 10.4761 22.5575 10.2903 22.6296C10.1192 22.7005 9.93951 22.7726 9.75251 22.8447C9.55329 22.9156 9.34551 22.9669 9.1304 22.995C8.91529 23.0085 8.69407 22.995 8.46429 22.951C8.27758 22.9224 8.09653 22.8647 7.92774 22.7799C7.75786 22.6807 7.59306 22.573 7.43396 22.4572C7.24469 22.3118 7.06505 22.1542 6.89619 21.9855C6.73196 21.8053 6.57459 21.619 6.42441 21.4269C5.71414 20.5477 5.10872 19.5887 4.62042 18.5694C4.14479 17.5309 3.78413 16.4436 3.54487 15.3268C3.44587 14.8392 3.37376 14.3527 3.33098 13.8663C3.28829 13.3663 3.28135 12.8639 3.3102 12.3629C3.35064 11.7756 3.4439 11.1931 3.58887 10.6225C3.73187 10.0493 3.96164 9.50541 4.27575 8.98963C4.67664 8.34552 5.14964 7.8163 5.69353 7.40075C6.2658 6.96474 6.92527 6.6571 7.62707 6.49875C8.07074 6.38386 8.50707 6.34842 8.93729 6.3912C9.36629 6.43398 9.78917 6.5342 10.2047 6.69186L10.8488 6.94975L11.5357 7.20642C11.7362 7.29319 11.9366 7.33597 12.1383 7.33597C12.3387 7.33597 12.5392 7.29319 12.7396 7.20764L13.4265 6.94975C13.655 6.8642 13.8775 6.77864 14.0926 6.69309C14.3358 6.60631 14.5717 6.5342 14.8015 6.47675C15.0447 6.40586 15.2879 6.35453 15.5311 6.32642C15.9039 6.29831 16.2694 6.31298 16.6263 6.3692C16.9844 6.4132 17.3351 6.49142 17.6786 6.60631C18.6623 6.92834 19.5093 7.57138 20.0839 8.4323C20.0986 8.4323 20.1059 8.43841 20.1059 8.45308L20.1487 8.49586C19.3762 9.03974 18.7822 9.68507 18.3667 10.4294C17.9658 11.1591 17.7935 12.0183 17.8509 13.0071C17.923 13.9799 18.2017 14.811 18.6894 15.4979C19.1905 16.1714 19.8627 16.7226 20.7072 17.1516ZM12.0943 6.09053C12.5437 6.0928 12.9891 6.00554 13.4045 5.83387C14.3323 5.47493 15.1016 4.79666 15.5739 3.9211C16.0616 3.03377 16.2975 2.19533 16.2828 1.40822C16.2838 1.34325 16.2768 1.2784 16.262 1.21511V1C16.0822 1.02445 15.9028 1.05298 15.7243 1.08556C15.0227 1.25667 14.4006 1.55122 13.8555 1.96555C13.3263 2.36766 12.8899 2.88955 12.5453 3.53488C12.3314 3.90643 12.1664 4.30121 12.0515 4.71554C11.9509 5.12298 11.9219 5.54483 11.9659 5.9622C11.9659 6.01842 11.9733 6.05509 11.9867 6.06853C12.0204 6.08409 12.0572 6.09162 12.0943 6.09053Z" />
</svg>
